<?xml version="1.0" encoding="utf-8"?>
<!-- Generator: Adobe Illustrator 16.0.0, SVG Export Plug-In . SVG Version: 6.00 Build 0)  -->
<!DOCTYPE svg PUBLIC "-//W3C//DTD SVG 1.1//EN" "http://www.w3.org/Graphics/SVG/1.1/DTD/svg11.dtd">
<svg version="1.1" id="图层_1" xmlns="http://www.w3.org/2000/svg" xmlns:xlink="http://www.w3.org/1999/xlink" x="0px" y="0px"
	 width="512px" height="512px" viewBox="0 0 512 512" enable-background="new 0 0 512 512" xml:space="preserve">
<title></title>
<g id="icomoon-ignore">
</g>
<path fill="#FFFFFF" d="M512,256C512,114.615,397.385,0,256,0S0,114.615,0,256c0,110.027,69.418,203.832,166.843,240.034L160,512
	h192l-6.843-15.966C442.582,459.832,512,366.027,512,256z M243.395,317.413C231.991,312.52,224,301.195,224,288
	c0-17.673,14.327-32,32-32s32,14.327,32,32c0,13.195-7.989,24.521-19.393,29.417L256,288L243.395,317.413z M269.134,318.646
	C298.18,312.587,320,286.845,320,256c0-35.347-28.652-64-64-64c-35.347,0-64,28.653-64,64c0,30.846,21.831,56.561,50.88,62.614
	l-37.312,87.061C159.953,386.1,128,340.783,128,288c0-70.692,57.308-134,128-134c70.692,0,128,63.308,128,134
	c0,52.783-31.953,98.1-77.568,117.675L269.134,318.646z M344.224,493.854l-36.962-86.242C370.485,386.242,416,326.438,416,256
	c0-88.365-71.634-160-160-160S96,167.635,96,256c0,70.438,45.515,130.242,108.738,151.611l-36.962,86.242
	C87.979,459.61,32.083,380.337,32.083,288C32.083,164.334,132.334,58.083,256,58.083S479.917,164.334,479.917,288
	C479.917,380.337,424.021,459.61,344.224,493.854z"/>
</svg>
