<?xml version="1.0" encoding="utf-8"?>
<!-- Generator: Adobe Illustrator 16.0.0, SVG Export Plug-In . SVG Version: 6.00 Build 0)  -->
<!DOCTYPE svg PUBLIC "-//W3C//DTD SVG 1.1//EN" "http://www.w3.org/Graphics/SVG/1.1/DTD/svg11.dtd">
<svg version="1.1" id="图层_1" xmlns="http://www.w3.org/2000/svg" xmlns:xlink="http://www.w3.org/1999/xlink" x="0px" y="0px"
	 width="219.947px" height="87.29px" viewBox="0 0 219.947 87.29" enable-background="new 0 0 219.947 87.29" xml:space="preserve">
<g>
	<g>
		<path fill="#FFFFFF" d="M41.041,22.875h0.014c9.479,0,17.355,6.841,18.971,15.853c-2.662,5.092-10.25,8.97-19.337,9.33
			c-1.731,0.067-3.417,0.004-5.034-0.178c-0.533-2.17-0.826-4.513-0.826-6.955c0-6.733,2.208-12.706,5.616-16.437
			c-4.323,2.661-7.414,9.721-7.414,18.012c0,1.747,0.138,3.44,0.397,5.05c-1.218-0.227-2.382-0.521-3.484-0.876
			c-0.149-1.196-0.227-2.431-0.227-3.69C29.718,32.979,34.597,24.653,41.041,22.875L41.041,22.875z"/>
		<path fill="#FFFFFF" d="M49.176,44.504c-0.727,1.003-1.525,1.919-2.384,2.75c-1.922,0.442-3.972,0.72-6.104,0.805
			c-1.731,0.067-3.416,0.004-5.033-0.178c-0.533-2.17-0.826-4.513-0.826-6.955c0-6.733,2.209-12.706,5.616-16.437
			c-4.323,2.661-7.414,9.721-7.414,18.012c0,1.747,0.138,3.44,0.397,5.05c-1.217-0.227-2.382-0.521-3.483-0.876
			c-0.15-1.196-0.227-2.431-0.227-3.69c0-10.005,4.879-18.331,11.323-20.109c0.007,0,0.01,0,0.014,0
			c4.229,0,8.139,1.359,11.316,3.667C54.05,32.489,53.086,39.118,49.176,44.504L49.176,44.504z"/>
		<path fill="#FFFFFF" d="M48.899,44.303c-0.83,1.144-1.753,2.173-2.754,3.092c-1.733,0.359-3.563,0.59-5.457,0.665
			c-1.731,0.066-3.416,0.003-5.033-0.179c-0.533-2.17-0.826-4.512-0.826-6.955c0-6.732,2.209-12.706,5.616-16.436
			c-4.323,2.661-7.414,9.72-7.414,18.011c0,1.747,0.138,3.441,0.397,5.05c-1.217-0.227-2.382-0.521-3.483-0.876
			c-0.15-1.196-0.227-2.431-0.227-3.69c0-10.005,4.879-18.331,11.323-20.109c0.007,0,0.01,0,0.014,0
			c4.036,0,7.781,1.238,10.875,3.356C53.738,32.182,52.835,38.88,48.899,44.303L48.899,44.303z"/>
		<path fill="#FFFFFF" d="M48.621,44.1c-0.933,1.287-1.988,2.43-3.141,3.426c-1.533,0.285-3.138,0.468-4.792,0.533
			c-1.731,0.067-3.417,0.004-5.034-0.178c-0.533-2.17-0.826-4.513-0.826-6.955c0-6.733,2.208-12.706,5.616-16.437
			c-4.323,2.661-7.414,9.721-7.414,18.012c0,1.747,0.138,3.44,0.397,5.05c-1.218-0.227-2.382-0.521-3.484-0.876
			c-0.149-1.196-0.227-2.431-0.227-3.69c0-10.005,4.879-18.331,11.323-20.109c0.006,0,0.01,0,0.014,0
			c3.843,0,7.424,1.122,10.429,3.06C53.42,31.885,52.579,38.649,48.621,44.1L48.621,44.1z"/>
		<path fill="#FFFFFF" d="M48.344,43.898c-1.038,1.43-2.23,2.68-3.539,3.745c-1.328,0.217-2.705,0.358-4.117,0.415
			c-1.731,0.067-3.417,0.004-5.034-0.178c-0.533-2.171-0.826-4.513-0.826-6.955c0-6.733,2.208-12.706,5.616-16.437
			c-4.323,2.661-7.414,9.72-7.414,18.012c0,1.747,0.138,3.44,0.397,5.05c-1.218-0.227-2.382-0.521-3.484-0.876
			c-0.149-1.196-0.227-2.431-0.227-3.69c0-10.005,4.879-18.331,11.323-20.109c0.006,0,0.01,0,0.014,0
			c3.653,0,7.069,1.015,9.981,2.78C53.099,31.599,52.319,38.421,48.344,43.898L48.344,43.898z"/>
		<path fill="#FFFFFF" d="M48.067,43.695c-1.143,1.576-2.477,2.928-3.947,4.053c-1.114,0.157-2.262,0.264-3.432,0.311
			c-1.731,0.067-3.417,0.004-5.034-0.178c-0.533-2.171-0.826-4.513-0.826-6.955c0-6.733,2.208-12.706,5.616-16.437
			c-4.323,2.661-7.414,9.72-7.414,18.012c0,1.747,0.138,3.44,0.397,5.05c-1.218-0.227-2.382-0.521-3.484-0.876
			c-0.149-1.196-0.227-2.431-0.227-3.69c0-10.005,4.879-18.331,11.323-20.109c0.006,0,0.01,0,0.014,0c3.467,0,6.72,0.914,9.53,2.515
			C52.774,31.319,52.058,38.197,48.067,43.695L48.067,43.695z"/>
		<path fill="#FFFFFF" d="M47.79,43.493c-1.249,1.721-2.729,3.173-4.367,4.346c-0.894,0.108-1.806,0.183-2.735,0.22
			c-1.731,0.067-3.416,0.004-5.033-0.178c-0.533-2.17-0.826-4.513-0.826-6.955c0-6.733,2.209-12.706,5.616-16.437
			c-4.323,2.661-7.414,9.721-7.414,18.012c0,1.747,0.138,3.44,0.397,5.05c-1.217-0.227-2.382-0.521-3.483-0.876
			c-0.15-1.196-0.227-2.431-0.227-3.69c0-10.005,4.879-18.331,11.323-20.109c0.007,0,0.01,0,0.014,0
			c3.282,0,6.373,0.818,9.077,2.266C52.445,31.048,51.793,37.977,47.79,43.493L47.79,43.493z"/>
		<path fill="#FFFFFF" d="M47.512,43.29c-1.357,1.869-2.991,3.417-4.807,4.629c-0.662,0.064-1.336,0.112-2.017,0.14
			c-1.731,0.067-3.416,0.004-5.033-0.178c-0.533-2.171-0.826-4.513-0.826-6.955c0-6.733,2.209-12.706,5.616-16.437
			c-4.323,2.661-7.414,9.72-7.414,18.012c0,1.747,0.138,3.44,0.397,5.05c-1.217-0.227-2.382-0.521-3.483-0.876
			c-0.15-1.196-0.227-2.431-0.227-3.69c0-10.005,4.879-18.331,11.323-20.109c0.007,0,0.01,0,0.014,0c3.098,0,6.026,0.729,8.62,2.028
			C52.113,30.786,51.526,37.76,47.512,43.29L47.512,43.29z"/>
		<path fill="#FFFFFF" d="M47.234,43.087c-1.466,2.023-3.264,3.66-5.265,4.896c-0.423,0.032-0.851,0.059-1.281,0.075
			c-1.731,0.067-3.417,0.004-5.033-0.178c-0.533-2.17-0.826-4.513-0.826-6.955c0-6.733,2.208-12.706,5.616-16.437
			c-4.323,2.661-7.414,9.721-7.414,18.012c0,1.747,0.138,3.44,0.397,5.05c-1.218-0.227-2.382-0.521-3.484-0.876
			c-0.149-1.196-0.227-2.431-0.227-3.69c0-10.005,4.879-18.331,11.323-20.109c0.006,0,0.01,0,0.014,0
			c2.917,0,5.683,0.647,8.161,1.806C51.777,30.531,51.256,37.547,47.234,43.087L47.234,43.087z"/>
		<path fill="#FFFFFF" d="M46.957,42.886c-1.579,2.175-3.544,3.897-5.737,5.147c-0.176,0.009-0.354,0.019-0.531,0.025
			c-1.731,0.067-3.417,0.004-5.034-0.178c-0.533-2.17-0.826-4.513-0.826-6.955c0-6.733,2.208-12.706,5.616-16.437
			c-4.323,2.661-7.414,9.721-7.414,18.012c0,1.747,0.138,3.44,0.397,5.05c-1.218-0.227-2.382-0.521-3.484-0.876
			c-0.149-1.196-0.227-2.431-0.227-3.69c0-10.005,4.879-18.331,11.323-20.109c0.006,0,0.01,0,0.014,0
			c2.738,0,5.344,0.57,7.702,1.599C51.439,30.284,50.984,37.338,46.957,42.886L46.957,42.886z"/>
		<path fill="#FFFFFF" d="M46.679,42.685c-1.694,2.334-3.844,4.137-6.24,5.383c-1.643,0.051-3.245-0.014-4.785-0.187
			c-0.533-2.17-0.826-4.513-0.826-6.955c0-6.733,2.208-12.706,5.616-16.437c-4.323,2.661-7.414,9.721-7.414,18.012
			c0,1.747,0.138,3.44,0.397,5.05c-1.218-0.227-2.382-0.521-3.484-0.876c-0.149-1.196-0.227-2.431-0.227-3.69
			c0-10.005,4.879-18.331,11.323-20.109c0.006,0,0.01,0,0.014,0c2.561,0,5.005,0.497,7.239,1.403
			C51.096,30.047,50.709,37.133,46.679,42.685L46.679,42.685z"/>
		<path fill="#FFFFFF" d="M46.401,42.481c-1.813,2.499-4.16,4.378-6.771,5.601c-1.36,0.012-2.69-0.057-3.975-0.201
			c-0.533-2.17-0.826-4.513-0.826-6.955c0-6.733,2.208-12.706,5.616-16.437c-4.323,2.661-7.414,9.721-7.414,18.012
			c0,1.747,0.138,3.44,0.397,5.05c-1.218-0.227-2.382-0.521-3.484-0.876c-0.149-1.196-0.227-2.431-0.227-3.69
			c0-10.005,4.879-18.331,11.323-20.109c0.006,0,0.01,0,0.014,0c2.385,0,4.671,0.433,6.778,1.225
			C50.752,29.817,50.43,36.93,46.401,42.481L46.401,42.481z"/>
		<path fill="#FFFFFF" d="M46.124,42.278c-1.937,2.668-4.492,4.619-7.329,5.8c-1.07-0.017-2.119-0.081-3.14-0.197
			c-0.533-2.17-0.826-4.513-0.826-6.955c0-6.733,2.208-12.706,5.616-16.437c-4.323,2.661-7.414,9.721-7.414,18.012
			c0,1.747,0.138,3.44,0.397,5.05c-1.218-0.227-2.382-0.521-3.484-0.876c-0.149-1.196-0.227-2.431-0.227-3.69
			c0-10.005,4.879-18.331,11.323-20.109c0.006,0,0.01,0,0.014,0c2.212,0,4.336,0.37,6.314,1.056
			C50.405,29.593,50.151,36.73,46.124,42.278L46.124,42.278z"/>
		<path fill="#FFFFFF" d="M45.846,42.077c-2.065,2.845-4.849,4.86-7.922,5.977c-0.769-0.032-1.527-0.089-2.269-0.173
			c-0.533-2.17-0.826-4.513-0.826-6.955c0-6.733,2.208-12.706,5.616-16.437c-4.323,2.661-7.414,9.721-7.414,18.012
			c0,1.747,0.138,3.44,0.397,5.05c-1.218-0.227-2.382-0.521-3.484-0.876c-0.149-1.196-0.227-2.431-0.227-3.69
			c0-10.005,4.879-18.331,11.323-20.109c0.006,0,0.01,0,0.014,0c2.039,0,4.005,0.315,5.849,0.902
			C50.053,29.378,49.868,36.537,45.846,42.077L45.846,42.077z"/>
		<path fill="#FFFFFF" d="M45.569,41.873c-2.203,3.036-5.239,5.105-8.569,6.129c-0.453-0.032-0.902-0.072-1.345-0.121
			c-0.533-2.17-0.826-4.513-0.826-6.955c0-6.733,2.208-12.706,5.616-16.437c-4.323,2.661-7.414,9.721-7.414,18.012
			c0,1.747,0.138,3.44,0.397,5.05c-1.218-0.227-2.382-0.521-3.484-0.876c-0.149-1.196-0.227-2.431-0.227-3.69
			c0-10.005,4.879-18.331,11.323-20.109c0.006,0,0.01,0,0.014,0c1.868,0,3.675,0.264,5.383,0.759
			C49.699,29.169,49.583,36.343,45.569,41.873L45.569,41.873z"/>
		<path fill="#FFFFFF" d="M45.291,41.67c-2.349,3.239-5.664,5.356-9.263,6.249c-0.125-0.012-0.249-0.022-0.374-0.038
			c-0.533-2.17-0.826-4.513-0.826-6.955c0-6.733,2.208-12.706,5.616-16.437c-4.323,2.661-7.414,9.721-7.414,18.012
			c0,1.747,0.138,3.44,0.397,5.05c-1.218-0.227-2.382-0.521-3.484-0.876c-0.149-1.196-0.227-2.431-0.227-3.69
			c0-10.005,4.879-18.331,11.323-20.109c0.006,0,0.01,0,0.014,0c1.699,0,3.348,0.22,4.917,0.632
			C49.344,28.97,49.296,36.153,45.291,41.67L45.291,41.67z"/>
		<path fill="#FFFFFF" d="M45.014,41.469c-2.375,3.271-5.753,5.375-9.408,6.201c-0.5-2.111-0.776-4.38-0.776-6.744
			c0-6.733,2.208-12.706,5.616-16.437c-4.323,2.661-7.414,9.721-7.414,18.012c0,1.747,0.138,3.44,0.397,5.05
			c-1.218-0.227-2.382-0.521-3.484-0.876c-0.149-1.196-0.227-2.431-0.227-3.69c0-10.005,4.879-18.331,11.323-20.109
			c0.006,0,0.01,0,0.014,0c1.532,0,3.023,0.178,4.45,0.514C48.986,28.776,49.007,35.969,45.014,41.469L45.014,41.469z"/>
		<path fill="#FFFFFF" d="M44.737,41.268c-2.324,3.2-5.63,5.262-9.207,6.072c-0.453-2.018-0.702-4.173-0.702-6.414
			c0-6.733,2.209-12.706,5.616-16.437c-4.323,2.661-7.414,9.721-7.414,18.012c0,1.747,0.138,3.44,0.397,5.05
			c-1.217-0.227-2.382-0.521-3.483-0.876c-0.15-1.196-0.227-2.431-0.227-3.69c0-10.005,4.879-18.331,11.323-20.109
			c0.007,0,0.01,0,0.014,0c1.366,0,2.7,0.14,3.985,0.41C48.626,28.59,48.715,35.785,44.737,41.268L44.737,41.268z"/>
		<path fill="#FFFFFF" d="M44.46,41.064c-2.272,3.13-5.507,5.147-9.003,5.943c-0.406-1.922-0.627-3.962-0.627-6.082
			c0-6.733,2.208-12.706,5.616-16.437c-4.323,2.661-7.414,9.721-7.414,18.012c0,1.669,0.127,3.287,0.363,4.831
			c-0.267,0.025-0.534,0.04-0.8,0.05c-0.917-0.197-1.803-0.434-2.65-0.707c-0.149-1.196-0.227-2.431-0.227-3.69
			c0-10.005,4.879-18.332,11.323-20.109c0.006,0,0.01,0,0.014,0c1.203,0,2.38,0.11,3.521,0.319
			C48.264,28.411,48.421,35.606,44.46,41.064L44.46,41.064z"/>
		<path fill="#FFFFFF" d="M44.182,40.861c-2.219,3.06-5.378,5.033-8.792,5.813c-0.363-1.823-0.56-3.753-0.56-5.749
			c0-6.732,2.208-12.706,5.616-16.436c-4.323,2.661-7.414,9.72-7.414,18.011c0,1.549,0.11,3.054,0.314,4.497
			c-0.729,0.064-1.463,0.076-2.196,0.032c-0.41-0.11-0.811-0.229-1.205-0.355c-0.149-1.196-0.227-2.431-0.227-3.69
			c0-10.005,4.879-18.331,11.323-20.109c0.006,0,0.01,0,0.014,0c1.038,0,2.058,0.08,3.052,0.239
			C47.899,28.238,48.125,35.43,44.182,40.861L44.182,40.861z"/>
		<path fill="#FFFFFF" d="M43.904,40.66c-2.167,2.985-5.247,4.913-8.58,5.681c-0.321-1.725-0.495-3.539-0.495-5.415
			c0-6.732,2.208-12.706,5.616-16.436c-4.323,2.661-7.414,9.72-7.414,18.011c0,1.43,0.094,2.82,0.269,4.161
			c-1.117,0.099-2.247,0.07-3.367-0.092c-0.142-1.163-0.215-2.36-0.215-3.586c0-10.005,4.879-18.331,11.323-20.109
			c0.006,0,0.01,0,0.014,0c0.876,0,1.739,0.057,2.584,0.171C47.531,28.074,47.827,35.255,43.904,40.66L43.904,40.66z"/>
		<path fill="#FFFFFF" d="M43.627,40.457c-2.113,2.913-5.115,4.793-8.362,5.55c-0.283-1.626-0.436-3.326-0.436-5.081
			c0-6.732,2.208-12.706,5.616-16.437c-4.323,2.661-7.414,9.721-7.414,18.012c0,1.311,0.079,2.589,0.226,3.826
			c-1.116,0.098-2.245,0.064-3.363-0.101c-0.116-1.056-0.176-2.139-0.176-3.242c0-10.005,4.879-18.331,11.323-20.109
			c0.006,0,0.01,0,0.014,0c0.716,0,1.423,0.038,2.119,0.113C47.162,27.914,47.527,35.084,43.627,40.457L43.627,40.457z"/>
		<path fill="#FFFFFF" d="M43.351,40.255c-2.059,2.835-4.979,4.672-8.142,5.415c-0.247-1.522-0.379-3.109-0.379-4.744
			c0-6.733,2.208-12.706,5.616-16.437c-4.323,2.661-7.414,9.72-7.414,18.012c0,1.191,0.065,2.355,0.189,3.488
			c-1.116,0.099-2.245,0.064-3.362-0.106c-0.092-0.948-0.141-1.914-0.141-2.898c0-10.005,4.879-18.332,11.323-20.109
			c0.006,0,0.01,0,0.014,0c0.558,0,1.109,0.022,1.655,0.07C46.792,27.764,47.225,34.917,43.351,40.255L43.351,40.255z"/>
		<path fill="#FFFFFF" d="M43.072,40.053c-2.003,2.76-4.842,4.55-7.917,5.279c-0.212-1.419-0.326-2.893-0.326-4.406
			c0-6.733,2.208-12.706,5.616-16.437c-4.323,2.661-7.414,9.721-7.414,18.012c0,1.075,0.053,2.126,0.153,3.152
			c-1.114,0.099-2.243,0.062-3.358-0.114c-0.071-0.837-0.109-1.688-0.109-2.555c0-10.005,4.879-18.331,11.323-20.109
			c0.006,0,0.01,0,0.014,0c0.399,0,0.796,0.011,1.188,0.036C46.419,27.616,46.921,34.751,43.072,40.053L43.072,40.053z"/>
		<path fill="#FFFFFF" d="M42.794,39.851c-1.945,2.682-4.7,4.425-7.687,5.146c-0.181-1.316-0.278-2.677-0.278-4.07
			c0-6.733,2.208-12.706,5.616-16.437c-4.323,2.661-7.414,9.721-7.414,18.012c0,0.957,0.042,1.896,0.123,2.816
			c-1.113,0.099-2.24,0.059-3.354-0.124c-0.054-0.726-0.083-1.46-0.083-2.209c0-10.005,4.879-18.331,11.323-20.109
			c0.006,0,0.01,0,0.014,0c0.242,0,0.483,0.004,0.723,0.013C46.044,27.477,46.614,34.588,42.794,39.851L42.794,39.851z"/>
		<path fill="#FFFFFF" d="M42.517,39.648c-1.889,2.604-4.558,4.301-7.455,5.009c-0.152-1.211-0.233-2.457-0.233-3.731
			c0-6.733,2.208-12.706,5.616-16.437c-4.323,2.661-7.414,9.721-7.414,18.012c0,0.839,0.033,1.667,0.095,2.478
			c-1.112,0.101-2.238,0.06-3.351-0.127c-0.038-0.615-0.057-1.236-0.057-1.867c0-10.005,4.879-18.331,11.323-20.109
			c0.006,0,0.01,0,0.014,0c0.086,0,0.174,0.001,0.26,0.001C45.667,27.344,46.306,34.428,42.517,39.648L42.517,39.648z"/>
		<path fill="#FFFFFF" d="M42.24,39.444c-1.831,2.522-4.414,4.175-7.218,4.872c-0.126-1.104-0.192-2.233-0.192-3.391
			c0-6.732,2.208-12.706,5.616-16.437c-4.323,2.661-7.414,9.721-7.414,18.012c0,0.724,0.024,1.438,0.071,2.141
			c-1.11,0.103-2.235,0.061-3.345-0.133c-0.025-0.504-0.039-1.011-0.039-1.524c0-9.929,4.806-18.202,11.175-20.067
			C45.294,27.262,45.983,34.286,42.24,39.444L42.24,39.444z"/>
		<path fill="#FFFFFF" d="M41.962,39.243c-1.772,2.441-4.268,4.045-6.978,4.734c-0.102-0.996-0.155-2.014-0.155-3.051
			c0-6.733,2.208-12.706,5.616-16.437c-4.323,2.661-7.414,9.721-7.414,18.012c0,0.607,0.018,1.207,0.051,1.802
			c-1.108,0.104-2.232,0.061-3.34-0.137c-0.015-0.392-0.024-0.784-0.024-1.182c0-9.741,4.626-17.891,10.817-19.956
			C44.925,27.253,45.641,34.172,41.962,39.243L41.962,39.243z"/>
		<path fill="#FFFFFF" d="M41.685,39.04c-1.712,2.358-4.118,3.916-6.734,4.595c-0.081-0.888-0.123-1.79-0.123-2.709
			c0-6.733,2.209-12.706,5.616-16.437c-4.323,2.661-7.414,9.721-7.414,18.012c0,0.493,0.012,0.981,0.034,1.465
			c-1.106,0.107-2.229,0.062-3.334-0.14c-0.008-0.279-0.013-0.559-0.013-0.842c0-9.559,4.455-17.585,10.472-19.834
			C44.561,27.253,45.298,34.064,41.685,39.04L41.685,39.04z"/>
		<path fill="#FFFFFF" d="M41.407,38.836c-1.651,2.275-3.964,3.782-6.484,4.452c-0.061-0.776-0.094-1.563-0.094-2.362
			c0-6.733,2.208-12.706,5.616-16.437c-4.323,2.661-7.414,9.721-7.414,18.012c0,0.378,0.007,0.751,0.02,1.126
			c-1.104,0.107-2.225,0.062-3.329-0.145c-0.002-0.165-0.004-0.33-0.004-0.498c0-9.378,4.289-17.283,10.131-19.701
			C44.191,27.264,44.95,33.956,41.407,38.836L41.407,38.836z"/>
		<path fill="#FFFFFF" d="M41.13,38.635c-1.59,2.19-3.81,3.649-6.232,4.307c-0.045-0.662-0.068-1.335-0.068-2.017
			c0-6.733,2.208-12.706,5.616-16.437c-4.323,2.661-7.414,9.721-7.414,18.012c0,0.263,0.003,0.525,0.01,0.787
			c-1.103,0.112-2.221,0.065-3.322-0.146c-0.001-0.053-0.002-0.104-0.002-0.158c0-9.201,4.128-16.983,9.801-19.557
			C43.825,27.287,44.6,33.854,41.13,38.635L41.13,38.635z"/>
		<path fill="#FFFFFF" d="M40.851,38.432c-1.526,2.104-3.653,3.513-5.975,4.164c-0.031-0.551-0.047-1.107-0.047-1.67
			c0-6.625,2.139-12.515,5.453-16.254C43.569,28.482,43.936,34.184,40.851,38.432L40.851,38.432z M33.035,42.949
			c-1.099,0.115-2.217,0.067-3.315-0.148c0.053-8.946,4.008-16.521,9.478-19.221c0.374,0.326,0.722,0.674,1.042,1.041
			c-4.215,2.756-7.208,9.722-7.208,17.88C33.031,42.65,33.032,42.799,33.035,42.949L33.035,42.949z"/>
		<path fill="#FFFFFF" d="M40.574,38.231c-1.463,2.017-3.494,3.375-5.715,4.017c-0.019-0.438-0.03-0.878-0.03-1.322
			c0-6.478,2.046-12.254,5.235-16.003C43.215,28.621,43.554,34.127,40.574,38.231L40.574,38.231z M33.032,42.61
			c-1.097,0.12-2.214,0.072-3.309-0.147c0.147-8.629,3.923-15.93,9.162-18.722c0.389,0.333,0.749,0.689,1.08,1.065
			c-4.069,2.876-6.934,9.715-6.934,17.694C33.031,42.536,33.032,42.572,33.032,42.61L33.032,42.61z"/>
		<path fill="#FFFFFF" d="M40.297,38.027c-1.399,1.928-3.333,3.236-5.451,3.869c-0.01-0.322-0.017-0.644-0.017-0.971
			c0-6.332,1.954-11.992,5.021-15.747C42.86,28.765,43.172,34.067,40.297,38.027L40.297,38.027z M33.032,42.269
			c-1.094,0.123-2.208,0.078-3.301-0.146c0.234-8.313,3.838-15.342,8.849-18.212c0.404,0.34,0.776,0.705,1.117,1.094
			C35.81,27.954,33.086,34.565,33.032,42.269L33.032,42.269z"/>
		<path fill="#FFFFFF" d="M40.021,37.827c-1.334,1.838-3.17,3.093-5.184,3.716c-0.004-0.205-0.007-0.41-0.007-0.617
			c0-6.186,1.866-11.731,4.811-15.482C42.507,28.915,42.788,34.013,40.021,37.827L40.021,37.827z M33.037,41.927
			c-1.09,0.131-2.204,0.086-3.293-0.145c0.315-7.998,3.75-14.761,8.539-17.695c0.42,0.348,0.806,0.722,1.157,1.118
			C35.746,28.205,33.164,34.541,33.037,41.927L33.037,41.927z"/>
		<path fill="#FFFFFF" d="M39.743,37.623c-1.269,1.747-3.004,2.95-4.912,3.564c0-0.087-0.002-0.174-0.002-0.262
			c0-6.039,1.779-11.469,4.604-15.214C42.153,29.07,42.403,33.959,39.743,37.623L39.743,37.623z M33.044,41.585
			c-1.087,0.137-2.2,0.093-3.287-0.141c0.389-7.688,3.664-14.191,8.232-17.173c0.437,0.354,0.836,0.737,1.195,1.147
			C35.686,28.447,33.24,34.514,33.044,41.585L33.044,41.585z"/>
		<path fill="#FFFFFF" d="M39.466,37.422c-1.201,1.654-2.835,2.803-4.636,3.409c0.018-5.857,1.708-11.132,4.399-14.845
			C41.799,29.229,42.016,33.91,39.466,37.422L39.466,37.422z M33.056,41.243c-1.085,0.145-2.195,0.103-3.279-0.136
			c0.456-7.381,3.576-13.628,7.93-16.646c0.453,0.361,0.865,0.753,1.233,1.175C35.626,28.683,33.312,34.486,33.056,41.243
			L33.056,41.243z"/>
		<path fill="#FFFFFF" d="M39.188,37.219c-1.132,1.559-2.665,2.655-4.355,3.25c0.083-5.565,1.677-10.583,4.198-14.201
			C41.445,29.395,41.625,33.859,39.188,37.219L39.188,37.219z M33.07,40.897c-1.081,0.153-2.19,0.114-3.27-0.127
			c0.518-7.079,3.486-13.073,7.629-16.112c0.469,0.366,0.893,0.771,1.271,1.204C35.571,28.909,33.383,34.451,33.07,40.897
			L33.07,40.897z"/>
		<path fill="#FFFFFF" d="M38.91,37.015c-1.062,1.464-2.491,2.505-4.07,3.088c0.143-5.274,1.641-10.036,3.994-13.549
			C41.091,29.566,41.237,33.811,38.91,37.015L38.91,37.015z M33.09,40.554c-1.078,0.161-2.185,0.125-3.264-0.12
			c0.573-6.777,3.398-12.524,7.334-15.572c0.485,0.374,0.921,0.788,1.307,1.236C35.518,29.131,33.454,34.415,33.09,40.554
			L33.09,40.554z"/>
		<path fill="#FFFFFF" d="M38.632,36.814c-0.993,1.368-2.314,2.35-3.78,2.919c0.195-4.981,1.601-9.485,3.788-12.882
			C40.735,29.741,40.844,33.767,38.632,36.814L38.632,36.814z M33.111,40.208c-1.073,0.173-2.179,0.138-3.254-0.108
			c0.621-6.48,3.306-11.982,7.04-15.027c0.502,0.38,0.951,0.806,1.343,1.268C35.466,29.348,33.519,34.375,33.111,40.208
			L33.111,40.208z"/>
		<path fill="#FFFFFF" d="M38.354,36.61c-0.92,1.27-2.135,2.192-3.485,2.749c0.24-4.687,1.555-8.933,3.58-12.207
			C40.379,29.923,40.45,33.724,38.354,36.61L38.354,36.61z M33.139,39.858c-1.069,0.182-2.176,0.156-3.249-0.095
			c0.664-6.186,3.212-11.449,6.75-14.478c0.519,0.39,0.979,0.825,1.377,1.301C35.417,29.557,33.586,34.33,33.139,39.858
			L33.139,39.858z"/>
		<path fill="#FFFFFF" d="M38.078,36.41c-0.847,1.166-1.955,2.028-3.186,2.567c0.282-4.389,1.506-8.375,3.369-11.515
			C40.023,30.111,40.056,33.684,38.078,36.41L38.078,36.41z M33.168,39.507c-1.065,0.198-2.17,0.177-3.24-0.077
			c0.702-5.896,3.118-10.921,6.462-13.924c0.535,0.395,1.006,0.843,1.41,1.335C35.37,29.76,33.648,34.284,33.168,39.507
			L33.168,39.507z"/>
		<path fill="#FFFFFF" d="M37.8,36.206c-0.771,1.063-1.77,1.863-2.881,2.384c0.316-4.087,1.45-7.812,3.155-10.805
			C39.665,30.305,39.659,33.646,37.8,36.206L37.8,36.206z M33.203,39.156c-1.06,0.211-2.165,0.198-3.233-0.059
			c0.732-5.606,3.021-10.398,6.176-13.367c0.552,0.402,1.034,0.866,1.442,1.373C35.324,29.959,33.712,34.233,33.203,39.156
			L33.203,39.156z"/>
		<path fill="#FFFFFF" d="M37.523,36.005c-0.695,0.957-1.582,1.69-2.571,2.189c0.343-3.783,1.389-7.24,2.935-10.075
			C39.305,30.508,39.259,33.614,37.523,36.005L37.523,36.005z M33.242,38.8c-1.055,0.23-2.16,0.222-3.226-0.036
			c0.758-5.322,2.921-9.884,5.891-12.805c0.007,0.005,0.015,0.011,0.022,0.018c0.559,0.406,1.044,0.875,1.449,1.396
			C35.278,30.155,33.772,34.18,33.242,38.8L33.242,38.8z"/>
		<path fill="#FFFFFF" d="M37.246,35.802c-0.616,0.849-1.39,1.514-2.252,1.985c0.362-3.472,1.319-6.657,2.71-9.322
			C38.944,30.719,38.857,33.581,37.246,35.802L37.246,35.802z M33.285,38.441c-1.051,0.249-2.156,0.251-3.221-0.009
			c0.778-5.041,2.821-9.375,5.61-12.239c0.017,0.012,0.033,0.023,0.05,0.036c0.565,0.41,1.05,0.889,1.45,1.421
			C35.235,30.343,33.833,34.121,33.285,38.441L33.285,38.441z"/>
		<path fill="#FFFFFF" d="M36.968,35.599c-0.535,0.737-1.194,1.327-1.928,1.768c0.376-3.154,1.242-6.06,2.478-8.538
			C38.578,30.939,38.452,33.555,36.968,35.599L36.968,35.599z M33.333,38.081c-1.043,0.27-2.151,0.283-3.215,0.021
			c0.792-4.764,2.718-8.872,5.33-11.671c0.023,0.017,0.047,0.034,0.071,0.051c0.574,0.416,1.061,0.908,1.455,1.454
			C35.191,30.529,33.891,34.06,33.333,38.081L33.333,38.081z"/>
		<path fill="#FFFFFF" d="M36.69,35.397c-0.449,0.619-0.991,1.13-1.594,1.529c0.38-2.824,1.155-5.438,2.235-7.713
			C38.208,31.171,38.042,33.536,36.69,35.397L36.69,35.397z M33.386,37.714c-1.038,0.296-2.147,0.323-3.211,0.058
			c0.8-4.487,2.611-8.374,5.051-11.099c0.029,0.021,0.059,0.042,0.088,0.062c0.584,0.425,1.073,0.931,1.462,1.493
			C35.149,30.713,33.947,33.994,33.386,37.714L33.386,37.714z"/>
		<path fill="#FFFFFF" d="M36.413,35.196c-0.361,0.496-0.783,0.918-1.25,1.265c0.374-2.477,1.054-4.787,1.977-6.836
			C37.832,31.422,37.626,33.522,36.413,35.196L36.413,35.196z M33.445,37.34c-1.031,0.326-2.145,0.37-3.21,0.104
			c0.805-4.216,2.503-7.882,4.775-10.523c0.033,0.022,0.065,0.045,0.099,0.07c0.598,0.433,1.092,0.959,1.473,1.542
			C35.107,30.892,34.004,33.923,33.445,37.34L33.445,37.34z"/>
		<path fill="#FFFFFF" d="M36.135,34.993c-0.265,0.364-0.565,0.685-0.893,0.965c0.357-2.109,0.937-4.089,1.7-5.882
			C37.446,31.691,37.207,33.517,36.135,34.993L36.135,34.993z M33.51,36.958c-1.022,0.362-2.143,0.423-3.21,0.158
			c0.802-3.949,2.393-7.396,4.5-9.947c0.036,0.023,0.07,0.049,0.104,0.074c0.615,0.447,1.113,0.995,1.484,1.607
			C35.064,31.07,34.061,33.847,33.51,36.958L33.51,36.958z"/>
		<path fill="#FFFFFF" d="M35.858,34.789c-0.16,0.218-0.331,0.422-0.515,0.606c0.323-1.702,0.792-3.314,1.387-4.805
			C37.042,31.998,36.773,33.53,35.858,34.789L35.858,34.789z M33.581,36.567c-1.014,0.406-2.141,0.49-3.213,0.222
			c0.794-3.684,2.277-6.917,4.227-9.367c0.035,0.023,0.069,0.049,0.104,0.074c0.636,0.461,1.139,1.039,1.497,1.685
			C35.021,31.247,34.117,33.765,33.581,36.567L33.581,36.567z"/>
		<path fill="#FFFFFF" d="M35.58,34.588c-0.032,0.043-0.064,0.087-0.098,0.131c0.263-1.222,0.602-2.392,1.007-3.501
			C36.606,32.373,36.314,33.576,35.58,34.588L35.58,34.588z M33.663,36.161c-1.003,0.458-2.142,0.572-3.222,0.304
			c0.782-3.422,2.161-6.442,3.953-8.786c0.035,0.023,0.067,0.047,0.1,0.072c0.662,0.479,1.169,1.094,1.509,1.778
			C34.978,31.424,34.174,33.674,33.663,36.161L33.663,36.161z"/>
		<path fill="#FFFFFF" d="M33.753,35.735c-0.987,0.524-2.145,0.672-3.237,0.404c0.763-3.164,2.04-5.971,3.683-8.201
			c0.03,0.021,0.059,0.043,0.089,0.064c0.694,0.503,1.206,1.164,1.519,1.898C34.932,31.606,34.232,33.578,33.753,35.735
			L33.753,35.735z M36.147,32.226c-0.057,0.494-0.195,0.984-0.418,1.449C35.855,33.18,35.996,32.698,36.147,32.226L36.147,32.226z"
			/>
		<path fill="#FFFFFF" d="M33.859,35.275c-0.968,0.612-2.149,0.807-3.262,0.539c0.739-2.909,1.917-5.503,3.411-7.611
			c0.025,0.017,0.05,0.036,0.075,0.053c0.733,0.534,1.248,1.253,1.521,2.051C34.885,31.79,34.292,33.464,33.859,35.275
			L33.859,35.275z"/>
		<path fill="#FFFFFF" d="M33.985,34.771c-0.938,0.73-2.161,0.991-3.305,0.722c0.71-2.657,1.789-5.042,3.142-7.021
			c0.019,0.013,0.038,0.026,0.056,0.04c0.787,0.57,1.3,1.379,1.511,2.255C34.83,31.99,34.358,33.333,33.985,34.771L33.985,34.771z"
			/>
		<path fill="#FFFFFF" d="M34.151,34.159c-0.884,0.919-2.178,1.286-3.382,1.012c0.677-2.41,1.659-4.588,2.873-6.431
			c0.01,0.007,0.021,0.015,0.033,0.024c0.867,0.63,1.372,1.575,1.465,2.566C34.766,32.22,34.435,33.166,34.151,34.159L34.151,34.159
			z"/>
		<path fill="#FFFFFF" d="M34.192,33.576c-0.783,1.081-2.104,1.537-3.33,1.271c0.638-2.164,1.523-4.133,2.602-5.833
			c0.002,0.002,0.003,0.002,0.005,0.004c1.073,0.778,1.534,2.089,1.28,3.309c-0.097,0.26-0.19,0.526-0.278,0.794
			C34.392,33.277,34.299,33.43,34.192,33.576L34.192,33.576z"/>
		<path fill="#FFFFFF" d="M33.915,33.373c-0.696,0.961-1.864,1.373-2.956,1.153c0.595-1.922,1.385-3.687,2.333-5.234
			C34.58,30.248,34.862,32.069,33.915,33.373L33.915,33.373z"/>
		<path fill="#FFFFFF" d="M33.638,33.171c-0.608,0.84-1.622,1.208-2.578,1.035c0.545-1.684,1.241-3.242,2.063-4.636
			C34.236,30.431,34.47,32.025,33.638,33.171L33.638,33.171z"/>
		<path fill="#FFFFFF" d="M33.361,32.968c-0.52,0.716-1.376,1.041-2.195,0.915c0.49-1.449,1.092-2.799,1.791-4.028
			C33.891,30.617,34.077,31.982,33.361,32.968L33.361,32.968z"/>
		<path fill="#FFFFFF" d="M33.083,32.767c-0.429,0.59-1.126,0.87-1.804,0.792c0.429-1.213,0.938-2.357,1.517-3.413
			C33.545,30.807,33.682,31.943,33.083,32.767L33.083,32.767z"/>
		<path fill="#FFFFFF" d="M32.806,32.563c-0.338,0.466-0.875,0.699-1.409,0.668c0.362-0.979,0.775-1.912,1.238-2.788
			C33.198,31.002,33.285,31.903,32.806,32.563L32.806,32.563z"/>
		<path fill="#FFFFFF" d="M32.529,32.36c-0.245,0.338-0.619,0.521-1.006,0.538c0.288-0.745,0.605-1.461,0.952-2.143
			C32.85,31.204,32.888,31.867,32.529,32.36L32.529,32.36z"/>
		<path fill="#FFFFFF" d="M32.25,32.16c-0.147,0.204-0.358,0.333-0.587,0.38c0.202-0.498,0.416-0.98,0.644-1.449
			C32.495,31.417,32.485,31.836,32.25,32.16L32.25,32.16z"/>
		<path fill="#FFFFFF" d="M31.974,31.956c-0.035,0.049-0.075,0.089-0.119,0.124c0.079-0.185,0.16-0.367,0.243-0.547
			C32.107,31.679,32.066,31.828,31.974,31.956L31.974,31.956z"/>
	</g>
	<g>
		<path fill="#FFFFFF" d="M34.455,51.835c-0.305-0.925-0.565-1.896-0.773-2.911c-1.269-0.279-2.461-0.631-3.564-1.047
			c0.165,0.997,0.381,1.964,0.642,2.896C31.923,51.199,33.161,51.553,34.455,51.835L34.455,51.835z"/>
		<path fill="#FFFFFF" d="M34.455,51.835c-0.305-0.925-0.565-1.896-0.773-2.911c-1.269-0.279-2.461-0.631-3.564-1.047
			c0.165,0.997,0.381,1.964,0.642,2.896C31.923,51.199,33.161,51.553,34.455,51.835L34.455,51.835z"/>
		<path fill="#FFFFFF" d="M34.455,51.835c-0.305-0.925-0.565-1.896-0.773-2.911c-1.269-0.279-2.461-0.631-3.564-1.047
			c0.165,0.997,0.381,1.964,0.642,2.896C31.923,51.199,33.161,51.553,34.455,51.835L34.455,51.835z"/>
		<path fill="#FFFFFF" d="M34.455,51.835c-0.305-0.925-0.565-1.896-0.773-2.911c-1.269-0.279-2.461-0.631-3.564-1.047
			c0.165,0.997,0.381,1.964,0.642,2.896C31.923,51.199,33.161,51.553,34.455,51.835L34.455,51.835z"/>
		<path fill="#FFFFFF" d="M34.455,51.835c-0.305-0.925-0.565-1.896-0.773-2.911c-1.269-0.279-2.461-0.631-3.564-1.047
			c0.165,0.997,0.381,1.964,0.642,2.896C31.923,51.199,33.161,51.553,34.455,51.835L34.455,51.835z"/>
		<path fill="#FFFFFF" d="M34.396,51.652c-0.171,0.02-0.342,0.037-0.515,0.052c-1.086-0.261-2.132-0.568-3.122-0.931
			c-0.261-0.933-0.477-1.898-0.642-2.896c1.103,0.416,2.295,0.768,3.564,1.047C33.876,49.871,34.117,50.781,34.396,51.652
			L34.396,51.652z"/>
		<path fill="#FFFFFF" d="M34.294,51.324c-0.493,0.054-0.987,0.088-1.482,0.103c-0.706-0.193-1.391-0.412-2.052-0.653
			c-0.261-0.933-0.477-1.899-0.642-2.896c1.103,0.416,2.295,0.768,3.564,1.047C33.852,49.754,34.059,50.551,34.294,51.324
			L34.294,51.324z"/>
		<path fill="#FFFFFF" d="M34.195,50.993c-0.828,0.088-1.663,0.12-2.499,0.1c-0.317-0.103-0.629-0.207-0.937-0.319
			c-0.261-0.933-0.477-1.899-0.642-2.896c1.103,0.416,2.295,0.768,3.564,1.047C33.827,49.637,34.001,50.325,34.195,50.993
			L34.195,50.993z"/>
		<path fill="#FFFFFF" d="M34.102,50.661c-1.114,0.118-2.237,0.132-3.36,0.046c-0.252-0.911-0.463-1.855-0.625-2.83
			c1.103,0.416,2.295,0.768,3.564,1.047C33.803,49.518,33.945,50.098,34.102,50.661L34.102,50.661z"/>
		<path fill="#FFFFFF" d="M34.012,50.331c-1.114,0.114-2.239,0.127-3.362,0.034c-0.212-0.806-0.391-1.636-0.533-2.488
			c1.103,0.416,2.295,0.768,3.564,1.047C33.78,49.404,33.891,49.871,34.012,50.331L34.012,50.331z"/>
		<path fill="#FFFFFF" d="M33.927,50.001c-1.116,0.109-2.242,0.118-3.364,0.019c-0.174-0.697-0.324-1.411-0.445-2.143
			c1.103,0.416,2.295,0.768,3.564,1.047C33.757,49.288,33.839,49.647,33.927,50.001L33.927,50.001z"/>
		<path fill="#FFFFFF" d="M33.846,49.668c-1.116,0.108-2.244,0.11-3.368,0.006c-0.138-0.587-0.259-1.185-0.361-1.797
			c1.103,0.416,2.295,0.768,3.564,1.047C33.733,49.174,33.789,49.422,33.846,49.668L33.846,49.668z"/>
		<path fill="#FFFFFF" d="M33.771,49.336c-1.118,0.105-2.246,0.104-3.371-0.008c-0.105-0.477-0.201-0.959-0.283-1.451
			c1.103,0.416,2.295,0.768,3.564,1.047C33.71,49.062,33.74,49.199,33.771,49.336L33.771,49.336z"/>
		<path fill="#FFFFFF" d="M33.699,49.004c-1.119,0.104-2.249,0.101-3.373-0.018c-0.076-0.366-0.146-0.734-0.208-1.109
			c1.103,0.416,2.295,0.768,3.564,1.047C33.687,48.95,33.693,48.977,33.699,49.004L33.699,49.004z"/>
		<path fill="#FFFFFF" d="M32.841,48.725c-0.86,0.038-1.724,0.01-2.585-0.086c-0.049-0.25-0.096-0.505-0.139-0.762
			C30.973,48.2,31.884,48.481,32.841,48.725L32.841,48.725z"/>
		<path fill="#FFFFFF" d="M31.667,48.397c-0.492-0.011-0.984-0.045-1.475-0.103c-0.025-0.139-0.052-0.277-0.074-0.418
			C30.615,48.064,31.134,48.238,31.667,48.397L31.667,48.397z"/>
		<path fill="#FFFFFF" d="M30.4,47.979c-0.089-0.01-0.18-0.019-0.27-0.03c-0.004-0.024-0.009-0.047-0.013-0.072
			C30.21,47.913,30.306,47.945,30.4,47.979L30.4,47.979z"/>
	</g>
	<g>
		<path fill="#FFFFFF" d="M35.263,53.955c-1.273-0.163-2.499-0.394-3.661-0.678c0.952,2.401,2.223,4.494,3.734,6.144
			c-2.08-1.278-3.872-3.576-5.173-6.537c-2.864-0.862-5.277-2.093-7.006-3.564c2.844,7.095,9.787,12.106,17.898,12.106
			c0.45,0,0.894-0.017,1.333-0.047C39.481,60.55,36.955,57.813,35.263,53.955L35.263,53.955z"/>
		<path fill="#FFFFFF" d="M30.227,53.024c-2.046-0.2-4.079-0.705-6.028-1.521c-0.39-0.703-0.74-1.431-1.042-2.185
			c1.729,1.472,4.143,2.702,7.006,3.564C30.184,52.932,30.206,52.977,30.227,53.024L30.227,53.024z"/>
		<path fill="#FFFFFF" d="M29.13,52.549c-1.763-0.269-3.506-0.773-5.183-1.516c-0.29-0.558-0.555-1.127-0.79-1.714
			C24.674,50.61,26.718,51.716,29.13,52.549L29.13,52.549z"/>
		<path fill="#FFFFFF" d="M27.328,51.845c-1.231-0.308-2.443-0.736-3.619-1.283c-0.197-0.407-0.383-0.821-0.552-1.242
			C24.28,50.274,25.692,51.127,27.328,51.845L27.328,51.845z"/>
		<path fill="#FFFFFF" d="M25.54,50.955c-0.694-0.248-1.38-0.537-2.052-0.865c-0.115-0.255-0.226-0.512-0.331-0.771
			C23.846,49.907,24.648,50.452,25.54,50.955L25.54,50.955z"/>
		<path fill="#FFFFFF" d="M23.966,49.951c-0.229-0.106-0.458-0.218-0.686-0.335c-0.042-0.099-0.083-0.196-0.124-0.297
			C23.411,49.536,23.682,49.746,23.966,49.951L23.966,49.951z"/>
	</g>
	<g>
		<path fill="#FFFFFF" d="M42.352,49.648c-2.195,0.088-4.31-0.021-6.293-0.298c0.318,1.032,0.689,2.023,1.116,2.958
			c1.425,0.182,2.903,0.282,4.418,0.282c6.954,0,13.116-2.037,16.958-5.181c-2.745,3.986-10.02,6.843-18.574,6.843
			c-0.612,0-1.22-0.015-1.82-0.046c1.909,3.294,4.515,5.679,7.48,6.671c8.396-2.046,14.636-9.592,14.692-18.604
			C57.675,46.277,50.677,49.322,42.352,49.648L42.352,49.648z"/>
		<path fill="#FFFFFF" d="M43.967,49.549c-1.905,1.287-3.995,2.235-6.171,2.831c-0.208-0.022-0.416-0.045-0.621-0.071
			c-0.426-0.935-0.798-1.926-1.116-2.958c1.984,0.276,4.099,0.386,6.293,0.298C42.896,49.629,43.434,49.593,43.967,49.549
			L43.967,49.549z"/>
		<path fill="#FFFFFF" d="M43.262,49.6c-1.904,1.206-3.98,2.078-6.134,2.602c-0.406-0.903-0.763-1.857-1.069-2.851
			c1.984,0.276,4.099,0.386,6.293,0.298C42.657,49.638,42.961,49.62,43.262,49.6L43.262,49.6z"/>
		<path fill="#FFFFFF" d="M42.54,49.64c-1.741,1.028-3.613,1.78-5.551,2.245c-0.35-0.81-0.66-1.656-0.931-2.534
			c1.984,0.276,4.099,0.386,6.293,0.299C42.415,49.647,42.477,49.644,42.54,49.64L42.54,49.64z"/>
		<path fill="#FFFFFF" d="M41.8,49.666c-1.566,0.855-3.23,1.491-4.946,1.901c-0.295-0.714-0.56-1.453-0.796-2.217
			C37.875,49.604,39.802,49.716,41.8,49.666L41.8,49.666z"/>
		<path fill="#FFFFFF" d="M41.045,49.676c-1.379,0.695-2.83,1.222-4.319,1.572c-0.244-0.615-0.466-1.247-0.667-1.897
			C37.646,49.571,39.316,49.686,41.045,49.676L41.045,49.676z"/>
		<path fill="#FFFFFF" d="M40.266,49.672c-1.18,0.542-2.408,0.963-3.665,1.258c-0.194-0.516-0.377-1.04-0.543-1.579
			C37.406,49.537,38.814,49.647,40.266,49.672L40.266,49.672z"/>
		<path fill="#FFFFFF" d="M39.464,49.648c-0.969,0.403-1.965,0.723-2.981,0.958c-0.15-0.41-0.292-0.828-0.424-1.256
			C37.156,49.503,38.295,49.604,39.464,49.648L39.464,49.648z"/>
		<path fill="#FFFFFF" d="M38.638,49.607c-0.743,0.273-1.501,0.499-2.27,0.676c-0.107-0.306-0.212-0.617-0.31-0.933
			C36.896,49.467,37.758,49.553,38.638,49.607L38.638,49.607z"/>
		<path fill="#FFFFFF" d="M37.778,49.543c-0.501,0.161-1.008,0.3-1.521,0.418c-0.067-0.201-0.136-0.404-0.199-0.61
			C36.622,49.429,37.195,49.492,37.778,49.543L37.778,49.543z"/>
		<path fill="#FFFFFF" d="M36.884,49.454c-0.243,0.065-0.487,0.127-0.733,0.184c-0.031-0.097-0.062-0.189-0.092-0.287
			C36.331,49.389,36.607,49.422,36.884,49.454L36.884,49.454z"/>
	</g>
	<g>
		<path fill="#FFFFFF" d="M29.152,50.126c-0.283-0.943-0.523-1.936-0.712-2.965c-2.049-0.986-3.673-2.217-4.714-3.623
			c1.287,0.979,2.816,1.832,4.532,2.525c-0.217-1.487-0.335-3.047-0.335-4.649c0-7.688,2.658-14.316,6.492-17.365
			c-7.375,2.707-12.636,9.791-12.636,18.103c0,0.761,0.045,1.512,0.131,2.248C23.38,46.705,25.917,48.688,29.152,50.126
			L29.152,50.126z"/>
		<path fill="#FFFFFF" d="M29.152,50.126c-0.283-0.943-0.523-1.936-0.712-2.965c-2.049-0.986-3.673-2.217-4.714-3.623
			c1.287,0.979,2.816,1.832,4.532,2.525c-0.217-1.487-0.335-3.047-0.335-4.649c0-7.688,2.658-14.316,6.492-17.365
			c-7.375,2.707-12.636,9.791-12.636,18.103c0,0.761,0.045,1.512,0.131,2.248C23.38,46.705,25.917,48.688,29.152,50.126
			L29.152,50.126z"/>
		<path fill="#FFFFFF" d="M29.152,50.126c-0.283-0.943-0.523-1.936-0.712-2.965c-2.049-0.986-3.673-2.217-4.714-3.623
			c1.287,0.979,2.816,1.832,4.532,2.525c-0.217-1.487-0.335-3.047-0.335-4.649c0-7.688,2.658-14.316,6.492-17.365
			c-7.375,2.707-12.636,9.791-12.636,18.103c0,0.761,0.045,1.512,0.131,2.248C23.38,46.705,25.917,48.688,29.152,50.126
			L29.152,50.126z"/>
		<path fill="#FFFFFF" d="M29.152,50.126c-0.283-0.943-0.523-1.936-0.712-2.965c-2.049-0.986-3.673-2.217-4.714-3.623
			c1.287,0.979,2.816,1.832,4.532,2.525c-0.217-1.487-0.335-3.047-0.335-4.649c0-7.688,2.658-14.316,6.492-17.365
			c-7.375,2.707-12.636,9.791-12.636,18.103c0,0.761,0.045,1.512,0.131,2.248C23.38,46.705,25.917,48.688,29.152,50.126
			L29.152,50.126z"/>
		<path fill="#FFFFFF" d="M29.152,50.126c-0.283-0.943-0.523-1.936-0.712-2.965c-2.049-0.986-3.673-2.217-4.714-3.623
			c1.287,0.979,2.816,1.832,4.532,2.525c-0.217-1.487-0.335-3.047-0.335-4.649c0-7.688,2.658-14.316,6.492-17.365
			c-7.375,2.707-12.636,9.791-12.636,18.103c0,0.761,0.045,1.512,0.131,2.248C23.38,46.705,25.917,48.688,29.152,50.126
			L29.152,50.126z"/>
		<path fill="#FFFFFF" d="M29.152,50.126c-0.283-0.943-0.523-1.936-0.712-2.965c-2.049-0.986-3.673-2.217-4.714-3.623
			c1.287,0.979,2.816,1.832,4.532,2.525c-0.217-1.487-0.335-3.047-0.335-4.649c0-7.688,2.658-14.316,6.492-17.365
			c-7.375,2.707-12.636,9.791-12.636,18.103c0,0.761,0.045,1.512,0.131,2.248C23.38,46.705,25.917,48.688,29.152,50.126
			L29.152,50.126z"/>
		<path fill="#FFFFFF" d="M29.152,50.126c-0.283-0.943-0.523-1.936-0.712-2.965c-2.049-0.986-3.673-2.217-4.714-3.623
			c1.287,0.979,2.816,1.832,4.532,2.525c-0.217-1.487-0.335-3.047-0.335-4.649c0-7.688,2.658-14.316,6.492-17.365
			c-7.375,2.707-12.636,9.791-12.636,18.103c0,0.761,0.045,1.512,0.131,2.248C23.38,46.705,25.917,48.688,29.152,50.126
			L29.152,50.126z"/>
		<path fill="#FFFFFF" d="M29.152,50.126c-0.283-0.943-0.523-1.936-0.712-2.965c-2.049-0.986-3.673-2.217-4.714-3.623
			c1.287,0.979,2.816,1.832,4.532,2.525c-0.217-1.487-0.335-3.047-0.335-4.649c0-7.688,2.658-14.316,6.492-17.365
			c-7.375,2.707-12.636,9.791-12.636,18.103c0,0.761,0.045,1.512,0.131,2.248C23.38,46.705,25.917,48.688,29.152,50.126
			L29.152,50.126z"/>
		<path fill="#FFFFFF" d="M29.152,50.126c-0.283-0.943-0.523-1.936-0.712-2.965c-2.049-0.986-3.673-2.217-4.714-3.623
			c1.287,0.979,2.816,1.832,4.532,2.525c-0.217-1.487-0.335-3.047-0.335-4.649c0-7.688,2.658-14.316,6.492-17.365
			c-7.375,2.707-12.636,9.791-12.636,18.103c0,0.761,0.045,1.512,0.131,2.248C23.38,46.705,25.917,48.688,29.152,50.126
			L29.152,50.126z"/>
		<path fill="#FFFFFF" d="M29.152,50.126c-0.283-0.943-0.523-1.936-0.712-2.965c-2.049-0.986-3.673-2.217-4.714-3.623
			c1.287,0.979,2.816,1.832,4.532,2.525c-0.217-1.487-0.335-3.047-0.335-4.649c0-7.688,2.658-14.316,6.492-17.365
			c-7.375,2.707-12.636,9.791-12.636,18.103c0,0.761,0.045,1.512,0.131,2.248C23.38,46.705,25.917,48.688,29.152,50.126
			L29.152,50.126z"/>
		<path fill="#FFFFFF" d="M29.065,49.824c-0.316-0.055-0.633-0.116-0.948-0.189c-2.742-1.383-4.898-3.182-6.208-5.235
			c-0.086-0.736-0.131-1.487-0.131-2.248c0-8.312,5.261-15.396,12.636-18.103c-3.835,3.048-6.493,9.677-6.493,17.365
			c0,1.603,0.119,3.162,0.335,4.649c-1.715-0.693-3.245-1.546-4.532-2.525c1.041,1.406,2.665,2.638,4.714,3.623
			C28.608,48.082,28.82,48.972,29.065,49.824L29.065,49.824z"/>
		<path fill="#FFFFFF" d="M28.965,49.467c-0.709-0.129-1.413-0.304-2.109-0.522c-2.145-1.27-3.845-2.816-4.946-4.545
			c-0.086-0.736-0.131-1.487-0.131-2.248c0-8.312,5.261-15.396,12.636-18.103c-3.834,3.048-6.492,9.677-6.492,17.365
			c0,1.603,0.118,3.162,0.335,4.649c-1.715-0.693-3.245-1.546-4.532-2.525c1.041,1.406,2.665,2.638,4.714,3.623
			C28.585,47.955,28.763,48.725,28.965,49.467L28.965,49.467z"/>
		<path fill="#FFFFFF" d="M28.871,49.108c-1.099-0.212-2.185-0.528-3.243-0.96c-1.57-1.102-2.837-2.366-3.718-3.749
			c-0.086-0.736-0.131-1.487-0.131-2.249c0-8.311,5.261-15.395,12.636-18.102c-3.835,3.048-6.493,9.677-6.493,17.365
			c0,1.603,0.119,3.162,0.335,4.649c-1.715-0.693-3.245-1.546-4.532-2.526c1.041,1.407,2.665,2.638,4.714,3.624
			C28.562,47.828,28.708,48.478,28.871,49.108L28.871,49.108z"/>
		<path fill="#FFFFFF" d="M28.78,48.751c-1.474-0.295-2.922-0.788-4.308-1.489c-1.042-0.877-1.909-1.837-2.562-2.862
			c-0.086-0.736-0.131-1.487-0.131-2.248c0-8.312,5.261-15.396,12.636-18.103c-3.835,3.049-6.493,9.677-6.493,17.365
			c0,1.603,0.119,3.162,0.335,4.649c-1.715-0.693-3.245-1.546-4.532-2.525c1.041,1.406,2.665,2.638,4.714,3.623
			C28.539,47.702,28.653,48.232,28.78,48.751L28.78,48.751z"/>
		<path fill="#FFFFFF" d="M28.695,48.392c-1.814-0.378-3.589-1.067-5.247-2.077c-0.596-0.607-1.113-1.246-1.538-1.915
			c-0.086-0.736-0.131-1.487-0.131-2.248c0-8.312,5.261-15.396,12.636-18.103c-3.834,3.049-6.492,9.677-6.492,17.365
			c0,1.603,0.118,3.162,0.335,4.649c-1.715-0.693-3.245-1.546-4.532-2.525c1.041,1.406,2.665,2.638,4.714,3.623
			C28.517,47.579,28.603,47.987,28.695,48.392L28.695,48.392z"/>
		<path fill="#FFFFFF" d="M28.616,48.033c-2.104-0.456-4.151-1.339-6.012-2.667c-0.251-0.315-0.484-0.636-0.694-0.967
			c-0.086-0.736-0.131-1.487-0.131-2.249c0-8.311,5.261-15.395,12.636-18.102c-3.835,3.048-6.493,9.677-6.493,17.365
			c0,1.603,0.119,3.162,0.335,4.649c-1.715-0.693-3.245-1.546-4.532-2.526c1.041,1.407,2.665,2.638,4.714,3.624
			C28.494,47.455,28.554,47.746,28.616,48.033L28.616,48.033z"/>
		<path fill="#FFFFFF" d="M28.541,47.676c-2.054-0.466-4.051-1.343-5.863-2.659c-0.253-0.184-0.5-0.376-0.739-0.571
			c-0.009-0.014-0.02-0.03-0.029-0.046c-0.086-0.736-0.131-1.487-0.131-2.249c0-8.311,5.261-15.395,12.636-18.102
			c-3.835,3.048-6.493,9.677-6.493,17.365c0,1.603,0.119,3.162,0.335,4.649c-1.715-0.693-3.245-1.546-4.532-2.526
			c1.041,1.407,2.665,2.638,4.714,3.624C28.472,47.334,28.506,47.505,28.541,47.676L28.541,47.676z"/>
		<path fill="#FFFFFF" d="M28.471,47.317c-1.967-0.462-3.876-1.313-5.614-2.573c-0.344-0.252-0.674-0.514-0.992-0.785
			c-0.055-0.597-0.085-1.196-0.085-1.808c0-8.312,5.261-15.396,12.636-18.103c-3.834,3.048-6.492,9.677-6.492,17.365
			c0,1.603,0.118,3.162,0.335,4.649c-1.715-0.693-3.245-1.546-4.532-2.525c1.041,1.406,2.665,2.638,4.714,3.623
			C28.449,47.214,28.46,47.266,28.471,47.317L28.471,47.317z"/>
		<path fill="#FFFFFF" d="M27.631,46.745c-1.605-0.482-3.162-1.236-4.596-2.277c-0.423-0.308-0.825-0.635-1.208-0.974
			c-0.03-0.444-0.048-0.891-0.048-1.343c0-8.312,5.261-15.396,12.636-18.103c-3.834,3.049-6.492,9.677-6.492,17.365
			c0,1.603,0.118,3.162,0.335,4.649c-1.715-0.693-3.245-1.546-4.532-2.525C24.626,44.753,25.962,45.837,27.631,46.745L27.631,46.745
			z"/>
		<path fill="#FFFFFF" d="M26.249,45.898c-1.052-0.44-2.072-1.005-3.035-1.705c-0.501-0.363-0.971-0.755-1.414-1.165
			c-0.013-0.292-0.021-0.583-0.021-0.877c0-8.312,5.261-15.396,12.636-18.103c-3.834,3.049-6.492,9.677-6.492,17.365
			c0,1.603,0.118,3.162,0.335,4.649c-1.715-0.693-3.245-1.546-4.532-2.525C24.361,44.396,25.215,45.188,26.249,45.898L26.249,45.898
			z"/>
		<path fill="#FFFFFF" d="M25.036,44.953c-0.562-0.307-1.112-0.648-1.644-1.034c-0.576-0.418-1.111-0.873-1.607-1.354
			c-0.003-0.139-0.006-0.275-0.006-0.414c0-8.311,5.261-15.395,12.636-18.102c-3.834,3.048-6.492,9.677-6.492,17.365
			c0,1.603,0.118,3.162,0.335,4.649c-1.715-0.693-3.245-1.546-4.532-2.526C24.092,44.031,24.533,44.504,25.036,44.953L25.036,44.953
			z"/>
		<path fill="#FFFFFF" d="M28.233,45.879c-0.495-0.135-0.985-0.296-1.467-0.485c-1.119-0.55-2.14-1.171-3.04-1.855
			c0.12,0.16,0.249,0.32,0.384,0.477c-0.182-0.12-0.361-0.242-0.539-0.371c-0.649-0.471-1.245-0.987-1.791-1.54
			c0.02-8.293,5.275-15.354,12.635-18.055c-3.835,3.048-6.493,9.677-6.493,17.365C27.922,42.953,28.031,44.447,28.233,45.879
			L28.233,45.879z"/>
		<path fill="#FFFFFF" d="M28.184,45.52c-1.551-0.436-3.054-1.148-4.435-2.151c-0.719-0.522-1.372-1.102-1.962-1.725
			c0.209-8.092,5.403-14.943,12.627-17.595c-3.835,3.049-6.493,9.677-6.493,17.365C27.922,42.823,28.014,44.198,28.184,45.52
			L28.184,45.52z"/>
		<path fill="#FFFFFF" d="M28.141,45.161c-1.473-0.431-2.899-1.113-4.213-2.066c-0.787-0.572-1.496-1.213-2.123-1.907
			c0.388-7.893,5.522-14.538,12.61-17.139c-3.835,3.048-6.493,9.677-6.493,17.365C27.922,42.696,27.999,43.949,28.141,45.161
			L28.141,45.161z"/>
		<path fill="#FFFFFF" d="M28.101,44.802c-1.396-0.421-2.748-1.078-3.995-1.982c-0.854-0.621-1.611-1.323-2.272-2.091
			c0.56-7.69,5.631-14.129,12.582-16.68c-3.834,3.048-6.492,9.677-6.492,17.365C27.922,42.57,27.984,43.703,28.101,44.802
			L28.101,44.802z"/>
		<path fill="#FFFFFF" d="M28.065,44.443c-1.321-0.412-2.6-1.041-3.782-1.899c-0.918-0.666-1.722-1.433-2.413-2.268
			c0.722-7.491,5.73-13.728,12.543-16.228c-3.834,3.048-6.492,9.677-6.492,17.365C27.922,42.445,27.974,43.455,28.065,44.443
			L28.065,44.443z"/>
		<path fill="#FFFFFF" d="M28.033,44.082c-1.246-0.402-2.453-1.002-3.571-1.813c-0.982-0.712-1.829-1.54-2.542-2.45
			c0.878-7.285,5.82-13.321,12.494-15.77c-3.834,3.048-6.492,9.677-6.492,17.365C27.922,42.319,27.961,43.211,28.033,44.082
			L28.033,44.082z"/>
		<path fill="#FFFFFF" d="M28.005,43.726c-1.173-0.392-2.309-0.965-3.364-1.73c-1.042-0.756-1.93-1.645-2.661-2.625
			c1.023-7.084,5.898-12.922,12.435-15.321c-3.835,3.049-6.493,9.677-6.493,17.365C27.922,42.196,27.952,42.967,28.005,43.726
			L28.005,43.726z"/>
		<path fill="#FFFFFF" d="M27.982,43.366c-1.102-0.38-2.169-0.925-3.163-1.646c-1.1-0.798-2.024-1.751-2.768-2.804
			c1.162-6.878,5.967-12.52,12.364-14.867c-3.835,3.048-6.493,9.677-6.493,17.365C27.922,42.073,27.945,42.725,27.982,43.366
			L27.982,43.366z"/>
		<path fill="#FFFFFF" d="M27.963,43.008c-1.033-0.369-2.034-0.886-2.966-1.563c-1.158-0.839-2.114-1.852-2.865-2.975
			c1.292-6.678,6.025-12.125,12.282-14.421c-3.834,3.048-6.492,9.677-6.492,17.365C27.922,41.951,27.938,42.481,27.963,43.008
			L27.963,43.008z"/>
		<path fill="#FFFFFF" d="M27.947,42.648c-0.965-0.354-1.898-0.845-2.771-1.478c-1.212-0.879-2.198-1.952-2.952-3.147
			c1.412-6.473,6.073-11.73,12.19-13.975c-3.834,3.049-6.492,9.677-6.492,17.365C27.922,41.83,27.932,42.24,27.947,42.648
			L27.947,42.648z"/>
		<path fill="#FFFFFF" d="M27.935,42.289c-0.898-0.342-1.768-0.803-2.582-1.394c-1.265-0.919-2.277-2.056-3.026-3.32
			c1.525-6.268,6.112-11.335,12.088-13.527c-3.834,3.049-6.492,9.677-6.492,17.365C27.922,41.709,27.928,41.999,27.935,42.289
			L27.935,42.289z"/>
		<path fill="#FFFFFF" d="M27.929,41.933c-0.833-0.327-1.639-0.762-2.397-1.312c-1.316-0.955-2.35-2.156-3.09-3.491
			c1.63-6.061,6.139-10.94,11.973-13.081c-3.835,3.049-6.493,9.677-6.493,17.365C27.922,41.589,27.926,41.76,27.929,41.933
			L27.929,41.933z"/>
		<path fill="#FFFFFF" d="M27.923,41.574c-0.768-0.314-1.512-0.721-2.213-1.229c-1.365-0.991-2.419-2.254-3.144-3.658
			c1.728-5.855,6.159-10.55,11.849-12.638c-3.834,3.049-6.492,9.677-6.492,17.365C27.922,41.467,27.923,41.518,27.923,41.574
			L27.923,41.574z"/>
		<path fill="#FFFFFF" d="M27.924,41.217c-0.705-0.297-1.39-0.676-2.035-1.146c-1.415-1.028-2.484-2.354-3.187-3.827
			c1.816-5.648,6.167-10.161,11.713-12.195C30.613,27.071,27.97,33.614,27.924,41.217L27.924,41.217z"/>
		<path fill="#FFFFFF" d="M27.928,40.857c-0.643-0.279-1.269-0.633-1.86-1.062c-1.462-1.06-2.542-2.454-3.215-3.998
			c1.897-5.439,6.163-9.768,11.562-11.749C30.673,27.023,28.053,33.406,27.928,40.857L27.928,40.857z"/>
		<path fill="#FFFFFF" d="M27.936,40.501c-0.585-0.262-1.15-0.587-1.69-0.979c-1.507-1.094-2.594-2.553-3.234-4.165
			c1.971-5.232,6.15-9.38,11.403-11.309C30.733,26.976,28.137,33.204,27.936,40.501L27.936,40.501z"/>
		<path fill="#FFFFFF" d="M27.948,40.142c-0.525-0.245-1.036-0.542-1.523-0.895c-1.551-1.126-2.644-2.651-3.24-4.333
			c2.036-5.024,6.126-8.993,11.23-10.866C30.794,26.926,28.223,33,27.948,40.142L27.948,40.142z"/>
		<path fill="#FFFFFF" d="M27.963,39.785c-0.468-0.227-0.924-0.496-1.361-0.813c-1.595-1.158-2.687-2.751-3.232-4.499
			c2.092-4.815,6.091-8.605,11.044-10.423C30.854,26.879,28.31,32.797,27.963,39.785L27.963,39.785z"/>
		<path fill="#FFFFFF" d="M27.983,39.426c-0.413-0.207-0.816-0.449-1.203-0.728c-1.638-1.191-2.723-2.857-3.209-4.671
			c2.142-4.602,6.044-8.218,10.843-9.979C30.915,26.83,28.398,32.596,27.983,39.426L27.983,39.426z"/>
		<path fill="#FFFFFF" d="M28.007,39.066c-0.36-0.186-0.711-0.398-1.048-0.646c-1.681-1.219-2.757-2.963-3.172-4.843
			c2.17-4.365,5.944-7.789,10.553-9.5c0.009,0.002,0.02,0.005,0.029,0.009C30.954,26.833,28.483,32.425,28.007,39.066L28.007,39.066
			z"/>
		<path fill="#FFFFFF" d="M28.035,38.709c-0.308-0.165-0.608-0.354-0.897-0.562c-1.724-1.251-2.787-3.077-3.119-5.021
			c2.121-3.996,5.606-7.159,9.836-8.862c0.074,0.021,0.149,0.042,0.223,0.064C30.875,27.101,28.558,32.413,28.035,38.709
			L28.035,38.709z"/>
		<path fill="#FFFFFF" d="M28.067,38.35c-0.256-0.144-0.508-0.301-0.751-0.478c-1.768-1.282-2.81-3.195-3.044-5.206
			c2.052-3.626,5.245-6.521,9.09-8.195c0.146,0.032,0.292,0.068,0.437,0.108C30.801,27.36,28.629,32.395,28.067,38.35L28.067,38.35z
			"/>
		<path fill="#FFFFFF" d="M28.103,37.993c-0.207-0.121-0.41-0.252-0.608-0.395c-1.814-1.318-2.829-3.325-2.95-5.401
			c1.963-3.25,4.859-5.875,8.317-7.5c0.224,0.036,0.446,0.083,0.667,0.14C30.73,27.604,28.697,32.373,28.103,37.993L28.103,37.993z"
			/>
		<path fill="#FFFFFF" d="M28.144,37.632c-0.16-0.096-0.316-0.197-0.47-0.31c-1.864-1.352-2.845-3.468-2.828-5.608
			c1.85-2.866,4.438-5.212,7.498-6.766c0.311,0.029,0.619,0.082,0.926,0.154C30.665,27.842,28.764,32.344,28.144,37.632
			L28.144,37.632z"/>
		<path fill="#FFFFFF" d="M28.186,37.273c-0.113-0.07-0.224-0.146-0.334-0.226c-1.918-1.392-2.854-3.633-2.669-5.834
			c1.705-2.471,3.972-4.525,6.617-5.975c0.408,0.005,0.816,0.051,1.219,0.135C30.6,28.068,28.828,32.309,28.186,37.273
			L28.186,37.273z"/>
		<path fill="#FFFFFF" d="M28.234,36.915c-0.068-0.045-0.138-0.091-0.205-0.141c-1.983-1.439-2.86-3.836-2.463-6.099
			c1.523-2.053,3.445-3.792,5.651-5.105c0.519-0.038,1.043-0.013,1.56,0.08C30.54,28.286,28.891,32.271,28.234,36.915L28.234,36.915
			z"/>
		<path fill="#FFFFFF" d="M28.289,36.556c-0.027-0.019-0.055-0.038-0.082-0.057c-2.065-1.501-2.866-4.095-2.186-6.414
			c1.287-1.601,2.825-2.993,4.553-4.114c0.646-0.121,1.311-0.137,1.967-0.036C30.482,28.497,28.952,32.229,28.289,36.556
			L28.289,36.556z"/>
		<path fill="#FFFFFF" d="M28.346,36.193c-2.16-1.597-2.829-4.471-1.722-6.82c0.949-1.071,2.016-2.036,3.178-2.874
			c0.803-0.283,1.666-0.378,2.515-0.275C30.427,28.701,29.011,32.178,28.346,36.193L28.346,36.193z"/>
		<path fill="#FFFFFF" d="M28.408,35.829c-2.2-1.725-2.658-4.893-1.003-7.174c0.185-0.253,0.39-0.486,0.607-0.697
			c0.077-0.07,0.153-0.14,0.229-0.209c1.08-0.922,2.477-1.35,3.854-1.229C30.373,28.896,29.07,32.125,28.408,35.829L28.408,35.829z"
			/>
		<path fill="#FFFFFF" d="M28.477,35.466c-1.958-1.637-2.342-4.534-0.819-6.629c1.011-1.395,2.623-2.099,4.224-2.015
			C30.321,29.087,29.128,32.065,28.477,35.466L28.477,35.466z"/>
		<path fill="#FFFFFF" d="M28.55,35.099c-1.72-1.543-2.03-4.168-0.643-6.081c0.907-1.25,2.331-1.907,3.767-1.886
			C30.27,29.27,29.184,32.003,28.55,35.099L28.55,35.099z"/>
		<path fill="#FFFFFF" d="M28.628,34.725c-1.485-1.447-1.723-3.798-0.471-5.526c0.804-1.105,2.044-1.714,3.313-1.749
			C30.221,29.449,29.239,31.933,28.628,34.725L28.628,34.725z"/>
		<path fill="#FFFFFF" d="M28.713,34.349c-1.253-1.345-1.423-3.426-0.305-4.969c0.701-0.967,1.762-1.519,2.864-1.606
			C30.172,29.623,29.294,31.857,28.713,34.349L28.713,34.349z"/>
		<path fill="#FFFFFF" d="M28.805,33.965c-1.026-1.233-1.13-3.046-0.145-4.404c0.597-0.824,1.481-1.321,2.416-1.45
			C30.122,29.794,29.349,31.775,28.805,33.965L28.805,33.965z"/>
		<path fill="#FFFFFF" d="M28.908,33.568c-0.804-1.113-0.847-2.658,0.003-3.827c0.496-0.684,1.207-1.119,1.973-1.278
			C30.075,29.963,29.404,31.684,28.908,33.568L28.908,33.568z"/>
		<path fill="#FFFFFF" d="M29.02,33.156c-0.586-0.979-0.571-2.251,0.142-3.235c0.392-0.538,0.934-0.906,1.525-1.086
			C30.023,30.134,29.46,31.585,29.02,33.156L29.02,33.156z"/>
		<path fill="#FFFFFF" d="M29.148,32.713c-0.374-0.826-0.307-1.823,0.264-2.61c0.285-0.393,0.66-0.684,1.073-0.862
			C29.97,30.307,29.52,31.471,29.148,32.713L29.148,32.713z"/>
		<path fill="#FFFFFF" d="M29.305,32.208c-0.168-0.64-0.06-1.347,0.359-1.924c0.167-0.231,0.373-0.425,0.6-0.574
			C29.908,30.497,29.587,31.333,29.305,32.208L29.305,32.208z"/>
		<path fill="#FFFFFF" d="M29.545,31.498c0.021-0.361,0.141-0.718,0.369-1.032c0.019-0.026,0.038-0.051,0.058-0.076
			C29.822,30.751,29.68,31.12,29.545,31.498L29.545,31.498z"/>
	</g>
	<g>
		<path fill="#FFFFFF" d="M24.431,25.589l-0.517-0.488l0.253-0.264c0.004,0.143-0.004,0.271-0.031,0.384
			c0.245-0.029,0.4-0.034,0.466-0.027c0.069,0.004,0.14,0.011,0.19,0.023L24.431,25.589L24.431,25.589z M23.545,27.298l0.318-0.346
			l1.448-1.5l0.355-0.346l-0.41-0.39l-0.267,0.298c-0.011-0.133-0.015-0.251-0.023-0.364l-0.183,0.003l-0.258,0.013
			c-0.045,0.004-0.105,0-0.184-0.005l0.29-0.27l-0.427-0.401l-0.228,0.255l-0.458,0.475l-0.38-0.355l0.486-0.5l0.339-0.319
			l-0.425-0.402l-0.338,0.368l-1.379,1.428l-0.327,0.315l0.419,0.403l0.308-0.343l0.478-0.494l0.374,0.355l-0.379,0.397
			l-0.329,0.323l0.418,0.391l0.31-0.336l0.378-0.396l0.517,0.49l-0.515,0.53l-0.339,0.332L23.545,27.298L23.545,27.298z
			 M20.72,25.612l2.569,2.433l0.437,0.433l0.446-0.469l-0.057-0.047l2.242-2.321l0.082,0.076l0.46-0.475l-0.46-0.408l-2.594-2.456
			l-0.406-0.405l-0.349,0.393l-2.412,2.49l-0.381,0.375L20.72,25.612L20.72,25.612z M21.176,25.174l2.241-2.317l2.533,2.396
			l-2.243,2.317L21.176,25.174L21.176,25.174z"/>
		<path fill="#FFFFFF" d="M29.493,22.152c0.254-0.369,0.44-0.68,0.557-0.921c-0.029-0.031-0.066-0.057-0.099-0.078
			c-0.18,0.289-0.345,0.54-0.501,0.752c-0.149,0.216-0.393,0.494-0.731,0.825c-0.066-0.058-0.13-0.103-0.187-0.142
			c-0.061-0.045-0.181-0.111-0.358-0.206c0.175-0.131,0.32-0.248,0.437-0.361c0.121-0.116,0.256-0.27,0.414-0.46
			c0.148-0.197,0.292-0.406,0.417-0.623l-0.074-0.017c-0.191,0.207-0.334,0.363-0.44,0.459c-0.102,0.103-0.278,0.255-0.516,0.473
			c-0.06-0.053-0.12-0.103-0.17-0.137c-0.057-0.04-0.183-0.114-0.389-0.224c0.146-0.093,0.336-0.231,0.579-0.407
			c0.245-0.172,0.515-0.467,0.811-0.877l-0.697,0.36l-0.402,0.222l-0.263-0.499l0.414-0.202l1.975-1.018l0.452-0.245l0.26,0.503
			l-0.459,0.224l-0.698,0.361c0.085,0.012,0.174,0.026,0.27,0.038c-0.122,0.178-0.237,0.358-0.349,0.528
			c0.2,0.027,0.329,0.055,0.381,0.084l0.157,0.078c0.237-0.437,0.371-0.701,0.403-0.794l0.122-0.338
			c0.074,0.035,0.144,0.055,0.207,0.076c0.06,0.02,0.225,0.045,0.489,0.08c-0.146,0.255-0.27,0.477-0.376,0.672
			c0.077,0.082,0.2,0.197,0.369,0.342c0.168,0.144,0.395,0.249,0.683,0.312c0.292,0.068,0.578,0.085,0.863,0.057
			c-0.035,0.129-0.062,0.232-0.076,0.313c-0.019,0.082-0.036,0.22-0.053,0.412c-0.406-0.028-0.721-0.076-0.943-0.159
			c-0.226-0.08-0.418-0.177-0.592-0.289c-0.171-0.12-0.359-0.277-0.569-0.486l-0.124,0.184c0.056,0.076,0.105,0.147,0.143,0.209
			c0.043,0.065,0.113,0.188,0.217,0.374c0.099,0.188,0.165,0.348,0.203,0.471c0.035,0.135,0.033,0.279-0.02,0.426
			c-0.049,0.144-0.263,0.317-0.634,0.515c-0.151-0.183-0.254-0.291-0.306-0.331l-0.2-0.156c0.268-0.089,0.423-0.167,0.459-0.245
			c0.041-0.068,0.042-0.16,0.002-0.253c-0.034-0.1-0.068-0.18-0.099-0.233l-0.025-0.059c-0.114,0.205-0.26,0.437-0.443,0.704
			c-0.188,0.262-0.354,0.477-0.502,0.627l-0.501,0.555c-0.148-0.112-0.252-0.188-0.329-0.224l-0.256-0.133
			C28.871,22.897,29.236,22.522,29.493,22.152L29.493,22.152z M27.314,20.944l-0.118-0.258l-0.275-0.513l-0.183-0.328l0.539-0.256
			l1.271-0.654c-0.093-0.034-0.218-0.07-0.377-0.104c0.053-0.062,0.106-0.12,0.144-0.175c0.039-0.051,0.115-0.171,0.231-0.357
			c0.303,0.069,0.526,0.124,0.673,0.166c-0.035,0.059-0.059,0.114-0.078,0.164l1.365-0.703l0.487-0.27l0.166,0.344l0.272,0.515
			l0.151,0.258l-0.604,0.308l-0.129-0.264l-0.176-0.34l-3.062,1.586l0.165,0.325l0.146,0.247L27.314,20.944L27.314,20.944z"/>
		<path fill="#FFFFFF" d="M35.513,17.163l1.006-0.158l0.1,0.61L35.61,17.77L35.513,17.163L35.513,17.163z M34.845,17.121
			l0.319,2.021l0.067,0.547l0.667-0.104l-0.016-0.08l1.01-0.155l0.12,0.767c0.019,0.114,0.045,0.209,0.081,0.285
			c0.042,0.063,0.111,0.12,0.221,0.162c0.112,0.044,0.266,0.053,0.472,0.017c0.203-0.03,0.468-0.064,0.794-0.11
			c0.34-0.042,0.593-0.08,0.755-0.11c0.165-0.035,0.282-0.075,0.355-0.119c0.079-0.045,0.144-0.112,0.199-0.2
			c0.057-0.087,0.113-0.319,0.163-0.693c-0.195-0.038-0.423-0.103-0.683-0.209l-0.002,0.213c0.004,0.137-0.025,0.237-0.084,0.3
			c-0.059,0.066-0.14,0.108-0.244,0.135c-0.104,0.03-0.281,0.057-0.533,0.089l-0.581,0.075c-0.124,0.016-0.206,0.008-0.242-0.022
			c-0.037-0.038-0.055-0.076-0.063-0.123l-0.088-0.555l1.147-0.181l0.017,0.101l0.663-0.101l-0.096-0.516l-0.325-2.071l-0.059-0.465
			l-0.427,0.082l-1.383,0.215l-0.047-0.296l-0.053-0.416L36.3,15.704l0.083,0.414l0.041,0.297l-1.167,0.182l-0.505,0.061
			L34.845,17.121L34.845,17.121z M35.698,18.332l1.004-0.156l0.098,0.597l-1.006,0.156L35.698,18.332L35.698,18.332z M37.163,16.906
			l1.147-0.179l0.096,0.608l-1.148,0.178L37.163,16.906L37.163,16.906z M37.346,18.076l1.151-0.178l0.092,0.595l-1.148,0.182
			L37.346,18.076L37.346,18.076z"/>
		<path fill="#FFFFFF" d="M43.72,17.204l0.101,0.208c0.026,0.053,0.117,0.258,0.264,0.61c-0.103,0.204-0.206,0.361-0.301,0.463
			c-0.094,0.108-0.211,0.216-0.351,0.329L43.72,17.204L43.72,17.204z M43.194,20.23l0.113-0.696l0.114-0.64
			c0.111,0.155,0.186,0.27,0.218,0.332c0.034,0.067,0.071,0.129,0.101,0.193c0.237-0.224,0.384-0.375,0.448-0.454
			c0.062-0.074,0.119-0.144,0.159-0.203l0.044,0.153c0.011,0.027,0.017,0.101,0.029,0.226l0.143-0.095
			c0.087-0.055,0.236-0.122,0.452-0.197c-0.085-0.272-0.173-0.53-0.269-0.781l0.087-0.169c0.031-0.06,0.089-0.191,0.174-0.4
			c0.136,0.231,0.218,0.38,0.248,0.446c0.025,0.057,0.082,0.202,0.15,0.42l-0.121,0.207c-0.083,0.151-0.19,0.287-0.315,0.428
			c-0.124,0.137-0.293,0.273-0.5,0.412c0.157,0.125,0.264,0.218,0.312,0.273c0.049,0.058,0.1,0.116,0.156,0.181
			c0.116-0.081,0.216-0.165,0.287-0.243c0.074-0.076,0.235-0.255,0.473-0.536l0.086,0.312c0.011,0.026,0.027,0.124,0.057,0.283
			c0.214-0.15,0.408-0.275,0.576-0.365l-0.061-0.188c-0.005-0.013-0.101-0.262-0.274-0.733l0.133-0.313
			c0.046-0.119,0.107-0.279,0.18-0.476l0.104-0.306c0.008-0.033,0.025-0.087,0.053-0.158c-0.214-0.049-0.424-0.117-0.641-0.201
			l-0.028,0.167c-0.019,0.089-0.067,0.26-0.149,0.517c-0.071-0.144-0.133-0.273-0.191-0.385l-0.131,0.082
			c-0.078,0.049-0.203,0.097-0.382,0.137l0.108-0.264c0.002-0.007,0.014-0.047,0.042-0.133c0.032-0.078,0.054-0.148,0.076-0.201
			c-0.252-0.064-0.46-0.143-0.627-0.228l-0.046,0.215c-0.018,0.089-0.04,0.17-0.066,0.25c-0.024,0.074-0.054,0.16-0.092,0.245
			c-0.076-0.166-0.147-0.31-0.202-0.448c-0.158,0.087-0.264,0.143-0.321,0.157c-0.056,0.018-0.108,0.033-0.161,0.046l0.127-0.726
			l2.993,0.521l-0.544,3.094c-0.016,0.062-0.034,0.103-0.063,0.135c-0.032,0.035-0.111,0.036-0.245,0.009
			c-0.11-0.022-0.226-0.051-0.349-0.093l0.05,0.181c0.048,0.174,0.064,0.306,0.062,0.389c-0.003,0.091-0.012,0.156-0.012,0.208
			c0.34,0.038,0.593,0.04,0.753,0.015c0.159-0.029,0.262-0.082,0.304-0.169c0.043-0.095,0.072-0.197,0.093-0.302l0.587-3.333
			l0.127-0.637l-0.636-0.091l-3.049-0.532l-0.644-0.131l-0.1,0.643l-0.56,3.145L42.5,20.108L43.194,20.23L43.194,20.23z"/>
		<path fill="#FFFFFF" d="M50.542,20.019c-0.046-0.288-0.091-0.488-0.125-0.589l-0.067-0.167c0.232,0.028,0.499,0.002,0.802-0.076
			c0.299-0.076,0.586-0.18,0.858-0.306c0.274-0.133,0.512-0.281,0.717-0.459l0.128-0.11c0.132,0.224,0.282,0.42,0.446,0.593
			c-0.342,0.199-0.628,0.369-0.864,0.496c-0.237,0.133-0.538,0.257-0.904,0.369C51.166,19.878,50.832,19.962,50.542,20.019
			L50.542,20.019z M50.465,21.143c0.108-0.021,0.251-0.062,0.435-0.125c0.182-0.068,0.368-0.144,0.561-0.229
			c0.197-0.091,0.39-0.201,0.585-0.336c0.197-0.129,0.318-0.222,0.37-0.264l0.106-0.099c0.123,0.247,0.262,0.477,0.416,0.699
			c-0.108,0.051-0.186,0.087-0.235,0.112l-0.427,0.205c-0.204,0.095-0.409,0.18-0.61,0.262c-0.205,0.078-0.449,0.16-0.747,0.247
			c0.61,0.305,1.215,0.596,1.811,0.889c-0.027-0.289-0.049-0.473-0.068-0.559l-0.069-0.342c0.279,0.033,0.461,0.038,0.546,0.025
			l0.144-0.019c0.113,0.796,0.192,1.447,0.249,1.947c-0.381,0.053-0.572,0.08-0.582,0.083l-0.2,0.046
			c0.008-0.078,0.014-0.152,0.016-0.217c0.006-0.061-0.001-0.18-0.012-0.357c-0.306-0.141-0.741-0.336-1.318-0.585
			c-0.571-0.247-0.925-0.393-1.058-0.448c-0.132-0.051-0.29-0.099-0.472-0.145c0.061-0.264,0.081-0.45,0.077-0.566l-0.008-0.186
			C50.191,21.178,50.36,21.16,50.465,21.143L50.465,21.143z M53.89,18.776c0.178,0.137,0.386,0.259,0.621,0.37
			c-0.045,0.065-0.074,0.12-0.105,0.179c-0.03,0.053-0.058,0.122-0.088,0.206c-0.03,0.089-0.062,0.247-0.093,0.48
			c-0.034,0.228-0.013,0.448,0.053,0.646c0.067,0.204,0.129,0.352,0.188,0.456c0.052,0.105,0.109,0.188,0.153,0.255
			c0.051,0.068,0.152,0.176,0.309,0.325c-0.069,0.023-0.14,0.054-0.204,0.091c-0.063,0.031-0.226,0.14-0.488,0.315
			c-0.188-0.256-0.345-0.518-0.453-0.792c-0.108-0.273-0.175-0.519-0.199-0.75c-0.025-0.224-0.024-0.439,0-0.648
			c0.027-0.203,0.055-0.374,0.089-0.503C53.708,19.28,53.78,19.069,53.89,18.776L53.89,18.776z"/>
		<path fill="#FFFFFF" d="M57.09,25.384l0.527-0.488l0.975,1.023l-0.526,0.492L57.09,25.384L57.09,25.384z M59.976,25.132
			l-1.549-1.643l-0.403-0.448l-0.459,0.421l0.428,0.428l1.554,1.646l0.44,0.494l0.463-0.427L59.976,25.132L59.976,25.132z
			 M58.965,23.327l2.092,2.215l-2.399,2.224c-0.076,0.068-0.13,0.1-0.171,0.106c-0.042,0.002-0.099-0.036-0.176-0.114
			c-0.031-0.023-0.077-0.076-0.135-0.145c-0.062-0.074-0.121-0.143-0.175-0.201l-0.082,0.193c-0.048,0.107-0.094,0.196-0.151,0.266
			c-0.053,0.071-0.105,0.137-0.151,0.19c0.314,0.296,0.54,0.467,0.688,0.519c0.141,0.055,0.242,0.072,0.304,0.047
			c0.058-0.017,0.149-0.085,0.267-0.195l2.67-2.464l0.422-0.361l-0.424-0.427l-2.135-2.262l-0.466-0.517l-0.468,0.428L58.965,23.327
			L58.965,23.327z M57.276,24.356l-0.679,0.627l-0.396,0.336l0.382,0.374l1.106,1.168l0.384,0.437l0.364-0.366l0.678-0.628
			l0.37-0.308l-0.415-0.41l-1.104-1.174l-0.351-0.396L57.276,24.356L57.276,24.356z"/>
		<path fill="#FFFFFF" d="M20.292,33.2l0.146,0.146l-0.144,0.289l-1.141-0.231l0.027-0.376c0.282,0,0.525-0.051,0.736-0.154
			c0.21-0.106,0.36-0.252,0.449-0.433c0.067-0.139,0.088-0.266,0.065-0.38c-0.027-0.115-0.09-0.201-0.192-0.247
			c-0.178-0.083-0.459,0.097-0.836,0.547c-0.056,0.062-0.098,0.11-0.129,0.138c-0.278,0.325-0.527,0.513-0.75,0.58
			c-0.222,0.064-0.467,0.036-0.745-0.095c-0.358-0.177-0.599-0.426-0.715-0.737c-0.118-0.323-0.091-0.653,0.082-1.002
			c0.074-0.154,0.166-0.287,0.279-0.407c0.106-0.122,0.24-0.228,0.382-0.319l-0.191-0.156l0.138-0.277l1.443,0.247l-0.037,0.418
			c-0.371-0.009-0.681,0.042-0.944,0.161c-0.265,0.118-0.451,0.281-0.556,0.506c-0.079,0.153-0.097,0.308-0.062,0.45
			c0.038,0.152,0.115,0.252,0.236,0.312c0.178,0.082,0.44-0.063,0.782-0.444c0.043-0.055,0.078-0.089,0.101-0.118
			c0.171-0.186,0.313-0.326,0.42-0.435c0.109-0.106,0.203-0.17,0.267-0.205c0.137-0.065,0.29-0.103,0.449-0.097
			c0.158,0.003,0.315,0.042,0.475,0.117c0.313,0.15,0.521,0.375,0.625,0.678c0.101,0.304,0.078,0.614-0.074,0.925
			c-0.066,0.129-0.147,0.245-0.242,0.344C20.539,33.044,20.423,33.127,20.292,33.2L20.292,33.2z"/>
		<path fill="#FFFFFF" d="M20.031,34.328l-0.862,2.65l-1.224,0.017l-0.034-0.352c0.317-0.04,0.554-0.11,0.714-0.214
			c0.161-0.101,0.271-0.261,0.338-0.463l0.016-0.053l-2.013-0.639c-0.28-0.089-0.467-0.113-0.562-0.089s-0.167,0.114-0.221,0.26
			l-0.444-0.139l0.517-1.601l0.445,0.142c-0.046,0.152-0.036,0.26,0.021,0.34c0.059,0.078,0.231,0.159,0.517,0.251l2.012,0.64
			l0.014-0.049c0.068-0.213,0.068-0.405,0.002-0.578c-0.069-0.177-0.216-0.37-0.454-0.579l0.233-0.264L20.031,34.328L20.031,34.328z
			"/>
		<path fill="#FFFFFF" d="M17.036,38.439l0.124-0.672l1.003,0.559L17.036,38.439L17.036,38.439z M16.613,36.847
			c-0.014-0.006-0.035-0.02-0.06-0.037c-0.32-0.184-0.476-0.401-0.469-0.642l-0.461-0.085l-0.263,1.385l0.447,0.084
			c0.031-0.14,0.07-0.229,0.119-0.279c0.051-0.044,0.128-0.059,0.221-0.038c0.011,0,0.027,0.005,0.047,0.014
			c0.017,0.007,0.034,0.011,0.061,0.019l0.483,0.236l-0.194,1.018l-0.548,0.074c-0.024,0.008-0.048,0.008-0.075,0.008
			c-0.026-0.004-0.059-0.004-0.091-0.011c-0.075-0.011-0.127-0.045-0.149-0.101c-0.026-0.056-0.027-0.145-0.003-0.26l0.004-0.04
			l-0.446-0.083l-0.31,1.612l0.461,0.086c0.063-0.187,0.252-0.306,0.566-0.35l0.026-0.003l2.927-0.412l0.148-0.758L16.613,36.847
			L16.613,36.847z"/>
		<path fill="#FFFFFF" d="M18.755,40.102l-0.124,2.784l-1.178,0.333l-0.126-0.333c0.297-0.122,0.506-0.249,0.627-0.384
			c0.125-0.146,0.198-0.324,0.203-0.541l0.002-0.056l-2.106-0.093c-0.301-0.016-0.491,0.006-0.575,0.059
			c-0.079,0.054-0.126,0.152-0.141,0.312l-0.465-0.024l0.079-1.675l0.464,0.017c-0.002,0.157,0.035,0.266,0.113,0.321
			c0.073,0.062,0.265,0.099,0.561,0.11l2.107,0.098l0.007-0.055c0.013-0.218-0.044-0.406-0.149-0.556
			c-0.114-0.152-0.312-0.295-0.593-0.443l0.157-0.313L18.755,40.102L18.755,40.102z"/>
		<path fill="#FFFFFF" d="M18.684,43.294l0.341,2.775l-1.077,0.587l-0.224-0.287c0.268-0.211,0.461-0.432,0.58-0.662
			c0.117-0.229,0.162-0.476,0.131-0.725c-0.022-0.146-0.064-0.241-0.125-0.286c-0.065-0.044-0.198-0.056-0.4-0.031l-0.539,0.062
			l0.02,0.167c0.022,0.169,0.074,0.283,0.154,0.329c0.084,0.053,0.25,0.071,0.489,0.053l0.044,0.355l-1.701,0.2l-0.042-0.349
			c0.22-0.054,0.376-0.12,0.466-0.205c0.091-0.08,0.125-0.192,0.108-0.325l-0.018-0.167l-0.879,0.107
			c-0.203,0.023-0.329,0.069-0.377,0.128c-0.057,0.059-0.072,0.162-0.057,0.312c0.036,0.254,0.158,0.491,0.372,0.714
			c0.212,0.226,0.488,0.408,0.837,0.545l-0.159,0.35l-1.351-0.354l-0.351-2.845l0.466-0.054c0.021,0.154,0.077,0.249,0.156,0.295
			c0.086,0.042,0.279,0.044,0.585,0.006l1.439-0.173c0.311-0.036,0.49-0.082,0.565-0.145c0.072-0.064,0.097-0.171,0.083-0.32
			L18.684,43.294L18.684,43.294z"/>
		<path fill="#FFFFFF" d="M20.023,50.179l0.174,0.012l0.116,0.298l-1.087,0.751l-0.294-0.304c0.259-0.272,0.432-0.514,0.516-0.724
			c0.083-0.206,0.087-0.409,0.01-0.603c-0.098-0.245-0.284-0.388-0.568-0.432c-0.287-0.039-0.649,0.021-1.087,0.192
			c-0.43,0.161-0.727,0.354-0.905,0.568c-0.175,0.212-0.215,0.444-0.117,0.688c0.074,0.199,0.191,0.334,0.347,0.402
			c0.153,0.078,0.324,0.08,0.506,0.004c0.128-0.05,0.211-0.116,0.245-0.196c0.036-0.081,0.022-0.191-0.023-0.334l0.412-0.159
			l0.567,1.456l-0.411,0.16c-0.087-0.133-0.175-0.206-0.263-0.229c-0.084-0.022-0.223,0.004-0.412,0.08l-0.938,0.359l-0.187-0.464
			l0.243-0.241c-0.171-0.095-0.308-0.213-0.42-0.335c-0.109-0.129-0.2-0.282-0.272-0.467c-0.171-0.433-0.131-0.849,0.106-1.242
			c0.246-0.39,0.649-0.695,1.219-0.919c0.529-0.201,1.021-0.219,1.48-0.046c0.456,0.169,0.774,0.49,0.959,0.954
			c0.041,0.115,0.073,0.238,0.088,0.358C20.04,49.896,20.04,50.033,20.023,50.179L20.023,50.179z"/>
		<path fill="#FFFFFF" d="M20.375,52.724c0.175-0.093,0.3-0.133,0.375-0.115c0.079,0.021,0.155,0.103,0.233,0.243
			c0.115,0.195,0.152,0.382,0.13,0.549c-0.029,0.161-0.124,0.283-0.282,0.372c-0.176,0.096-0.341,0.096-0.508,0.008
			c-0.16-0.093-0.322-0.283-0.471-0.559c-0.026-0.044-0.046-0.076-0.057-0.101c-0.011-0.027-0.023-0.048-0.031-0.07L20.375,52.724
			L20.375,52.724z M20.167,51.37c0.073,0.146,0.09,0.258,0.049,0.344c-0.045,0.089-0.197,0.203-0.46,0.349l-1.283,0.69
			c-0.261,0.139-0.442,0.204-0.541,0.195c-0.095-0.01-0.182-0.088-0.268-0.228l-0.407,0.226l0.818,1.485l0.411-0.221
			c-0.077-0.145-0.089-0.26-0.048-0.346c0.045-0.091,0.199-0.203,0.461-0.34l0.421-0.228l0.162,0.296l-0.919,1.721l0.525,0.952
			l0.4-0.219c-0.05-0.112-0.068-0.218-0.065-0.32c0-0.096,0.033-0.206,0.098-0.337l0.502-1.047c0.204,0.192,0.408,0.304,0.613,0.341
			c0.205,0.03,0.42-0.012,0.646-0.132c0.304-0.169,0.474-0.388,0.509-0.678c0.038-0.275-0.052-0.623-0.277-1.033l-0.938-1.696
			L20.167,51.37L20.167,51.37z"/>
		<path fill="#FFFFFF" d="M22.37,54.371l1.011,1.386l-0.374,0.275c-0.104-0.131-0.204-0.193-0.303-0.193
			c-0.098-0.004-0.27,0.085-0.507,0.259l-1.185,0.843c-0.238,0.171-0.378,0.304-0.408,0.399c-0.03,0.093-0.002,0.208,0.091,0.345
			l-0.379,0.268l-1.017-1.388l0.382-0.271c0.103,0.13,0.201,0.194,0.3,0.194c0.098,0,0.273-0.089,0.511-0.256l1.182-0.85
			c0.24-0.173,0.376-0.306,0.406-0.398c0.031-0.092,0.006-0.206-0.09-0.344L22.37,54.371L22.37,54.371z"/>
		<path fill="#FFFFFF" d="M23.676,57.529c0.169-0.131,0.286-0.193,0.355-0.189c0.073,0.008,0.152,0.062,0.248,0.178
			c0.204,0.253,0.267,0.528,0.193,0.832c-0.081,0.299-0.292,0.593-0.643,0.87c-0.34,0.275-0.674,0.418-0.991,0.432
			c-0.315,0.011-0.573-0.112-0.781-0.363c-0.088-0.112-0.134-0.203-0.123-0.275c0.008-0.068,0.095-0.169,0.258-0.298L23.676,57.529
			L23.676,57.529z M23.251,56.251c0.091,0.12,0.125,0.22,0.101,0.306c-0.031,0.095-0.164,0.233-0.405,0.426l-1.128,0.907
			c-0.245,0.188-0.413,0.285-0.502,0.293c-0.093,0.01-0.191-0.044-0.289-0.161l-0.367,0.29l1.046,1.292
			c0.404,0.485,0.832,0.762,1.3,0.818c0.463,0.059,0.935-0.103,1.409-0.482c0.477-0.386,0.736-0.803,0.777-1.267
			c0.04-0.454-0.137-0.933-0.536-1.427l-1.043-1.28L23.251,56.251L23.251,56.251z"/>
		<path fill="#FFFFFF" d="M28.903,61.218l0.185-0.146l0.216,0.161l-0.487,1.366l-0.361-0.116c0.092-0.328,0.11-0.626,0.062-0.896
			c-0.052-0.26-0.156-0.459-0.33-0.594c-0.231-0.17-0.492-0.2-0.782-0.093c-0.292,0.104-0.578,0.338-0.845,0.69
			c-0.276,0.355-0.417,0.687-0.436,0.998c-0.014,0.305,0.102,0.556,0.343,0.736c0.165,0.127,0.379,0.195,0.638,0.195
			c0.259,0.008,0.518-0.049,0.778-0.17l0.214,0.406c-0.389,0.201-0.75,0.306-1.096,0.288c-0.34-0.015-0.664-0.133-0.965-0.362
			c-0.433-0.325-0.671-0.733-0.71-1.218c-0.041-0.484,0.117-0.967,0.486-1.441c0.349-0.45,0.761-0.722,1.248-0.811
			c0.49-0.094,0.933,0.017,1.338,0.32c0.106,0.082,0.203,0.179,0.286,0.291C28.765,60.933,28.837,61.067,28.903,61.218
			L28.903,61.218z"/>
		<path fill="#FFFFFF" d="M31.564,63.271c0.029,0.302-0.056,0.663-0.259,1.09c-0.2,0.421-0.43,0.717-0.684,0.886
			c-0.253,0.165-0.511,0.193-0.763,0.074c-0.259-0.12-0.4-0.333-0.43-0.631c-0.027-0.302,0.061-0.665,0.262-1.09
			c0.205-0.424,0.436-0.718,0.687-0.889c0.252-0.165,0.512-0.19,0.768-0.074C31.395,62.758,31.536,62.969,31.564,63.271
			L31.564,63.271z M29.904,62.135c-0.46,0.183-0.82,0.537-1.069,1.063c-0.256,0.53-0.305,1.031-0.154,1.499
			c0.151,0.469,0.471,0.818,0.966,1.057c0.496,0.228,0.975,0.259,1.438,0.073c0.468-0.183,0.822-0.537,1.078-1.064
			c0.252-0.529,0.307-1.028,0.152-1.495c-0.149-0.472-0.474-0.823-0.973-1.055C30.847,61.979,30.368,61.956,29.904,62.135
			L29.904,62.135z"/>
		<path fill="#FFFFFF" d="M34.051,64.342c0.055-0.188,0.121-0.306,0.188-0.342c0.067-0.04,0.179-0.038,0.331,0.008
			c0.221,0.064,0.388,0.165,0.48,0.298c0.097,0.139,0.122,0.289,0.069,0.464c-0.057,0.189-0.173,0.306-0.352,0.357
			c-0.182,0.051-0.422,0.026-0.734-0.066c-0.051-0.02-0.088-0.023-0.114-0.033c-0.027-0.01-0.048-0.017-0.065-0.024L34.051,64.342
			L34.051,64.342z M32.941,63.52c0.152,0.058,0.25,0.131,0.278,0.218c0.031,0.09,0.003,0.28-0.085,0.564l-0.417,1.383
			c-0.087,0.283-0.168,0.456-0.244,0.512c-0.073,0.055-0.193,0.073-0.351,0.029l-0.135,0.446l1.642,0.484l0.135-0.444
			c-0.155-0.047-0.249-0.121-0.281-0.211c-0.029-0.095,0-0.283,0.083-0.563l0.139-0.452l0.326,0.099l0.57,1.864l1.047,0.305
			l0.132-0.429c-0.11-0.05-0.206-0.104-0.273-0.176c-0.067-0.075-0.126-0.18-0.17-0.316l-0.391-1.095
			c0.287-0.005,0.509-0.064,0.683-0.184c0.169-0.118,0.293-0.298,0.366-0.545c0.096-0.327,0.057-0.606-0.116-0.833
			c-0.174-0.229-0.489-0.407-0.934-0.542l-1.874-0.551L32.941,63.52L32.941,63.52z"/>
		<path fill="#FFFFFF" d="M37.85,65.204c0.023-0.193,0.064-0.317,0.114-0.37c0.049-0.057,0.138-0.076,0.267-0.057
			c0.195,0.022,0.343,0.101,0.433,0.226c0.096,0.119,0.138,0.283,0.107,0.477c-0.023,0.215-0.112,0.371-0.257,0.464
			c-0.142,0.093-0.346,0.123-0.604,0.091c-0.037-0.008-0.07-0.008-0.097-0.013c-0.023-0.004-0.043-0.009-0.067-0.012L37.85,65.204
			L37.85,65.204z M36.647,64.573c0.146,0.021,0.246,0.078,0.29,0.16c0.038,0.08,0.045,0.275,0.003,0.583l-0.182,1.428
			c-0.041,0.305-0.088,0.482-0.151,0.555c-0.065,0.066-0.169,0.095-0.319,0.08l-0.058,0.459l1.647,0.206l0.056-0.458
			c-0.151-0.026-0.245-0.076-0.288-0.163c-0.041-0.086-0.046-0.271-0.009-0.57l0.051-0.383l0.584,0.073
			c0.415,0.053,0.741,0.004,0.974-0.151c0.23-0.148,0.364-0.404,0.415-0.762c0.045-0.366-0.027-0.659-0.223-0.88
			c-0.198-0.22-0.511-0.351-0.941-0.404l-1.792-0.226L36.647,64.573L36.647,64.573z"/>
		<path fill="#FFFFFF" d="M42.274,65.269c0.167,0.259,0.264,0.618,0.276,1.089c0.021,0.465-0.043,0.83-0.194,1.096
			c-0.145,0.268-0.36,0.404-0.638,0.414c-0.283,0.009-0.509-0.109-0.677-0.367c-0.164-0.25-0.256-0.61-0.274-1.08
			c-0.018-0.467,0.049-0.839,0.195-1.104c0.146-0.264,0.361-0.402,0.643-0.416C41.887,64.893,42.107,65.015,42.274,65.269
			L42.274,65.269z M40.274,65.021c-0.326,0.377-0.476,0.85-0.456,1.435c0.021,0.585,0.208,1.054,0.564,1.401
			c0.356,0.347,0.798,0.507,1.355,0.488c0.542-0.018,0.977-0.215,1.305-0.588c0.329-0.371,0.48-0.85,0.462-1.435
			c-0.023-0.585-0.211-1.054-0.567-1.399c-0.351-0.349-0.807-0.511-1.353-0.494C41.041,64.458,40.6,64.647,40.274,65.021
			L40.274,65.021z"/>
		<path fill="#FFFFFF" d="M44.815,65.115c-0.028-0.192-0.022-0.323,0.019-0.394c0.047-0.059,0.146-0.108,0.307-0.131
			c0.226-0.038,0.416-0.02,0.56,0.057c0.151,0.086,0.237,0.212,0.269,0.39c0.031,0.192-0.022,0.352-0.159,0.475
			c-0.144,0.122-0.368,0.207-0.688,0.257c-0.053,0.007-0.094,0.019-0.115,0.021c-0.026,0.002-0.054,0.006-0.074,0.01L44.815,65.115
			L44.815,65.115z M43.457,64.866c0.162-0.026,0.281,0.002,0.344,0.07c0.07,0.066,0.131,0.247,0.178,0.541l0.239,1.423
			c0.046,0.298,0.053,0.486,0.006,0.568c-0.038,0.089-0.139,0.147-0.301,0.179l0.079,0.453l1.685-0.27l-0.077-0.456
			c-0.161,0.023-0.272-0.005-0.342-0.072c-0.071-0.066-0.126-0.25-0.171-0.547l-0.08-0.463l0.337-0.056l1.335,1.435l1.079-0.181
			l-0.07-0.446c-0.128,0.01-0.235-0.004-0.328-0.044c-0.091-0.034-0.191-0.101-0.288-0.209l-0.839-0.812
			c0.255-0.124,0.431-0.28,0.529-0.457c0.1-0.186,0.129-0.396,0.091-0.652c-0.059-0.335-0.219-0.564-0.473-0.697
			c-0.258-0.129-0.617-0.151-1.085-0.076l-1.923,0.312L43.457,64.866L43.457,64.866z"/>
		<path fill="#FFFFFF" d="M49.4,64.937l-0.643,0.249l-0.052-1.138L49.4,64.937L49.4,64.937z M48.259,66.133c0,0.014,0,0.04,0,0.07
			c0.006,0.365-0.096,0.613-0.306,0.735l0.172,0.427l1.325-0.507l-0.164-0.418c-0.133,0.042-0.233,0.059-0.299,0.044
			c-0.068-0.021-0.117-0.074-0.151-0.164c-0.006-0.011-0.012-0.031-0.015-0.047c-0.006-0.021-0.01-0.038-0.013-0.059l-0.052-0.537
			l0.976-0.371l0.354,0.42c0.015,0.015,0.027,0.038,0.045,0.061c0.015,0.026,0.024,0.052,0.038,0.084
			c0.026,0.072,0.021,0.131-0.011,0.178c-0.034,0.048-0.107,0.096-0.216,0.138l-0.042,0.017l0.166,0.422l1.542-0.591l-0.167-0.436
			c-0.191,0.05-0.395-0.047-0.599-0.292l-0.018-0.017l-1.902-2.245l-0.725,0.277L48.259,66.133L48.259,66.133z"/>
		<path fill="#FFFFFF" d="M50.045,62.697l2.487-1.293l0.888,0.828l-0.226,0.281c-0.25-0.198-0.469-0.311-0.656-0.345
			c-0.184-0.034-0.376-0.004-0.571,0.101l-0.05,0.023l0.991,1.848c0.137,0.259,0.25,0.413,0.34,0.458
			c0.083,0.046,0.2,0.034,0.343-0.036l0.22,0.41l-1.505,0.781l-0.216-0.405c0.14-0.077,0.213-0.165,0.225-0.258
			c0.012-0.097-0.048-0.273-0.192-0.534l-0.985-1.854l-0.048,0.022c-0.2,0.108-0.334,0.241-0.406,0.414
			c-0.078,0.171-0.106,0.416-0.088,0.733l-0.354,0.022L50.045,62.697L50.045,62.697z"/>
		<path fill="#FFFFFF" d="M52.949,61.138l1.426-0.974l0.265,0.38c-0.135,0.099-0.2,0.195-0.203,0.292
			c0,0.099,0.086,0.27,0.247,0.513l0.832,1.187c0.165,0.242,0.293,0.381,0.393,0.415c0.089,0.029,0.209,0.007,0.346-0.084
			l0.266,0.384l-1.428,0.973l-0.26-0.378c0.132-0.099,0.195-0.2,0.202-0.297c0-0.101-0.081-0.271-0.251-0.514l-0.826-1.189
			c-0.171-0.239-0.301-0.378-0.393-0.412c-0.095-0.03-0.211-0.002-0.351,0.083L52.949,61.138L52.949,61.138z"/>
		<path fill="#FFFFFF" d="M56.897,59.227c0.285,0.115,0.568,0.365,0.854,0.738c0.281,0.373,0.437,0.714,0.467,1.014
			c0.031,0.304-0.067,0.533-0.288,0.704c-0.228,0.166-0.483,0.188-0.765,0.07c-0.282-0.114-0.564-0.354-0.849-0.737
			c-0.284-0.373-0.44-0.71-0.473-1.012c-0.031-0.302,0.067-0.533,0.293-0.706C56.361,59.135,56.614,59.109,56.897,59.227
			L56.897,59.227z M55.109,60.148c-0.053,0.488,0.098,0.963,0.448,1.435c0.353,0.471,0.776,0.748,1.267,0.835
			c0.49,0.092,0.952-0.028,1.397-0.354c0.437-0.322,0.682-0.731,0.741-1.225c0.054-0.484-0.095-0.967-0.451-1.435
			c-0.35-0.467-0.773-0.75-1.263-0.833c-0.489-0.088-0.957,0.026-1.393,0.351C55.411,59.25,55.167,59.658,55.109,60.148
			L55.109,60.148z"/>
		<path fill="#FFFFFF" d="M61.991,52.318c0.312-0.033,0.677,0.051,1.106,0.254c0.428,0.197,0.728,0.422,0.894,0.669
			c0.177,0.256,0.199,0.507,0.077,0.758c-0.124,0.254-0.333,0.396-0.635,0.427c-0.305,0.027-0.673-0.055-1.099-0.259
			c-0.429-0.197-0.73-0.425-0.9-0.678c-0.174-0.252-0.195-0.501-0.076-0.756C61.477,52.487,61.69,52.343,61.991,52.318
			L61.991,52.318z M60.854,53.961c0.182,0.451,0.541,0.811,1.078,1.058c0.532,0.252,1.035,0.302,1.507,0.15
			c0.476-0.15,0.835-0.474,1.067-0.962c0.231-0.491,0.259-0.966,0.07-1.42c-0.179-0.464-0.538-0.819-1.07-1.071
			c-0.539-0.249-1.043-0.298-1.516-0.146c-0.474,0.152-0.826,0.479-1.06,0.965C60.696,53.024,60.669,53.505,60.854,53.961
			L60.854,53.961z"/>
		<path fill="#FFFFFF" d="M61.806,50.798l0.931-2.678l1.189-0.114l0.06,0.341c-0.308,0.078-0.561,0.195-0.759,0.355
			c-0.196,0.158-0.336,0.358-0.421,0.604c-0.054,0.159-0.061,0.279-0.029,0.352c0.037,0.076,0.153,0.146,0.343,0.209l0.497,0.171
			l0.051-0.146c0.06-0.187,0.067-0.327,0.016-0.416c-0.053-0.095-0.192-0.185-0.408-0.268l0.106-0.299l1.665,0.566l-0.108,0.302
			c-0.216-0.047-0.383-0.047-0.51-0.005c-0.123,0.043-0.213,0.142-0.264,0.288l-0.052,0.148l0.596,0.203
			c0.284,0.095,0.472,0.132,0.563,0.103c0.095-0.028,0.174-0.119,0.231-0.273l0.444,0.154l-0.565,1.627l-0.443-0.149
			c0.044-0.162,0.044-0.275-0.012-0.357c-0.054-0.078-0.225-0.165-0.508-0.266l-1.384-0.465c-0.279-0.1-0.462-0.14-0.553-0.105
			c-0.09,0.029-0.174,0.116-0.239,0.267L61.806,50.798L61.806,50.798z"/>
		<path fill="#FFFFFF" d="M63.661,44.06l-0.223-0.094l0.034-0.259l1.441-0.257l0.074,0.37c-0.334,0.082-0.602,0.213-0.814,0.39
			c-0.211,0.173-0.329,0.368-0.355,0.579c-0.04,0.279,0.062,0.517,0.301,0.716c0.237,0.199,0.58,0.33,1.022,0.39
			c0.453,0.059,0.811,0.017,1.094-0.116c0.279-0.141,0.437-0.357,0.478-0.661c0.03-0.206-0.02-0.419-0.146-0.646
			c-0.125-0.223-0.302-0.423-0.54-0.585l0.256-0.385c0.371,0.233,0.636,0.502,0.792,0.8c0.162,0.305,0.215,0.64,0.162,1.015
			c-0.068,0.53-0.312,0.933-0.716,1.212c-0.411,0.271-0.907,0.37-1.506,0.288c-0.568-0.073-1.015-0.3-1.334-0.673
			c-0.318-0.373-0.444-0.812-0.377-1.312c0.015-0.135,0.054-0.261,0.115-0.384C63.477,44.319,63.555,44.187,63.661,44.06
			L63.661,44.06z"/>
		<path fill="#FFFFFF" d="M63.458,43.342l-0.071-1.677l0.449-0.013c0.012,0.152,0.059,0.257,0.146,0.311
			c0.084,0.05,0.277,0.07,0.576,0.061l0.38-0.018l-0.053-1.279l-0.381,0.015c-0.304,0.013-0.495,0.047-0.571,0.11
			c-0.081,0.057-0.118,0.163-0.118,0.317l-0.446,0.024l-0.07-1.681l0.465-0.019c0.014,0.158,0.058,0.262,0.137,0.312
			c0.082,0.051,0.273,0.074,0.581,0.059l1.451-0.06c0.303-0.012,0.49-0.046,0.572-0.104c0.07-0.06,0.111-0.164,0.108-0.324
			l0.463-0.017l0.072,1.677l-0.448,0.015c-0.01-0.151-0.052-0.254-0.14-0.309c-0.083-0.055-0.276-0.071-0.577-0.057l-0.634,0.022
			l0.054,1.278l0.633-0.024c0.304-0.014,0.495-0.05,0.571-0.106c0.077-0.055,0.116-0.161,0.109-0.319l0.451-0.02l0.074,1.674
			l-0.467,0.019c-0.013-0.153-0.062-0.255-0.141-0.31c-0.079-0.053-0.273-0.068-0.572-0.061l-1.455,0.061
			c-0.301,0.012-0.489,0.047-0.569,0.105c-0.08,0.061-0.117,0.169-0.117,0.32L63.458,43.342L63.458,43.342z"/>
		<path fill="#FFFFFF" d="M63.288,39.325c0,0-0.078-0.353-0.17-0.921c-0.09-0.568-0.139-0.768-0.139-0.768l0.46-0.08
			c0.039,0.16,0.101,0.258,0.19,0.304c0.089,0.042,0.281,0.034,0.572-0.017l1.439-0.256c0.285-0.049,0.465-0.11,0.537-0.182
			c0.068-0.07,0.091-0.188,0.072-0.35l0.457-0.08l0.308,1.683l-0.46,0.082c-0.033-0.159-0.101-0.258-0.187-0.3
			c-0.092-0.046-0.284-0.038-0.574,0.014l-1.433,0.255c-0.297,0.052-0.477,0.114-0.545,0.185c-0.069,0.068-0.091,0.186-0.069,0.349
			L63.288,39.325L63.288,39.325z"/>
		<path fill="#FFFFFF" d="M62.962,37.448l-0.39-1.381l1.76-1.713l-0.976,0.273c-0.285,0.082-0.462,0.157-0.522,0.226
			c-0.064,0.072-0.077,0.184-0.042,0.337l-0.438,0.122l-0.342-1.202l0.45-0.131c0.045,0.154,0.117,0.242,0.21,0.273
			c0.087,0.032,0.281,0.006,0.569-0.077l2.52-0.703l0.172,0.592l-2.362,2.319l1.69-0.481c0.288-0.074,0.463-0.153,0.528-0.229
			c0.058-0.066,0.071-0.182,0.035-0.336l0.434-0.125l0.349,1.216l-0.448,0.123c-0.045-0.148-0.12-0.235-0.214-0.27
			c-0.091-0.03-0.277-0.004-0.57,0.076l-1.396,0.391c-0.29,0.08-0.465,0.156-0.529,0.232c-0.059,0.075-0.073,0.186-0.03,0.341
			L62.962,37.448L62.962,37.448z"/>
		<path fill="#FFFFFF" d="M63.149,31.956l0.286,0.625l-1.144,0.117L63.149,31.956L63.149,31.956z M64.418,33.025
			c0.016-0.003,0.042-0.003,0.071-0.005c0.372-0.029,0.623,0.062,0.752,0.256l0.428-0.188l-0.584-1.284l-0.417,0.188
			c0.058,0.129,0.081,0.228,0.063,0.292c-0.015,0.068-0.066,0.12-0.153,0.16c-0.015,0.005-0.031,0.011-0.052,0.017
			c-0.016,0.006-0.037,0.011-0.053,0.018l-0.541,0.083l-0.427-0.948l0.403-0.374c0.016-0.012,0.039-0.03,0.061-0.043
			c0.023-0.016,0.049-0.031,0.079-0.042c0.074-0.034,0.132-0.036,0.188-0.001c0.045,0.028,0.096,0.102,0.148,0.205l0.012,0.038
			l0.42-0.185l-0.682-1.497l-0.43,0.19c0.058,0.189-0.024,0.393-0.256,0.615l-0.018,0.008l-2.163,2.003l0.315,0.702L64.418,33.025
			L64.418,33.025z"/>
		<path fill="#FFFFFF" d="M57.125,57.91l0.933-1.099l2.42,0.475l-0.779-0.642c-0.23-0.188-0.39-0.295-0.483-0.305
			c-0.098-0.009-0.2,0.044-0.305,0.155l-0.347-0.287l0.811-0.961l0.36,0.298c-0.101,0.123-0.135,0.231-0.108,0.325
			c0.024,0.091,0.153,0.231,0.386,0.425l2.001,1.666l-0.396,0.473l-3.264-0.631l1.345,1.121c0.228,0.188,0.39,0.291,0.488,0.3
			c0.095,0.008,0.2-0.047,0.304-0.161l0.353,0.286l-0.82,0.968l-0.36-0.297c0.098-0.125,0.135-0.233,0.108-0.324
			c-0.024-0.096-0.156-0.234-0.386-0.43l-1.113-0.92c-0.23-0.189-0.392-0.293-0.492-0.299c-0.092-0.012-0.198,0.043-0.301,0.159
			L57.125,57.91L57.125,57.91z"/>
		<path fill="#FFFFFF" d="M20.157,42.154c0,11.521,9.374,20.895,20.896,20.895c11.524,0,20.897-9.373,20.897-20.895
			c0-11.524-9.374-20.901-20.897-20.901C29.531,21.253,20.157,30.63,20.157,42.154L20.157,42.154z M20.595,42.154
			c0-11.285,9.177-20.464,20.458-20.464c11.283,0,20.46,9.179,20.46,20.464c0,11.278-9.177,20.456-20.46,20.456
			C29.771,62.61,20.595,53.433,20.595,42.154L20.595,42.154z"/>
		<path fill="#FFFFFF" d="M97.782,49.898l0.295-0.773h1.321l1.213,4.41l-1.463,0.551c-0.515-0.983-1.16-1.751-1.941-2.298
			c-0.768-0.555-1.585-0.824-2.434-0.824c-0.647,0-1.164,0.135-1.55,0.419c-0.389,0.289-0.583,0.654-0.583,1.117
			c0,0.756,1.19,1.421,3.57,1.991c0.346,0.085,0.6,0.155,0.777,0.202c1.699,0.434,2.881,0.982,3.532,1.646
			c0.653,0.677,0.98,1.598,0.98,2.789c0,1.583-0.493,2.851-1.48,3.813c-0.979,0.961-2.279,1.441-3.897,1.441
			c-0.699,0-1.383-0.089-2.041-0.273c-0.649-0.179-1.284-0.452-1.883-0.805l-0.235,0.938h-1.297l-1.668-5.528l1.634-0.598
			c0.628,1.33,1.4,2.355,2.311,3.073c0.912,0.724,1.876,1.085,2.908,1.085c0.716,0,1.323-0.195,1.811-0.571
			c0.487-0.386,0.731-0.842,0.731-1.358c0-0.794-1.028-1.457-3.082-1.998c-0.275-0.07-0.487-0.119-0.638-0.161
			c-1.007-0.271-1.81-0.51-2.401-0.716c-0.588-0.213-1.004-0.406-1.247-0.587c-0.517-0.371-0.912-0.842-1.195-1.411
			c-0.272-0.566-0.407-1.201-0.407-1.883c0-1.359,0.475-2.484,1.418-3.381c0.947-0.896,2.157-1.341,3.629-1.341
			c0.603,0,1.179,0.085,1.723,0.257C96.741,49.3,97.275,49.558,97.782,49.898L97.782,49.898z"/>
		<path fill="#FFFFFF" d="M102.333,51.995h9.462l1.311,3.701l-1.103,0.454c-0.448-0.922-0.923-1.566-1.413-1.947
			c-0.498-0.375-1.115-0.562-1.862-0.562h-0.179v6.7c0,0.94,0.097,1.539,0.283,1.795c0.185,0.252,0.542,0.388,1.076,0.408v1.506
			h-5.684v-1.506c0.527-0.021,0.883-0.156,1.07-0.4c0.191-0.247,0.28-0.854,0.28-1.803v-6.7h-0.172
			c-0.752,0-1.375,0.186-1.875,0.562c-0.487,0.381-0.955,1.025-1.401,1.947l-1.101-0.454L102.333,51.995L102.333,51.995z"/>
		<path fill="#FFFFFF" d="M118.162,58.213h-2.323l1.24-3.46L118.162,58.213L118.162,58.213z M113.107,60.49
			c-0.015,0.052-0.05,0.125-0.085,0.222c-0.431,1.121-1.048,1.738-1.851,1.861v1.478h4.791v-1.44
			c-0.479-0.01-0.812-0.086-0.998-0.212c-0.186-0.133-0.274-0.356-0.274-0.666c0-0.042,0.004-0.101,0.007-0.161
			c0.013-0.063,0.03-0.13,0.044-0.192l0.488-1.677h3.507l0.6,1.677c0.029,0.068,0.051,0.15,0.063,0.239
			c0.019,0.086,0.028,0.181,0.028,0.29c0,0.254-0.083,0.432-0.251,0.54c-0.168,0.106-0.455,0.162-0.86,0.162h-0.144v1.44h5.585
			v-1.478c-0.668-0.081-1.178-0.605-1.532-1.574l-0.019-0.072L119,51.995h-2.616L113.107,60.49L113.107,60.49z"/>
		<path fill="#FFFFFF" d="M123.129,51.995h9.462l1.313,3.701l-1.105,0.454c-0.447-0.922-0.916-1.566-1.41-1.947
			c-0.5-0.375-1.117-0.562-1.861-0.562h-0.172v6.7c0,0.94,0.083,1.539,0.274,1.795c0.188,0.252,0.546,0.388,1.082,0.408v1.506
			h-5.685v-1.506c0.521-0.021,0.885-0.156,1.07-0.4c0.185-0.247,0.281-0.854,0.281-1.803v-6.7h-0.172
			c-0.753,0-1.375,0.186-1.874,0.562c-0.496,0.381-0.966,1.025-1.404,1.947l-1.099-0.454L123.129,51.995L123.129,51.995z"/>
		<path fill="#FFFFFF" d="M133.592,51.995h9.48l1.532,3.633l-1.039,0.59c-0.622-0.928-1.281-1.615-2.006-2.069
			c-0.729-0.457-1.524-0.682-2.39-0.682c-0.492,0-0.831,0.088-1.01,0.273c-0.173,0.181-0.26,0.606-0.26,1.263v1.727h0.55
			c0.589,0,0.985-0.121,1.188-0.362c0.204-0.237,0.331-0.739,0.37-1.505h1.226v5.439h-1.226c-0.068-0.723-0.237-1.24-0.484-1.564
			c-0.247-0.319-0.604-0.478-1.073-0.478h-0.55v2.821c0,0.647,0.091,1.063,0.268,1.252c0.18,0.184,0.53,0.277,1.042,0.277
			c0.862,0,1.715-0.297,2.564-0.886c0.838-0.585,1.564-1.401,2.166-2.442l1.107,0.623l-1.74,4.146h-9.716v-1.484
			c0.521-0.021,0.876-0.15,1.055-0.394c0.194-0.246,0.277-0.862,0.277-1.835v-4.622c0-0.977-0.083-1.586-0.277-1.841
			c-0.179-0.247-0.534-0.378-1.055-0.388V51.995L133.592,51.995z"/>
		<path fill="#FFFFFF" d="M161.584,49.647l0.309-0.617h1.337l1.3,5.056l-1.636,0.64c-0.664-1.344-1.34-2.318-2.03-2.923
			c-0.69-0.611-1.469-0.913-2.328-0.913c-1.092,0-1.935,0.486-2.529,1.468c-0.595,0.98-0.891,2.387-0.891,4.227
			c0,1.806,0.288,3.19,0.863,4.141c0.57,0.949,1.404,1.42,2.498,1.42c0.876,0,1.564-0.229,2.077-0.691
			c0.518-0.45,0.779-1.069,0.779-1.838c0-0.536-0.136-0.922-0.402-1.164c-0.265-0.238-0.716-0.369-1.345-0.394v-1.73h6.567v1.73
			c-0.646,0.141-1.074,0.357-1.283,0.642c-0.209,0.273-0.32,0.817-0.32,1.604v3.944h-2.116l-0.561-1.221
			c-0.631,0.479-1.276,0.828-1.944,1.051c-0.663,0.218-1.401,0.328-2.212,0.328c-1.945,0-3.496-0.723-4.662-2.165
			c-1.174-1.452-1.757-3.377-1.757-5.771c0-2.239,0.674-4.069,2.025-5.494c1.345-1.417,3.061-2.132,5.151-2.132
			c0.52,0,1.031,0.066,1.53,0.194C160.501,49.157,161.03,49.37,161.584,49.647L161.584,49.647z"/>
		<path fill="#FFFFFF" d="M170.225,55.007c0-0.627,0.095-1.039,0.276-1.225c0.182-0.181,0.541-0.275,1.089-0.275
			c0.765,0,1.379,0.169,1.826,0.49c0.449,0.326,0.672,0.774,0.672,1.35c0,0.633-0.261,1.109-0.798,1.423
			c-0.527,0.315-1.335,0.469-2.416,0.469c-0.18,0-0.307-0.002-0.398-0.002c-0.091-0.006-0.173-0.012-0.251-0.017V55.007
			L170.225,55.007z M165.851,53.507c0.55,0.015,0.916,0.151,1.102,0.404c0.185,0.251,0.273,0.85,0.273,1.808v4.627
			c0,0.946-0.089,1.546-0.273,1.793c-0.186,0.243-0.552,0.382-1.102,0.407v1.505h5.774v-1.505c-0.556-0.021-0.922-0.156-1.12-0.407
			c-0.185-0.247-0.28-0.847-0.28-1.793v-1.51h1.148l3.646,5.215h3.66v-1.474c-0.397-0.04-0.754-0.137-1.037-0.3
			c-0.29-0.161-0.57-0.418-0.857-0.801l-2.31-2.998c0.9-0.266,1.571-0.661,2.003-1.176c0.439-0.523,0.65-1.201,0.65-2.021
			c0-1.106-0.388-1.926-1.168-2.469c-0.784-0.541-1.964-0.818-3.551-0.818h-6.558L165.851,53.507L165.851,53.507z"/>
		<path fill="#FFFFFF" d="M178.23,51.995h5.794v1.512c-0.547,0.015-0.924,0.151-1.11,0.414c-0.192,0.255-0.294,0.858-0.294,1.795
			v4.622c0,0.938,0.102,1.535,0.294,1.791c0.187,0.253,0.563,0.392,1.11,0.417v1.505h-5.794v-1.505
			c0.549-0.025,0.919-0.164,1.112-0.417c0.188-0.256,0.289-0.853,0.289-1.791v-4.622c0-0.944-0.101-1.546-0.289-1.795
			c-0.193-0.249-0.563-0.392-1.112-0.414V51.995L178.23,51.995z"/>
		<path fill="#FFFFFF" d="M188.84,54.997c0-0.672,0.087-1.09,0.25-1.257c0.166-0.171,0.499-0.253,0.999-0.253
			c1.104,0,1.975,0.402,2.607,1.202c0.645,0.804,0.959,1.913,0.959,3.335c0,1.416-0.314,2.525-0.959,3.332
			c-0.633,0.806-1.504,1.21-2.607,1.21c-0.5,0-0.833-0.082-0.999-0.245c-0.163-0.167-0.25-0.585-0.25-1.25V54.997L188.84,54.997z
			 M184.576,53.487c0.506,0.01,0.845,0.137,1.023,0.373c0.181,0.244,0.261,0.862,0.261,1.855v4.622c0,0.986-0.08,1.6-0.261,1.842
			c-0.179,0.246-0.518,0.366-1.023,0.387v1.484h5.608c2.143,0,3.773-0.515,4.908-1.549c1.126-1.034,1.694-2.522,1.694-4.478
			c0-1.945-0.568-3.44-1.702-4.478c-1.129-1.034-2.767-1.552-4.9-1.552h-5.608V53.487L184.576,53.487z"/>
		<path fill="#FFFFFF" d="M103.557,38.32v-3.805h1.868c-0.521,0.54-1.026,0.975-1.522,1.293c0.941,0.839,1.512,1.406,1.731,1.709
			c0.224,0.294,0.406,0.566,0.574,0.802H103.557L103.557,38.32z M94.129,41.275l2.392-0.07h10.627l2.528,0.07v-3.02l-2.045,0.065
			c0.463-0.521,0.882-0.992,1.288-1.413l-0.671-0.696l-0.958-0.957c-0.157-0.148-0.369-0.401-0.642-0.739l2.037,0.112V31.5
			l-1.741,0.066h-3.389V28.78h3.555l2.371,0.137v-3.161l-2.537,0.076H96.827l-2.33-0.076v3.113l2.33-0.089h3.501v2.786h-2.797
			L95.188,31.5v3.092l2.343-0.076h2.797v3.805h-3.777l-2.422-0.064V41.275L94.129,41.275z M90.484,24.076V43.07l-0.086,3.295h3.284
			v-0.396h16.45v0.595h3.354l-0.098-3.29V24.076l0.098-3.064l-2.684,0.097H93.12l-2.723-0.097L90.484,24.076L90.484,24.076z
			 M93.681,24.199h16.45v18.727h-16.45V24.199L93.681,24.199z"/>
		<path fill="#FFFFFF" d="M124.354,40.333c2.025-1.147,3.582-2.169,4.688-3.06c-0.062-0.218-0.148-0.421-0.254-0.609
			c-1.492,0.93-2.839,1.731-4.025,2.393c-1.197,0.656-2.942,1.356-5.239,2.127c-0.179-0.442-0.356-0.826-0.532-1.164
			c-0.165-0.34-0.529-0.959-1.098-1.85c1.082-0.193,2.023-0.412,2.815-0.651c0.794-0.251,1.778-0.649,2.941-1.198
			c1.16-0.553,2.284-1.195,3.358-1.928l-0.301-0.283c-1.34,0.541-2.362,0.914-3.07,1.128c-0.702,0.217-1.841,0.542-3.413,0.974
			c-0.171-0.389-0.324-0.748-0.466-1.069c-0.144-0.313-0.543-0.993-1.202-2.024c0.865-0.082,2.055-0.249,3.552-0.501
			c1.501-0.242,3.408-0.976,5.713-2.2h-3.979l-2.331,0.07v-3.056l2.331,0.075h11.292l2.614-0.075v3.056l-2.614-0.07h-3.981
			c0.337,0.281,0.71,0.581,1.113,0.864c-0.979,0.578-1.921,1.136-2.82,1.664c0.838,0.638,1.341,1.088,1.501,1.344l0.532,0.765
			c2.104-1.501,3.322-2.438,3.683-2.809l1.343-1.32c0.272,0.355,0.53,0.63,0.758,0.868c0.226,0.235,0.909,0.771,2.011,1.601
			c-1.248,0.858-2.346,1.625-3.29,2.273c0.159,0.574,0.452,1.417,0.858,2.541c0.412,1.109,1.196,2.183,2.355,3.203
			c1.147,1.023,2.396,1.821,3.732,2.39c-0.45,0.521-0.807,0.955-1.085,1.306c-0.267,0.354-0.666,0.97-1.197,1.835
			c-1.751-1.119-3.041-2.145-3.855-3.073c-0.815-0.917-1.477-1.874-1.975-2.851c-0.509-0.984-0.978-2.219-1.418-3.715l-0.998,0.556
			c0.065,0.502,0.118,0.952,0.152,1.364c0.04,0.416,0.06,1.18,0.071,2.325c0,1.134-0.071,2.064-0.208,2.786
			c-0.135,0.726-0.488,1.385-1.062,1.958c-0.568,0.583-1.928,0.879-4.083,0.912c-0.263-1.237-0.466-2.014-0.59-2.328l-0.527-1.246
			c1.418,0.236,2.292,0.228,2.634-0.025c0.345-0.27,0.557-0.68,0.628-1.248c0.069-0.561,0.098-1.012,0.098-1.35v-0.345
			c-0.966,0.694-2.18,1.453-3.646,2.267c-1.465,0.826-2.707,1.422-3.731,1.803l-3.566,1.383c-0.388-0.876-0.708-1.503-0.957-1.858
			l-0.838-1.248C119.81,42.369,122.337,41.477,124.354,40.333L124.354,40.333z M117.429,29.167l0.058-1.516v-3.128l-0.058-2.049
			l3.037,0.101h7.248c-0.326-0.392-0.809-0.858-1.432-1.415c0.386-0.159,0.737-0.317,1.037-0.477
			c0.309-0.146,0.938-0.535,1.883-1.143c1.197,1.082,2.085,1.901,2.634,2.444c-0.28,0.197-0.516,0.393-0.708,0.59h7.768l2.852-0.101
			l-0.069,2.049v3.153l0.069,1.598H138.3l0.058-1.598v-2.042l-17.54,0.021v1.996l0.062,1.516H117.429L117.429,29.167z"/>
		<path fill="#FFFFFF" d="M149.5,26.824h5.17v3.31h-5.17V26.824L149.5,26.824z M146.161,26.022v11.078l-0.066,2.954h3.405v-0.435
			h5.17v4.187c0,0.658,0.06,1.185,0.188,1.577c0.135,0.397,0.451,0.758,0.966,1.071c0.514,0.327,1.291,0.482,2.343,0.482
			c1.056,0.006,2.415,0.031,4.085,0.069c1.721,0.053,3.009,0.065,3.839,0.017c0.844-0.05,1.483-0.167,1.9-0.332
			c0.422-0.177,0.81-0.478,1.158-0.889c0.364-0.426,0.812-1.623,1.364-3.587c-0.957-0.339-2.044-0.901-3.27-1.684l-0.175,1.135
			c-0.081,0.741-0.303,1.254-0.652,1.542c-0.345,0.291-0.798,0.47-1.345,0.526c-0.551,0.067-1.462,0.076-2.73,0.042l-2.969-0.073
			c-0.646-0.025-1.039-0.145-1.191-0.352c-0.153-0.194-0.227-0.426-0.227-0.677v-3.056h5.896v0.539h3.422l-0.083-2.839V26.022
			l0.083-2.524l-2.2,0.102h-7.117v-1.627l0.06-2.285h-3.408l0.063,2.285v1.627h-6.028l-2.547-0.102L146.161,26.022L146.161,26.022z
			 M149.5,33.211h5.17v3.254h-5.17V33.211L149.5,33.211z M157.955,26.824h5.896v3.31h-5.896V26.824L157.955,26.824z M157.955,33.211
			h5.896v3.254h-5.896V33.211L157.955,33.211z"/>
		<path fill="#FFFFFF" d="M177.475,29.388l0.681,1c0.189,0.277,0.807,1.29,1.868,3.017c-0.354,1.195-0.72,2.107-1.103,2.756
			c-0.387,0.648-0.875,1.322-1.446,2.059V29.388L177.475,29.388z M177.52,45.961l-0.045-3.789v-3.499
			c0.695,0.718,1.161,1.227,1.384,1.544c0.229,0.306,0.448,0.612,0.673,0.933c0.984-1.406,1.598-2.346,1.837-2.817
			c0.233-0.475,0.439-0.887,0.624-1.248l0.358,0.775c0.061,0.154,0.18,0.545,0.348,1.183l0.623-0.623
			c0.377-0.378,1.077-0.862,2.104-1.451c-0.699-1.377-1.379-2.684-2.047-3.928l0.281-0.982c0.094-0.348,0.263-1.106,0.521-2.302
			c0.87,1.132,1.402,1.848,1.62,2.156c0.212,0.304,0.582,1.002,1.123,2.106l-0.42,1.215c-0.295,0.857-0.699,1.706-1.197,2.541
			c-0.507,0.845-1.218,1.729-2.144,2.652c0.917,0.544,1.512,0.929,1.801,1.171c0.282,0.24,0.603,0.528,0.956,0.855
			c0.492-0.59,0.912-1.113,1.223-1.59c0.313-0.473,0.924-1.569,1.862-3.282l0.738,1.57c0.059,0.146,0.236,0.631,0.516,1.447
			c0.93-0.993,1.778-1.823,2.563-2.455l-0.481-0.935c-0.038-0.078-0.71-1.288-2.013-3.64l0.379-1.813
			c0.142-0.667,0.31-1.565,0.481-2.695l0.242-1.73c0.023-0.197,0.073-0.486,0.132-0.876c-1.106-0.074-2.22-0.235-3.357-0.473v0.912
			c0,0.48-0.096,1.438-0.292,2.862c-0.482-0.697-0.913-1.317-1.304-1.869l-0.594,0.557c-0.338,0.326-0.923,0.691-1.768,1.1
			l0.29-1.52c0-0.031,0.034-0.27,0.106-0.731c0.082-0.461,0.137-0.841,0.191-1.151c-1.308-0.129-2.419-0.343-3.322-0.64
			l-0.045,1.173c-0.017,0.51-0.059,0.975-0.117,1.406c-0.055,0.439-0.122,0.896-0.231,1.388c-0.531-0.795-1.023-1.528-1.43-2.205
			c-0.699,0.623-1.192,0.997-1.445,1.141c-0.268,0.139-0.525,0.268-0.77,0.38v-3.946h15.4v16.951c0,0.336-0.065,0.6-0.192,0.8
			c-0.129,0.189-0.525,0.271-1.2,0.254c-0.564-0.016-1.177-0.064-1.818-0.171l0.408,0.931c0.383,0.889,0.601,1.558,0.656,2.018
			c0.052,0.453,0.091,0.823,0.119,1.092c1.738-0.12,2.995-0.319,3.77-0.616c0.779-0.278,1.232-0.685,1.366-1.207
			c0.135-0.511,0.192-1.073,0.192-1.666V24.957l0.067-3.508l-3.248,0.108h-15.714l-3.334-0.108l0.082,3.508v17.215l-0.082,3.789
			H177.52L177.52,45.961z"/>
	</g>
</g>
</svg>
