<?xml version="1.0" encoding="utf-8"?>
<!-- Generator: Adobe Illustrator 16.0.0, SVG Export Plug-In . SVG Version: 6.00 Build 0)  -->
<!DOCTYPE svg PUBLIC "-//W3C//DTD SVG 1.1//EN" "http://www.w3.org/Graphics/SVG/1.1/DTD/svg11.dtd">
<svg version="1.1" id="图层_1" xmlns="http://www.w3.org/2000/svg" xmlns:xlink="http://www.w3.org/1999/xlink" x="0px" y="0px"
	 width="1280px" height="1280px" viewBox="0 0 1280 1280" enable-background="new 0 0 1280 1280" xml:space="preserve">
<g>
	<path fill-rule="evenodd" clip-rule="evenodd" fill="#FFFFFF" d="M645.17,205.065h0.315c214.651,0,393.04,154.93,429.618,359.014
		C1014.824,679.391,842.973,767.21,637.191,775.38c-39.21,1.513-77.364,0.085-113.982-4.039
		c-12.065-49.146-18.708-102.187-18.708-157.501c0-152.473,50.02-287.743,127.18-372.221
		c-97.891,60.262-167.894,220.13-167.894,407.886c0,39.564,3.118,77.926,8.992,114.356c-27.572-5.117-53.937-11.785-78.887-19.831
		c-3.393-27.098-5.14-55.045-5.14-83.575C388.752,433.884,499.249,245.324,645.17,205.065L645.17,205.065z"/>
	<path fill-rule="evenodd" clip-rule="evenodd" fill="#FFFFFF" d="M829.402,694.876c-16.453,22.706-34.531,43.444-53.975,62.273
		c-43.529,10.021-89.959,16.294-138.236,18.23c-39.21,1.513-77.364,0.085-113.982-4.039
		c-12.065-49.146-18.708-102.187-18.708-157.501c0-152.473,50.02-287.743,127.18-372.221
		c-97.891,60.262-167.894,220.13-167.894,407.886c0,39.564,3.118,77.926,8.992,114.356c-27.572-5.117-53.937-11.785-78.887-19.831
		c-3.393-27.098-5.14-55.045-5.14-83.575c0-226.571,110.496-415.131,256.417-455.39c0.146,0,0.231,0,0.315,0
		c95.767,0,184.308,30.785,256.261,83.048C939.793,422.787,917.967,572.897,829.402,694.876L829.402,694.876z"/>
	<path fill-rule="evenodd" clip-rule="evenodd" fill="#FFFFFF" d="M823.129,690.312c-18.783,25.901-39.701,49.21-62.369,70.017
		c-39.248,8.14-80.689,13.343-123.568,15.052c-39.21,1.513-77.364,0.085-113.982-4.039
		c-12.065-49.146-18.708-102.187-18.708-157.501c0-152.473,50.02-287.743,127.18-372.221
		c-97.891,60.262-167.894,220.13-167.894,407.886c0,39.564,3.118,77.926,8.992,114.356c-27.572-5.117-53.937-11.785-78.887-19.831
		c-3.393-27.098-5.14-55.045-5.14-83.575c0-226.571,110.496-415.131,256.417-455.39c0.146,0,0.231,0,0.315,0
		c91.386,0,176.2,28.046,246.265,75.994C932.717,415.817,912.262,567.515,823.129,690.312L823.129,690.312z"/>
	<path fill-rule="evenodd" clip-rule="evenodd" fill="#FFFFFF" d="M816.842,685.705c-21.139,29.161-45.027,55.023-71.119,77.593
		c-34.73,6.462-71.072,10.589-108.531,12.082c-39.21,1.513-77.364,0.085-113.982-4.039
		c-12.065-49.146-18.708-102.187-18.708-157.501c0-152.473,50.02-287.743,127.18-372.221
		c-97.891,60.262-167.894,220.13-167.894,407.886c0,39.564,3.118,77.926,8.992,114.356c-27.572-5.117-53.937-11.785-78.887-19.831
		c-3.393-27.098-5.14-55.045-5.14-83.575c0-226.571,110.496-415.131,256.417-455.39c0.146,0,0.231,0,0.315,0
		c87.038,0,168.114,25.415,236.179,69.294C925.518,409.101,906.459,562.272,816.842,685.705L816.842,685.705z"/>
	<path fill-rule="evenodd" clip-rule="evenodd" fill="#FFFFFF" d="M810.568,681.15c-23.506,32.39-50.496,60.687-80.133,84.821
		c-30.066,4.906-61.25,8.124-93.244,9.408c-39.21,1.513-77.364,0.085-113.982-4.039c-12.065-49.146-18.708-102.187-18.708-157.501
		c0-152.473,50.02-287.743,127.18-372.221c-97.891,60.262-167.894,220.13-167.894,407.886c0,39.564,3.118,77.926,8.992,114.356
		c-27.572-5.117-53.937-11.785-78.887-19.831c-3.393-27.098-5.14-55.045-5.14-83.575c0-226.571,110.496-415.131,256.417-455.39
		c0.146,0,0.231,0,0.315,0c82.731,0,160.093,22.969,226.022,62.96C918.242,402.617,900.588,557.111,810.568,681.15L810.568,681.15z"
		/>
	<path fill-rule="evenodd" clip-rule="evenodd" fill="#FFFFFF" d="M804.307,676.547c-25.893,35.705-56.086,66.323-89.398,91.784
		c-25.227,3.576-51.209,5.976-77.717,7.049c-39.21,1.513-77.364,0.085-113.982-4.039c-12.065-49.146-18.708-102.187-18.708-157.501
		c0-152.473,50.02-287.743,127.18-372.221c-97.891,60.262-167.894,220.13-167.894,407.886c0,39.564,3.118,77.926,8.992,114.356
		c-27.572-5.117-53.937-11.785-78.887-19.831c-3.393-27.098-5.14-55.045-5.14-83.575c0-226.571,110.496-415.131,256.417-455.39
		c0.146,0,0.231,0,0.315,0c78.521,0,152.175,20.68,215.808,56.938C910.893,396.296,894.67,552.033,804.307,676.547L804.307,676.547z
		"/>
	<path fill-rule="evenodd" clip-rule="evenodd" fill="#FFFFFF" d="M798.01,671.99c-28.283,38.964-61.791,71.833-98.883,98.402
		c-20.238,2.464-40.902,4.143-61.936,4.987c-39.21,1.513-77.364,0.085-113.982-4.039c-12.065-49.146-18.708-102.187-18.708-157.501
		c0-152.473,50.02-287.743,127.18-372.221c-97.891,60.262-167.894,220.13-167.894,407.886c0,39.564,3.118,77.926,8.992,114.356
		c-27.572-5.117-53.937-11.785-78.887-19.831c-3.393-27.098-5.14-55.045-5.14-83.575c0-226.571,110.496-415.131,256.417-455.39
		c0.146,0,0.231,0,0.315,0c74.327,0,144.323,18.532,205.556,51.313C903.449,390.134,888.678,547.042,798.01,671.99L798.01,671.99z"
		/>
	<path fill-rule="evenodd" clip-rule="evenodd" fill="#FFFFFF" d="M791.723,667.387c-30.732,42.319-67.738,77.377-108.857,104.817
		c-14.986,1.467-30.26,2.543-45.674,3.176c-39.21,1.513-77.364,0.085-113.982-4.039c-12.065-49.146-18.708-102.187-18.708-157.501
		c0-152.473,50.02-287.743,127.18-372.221c-97.891,60.262-167.894,220.13-167.894,407.886c0,39.564,3.118,77.926,8.992,114.356
		c-27.572-5.117-53.937-11.785-78.887-19.831c-3.393-27.098-5.14-55.045-5.14-83.575c0-226.571,110.496-415.131,256.417-455.39
		c0.146,0,0.231,0,0.315,0c70.153,0,136.478,16.51,195.208,45.926C895.92,384.211,882.633,542.138,791.723,667.387L791.723,667.387z
		"/>
	<path fill-rule="evenodd" clip-rule="evenodd" fill="#FFFFFF" d="M785.424,662.79c-33.203,45.801-73.916,82.877-119.227,110.881
		c-9.572,0.725-19.27,1.33-29.006,1.709c-39.21,1.513-77.364,0.085-113.982-4.039c-12.065-49.146-18.708-102.187-18.708-157.501
		c0-152.473,50.02-287.743,127.18-372.221c-97.891,60.262-167.894,220.13-167.894,407.886c0,39.564,3.118,77.926,8.992,114.356
		c-27.572-5.117-53.937-11.785-78.887-19.831c-3.393-27.098-5.14-55.045-5.14-83.575c0-226.571,110.496-415.131,256.417-455.39
		c0.146,0,0.231,0,0.315,0c66.065,0,128.688,14.657,184.821,40.896C888.309,378.443,876.52,537.32,785.424,662.79L785.424,662.79z"
		/>
	<path fill-rule="evenodd" clip-rule="evenodd" fill="#FFFFFF" d="M779.143,658.226c-35.742,49.251-80.258,88.264-129.91,116.564
		c-3.98,0.211-8.022,0.42-12.041,0.59c-39.21,1.513-77.364,0.085-113.982-4.039c-12.065-49.146-18.708-102.187-18.708-157.501
		c0-152.473,50.02-287.743,127.18-372.221c-97.891,60.262-167.894,220.13-167.894,407.886c0,39.564,3.118,77.926,8.992,114.356
		c-27.572-5.117-53.937-11.785-78.887-19.831c-3.393-27.098-5.14-55.045-5.14-83.575c0-226.571,110.496-415.131,256.417-455.39
		c0.146,0,0.231,0,0.315,0c62.001,0,121.011,12.905,174.411,36.216C880.654,372.846,870.348,532.593,779.143,658.226
		L779.143,658.226z"/>
	<path fill-rule="evenodd" clip-rule="evenodd" fill="#FFFFFF" d="M772.867,653.672c-38.367,52.855-87.057,93.678-141.312,121.895
		c-37.205,1.156-73.486-0.311-108.346-4.226c-12.065-49.146-18.708-102.187-18.708-157.501c0-152.473,50.02-287.743,127.18-372.221
		c-97.891,60.262-167.894,220.13-167.894,407.886c0,39.564,3.118,77.926,8.992,114.356c-27.572-5.117-53.937-11.785-78.887-19.831
		c-3.393-27.098-5.14-55.045-5.14-83.575c0-226.571,110.496-415.131,256.417-455.39c0.146,0,0.231,0,0.315,0
		c57.979,0,113.339,11.263,163.938,31.777C872.887,367.472,864.137,527.947,772.867,653.672L772.867,653.672z"/>
	<path fill-rule="evenodd" clip-rule="evenodd" fill="#FFFFFF" d="M766.564,649.065c-41.074,56.598-94.211,99.135-153.337,126.842
		c-30.818,0.252-60.919-1.29-90.019-4.566c-12.065-49.146-18.708-102.187-18.708-157.501c0-152.473,50.02-287.743,127.18-372.221
		c-97.891,60.262-167.894,220.13-167.894,407.886c0,39.564,3.118,77.926,8.992,114.356c-27.572-5.117-53.937-11.785-78.887-19.831
		c-3.393-27.098-5.14-55.045-5.14-83.575c0-226.571,110.496-415.131,256.417-455.39c0.146,0,0.231,0,0.315,0
		c54.022,0,105.786,9.808,153.509,27.733C865.105,362.271,857.809,523.337,766.564,649.065L766.564,649.065z"/>
	<path fill-rule="evenodd" clip-rule="evenodd" fill="#FFFFFF" d="M760.285,644.468c-43.85,60.416-101.723,104.594-165.96,131.353
		c-24.233-0.398-47.977-1.85-71.116-4.479c-12.065-49.146-18.708-102.187-18.708-157.501c0-152.473,50.02-287.743,127.18-372.221
		c-97.891,60.262-167.894,220.13-167.894,407.886c0,39.564,3.118,77.926,8.992,114.356c-27.572-5.117-53.937-11.785-78.887-19.831
		c-3.393-27.098-5.14-55.045-5.14-83.575c0-226.571,110.496-415.131,256.417-455.39c0.146,0,0.231,0,0.315,0
		c50.093,0,98.198,8.381,142.993,23.917C857.229,357.196,851.49,518.829,760.285,644.468L760.285,644.468z"/>
	<path fill-rule="evenodd" clip-rule="evenodd" fill="#FFFFFF" d="M754.002,639.901C707.234,704.337,644.2,749.968,574.586,775.256
		c-17.402-0.721-34.584-2.021-51.377-3.915c-12.065-49.146-18.708-102.187-18.708-157.501c0-152.473,50.02-287.743,127.18-372.221
		c-97.891,60.262-167.894,220.13-167.894,407.886c0,39.564,3.118,77.926,8.992,114.356c-27.572-5.117-53.937-11.785-78.887-19.831
		c-3.393-27.098-5.14-55.045-5.14-83.575c0-226.571,110.496-415.131,256.417-455.39c0.146,0,0.231,0,0.315,0
		c46.177,0,90.69,7.136,132.458,20.425C849.273,352.332,845.08,514.447,754.002,639.901L754.002,639.901z"/>
	<path fill-rule="evenodd" clip-rule="evenodd" fill="#FFFFFF" d="M747.725,635.294c-49.893,68.746-118.644,115.615-194.045,138.802
		c-10.256-0.733-20.428-1.637-30.47-2.755c-12.065-49.146-18.708-102.187-18.708-157.501c0-152.473,50.02-287.743,127.18-372.221
		c-97.891,60.262-167.894,220.13-167.894,407.886c0,39.564,3.118,77.926,8.992,114.356c-27.572-5.117-53.937-11.785-78.887-19.831
		c-3.393-27.098-5.14-55.045-5.14-83.575c0-226.571,110.496-415.131,256.417-455.39c0.146,0,0.231,0,0.315,0
		c42.304,0,83.226,5.979,121.899,17.203C841.25,347.597,838.627,510.049,747.725,635.294L747.725,635.294z"/>
	<path fill-rule="evenodd" clip-rule="evenodd" fill="#FFFFFF" d="M741.428,630.698C688.24,704.04,613.165,751.989,531.664,772.204
		c-2.82-0.257-5.642-0.508-8.455-0.863c-12.065-49.146-18.708-102.187-18.708-157.501c0-152.473,50.02-287.743,127.18-372.221
		c-97.891,60.262-167.894,220.13-167.894,407.886c0,39.564,3.118,77.926,8.992,114.356c-27.572-5.117-53.937-11.785-78.887-19.831
		c-3.393-27.098-5.14-55.045-5.14-83.575c0-226.571,110.496-415.131,256.417-455.39c0.146,0,0.231,0,0.315,0
		c38.479,0,75.813,4.99,111.339,14.318C833.215,343.09,832.133,505.75,741.428,630.698L741.428,630.698z"/>
	<path fill-rule="evenodd" clip-rule="evenodd" fill="#FFFFFF" d="M735.145,626.134c-53.768,74.075-130.279,121.725-213.054,140.444
		c-11.335-47.832-17.59-99.191-17.59-152.738c0-152.473,50.02-287.743,127.18-372.221
		c-97.891,60.262-167.894,220.13-167.894,407.886c0,39.564,3.118,77.926,8.992,114.356c-27.572-5.117-53.937-11.785-78.887-19.831
		c-3.393-27.098-5.14-55.045-5.14-83.575c0-226.571,110.496-415.131,256.417-455.39c0.146,0,0.231,0,0.315,0
		c34.688,0,68.454,4.041,100.776,11.645C825.1,338.693,825.572,501.582,735.145,626.134L735.145,626.134z"/>
	<path fill-rule="evenodd" clip-rule="evenodd" fill="#FFFFFF" d="M728.891,621.583c-52.633,72.475-127.508,119.146-208.5,137.503
		c-10.256-45.673-15.89-94.483-15.89-145.246c0-152.473,50.02-287.743,127.18-372.221
		c-97.891,60.262-167.894,220.13-167.894,407.886c0,39.564,3.118,77.926,8.992,114.356c-27.572-5.117-53.937-11.785-78.887-19.831
		c-3.393-27.098-5.14-55.045-5.14-83.575c0-226.571,110.496-415.131,256.417-455.39c0.146,0,0.231,0,0.315,0
		c30.931,0,61.149,3.178,90.239,9.286C816.947,334.479,818.973,497.412,728.891,621.583L728.891,621.583z"/>
	<path fill-rule="evenodd" clip-rule="evenodd" fill="#FFFFFF" d="M722.604,616.977c-51.463,70.89-124.707,116.567-203.889,134.585
		c-9.186-43.524-14.214-89.72-14.214-137.722c0-152.473,50.02-287.743,127.18-372.221
		c-97.891,60.262-167.894,220.13-167.894,407.886c0,37.798,2.884,74.438,8.234,109.411c-6.042,0.567-12.087,0.906-18.128,1.119
		c-20.773-4.467-40.819-9.813-60.001-16.005c-3.393-27.098-5.14-55.045-5.14-83.575c0-226.571,110.496-415.131,256.417-455.39
		c0.146,0,0.231,0,0.315,0c27.228,0,53.892,2.487,79.743,7.223C808.756,330.438,812.309,493.368,722.604,616.977L722.604,616.977z"
		/>
	<path fill-rule="evenodd" clip-rule="evenodd" fill="#FFFFFF" d="M716.307,612.377c-50.258,69.286-121.789,113.984-199.119,131.653
		c-8.212-41.287-12.687-84.985-12.687-130.19c0-152.473,50.02-287.743,127.18-372.221
		c-97.891,60.262-167.894,220.13-167.894,407.886c0,35.082,2.496,69.153,7.119,101.845c-16.497,1.457-33.142,1.716-49.738,0.727
		c-9.273-2.493-18.372-5.167-27.276-8.046c-3.393-27.098-5.14-55.045-5.14-83.575c0-226.571,110.496-415.131,256.417-455.39
		c0.146,0,0.231,0,0.315,0c23.509,0,46.608,1.808,69.12,5.413C800.482,326.521,805.619,489.37,716.307,612.377L716.307,612.377z"/>
	<path fill-rule="evenodd" clip-rule="evenodd" fill="#FFFFFF" d="M710.025,607.818c-49.074,67.608-118.815,111.273-194.302,128.646
		c-7.267-39.059-11.223-80.139-11.223-122.624c0-152.473,50.02-287.743,127.18-372.221
		c-97.891,60.262-167.894,220.13-167.894,407.886c0,32.383,2.128,63.861,6.085,94.229c-25.287,2.229-50.881,1.595-76.237-2.067
		c-3.221-26.357-4.883-53.458-4.883-81.212c0-226.571,110.496-415.131,256.417-455.39c0.146,0,0.231,0,0.315,0
		c19.856,0,39.397,1.286,58.536,3.873C792.154,322.79,798.865,485.412,710.025,607.818L710.025,607.818z"/>
	<path fill-rule="evenodd" clip-rule="evenodd" fill="#FFFFFF" d="M703.75,603.219c-47.854,65.975-115.834,108.551-189.382,125.673
		c-6.405-36.812-9.867-75.309-9.867-115.052c0-152.473,50.02-287.743,127.18-372.221c-97.891,60.262-167.894,220.13-167.894,407.886
		c0,29.67,1.789,58.619,5.119,86.649c-25.269,2.207-50.841,1.471-76.172-2.274c-2.623-23.906-3.982-48.432-3.982-73.425
		c0-226.571,110.496-415.131,256.417-455.39c0.146,0,0.231,0,0.315,0c16.216,0,32.237,0.862,47.978,2.57
		C783.793,319.169,792.072,481.539,703.75,603.219L703.75,603.219z"/>
	<path fill-rule="evenodd" clip-rule="evenodd" fill="#FFFFFF" d="M697.486,598.658c-46.621,64.214-112.771,105.809-184.386,122.628
		c-5.589-34.492-8.6-70.418-8.6-107.446c0-152.473,50.02-287.743,127.18-372.221c-97.891,60.262-167.894,220.13-167.894,407.886
		c0,26.997,1.485,53.358,4.284,79.002c-25.277,2.233-50.841,1.457-76.129-2.412c-2.093-21.461-3.189-43.344-3.189-65.64
		c0-226.571,110.496-415.131,256.417-455.39c0.146,0,0.231,0,0.315,0c12.624,0,25.12,0.507,37.468,1.583
		C775.404,315.777,785.229,477.749,697.486,598.658L697.486,598.658z"/>
	<path fill-rule="evenodd" clip-rule="evenodd" fill="#FFFFFF" d="M691.166,594.062c-45.354,62.495-109.64,103.047-179.273,119.565
		c-4.812-32.134-7.392-65.507-7.392-99.787c0-152.473,50.02-287.743,127.18-372.221c-97.891,60.262-167.894,220.13-167.894,407.886
		c0,24.34,1.203,48.158,3.484,71.387c-25.225,2.242-50.795,1.424-76.043-2.576c-1.613-18.967-2.476-38.237-2.476-57.86
		c0-226.571,110.496-415.131,256.417-455.39c0.146,0,0.231,0,0.315,0c9.034,0,18.024,0.252,26.907,0.818
		C766.971,312.413,778.332,474.016,691.166,594.062L691.166,594.062z"/>
	<path fill-rule="evenodd" clip-rule="evenodd" fill="#FFFFFF" d="M684.883,589.495c-44.062,60.728-106.45,100.21-174.085,116.526
		c-4.106-29.822-6.296-60.618-6.296-92.182c0-152.473,50.02-287.743,127.18-372.221c-97.891,60.262-167.894,220.13-167.894,407.886
		c0,21.666,0.969,42.958,2.778,63.781c-25.204,2.232-50.733,1.326-75.939-2.804c-1.224-16.425-1.874-33.071-1.874-50.027
		c0-226.571,110.496-415.131,256.417-455.39c0.146,0,0.231,0,0.315,0c5.487,0,10.948,0.083,16.37,0.295
		C758.475,309.273,771.383,470.314,684.883,589.495L684.883,589.495z"/>
	<path fill-rule="evenodd" clip-rule="evenodd" fill="#FFFFFF" d="M678.609,584.9c-42.778,58.961-103.229,97.408-168.822,113.454
		c-3.443-27.437-5.286-55.653-5.286-84.515c0-152.473,50.02-287.743,127.18-372.221c-97.891,60.262-167.894,220.13-167.894,407.886
		c0,19,0.757,37.755,2.149,56.112c-25.184,2.279-50.684,1.347-75.891-2.874c-0.86-13.935-1.292-27.995-1.292-42.288
		c0-226.571,110.496-415.131,256.417-455.39c0.146,0,0.231,0,0.315,0c1.96,0,3.938,0.041,5.897,0.041
		C749.959,306.265,764.414,466.695,678.609,584.9L678.609,584.9z"/>
	<path fill-rule="evenodd" clip-rule="evenodd" fill="#FFFFFF" d="M672.332,580.287c-41.469,57.127-99.965,94.55-163.472,110.321
		c-2.853-24.976-4.359-50.574-4.359-76.769c0-152.473,50.02-287.743,127.18-372.221c-97.891,60.262-167.894,220.13-167.894,407.886
		c0,16.379,0.56,32.552,1.613,48.468c-25.144,2.325-50.621,1.376-75.762-3.01c-0.56-11.406-0.885-22.889-0.885-34.508
		c0-224.86,108.844-412.208,253.079-454.444C741.492,304.411,757.107,463.469,672.332,580.287L672.332,580.287z"/>
	<path fill-rule="evenodd" clip-rule="evenodd" fill="#FFFFFF" d="M666.049,575.727c-40.126,55.269-96.648,91.614-158.023,107.194
		c-2.302-22.546-3.524-45.604-3.524-69.081c0-152.473,50.02-287.743,127.18-372.221c-97.891,60.262-167.894,220.13-167.894,407.886
		c0,13.751,0.41,27.346,1.159,40.807c-25.091,2.363-50.559,1.369-75.633-3.097c-0.341-8.861-0.561-17.768-0.561-26.76
		c0-220.592,104.777-405.152,244.972-451.915C733.145,304.201,749.357,460.899,666.049,575.727L666.049,575.727z"/>
	<path fill-rule="evenodd" clip-rule="evenodd" fill="#FFFFFF" d="M659.77,571.129c-38.773,53.424-93.25,88.69-152.499,104.049
		c-1.824-20.092-2.77-40.519-2.77-61.338c0-152.473,50.02-287.743,127.18-372.221c-97.891,60.262-167.894,220.13-167.894,407.886
		c0,11.177,0.261,22.237,0.757,33.188c-25.056,2.423-50.48,1.387-75.508-3.179c-0.176-6.32-0.284-12.636-0.284-19.059
		c0-216.463,100.884-398.225,237.142-449.157C724.889,304.201,741.6,458.439,659.77,571.129L659.77,571.129z"/>
	<path fill-rule="evenodd" clip-rule="evenodd" fill="#FFFFFF" d="M653.465,566.526c-37.396,51.526-89.784,85.633-146.838,100.814
		c-1.377-17.584-2.125-35.395-2.125-53.501c0-152.473,50.02-287.743,127.18-372.221c-97.891,60.262-167.894,220.13-167.894,407.886
		c0,8.552,0.171,17.019,0.452,25.5c-25.013,2.445-50.387,1.412-75.379-3.263c-0.063-3.748-0.107-7.494-0.107-11.287
		c0-212.378,97.122-391.399,229.443-446.146C716.52,304.455,733.705,455.993,653.465,566.526L653.465,566.526z"/>
	<path fill-rule="evenodd" clip-rule="evenodd" fill="#FFFFFF" d="M647.189,561.969c-36.004,49.589-86.281,82.628-141.142,97.542
		c-1.01-14.996-1.547-30.228-1.547-45.671c0-152.473,50.02-287.743,127.18-372.221c-97.891,60.262-167.894,220.13-167.894,407.886
		c0,5.96,0.085,11.899,0.233,17.836c-24.964,2.547-50.294,1.474-75.224-3.302c-0.021-1.207-0.044-2.367-0.044-3.584
		c0-208.378,93.49-384.6,221.957-442.883C708.223,304.979,725.773,453.704,647.189,561.969L647.189,561.969z"/>
	<path fill-rule="evenodd" clip-rule="evenodd" fill="#FFFFFF" d="M640.885,557.366c-34.554,47.646-82.733,79.564-135.31,94.284
		c-0.687-12.479-1.074-25.076-1.074-37.811c0-150.03,48.451-283.402,123.484-368.092
		C702.434,332.033,710.74,461.153,640.885,557.366L640.885,557.366z M463.872,659.65c-24.879,2.618-50.211,1.538-75.076-3.361
		c1.209-202.585,90.775-374.11,214.628-435.266c8.473,7.392,16.341,15.269,23.594,23.564
		c-95.447,62.411-163.231,220.17-163.231,404.918C463.787,652.896,463.809,656.247,463.872,659.65L463.872,659.65z"/>
	<path fill-rule="evenodd" clip-rule="evenodd" fill="#FFFFFF" d="M634.61,552.812c-33.144,45.677-79.122,76.42-129.426,90.969
		c-0.432-9.9-0.683-19.879-0.683-29.94c0-146.706,46.345-277.51,118.558-362.412C694.41,335.173,702.094,459.866,634.61,552.812
		L634.61,552.812z M463.809,651.993c-24.837,2.709-50.126,1.637-74.921-3.355c3.331-195.401,88.839-360.736,207.482-423.967
		c8.817,7.534,16.97,15.62,24.449,24.131C528.672,313.927,463.787,468.8,463.787,649.505
		C463.787,650.305,463.809,651.129,463.809,651.993L463.809,651.993z"/>
	<path fill-rule="evenodd" clip-rule="evenodd" fill="#FFFFFF" d="M628.324,548.205c-31.679,43.653-75.478,73.297-123.437,87.611
		c-0.238-7.309-0.387-14.569-0.387-21.977c0-143.402,44.26-271.573,113.695-356.599
		C686.387,338.438,693.443,458.522,628.324,548.205L628.324,548.205z M463.809,644.247c-24.773,2.793-49.998,1.76-74.752-3.316
		c5.31-188.258,86.924-347.43,200.389-412.429c9.159,7.705,17.59,15.959,25.308,24.779
		C526.715,320.076,465.039,469.791,463.809,644.247L463.809,644.247z"/>
	<path fill-rule="evenodd" clip-rule="evenodd" fill="#FFFFFF" d="M622.07,543.651c-30.216,41.633-71.785,70.059-117.399,84.168
		c-0.087-4.658-0.17-9.287-0.17-13.979c0-140.093,42.26-265.675,108.947-350.62C678.375,341.846,684.736,457.279,622.07,543.651
		L622.07,543.651z M463.917,636.511c-24.69,2.97-49.915,1.934-74.582-3.283c7.125-181.107,84.928-334.272,193.359-400.726
		c9.526,7.875,18.256,16.339,26.195,25.332C525.271,325.758,466.8,469.238,463.917,636.511L463.917,636.511z"/>
	<path fill-rule="evenodd" clip-rule="evenodd" fill="#FFFFFF" d="M615.788,539.044c-28.732,39.564-68.041,66.796-111.227,80.732
		c-0.018-1.979-0.06-3.964-0.06-5.937c0-136.771,40.301-259.739,104.252-344.555C670.373,345.364,676.027,456.079,615.788,539.044
		L615.788,539.044z M464.091,628.765c-24.623,3.094-49.807,2.109-74.433-3.179c8.82-174.116,82.974-321.385,186.434-388.913
		c9.89,8.002,18.943,16.695,27.07,25.983C523.897,331.256,468.516,468.632,464.091,628.765L464.091,628.765z"/>
	<path fill-rule="evenodd" clip-rule="evenodd" fill="#FFFFFF" d="M609.51,534.49c-27.206,37.458-64.212,63.471-104.989,77.199
		c0.411-132.638,38.663-252.09,99.632-336.172C662.35,348.94,667.248,454.96,609.51,534.49L609.51,534.49z M464.347,621.019
		c-24.583,3.28-49.716,2.328-74.258-3.055c10.32-167.173,80.987-308.646,179.572-376.981c10.255,8.169,19.592,17.064,27.933,26.619
		C522.565,336.587,470.156,467.994,464.347,621.019L464.347,621.019z"/>
	<path fill-rule="evenodd" clip-rule="evenodd" fill="#FFFFFF" d="M603.204,529.884c-25.627,35.306-60.339,60.132-98.62,73.592
		c1.896-126.025,37.978-239.663,95.072-321.598C654.328,352.714,658.414,453.802,603.204,529.884L603.204,529.884z M464.671,613.201
		c-24.475,3.472-49.597,2.575-74.044-2.883c11.72-160.305,78.951-296.054,172.779-364.869c10.622,8.3,20.214,17.458,28.772,27.271
		C521.316,341.705,471.77,467.217,464.671,613.201L464.671,613.201z"/>
	<path fill-rule="evenodd" clip-rule="evenodd" fill="#FFFFFF" d="M596.929,525.274c-24.067,33.165-56.41,56.738-92.177,69.948
		c3.232-119.452,37.165-227.28,90.436-306.837C646.305,356.588,649.621,452.713,596.929,525.274L596.929,525.274z M465.124,605.41
		c-24.413,3.647-49.483,2.842-73.917-2.709c12.971-153.465,76.948-283.617,166.084-352.643c10.99,8.47,20.863,17.841,29.595,27.99
		C520.113,346.734,473.357,466.397,465.124,605.41L465.124,605.41z"/>
	<path fill-rule="evenodd" clip-rule="evenodd" fill="#FFFFFF" d="M590.632,520.72c-22.475,30.978-52.411,53.213-85.594,66.102
		c4.412-112.806,36.258-214.796,85.783-291.739C638.263,360.548,640.715,451.725,590.632,520.72L590.632,520.72z M465.597,597.582
		c-24.307,3.912-49.356,3.133-73.704-2.447c14.066-146.759,74.863-271.356,159.425-340.312
		c11.373,8.609,21.525,18.236,30.409,28.696C518.927,351.641,474.842,465.494,465.597,597.582L465.597,597.582z"/>
	<path fill-rule="evenodd" clip-rule="evenodd" fill="#FFFFFF" d="M584.345,516.113c-20.835,28.744-48.363,49.651-78.92,62.241
		c5.437-106.148,35.222-202.287,81.07-276.431C630.198,364.673,631.786,450.749,584.345,516.113L584.345,516.113z M466.22,589.661
		c-24.214,4.134-49.273,3.539-73.572-2.146c15.034-140.089,72.752-259.272,152.861-327.874c11.74,8.821,22.174,18.675,31.183,29.461
		C517.83,356.376,476.347,464.46,466.22,589.661L466.22,589.661z"/>
	<path fill-rule="evenodd" clip-rule="evenodd" fill="#FFFFFF" d="M578.072,511.559c-19.182,26.409-44.26,45.931-72.153,58.144
		c6.383-99.389,34.105-189.676,76.302-260.768C622.133,368.931,622.863,449.844,578.072,511.559L578.072,511.559z M466.885,581.702
		c-24.108,4.479-49.138,4.004-73.374-1.747c15.887-133.518,70.603-247.327,146.344-315.324c12.108,8.951,22.794,19.1,31.935,30.237
		C516.755,360.986,477.77,463.429,466.885,581.702L466.885,581.702z"/>
	<path fill-rule="evenodd" clip-rule="evenodd" fill="#FFFFFF" d="M571.789,506.956c-17.459,24.085-40.083,42.194-65.246,53.983
		c7.159-92.563,32.837-176.911,71.437-244.695C614.028,373.325,613.88,448.981,571.789,506.956L571.789,506.956z M467.684,573.748
		c-24.004,4.775-49.033,4.482-73.225-1.33c16.594-126.97,68.425-235.48,139.867-302.71c12.498,9.118,23.42,19.606,32.649,31.099
		C515.724,365.495,479.211,462.27,467.684,573.748L467.684,573.748z"/>
	<path fill-rule="evenodd" clip-rule="evenodd" fill="#FFFFFF" d="M565.512,502.401c-15.74,21.669-35.828,38.28-58.217,49.585
		c7.766-85.672,31.444-163.961,66.452-228.167C605.876,377.921,604.824,448.247,565.512,502.401L565.512,502.401z M468.559,565.702
		c-23.89,5.216-48.924,5.034-73.048-0.803c17.162-120.524,66.148-223.834,133.396-289.987c0.168,0.124,0.344,0.253,0.513,0.393
		c12.666,9.203,23.657,19.821,32.82,31.61C514.67,369.918,480.58,461.068,468.559,565.702L468.559,565.702z"/>
	<path fill-rule="evenodd" clip-rule="evenodd" fill="#FFFFFF" d="M559.228,497.795c-13.952,19.221-31.48,34.283-51.01,44.953
		c8.212-78.628,29.871-150.762,61.379-211.111C597.685,382.698,595.727,447.512,559.228,497.795L559.228,497.795z M469.548,557.578
		c-23.805,5.637-48.834,5.68-72.942-0.212c17.613-114.151,63.896-212.297,127.055-277.169c0.387,0.268,0.75,0.524,1.139,0.817
		c12.794,9.29,23.784,20.133,32.837,32.176C513.702,374.189,481.938,459.726,469.548,557.578L469.548,557.578z"/>
	<path fill-rule="evenodd" clip-rule="evenodd" fill="#FFFFFF" d="M552.952,493.2c-12.11,16.681-27.037,30.049-43.66,40.032
		c8.518-71.442,28.131-137.245,56.115-193.366C589.401,387.688,586.539,446.918,552.952,493.2L552.952,493.2z M470.63,549.401
		c-23.637,6.11-48.714,6.419-72.802,0.482c17.94-107.872,61.552-200.901,120.696-264.301c0.536,0.381,1.073,0.777,1.609,1.159
		c12.992,9.415,24.019,20.555,32.945,32.909C512.713,378.401,483.253,458.354,470.63,549.401L470.63,549.401z"/>
	<path fill-rule="evenodd" clip-rule="evenodd" fill="#FFFFFF" d="M546.647,488.634c-10.173,14.025-22.45,25.585-36.104,34.615
		c8.602-63.949,26.152-123.136,50.621-174.66C581.039,392.93,577.272,446.481,546.647,488.634L546.647,488.634z M471.832,541.108
		c-23.508,6.712-48.619,7.309-72.73,1.327C417.23,440.811,458.239,352.8,513.49,291.082c0.664,0.48,1.329,0.947,2,1.427
		c13.225,9.626,24.301,21.078,33.113,33.8C511.745,382.569,484.54,456.855,471.832,541.108L471.832,541.108z"/>
	<path fill-rule="evenodd" clip-rule="evenodd" fill="#FFFFFF" d="M540.369,484.081c-8.168,11.225-17.739,20.808-28.319,28.645
		c8.473-56.098,23.869-108.401,44.774-154.81C572.501,398.616,567.851,446.183,540.369,484.081L540.369,484.081z M473.167,532.639
		c-23.338,7.391-48.563,8.382-72.693,2.36c18.221-95.487,56.691-178.495,108.133-238.318c0.75,0.507,1.483,1.031,2.233,1.582
		c13.548,9.812,24.727,21.727,33.352,34.929C510.797,386.614,485.832,455.257,473.167,532.639L473.167,532.639z"/>
	<path fill-rule="evenodd" clip-rule="evenodd" fill="#FFFFFF" d="M534.086,479.474c-5.994,8.256-12.791,15.521-20.214,21.852
		c8.088-47.75,21.226-92.605,38.5-133.201C563.766,404.722,558.351,446.056,534.086,479.474L534.086,479.474z M474.631,523.989
		c-23.163,8.212-48.523,9.598-72.696,3.573c18.152-89.424,54.177-167.482,101.895-225.257c0.82,0.524,1.596,1.118,2.367,1.682
		c13.937,10.109,25.205,22.533,33.614,36.387C509.831,390.656,487.099,453.533,474.631,523.989L474.631,523.989z"/>
	<path fill-rule="evenodd" clip-rule="evenodd" fill="#FFFFFF" d="M527.811,474.864c-3.614,4.948-7.487,9.557-11.655,13.726
		c7.329-38.534,17.952-75.045,31.418-108.819C554.626,411.649,548.521,446.353,527.811,474.864L527.811,474.864z M476.244,515.125
		c-22.953,9.2-48.474,11.094-72.76,5.031c17.981-83.428,51.574-156.642,95.722-212.126c0.799,0.525,1.57,1.119,2.344,1.684
		c14.406,10.447,25.785,23.523,33.894,38.152C508.84,394.654,488.372,451.681,476.244,515.125L476.244,515.125z"/>
	<path fill-rule="evenodd" clip-rule="evenodd" fill="#FFFFFF" d="M521.505,470.314c-0.727,0.986-1.456,1.979-2.213,2.968
		c5.959-27.663,13.635-54.158,22.815-79.278C544.759,420.158,538.148,447.384,521.505,470.314L521.505,470.314z M478.086,505.922
		c-22.71,10.364-48.513,12.952-72.963,6.886c17.697-77.51,48.925-145.899,89.524-198.969c0.778,0.512,1.504,1.076,2.261,1.627
		c14.985,10.843,26.47,24.781,34.167,40.26C507.872,398.658,489.679,449.617,478.086,505.922L478.086,505.922z"/>
	<path fill-rule="evenodd" clip-rule="evenodd" fill="#FFFFFF" d="M480.148,496.295c-22.363,11.86-48.575,15.221-73.308,9.16
		c17.288-71.656,46.195-135.226,83.395-185.719c0.694,0.466,1.336,0.991,2.022,1.456c15.706,11.394,27.297,26.364,34.395,42.975
		C506.838,402.785,490.991,447.427,480.148,496.295L480.148,496.295z M534.347,416.808c-1.292,11.182-4.408,22.28-9.462,32.809
		C527.747,438.435,530.927,427.511,534.347,416.808L534.347,416.808z"/>
	<path fill-rule="evenodd" clip-rule="evenodd" fill="#FFFFFF" d="M482.538,485.878c-21.933,13.854-48.685,18.277-73.867,12.21
		c16.729-65.886,43.398-124.636,77.245-172.375c0.581,0.383,1.14,0.807,1.699,1.205c16.602,12.084,28.256,28.382,34.456,46.45
		C505.766,406.953,492.351,444.854,482.538,485.878L482.538,485.878z"/>
	<path fill-rule="evenodd" clip-rule="evenodd" fill="#FFFFFF" d="M485.4,474.441c-21.244,16.553-48.945,22.447-74.841,16.343
		c16.087-60.165,40.521-114.194,71.148-159.005c0.424,0.298,0.854,0.593,1.265,0.893c17.826,12.905,29.438,31.225,34.216,51.059
		C504.521,411.48,493.834,441.886,485.4,474.441L485.4,474.441z"/>
	<path fill-rule="evenodd" clip-rule="evenodd" fill="#FFFFFF" d="M489.162,460.587c-20.017,20.823-49.33,29.123-76.604,22.928
		c15.339-54.578,37.573-103.915,65.053-145.629c0.24,0.168,0.496,0.339,0.756,0.551c19.635,14.276,31.057,35.665,33.186,58.114
		C503.078,416.679,495.572,438.097,489.162,460.587L489.162,460.587z"/>
	<path fill-rule="evenodd" clip-rule="evenodd" fill="#FFFFFF" d="M490.086,447.384c-17.738,24.468-47.65,34.803-75.414,28.782
		c14.446-48.996,34.49-93.597,58.919-132.088c0.049,0.042,0.072,0.042,0.112,0.084c24.299,17.627,34.735,47.312,28.985,74.921
		c-2.19,5.896-4.298,11.917-6.298,17.981C494.605,440.626,492.497,444.075,490.086,447.384L490.086,447.384z"/>
	<path fill-rule="evenodd" clip-rule="evenodd" fill="#FFFFFF" d="M483.812,442.791c-15.769,21.754-42.22,31.085-66.949,26.11
		c13.464-43.54,31.355-83.487,52.818-118.546C498.866,372.025,505.249,413.276,483.812,442.791L483.812,442.791z"/>
	<path fill-rule="evenodd" clip-rule="evenodd" fill="#FFFFFF" d="M477.527,438.224c-13.78,19.013-36.731,27.355-58.382,23.438
		c12.341-38.14,28.104-73.411,46.729-104.989C491.078,376.165,496.372,412.283,477.527,438.224L477.527,438.224z"/>
	<path fill-rule="evenodd" clip-rule="evenodd" fill="#FFFFFF" d="M471.251,433.629c-11.759,16.215-31.163,23.567-49.702,20.728
		c11.098-32.813,24.731-63.4,40.562-91.224C483.253,380.38,487.467,411.294,471.251,433.629L471.251,433.629z"/>
	<path fill-rule="evenodd" clip-rule="evenodd" fill="#FFFFFF" d="M464.97,429.064c-9.72,13.373-25.502,19.705-40.862,17.938
		c9.706-27.478,21.227-53.38,34.343-77.296C475.423,384.677,478.519,410.405,464.97,429.064L464.97,429.064z"/>
	<path fill-rule="evenodd" clip-rule="evenodd" fill="#FFFFFF" d="M458.69,424.455c-7.653,10.548-19.826,15.834-31.911,15.142
		c8.192-22.195,17.563-43.3,28.038-63.133C467.576,389.101,469.548,409.5,458.69,424.455L458.69,424.455z"/>
	<path fill-rule="evenodd" clip-rule="evenodd" fill="#FFFFFF" d="M452.408,419.863c-5.547,7.647-14.017,11.788-22.773,12.169
		c6.517-16.864,13.697-33.08,21.55-48.515C459.683,393.667,460.544,408.679,452.408,419.863L452.408,419.863z"/>
	<path fill-rule="evenodd" clip-rule="evenodd" fill="#FFFFFF" d="M446.11,415.337c-3.333,4.607-8.108,7.536-13.286,8.61
		c4.559-11.267,9.415-22.193,14.581-32.824C451.639,398.488,451.425,407.988,446.11,415.337L446.11,415.337z"/>
	<path fill-rule="evenodd" clip-rule="evenodd" fill="#FFFFFF" d="M439.855,410.701c-0.798,1.118-1.703,2.022-2.692,2.8
		c1.79-4.187,3.633-8.312,5.506-12.398C442.868,404.425,441.94,407.817,439.855,410.701L439.855,410.701z"/>
	<path fill-rule="evenodd" clip-rule="evenodd" fill="#FFFFFF" d="M496.026,860.895c-6.907-20.952-12.796-42.958-17.508-65.935
		c-28.731-6.331-55.737-14.276-80.711-23.704c3.746,22.589,8.623,44.47,14.538,65.593
		C438.69,846.495,466.735,854.485,496.026,860.895L496.026,860.895z"/>
	<path fill-rule="evenodd" clip-rule="evenodd" fill="#FFFFFF" d="M496.026,860.895c-6.907-20.952-12.796-42.958-17.508-65.935
		c-28.731-6.331-55.737-14.276-80.711-23.704c3.746,22.589,8.623,44.47,14.538,65.593
		C438.69,846.495,466.735,854.485,496.026,860.895L496.026,860.895z"/>
	<path fill-rule="evenodd" clip-rule="evenodd" fill="#FFFFFF" d="M496.026,860.895c-6.907-20.952-12.796-42.958-17.508-65.935
		c-28.731-6.331-55.737-14.276-80.711-23.704c3.746,22.589,8.623,44.47,14.538,65.593
		C438.69,846.495,466.735,854.485,496.026,860.895L496.026,860.895z"/>
	<path fill-rule="evenodd" clip-rule="evenodd" fill="#FFFFFF" d="M496.026,860.895c-6.907-20.952-12.796-42.958-17.508-65.935
		c-28.731-6.331-55.737-14.276-80.711-23.704c3.746,22.589,8.623,44.47,14.538,65.593
		C438.69,846.495,466.735,854.485,496.026,860.895L496.026,860.895z"/>
	<path fill-rule="evenodd" clip-rule="evenodd" fill="#FFFFFF" d="M496.026,860.895c-6.907-20.952-12.796-42.958-17.508-65.935
		c-28.731-6.331-55.737-14.276-80.711-23.704c3.746,22.589,8.623,44.47,14.538,65.593
		C438.69,846.495,466.735,854.485,496.026,860.895L496.026,860.895z"/>
	<path fill-rule="evenodd" clip-rule="evenodd" fill="#FFFFFF" d="M494.709,856.765c-3.867,0.43-7.738,0.824-11.655,1.156
		c-24.604-5.89-48.273-12.861-70.709-21.072c-5.916-21.123-10.792-43.004-14.538-65.593c24.974,9.428,51.98,17.373,80.711,23.704
		C482.931,816.424,488.391,837.018,494.709,856.765L494.709,856.765z"/>
	<path fill-rule="evenodd" clip-rule="evenodd" fill="#FFFFFF" d="M492.393,849.325c-11.161,1.206-22.349,1.984-33.574,2.32
		c-15.982-4.378-31.502-9.326-46.474-14.797c-5.916-21.123-10.792-43.004-14.538-65.593c24.974,9.428,51.98,17.373,80.711,23.704
		C482.368,813.751,487.056,831.817,492.393,849.325L492.393,849.325z"/>
	<path fill-rule="evenodd" clip-rule="evenodd" fill="#FFFFFF" d="M490.154,841.833c-18.754,1.989-37.652,2.716-56.582,2.239
		c-7.181-2.317-14.256-4.685-21.227-7.224c-5.916-21.123-10.792-43.004-14.538-65.593c24.974,9.428,51.98,17.373,80.711,23.704
		C481.811,811.094,485.749,826.693,490.154,841.833L490.154,841.833z"/>
	<path fill-rule="evenodd" clip-rule="evenodd" fill="#FFFFFF" d="M488.046,834.314c-25.227,2.665-50.663,2.971-76.087,1.037
		c-5.72-20.652-10.498-42.028-14.152-64.096c24.974,9.428,51.98,17.373,80.711,23.704
		C481.274,808.42,484.497,821.539,488.046,834.314L488.046,834.314z"/>
	<path fill-rule="evenodd" clip-rule="evenodd" fill="#FFFFFF" d="M486.003,826.824c-25.226,2.588-50.707,2.884-76.13,0.775
		c-4.791-18.23-8.856-37.038-12.065-56.344c24.974,9.428,51.98,17.373,80.711,23.704
		C480.758,805.845,483.253,816.424,486.003,826.824L486.003,826.824z"/>
	<path fill-rule="evenodd" clip-rule="evenodd" fill="#FFFFFF" d="M484.086,819.349c-25.267,2.486-50.768,2.673-76.192,0.424
		c-3.938-15.779-7.327-31.953-10.087-48.517c24.974,9.428,51.98,17.373,80.711,23.704
		C480.222,803.218,482.088,811.349,484.086,819.349L484.086,819.349z"/>
	<path fill-rule="evenodd" clip-rule="evenodd" fill="#FFFFFF" d="M482.243,811.814c-25.27,2.455-50.819,2.501-76.265,0.14
		c-3.115-13.301-5.866-26.843-8.171-40.698c24.974,9.428,51.98,17.373,80.711,23.704
		C479.686,800.633,480.949,806.229,482.243,811.814L482.243,811.814z"/>
	<path fill-rule="evenodd" clip-rule="evenodd" fill="#FFFFFF" d="M480.54,804.297c-25.333,2.399-50.86,2.354-76.341-0.177
		c-2.388-10.797-4.538-21.725-6.391-32.864c24.974,9.428,51.98,17.373,80.711,23.704
		C479.169,798.099,479.855,801.193,480.54,804.297L480.54,804.297z"/>
	<path fill-rule="evenodd" clip-rule="evenodd" fill="#FFFFFF" d="M478.905,796.772c-25.331,2.363-50.922,2.275-76.383-0.398
		c-1.725-8.299-3.291-16.633-4.714-25.118c24.974,9.428,51.98,17.373,80.711,23.704
		C478.624,795.557,478.781,796.165,478.905,796.772L478.905,796.772z"/>
	<path fill-rule="evenodd" clip-rule="evenodd" fill="#FFFFFF" d="M459.493,790.441c-19.488,0.86-39.04,0.222-58.544-1.937
		c-1.12-5.669-2.171-11.436-3.141-17.249C417.188,778.581,437.813,784.938,459.493,790.441L459.493,790.441z"/>
	<path fill-rule="evenodd" clip-rule="evenodd" fill="#FFFFFF" d="M432.887,783.045c-11.141-0.252-22.279-1.028-33.396-2.318
		c-0.567-3.14-1.167-6.293-1.684-9.471C409.082,775.51,420.823,779.433,432.887,783.045L432.887,783.045z"/>
	<path fill-rule="evenodd" clip-rule="evenodd" fill="#FFFFFF" d="M404.198,773.587c-2.023-0.225-4.065-0.434-6.107-0.694
		c-0.085-0.562-0.197-1.072-0.284-1.637C399.913,772.074,402.07,772.811,404.198,773.587L404.198,773.587z"/>
	<path fill-rule="evenodd" clip-rule="evenodd" fill="#FFFFFF" d="M514.325,908.896c-28.839-3.696-56.582-8.902-82.902-15.352
		c21.552,54.397,50.345,101.796,84.563,139.13c-47.102-28.937-87.68-80.982-117.146-148.036
		c-64.857-19.534-119.507-47.391-158.666-80.727c64.406,160.687,221.634,274.183,405.311,274.183c10.2,0,20.237-0.386,30.196-1.076
		C609.855,1058.237,552.647,996.282,514.325,908.896L514.325,908.896z"/>
	<path fill-rule="evenodd" clip-rule="evenodd" fill="#FFFFFF" d="M400.283,887.819c-46.347-4.521-92.368-15.957-136.521-34.446
		c-8.834-15.919-16.751-32.385-23.588-49.462c39.158,33.336,93.808,61.192,158.666,80.727
		C399.312,885.717,399.809,886.747,400.283,887.819L400.283,887.819z"/>
	<path fill-rule="evenodd" clip-rule="evenodd" fill="#FFFFFF" d="M375.446,877.062c-39.916-6.101-79.404-17.536-117.381-34.322
		c-6.559-12.636-12.561-25.543-17.891-38.828C274.542,833.158,320.824,858.179,375.446,877.062L375.446,877.062z"/>
	<path fill-rule="evenodd" clip-rule="evenodd" fill="#FFFFFF" d="M334.625,861.104c-27.867-6.967-55.314-16.676-81.96-29.063
		c-4.468-9.216-8.667-18.589-12.491-28.129C265.614,825.539,297.591,844.849,334.625,861.104L334.625,861.104z"/>
	<path fill-rule="evenodd" clip-rule="evenodd" fill="#FFFFFF" d="M294.133,840.973c-15.724-5.621-31.247-12.167-46.479-19.6
		c-2.6-5.777-5.118-11.583-7.48-17.462C255.791,817.239,273.94,829.581,294.133,840.973L294.133,840.973z"/>
	<path fill-rule="evenodd" clip-rule="evenodd" fill="#FFFFFF" d="M258.497,818.227c-5.202-2.415-10.39-4.941-15.528-7.576
		c-0.947-2.23-1.894-4.463-2.793-6.739C245.937,808.818,252.066,813.582,258.497,818.227L258.497,818.227z"/>
	<path fill-rule="evenodd" clip-rule="evenodd" fill="#FFFFFF" d="M674.867,811.384c-49.701,1.982-97.595-0.505-142.519-6.755
		c7.202,23.369,15.612,45.82,25.267,66.981c32.281,4.127,65.742,6.402,100.062,6.402c157.471,0,297.018-46.152,384.029-117.33
		c-62.15,90.269-226.906,154.955-420.628,154.955c-13.875,0-27.636-0.332-41.227-1.03c43.229,74.587,102.237,128.61,169.399,151.062
		c190.152-46.322,331.461-217.204,332.715-421.302C1021.881,735.036,863.4,803.993,674.867,811.384L674.867,811.384z"/>
	<path fill-rule="evenodd" clip-rule="evenodd" fill="#FFFFFF" d="M711.445,809.108c-43.158,29.165-90.471,50.626-139.766,64.129
		c-4.704-0.515-9.419-1.034-14.063-1.627c-9.655-21.161-18.065-43.612-25.267-66.981c44.923,6.25,92.817,8.737,142.519,6.755
		C687.188,810.921,699.377,810.103,711.445,809.108L711.445,809.108z"/>
	<path fill-rule="evenodd" clip-rule="evenodd" fill="#FFFFFF" d="M695.486,810.272c-43.117,27.307-90.127,47.062-138.922,58.92
		c-9.205-20.467-17.27-42.059-24.215-64.563c44.923,6.25,92.817,8.737,142.519,6.755
		C681.768,811.137,688.674,810.732,695.486,810.272L695.486,810.272z"/>
	<path fill-rule="evenodd" clip-rule="evenodd" fill="#FFFFFF" d="M679.123,811.176c-39.419,23.271-81.824,40.304-125.698,50.834
		c-7.916-18.321-14.951-37.501-21.076-57.381c44.923,6.25,92.817,8.737,142.519,6.755
		C676.283,811.349,677.703,811.264,679.123,811.176L679.123,811.176z"/>
	<path fill-rule="evenodd" clip-rule="evenodd" fill="#FFFFFF" d="M662.373,811.769c-35.469,19.365-73.14,33.774-112.001,43.06
		c-6.671-16.171-12.687-32.895-18.023-50.199C573.471,810.354,617.12,812.899,662.373,811.769L662.373,811.769z"/>
	<path fill-rule="evenodd" clip-rule="evenodd" fill="#FFFFFF" d="M645.274,811.997c-31.227,15.733-64.087,27.648-97.809,35.605
		c-5.526-13.939-10.559-28.254-15.117-42.974C568.281,809.623,606.128,812.213,645.274,811.997L645.274,811.997z"/>
	<path fill-rule="evenodd" clip-rule="evenodd" fill="#FFFFFF" d="M627.639,811.916c-26.729,12.254-54.536,21.793-82.993,28.467
		c-4.403-11.662-8.538-23.541-12.297-35.754C562.861,808.86,594.756,811.349,627.639,811.916L627.639,811.916z"/>
	<path fill-rule="evenodd" clip-rule="evenodd" fill="#FFFFFF" d="M609.467,811.384c-21.938,9.129-44.493,16.347-67.506,21.693
		c-3.398-9.306-6.621-18.762-9.612-28.448C557.207,808.079,582.991,810.354,609.467,811.384L609.467,811.384z"/>
	<path fill-rule="evenodd" clip-rule="evenodd" fill="#FFFFFF" d="M590.759,810.442c-16.822,6.19-34.005,11.309-51.399,15.306
		c-2.432-6.924-4.8-13.979-7.011-21.119C551.318,807.26,570.84,809.196,590.759,810.442L590.759,810.442z"/>
	<path fill-rule="evenodd" clip-rule="evenodd" fill="#FFFFFF" d="M571.293,808.984c-11.35,3.648-22.838,6.788-34.428,9.461
		c-1.525-4.555-3.076-9.165-4.517-13.816C545.099,806.399,558.09,807.824,571.293,808.984L571.293,808.984z"/>
	<path fill-rule="evenodd" clip-rule="evenodd" fill="#FFFFFF" d="M551.035,806.964c-5.506,1.499-11.033,2.884-16.602,4.173
		c-0.686-2.197-1.402-4.297-2.084-6.508C538.518,805.493,544.779,806.229,551.035,806.964L551.035,806.964z"/>
	<path fill-rule="evenodd" clip-rule="evenodd" fill="#FFFFFF" d="M375.94,822.191c-6.412-21.377-11.853-43.835-16.13-67.15
		c-46.409-22.323-83.185-50.195-106.756-82.057c29.143,22.191,63.79,41.503,102.628,57.201
		c-4.907-33.684-7.591-68.997-7.591-105.301c0-174.094,60.192-324.205,147.031-393.245
		C328.11,292.934,208.971,453.363,208.971,641.584c0,17.248,1.011,34.243,2.968,50.922
		C245.231,744.726,302.672,789.613,375.94,822.191L375.94,822.191z"/>
	<path fill-rule="evenodd" clip-rule="evenodd" fill="#FFFFFF" d="M375.94,822.191c-6.412-21.377-11.853-43.835-16.13-67.15
		c-46.409-22.323-83.185-50.195-106.756-82.057c29.143,22.191,63.79,41.503,102.628,57.201
		c-4.907-33.684-7.591-68.997-7.591-105.301c0-174.094,60.192-324.205,147.031-393.245
		C328.11,292.934,208.971,453.363,208.971,641.584c0,17.248,1.011,34.243,2.968,50.922
		C245.231,744.726,302.672,789.613,375.94,822.191L375.94,822.191z"/>
	<path fill-rule="evenodd" clip-rule="evenodd" fill="#FFFFFF" d="M375.94,822.191c-6.412-21.377-11.853-43.835-16.13-67.15
		c-46.409-22.323-83.185-50.195-106.756-82.057c29.143,22.191,63.79,41.503,102.628,57.201
		c-4.907-33.684-7.591-68.997-7.591-105.301c0-174.094,60.192-324.205,147.031-393.245
		C328.11,292.934,208.971,453.363,208.971,641.584c0,17.248,1.011,34.243,2.968,50.922
		C245.231,744.726,302.672,789.613,375.94,822.191L375.94,822.191z"/>
	<path fill-rule="evenodd" clip-rule="evenodd" fill="#FFFFFF" d="M375.94,822.191c-6.412-21.377-11.853-43.835-16.13-67.15
		c-46.409-22.323-83.185-50.195-106.756-82.057c29.143,22.191,63.79,41.503,102.628,57.201
		c-4.907-33.684-7.591-68.997-7.591-105.301c0-174.094,60.192-324.205,147.031-393.245
		C328.11,292.934,208.971,453.363,208.971,641.584c0,17.248,1.011,34.243,2.968,50.922
		C245.231,744.726,302.672,789.613,375.94,822.191L375.94,822.191z"/>
	<path fill-rule="evenodd" clip-rule="evenodd" fill="#FFFFFF" d="M375.94,822.191c-6.412-21.377-11.853-43.835-16.13-67.15
		c-46.409-22.323-83.185-50.195-106.756-82.057c29.143,22.191,63.79,41.503,102.628,57.201
		c-4.907-33.684-7.591-68.997-7.591-105.301c0-174.094,60.192-324.205,147.031-393.245
		C328.11,292.934,208.971,453.363,208.971,641.584c0,17.248,1.011,34.243,2.968,50.922
		C245.231,744.726,302.672,789.613,375.94,822.191L375.94,822.191z"/>
	<path fill-rule="evenodd" clip-rule="evenodd" fill="#FFFFFF" d="M375.94,822.191c-6.412-21.377-11.853-43.835-16.13-67.15
		c-46.409-22.323-83.185-50.195-106.756-82.057c29.143,22.191,63.79,41.503,102.628,57.201
		c-4.907-33.684-7.591-68.997-7.591-105.301c0-174.094,60.192-324.205,147.031-393.245
		C328.11,292.934,208.971,453.363,208.971,641.584c0,17.248,1.011,34.243,2.968,50.922
		C245.231,744.726,302.672,789.613,375.94,822.191L375.94,822.191z"/>
	<path fill-rule="evenodd" clip-rule="evenodd" fill="#FFFFFF" d="M375.94,822.191c-6.412-21.377-11.853-43.835-16.13-67.15
		c-46.409-22.323-83.185-50.195-106.756-82.057c29.143,22.191,63.79,41.503,102.628,57.201
		c-4.907-33.684-7.591-68.997-7.591-105.301c0-174.094,60.192-324.205,147.031-393.245
		C328.11,292.934,208.971,453.363,208.971,641.584c0,17.248,1.011,34.243,2.968,50.922
		C245.231,744.726,302.672,789.613,375.94,822.191L375.94,822.191z"/>
	<path fill-rule="evenodd" clip-rule="evenodd" fill="#FFFFFF" d="M375.94,822.191c-6.412-21.377-11.853-43.835-16.13-67.15
		c-46.409-22.323-83.185-50.195-106.756-82.057c29.143,22.191,63.79,41.503,102.628,57.201
		c-4.907-33.684-7.591-68.997-7.591-105.301c0-174.094,60.192-324.205,147.031-393.245
		C328.11,292.934,208.971,453.363,208.971,641.584c0,17.248,1.011,34.243,2.968,50.922
		C245.231,744.726,302.672,789.613,375.94,822.191L375.94,822.191z"/>
	<path fill-rule="evenodd" clip-rule="evenodd" fill="#FFFFFF" d="M375.94,822.191c-6.412-21.377-11.853-43.835-16.13-67.15
		c-46.409-22.323-83.185-50.195-106.756-82.057c29.143,22.191,63.79,41.503,102.628,57.201
		c-4.907-33.684-7.591-68.997-7.591-105.301c0-174.094,60.192-324.205,147.031-393.245
		C328.11,292.934,208.971,453.363,208.971,641.584c0,17.248,1.011,34.243,2.968,50.922
		C245.231,744.726,302.672,789.613,375.94,822.191L375.94,822.191z"/>
	<path fill-rule="evenodd" clip-rule="evenodd" fill="#FFFFFF" d="M375.94,822.191c-6.412-21.377-11.853-43.835-16.13-67.15
		c-46.409-22.323-83.185-50.195-106.756-82.057c29.143,22.191,63.79,41.503,102.628,57.201
		c-4.907-33.684-7.591-68.997-7.591-105.301c0-174.094,60.192-324.205,147.031-393.245
		C328.11,292.934,208.971,453.363,208.971,641.584c0,17.248,1.011,34.243,2.968,50.922
		C245.231,744.726,302.672,789.613,375.94,822.191L375.94,822.191z"/>
	<path fill-rule="evenodd" clip-rule="evenodd" fill="#FFFFFF" d="M373.981,815.352c-7.159-1.249-14.339-2.634-21.464-4.301
		c-62.086-31.31-110.925-72.047-140.578-118.545c-1.958-16.679-2.968-33.674-2.968-50.922c0-188.221,119.139-348.65,286.151-409.944
		c-86.839,69.04-147.031,219.151-147.031,393.245c0,36.304,2.685,71.617,7.591,105.301c-38.838-15.698-73.485-35.01-102.628-57.201
		c23.571,31.861,60.347,59.733,106.756,82.057C363.634,775.907,368.434,796.039,373.981,815.352L373.981,815.352z"/>
	<path fill-rule="evenodd" clip-rule="evenodd" fill="#FFFFFF" d="M371.72,807.26c-16.059-2.927-31.996-6.882-47.758-11.833
		c-48.565-28.762-87.082-63.783-112.023-102.921c-1.958-16.679-2.968-33.674-2.968-50.922c0-188.221,119.139-348.65,286.151-409.944
		c-86.839,69.04-147.031,219.151-147.031,393.245c0,36.304,2.685,71.617,7.591,105.301c-38.838-15.698-73.485-35.01-102.628-57.201
		c23.571,31.861,60.347,59.733,106.756,82.057C363.096,773.023,367.14,790.441,371.72,807.26L371.72,807.26z"/>
	<path fill-rule="evenodd" clip-rule="evenodd" fill="#FFFFFF" d="M369.572,799.136c-24.881-4.782-49.483-11.964-73.437-21.729
		c-35.552-24.942-64.241-53.589-84.196-84.901c-1.958-16.679-2.968-33.674-2.968-50.922c0-188.221,119.139-348.65,286.151-409.944
		c-86.839,69.04-147.031,219.151-147.031,393.245c0,36.304,2.685,71.617,7.591,105.301c-38.838-15.698-73.485-35.01-102.628-57.201
		c23.571,31.861,60.347,59.733,106.756,82.057C362.581,770.138,365.896,784.856,369.572,799.136L369.572,799.136z"/>
	<path fill-rule="evenodd" clip-rule="evenodd" fill="#FFFFFF" d="M367.508,791.048c-33.376-6.677-66.171-17.852-97.546-33.732
		c-23.593-19.86-43.227-41.586-58.023-64.81c-1.958-16.679-2.968-33.674-2.968-50.922c0-188.221,119.139-348.65,286.151-409.944
		c-86.839,69.04-147.031,219.151-147.031,393.245c0,36.304,2.685,71.617,7.591,105.301c-38.838-15.698-73.485-35.01-102.628-57.201
		c23.571,31.861,60.347,59.733,106.756,82.057C362.065,767.298,364.646,779.299,367.508,791.048L367.508,791.048z"/>
	<path fill-rule="evenodd" clip-rule="evenodd" fill="#FFFFFF" d="M365.591,782.913c-41.095-8.563-81.288-24.169-118.813-47.056
		c-13.487-13.751-25.204-28.213-34.839-43.352c-1.958-16.679-2.968-33.674-2.968-50.922c0-188.221,119.139-348.65,286.151-409.944
		c-86.839,69.04-147.031,219.151-147.031,393.245c0,36.304,2.685,71.617,7.591,105.301c-38.838-15.698-73.485-35.01-102.628-57.201
		c23.571,31.861,60.347,59.733,106.756,82.057C361.549,764.511,363.506,773.753,365.591,782.913L365.591,782.913z"/>
	<path fill-rule="evenodd" clip-rule="evenodd" fill="#FFFFFF" d="M363.811,774.79c-47.659-10.322-94.006-30.322-136.153-60.387
		c-5.695-7.143-10.969-14.409-15.719-21.897c-1.958-16.679-2.968-33.674-2.968-50.922c0-188.221,119.139-348.65,286.151-409.944
		c-86.839,69.04-147.031,219.151-147.031,393.245c0,36.304,2.685,71.617,7.591,105.301c-38.838-15.698-73.485-35.01-102.628-57.201
		c23.571,31.861,60.347,59.733,106.756,82.057C361.034,761.714,362.39,768.29,363.811,774.79L363.811,774.79z"/>
	<path fill-rule="evenodd" clip-rule="evenodd" fill="#FFFFFF" d="M362.106,766.708c-46.511-10.55-91.735-30.413-132.773-60.227
		c-5.739-4.167-11.307-8.509-16.729-12.942c-0.212-0.3-0.452-0.679-0.666-1.033c-1.958-16.679-2.968-33.674-2.968-50.922
		c0-188.221,119.139-348.65,286.151-409.944c-86.839,69.04-147.031,219.151-147.031,393.245c0,36.304,2.685,71.617,7.591,105.301
		c-38.838-15.698-73.485-35.01-102.628-57.201c23.571,31.861,60.347,59.733,106.756,82.057
		C360.538,758.959,361.315,762.832,362.106,766.708L362.106,766.708z"/>
	<path fill-rule="evenodd" clip-rule="evenodd" fill="#FFFFFF" d="M360.517,758.574c-44.536-10.462-87.786-29.729-127.14-58.276
		c-7.803-5.687-15.267-11.623-22.47-17.771c-1.252-13.503-1.937-27.098-1.937-40.942c0-188.221,119.139-348.65,286.151-409.944
		c-86.839,69.04-147.031,219.151-147.031,393.245c0,36.304,2.685,71.617,7.591,105.301c-38.838-15.698-73.485-35.01-102.628-57.201
		c23.571,31.861,60.347,59.733,106.756,82.057C360.021,756.244,360.282,757.416,360.517,758.574L360.517,758.574z"/>
	<path fill-rule="evenodd" clip-rule="evenodd" fill="#FFFFFF" d="M341.491,745.626c-36.352-10.925-71.594-28.004-104.071-51.568
		c-9.572-6.973-18.688-14.378-27.354-22.067c-0.685-10.062-1.096-20.174-1.096-30.406c0-188.221,119.139-348.65,286.151-409.944
		c-86.839,69.04-147.031,219.151-147.031,393.245c0,36.304,2.685,71.617,7.591,105.301c-38.838-15.698-73.485-35.01-102.628-57.201
		C273.447,700.503,303.706,725.061,341.491,745.626L341.491,745.626z"/>
	<path fill-rule="evenodd" clip-rule="evenodd" fill="#FFFFFF" d="M310.191,726.439c-23.826-9.973-46.923-22.755-68.729-38.616
		c-11.35-8.224-21.974-17.075-32.017-26.373c-0.284-6.618-0.475-13.203-0.475-19.866c0-188.221,119.139-348.65,286.151-409.944
		c-86.839,69.04-147.031,219.151-147.031,393.245c0,36.304,2.685,71.617,7.591,105.301c-38.838-15.698-73.485-35.01-102.628-57.201
		C267.445,692.421,286.797,710.357,310.191,726.439L310.191,726.439z"/>
	<path fill-rule="evenodd" clip-rule="evenodd" fill="#FFFFFF" d="M282.733,705.031c-12.708-6.932-25.182-14.677-37.228-23.411
		c-13.054-9.457-25.161-19.778-36.405-30.664c-0.065-3.14-0.129-6.233-0.129-9.372c0-188.221,119.139-348.65,286.151-409.944
		c-86.839,69.04-147.031,219.151-147.031,393.245c0,36.304,2.685,71.617,7.591,105.301c-38.838-15.698-73.485-35.01-102.628-57.201
		C261.358,684.166,271.331,694.876,282.733,705.031L282.733,705.031z"/>
	<path fill-rule="evenodd" clip-rule="evenodd" fill="#FFFFFF" d="M355.123,726.009c-11.208-3.051-22.306-6.702-33.227-10.999
		c-25.339-12.443-48.45-26.504-68.843-42.025c2.715,3.645,5.633,7.267,8.686,10.798c-4.106-2.713-8.168-5.468-12.192-8.398
		c-14.709-10.657-28.195-22.361-40.555-34.873c0.453-187.798,119.464-347.704,286.13-408.871
		c-86.839,69.04-147.031,219.151-147.031,393.245C348.091,659.739,350.565,693.578,355.123,726.009L355.123,726.009z"/>
	<path fill-rule="evenodd" clip-rule="evenodd" fill="#FFFFFF" d="M354.02,717.879c-35.134-9.885-69.159-26.013-100.428-48.725
		c-16.278-11.835-31.071-24.953-44.43-39.062c4.737-183.26,122.368-338.401,285.96-398.452
		c-86.839,69.04-147.031,219.151-147.031,393.245C348.091,656.812,350.176,687.948,354.02,717.879L354.02,717.879z"/>
	<path fill-rule="evenodd" clip-rule="evenodd" fill="#FFFFFF" d="M353.033,709.747c-33.355-9.753-65.658-25.202-95.399-46.788
		c-17.825-12.952-33.869-27.479-48.084-43.183c8.792-178.754,125.054-329.244,285.572-388.137
		c-86.839,69.04-147.031,219.151-147.031,393.245C348.091,653.926,349.831,682.309,353.033,709.747L353.033,709.747z"/>
	<path fill-rule="evenodd" clip-rule="evenodd" fill="#FFFFFF" d="M352.134,701.617c-31.613-9.538-62.24-24.424-90.476-44.895
		c-19.353-14.066-36.493-29.979-51.465-47.355C222.88,435.212,337.722,289.415,495.122,231.64
		c-86.839,69.04-147.031,219.151-147.031,393.245C348.091,651.086,349.506,676.73,352.134,701.617L352.134,701.617z"/>
	<path fill-rule="evenodd" clip-rule="evenodd" fill="#FFFFFF" d="M351.336,693.494c-29.913-9.328-58.885-23.563-85.637-43.004
		c-20.794-15.098-39.008-32.438-54.644-51.355c16.362-169.646,129.764-310.894,284.066-367.495
		c-86.839,69.04-147.031,219.151-147.031,393.245C348.091,648.247,349.252,671.126,351.336,693.494L351.336,693.494z"/>
	<path fill-rule="evenodd" clip-rule="evenodd" fill="#FFFFFF" d="M350.607,685.323c-28.215-9.124-55.555-22.705-80.866-41.076
		c-22.237-16.135-41.419-34.88-57.568-55.489C232.07,423.778,343.978,287.082,495.122,231.64
		c-86.839,69.04-147.031,219.151-147.031,393.245C348.091,645.403,348.968,665.588,350.607,685.323L350.607,685.323z"/>
	<path fill-rule="evenodd" clip-rule="evenodd" fill="#FFFFFF" d="M349.979,677.236c-26.577-8.865-52.296-21.854-76.193-39.18
		c-23.588-17.12-43.696-37.253-60.256-59.448c23.183-160.428,133.572-292.645,281.592-346.969
		c-86.839,69.04-147.031,219.151-147.031,393.245C348.091,642.62,348.756,660.071,349.979,677.236L349.979,677.236z"/>
	<path fill-rule="evenodd" clip-rule="evenodd" fill="#FFFFFF" d="M349.462,669.111c-24.966-8.609-49.138-20.952-71.634-37.296
		c-24.921-18.06-45.851-39.648-62.688-63.485c26.302-155.776,135.122-283.524,279.981-336.69
		c-86.839,69.04-147.031,219.151-147.031,393.245C348.091,639.82,348.607,654.577,349.462,669.111L349.462,669.111z"/>
	<path fill-rule="evenodd" clip-rule="evenodd" fill="#FFFFFF" d="M349.03,660.981c-23.395-8.343-46.062-20.051-67.179-35.396
		c-26.216-19.012-47.874-41.943-64.876-67.359C246.22,406.995,353.421,283.647,495.122,231.64
		c-86.839,69.04-147.031,219.151-147.031,393.245C348.091,637.064,348.453,649.065,349.03,660.981L349.03,660.981z"/>
	<path fill-rule="evenodd" clip-rule="evenodd" fill="#FFFFFF" d="M348.648,652.854c-21.855-8.043-42.992-19.14-62.756-33.461
		c-27.437-19.92-49.779-44.22-66.836-71.275c31.977-146.576,137.524-265.63,276.066-316.478
		c-86.839,69.04-147.031,219.151-147.031,393.245C348.091,634.319,348.303,643.604,348.648,652.854L348.648,652.854z"/>
	<path fill-rule="evenodd" clip-rule="evenodd" fill="#FFFFFF" d="M348.388,644.723c-20.34-7.745-40.04-18.194-58.473-31.566
		c-28.647-20.823-51.569-46.552-68.54-75.188c34.54-141.939,138.413-256.696,273.747-306.329
		c-86.839,69.04-147.031,219.151-147.031,393.245C348.091,631.562,348.218,638.138,348.388,644.723L348.388,644.723z"/>
	<path fill-rule="evenodd" clip-rule="evenodd" fill="#FFFFFF" d="M348.239,636.635c-18.856-7.403-37.121-17.242-54.282-29.722
		c-29.807-21.629-53.222-48.817-69.972-79.051C260.886,390.613,363.012,280.11,495.122,231.64
		c-86.839,69.04-147.031,219.151-147.031,393.245C348.091,628.85,348.177,632.719,348.239,636.635L348.239,636.635z"/>
	<path fill-rule="evenodd" clip-rule="evenodd" fill="#FFFFFF" d="M348.112,628.508c-17.381-7.095-34.237-16.301-50.112-27.829
		c-30.925-22.448-54.792-51.045-71.206-82.841c39.125-132.595,139.469-238.926,268.327-286.198
		c-86.839,69.04-147.031,219.151-147.031,393.245C348.091,626.099,348.112,627.249,348.112,628.508L348.112,628.508z"/>
	<path fill-rule="evenodd" clip-rule="evenodd" fill="#FFFFFF" d="M348.133,620.429c-15.958-6.719-31.469-15.315-46.091-25.947
		c-32.038-23.267-56.254-53.292-72.173-86.662c41.123-127.92,139.658-230.11,265.252-276.18
		C409.033,300.073,349.166,448.247,348.133,620.429L348.133,620.429z"/>
	<path fill-rule="evenodd" clip-rule="evenodd" fill="#FFFFFF" d="M348.218,612.295c-14.559-6.331-28.73-14.334-42.131-24.046
		c-33.116-23.997-57.55-55.571-72.817-90.541c42.968-123.18,139.574-221.203,261.853-266.069
		C410.389,299,351.053,443.554,348.218,612.295L348.218,612.295z"/>
	<path fill-rule="evenodd" clip-rule="evenodd" fill="#FFFFFF" d="M348.409,604.213c-13.245-5.94-26.059-13.304-38.279-22.155
		c-34.125-24.776-58.75-57.813-73.249-94.328c44.63-118.489,139.272-212.424,258.242-256.09
		C411.747,297.923,352.947,438.957,348.409,604.213L348.409,604.213z"/>
	<path fill-rule="evenodd" clip-rule="evenodd" fill="#FFFFFF" d="M348.669,596.083c-11.896-5.555-23.465-12.277-34.498-20.259
		c-35.136-25.516-59.866-60.054-73.375-98.118C286.901,363.939,379.529,274.05,495.122,231.64
		C413.125,296.807,354.905,434.351,348.669,596.083L348.669,596.083z"/>
	<path fill-rule="evenodd" clip-rule="evenodd" fill="#FFFFFF" d="M349.03,587.994c-10.601-5.131-20.941-11.23-30.816-18.416
		c-36.123-26.237-60.854-62.313-73.203-101.893c47.376-109.033,137.939-194.881,250.111-236.045
		C414.495,295.73,356.862,429.757,349.03,587.994L349.03,587.994z"/>
	<path fill-rule="evenodd" clip-rule="evenodd" fill="#FFFFFF" d="M349.483,579.867c-9.352-4.694-18.491-10.164-27.247-16.477
		c-37.094-26.977-61.675-64.692-72.667-105.771C298.064,353.408,386.436,271.52,495.122,231.64
		C415.855,294.616,358.864,425.191,349.483,579.867L349.483,579.867z"/>
	<path fill-rule="evenodd" clip-rule="evenodd" fill="#FFFFFF" d="M350.022,571.727c-8.15-4.212-16.103-9.021-23.743-14.615
		c-38.061-27.609-62.446-67.106-71.826-109.685c49.138-98.837,134.603-176.389,238.97-215.139c0.212,0.044,0.455,0.129,0.667,0.214
		C416.756,294.701,360.799,421.318,350.022,571.727L350.022,571.727z"/>
	<path fill-rule="evenodd" clip-rule="evenodd" fill="#FFFFFF" d="M350.652,563.635c-6.972-3.726-13.772-7.996-20.33-12.721
		c-39.029-28.339-63.097-69.674-70.623-113.721c48.026-90.5,126.97-162.113,222.757-200.691c1.674,0.481,3.375,0.947,5.053,1.471
		C414.97,300.766,362.474,421.063,350.652,563.635L350.652,563.635z"/>
	<path fill-rule="evenodd" clip-rule="evenodd" fill="#FFFFFF" d="M351.379,555.512c-5.805-3.264-11.506-6.827-17.014-10.831
		c-40.039-29.034-63.632-72.348-68.941-117.892c46.472-82.118,118.771-147.665,205.851-185.593c3.308,0.721,6.619,1.541,9.888,2.445
		C413.296,306.616,364.107,420.637,351.379,555.512L351.379,555.512z"/>
	<path fill-rule="evenodd" clip-rule="evenodd" fill="#FFFFFF" d="M352.177,547.43c-4.694-2.749-9.274-5.712-13.771-8.949
		c-41.072-29.846-64.063-75.306-66.792-122.323c44.451-73.591,110.044-133.035,188.342-169.846
		c5.082,0.821,10.106,1.897,15.097,3.18C411.682,312.158,365.633,420.158,352.177,547.43L352.177,547.43z"/>
	<path fill-rule="evenodd" clip-rule="evenodd" fill="#FFFFFF" d="M353.102,539.253c-3.619-2.188-7.167-4.467-10.629-7.006
		c-42.21-30.622-64.424-78.543-64.043-127.016c41.899-64.899,100.521-118.024,169.789-153.21c7.031,0.652,14.022,1.855,20.971,3.495
		C410.199,317.531,367.159,419.481,353.102,539.253L353.102,539.253z"/>
	<path fill-rule="evenodd" clip-rule="evenodd" fill="#FFFFFF" d="M354.063,531.129c-2.558-1.584-5.074-3.309-7.57-5.118
		c-43.438-31.525-64.621-82.274-60.447-132.131c38.623-55.951,89.956-102.485,149.851-135.309c9.247,0.126,18.47,1.158,27.607,3.052
		C408.733,322.664,368.604,418.702,354.063,531.129L354.063,531.129z"/>
	<path fill-rule="evenodd" clip-rule="evenodd" fill="#FFFFFF" d="M355.165,522.999c-1.546-1.03-3.123-2.067-4.648-3.182
		c-44.904-32.598-64.773-86.881-55.783-138.109c34.492-46.493,78.025-85.888,127.982-115.618
		c11.742-0.848,23.629-0.295,35.333,1.811C407.377,327.593,370.023,417.84,355.165,522.999L355.165,522.999z"/>
	<path fill-rule="evenodd" clip-rule="evenodd" fill="#FFFFFF" d="M356.388,514.871c-0.6-0.424-1.244-0.861-1.85-1.285
		c-46.771-33.988-64.898-92.738-49.485-145.25c29.142-36.258,63.959-67.783,103.103-93.171c14.644-2.742,29.699-3.096,44.555-0.806
		C406.071,332.373,371.422,416.893,356.388,514.871L356.388,514.871z"/>
	<path fill-rule="evenodd" clip-rule="evenodd" fill="#FFFFFF" d="M357.682,506.656c-48.904-36.174-64.063-101.242-38.992-154.449
		c21.485-24.257,45.659-46.114,71.977-65.083c18.195-6.402,37.724-8.552,56.947-6.233
		C404.819,336.982,372.758,415.732,357.682,506.656L357.682,506.656z"/>
	<path fill-rule="evenodd" clip-rule="evenodd" fill="#FFFFFF" d="M359.096,498.403c-49.822-39.059-60.189-110.802-22.71-162.454
		c4.179-5.725,8.822-11.011,13.75-15.789c1.737-1.597,3.462-3.182,5.2-4.735c24.449-20.894,56.086-30.576,87.269-27.821
		C403.597,341.406,374.086,414.531,359.096,498.403L359.096,498.403z"/>
	<path fill-rule="evenodd" clip-rule="evenodd" fill="#FFFFFF" d="M360.651,490.189c-44.345-37.077-53.04-102.669-18.559-150.11
		c22.9-31.581,59.392-47.527,95.65-45.634C402.409,345.746,375.402,413.188,360.651,490.189L360.651,490.189z"/>
	<path fill-rule="evenodd" clip-rule="evenodd" fill="#FFFFFF" d="M362.307,481.877c-38.946-34.959-45.98-94.402-14.56-137.715
		c20.558-28.299,52.795-43.184,85.31-42.72C401.25,349.874,376.667,411.774,362.307,481.877L362.307,481.877z"/>
	<path fill-rule="evenodd" clip-rule="evenodd" fill="#FFFFFF" d="M364.087,473.406c-33.629-32.78-39.03-86.016-10.666-125.158
		c18.214-25.034,46.302-38.804,75.032-39.609C400.154,353.933,377.917,410.177,364.087,473.406L364.087,473.406z"/>
	<path fill-rule="evenodd" clip-rule="evenodd" fill="#FFFFFF" d="M366.002,464.901c-28.384-30.465-32.239-77.595-6.906-112.526
		c15.876-21.895,39.9-34.405,64.864-36.384C399.039,357.875,379.161,408.467,366.002,464.901L366.002,464.901z"/>
	<path fill-rule="evenodd" clip-rule="evenodd" fill="#FFFFFF" d="M368.087,456.206c-23.246-27.92-25.587-68.986-3.286-99.743
		c13.527-18.662,33.544-29.9,54.706-32.827C397.915,361.749,380.392,406.614,368.087,456.206L368.087,456.206z"/>
	<path fill-rule="evenodd" clip-rule="evenodd" fill="#FFFFFF" d="M370.411,447.215c-18.212-25.203-19.182-60.176,0.065-86.667
		c11.224-15.479,27.331-25.334,44.669-28.952C396.84,365.58,381.659,404.552,370.411,447.215L370.411,447.215z"/>
	<path fill-rule="evenodd" clip-rule="evenodd" fill="#FFFFFF" d="M372.949,437.885c-13.288-22.152-12.928-50.973,3.203-73.252
		c8.862-12.171,21.14-20.512,34.54-24.597C395.661,369.453,382.928,402.305,372.949,437.885L372.949,437.885z"/>
	<path fill-rule="evenodd" clip-rule="evenodd" fill="#FFFFFF" d="M375.853,427.86c-8.472-18.712-6.946-41.289,5.98-59.101
		c6.447-8.903,14.943-15.479,24.301-19.522C394.459,373.368,384.28,399.73,375.853,427.86L375.853,427.86z"/>
	<path fill-rule="evenodd" clip-rule="evenodd" fill="#FFFFFF" d="M379.404,416.41c-3.812-14.488-1.358-30.491,8.127-43.564
		c3.801-5.246,8.455-9.628,13.591-12.99C393.059,377.665,385.785,396.594,379.404,416.41L379.404,416.41z"/>
	<path fill-rule="evenodd" clip-rule="evenodd" fill="#FFFFFF" d="M384.837,400.34c0.475-8.184,3.188-16.272,8.349-23.368
		c0.432-0.595,0.862-1.157,1.313-1.71C391.121,383.433,387.9,391.774,384.837,400.34L384.837,400.34z"/>
	<path fill-rule="evenodd" clip-rule="evenodd" fill="#FFFFFF" d="M269.034,266.527l-11.697-11.055l5.74-5.98
		c0.084,3.224-0.083,6.15-0.708,8.694c5.55-0.65,9.055-0.777,10.563-0.607c1.568,0.088,3.157,0.255,4.294,0.524L269.034,266.527
		L269.034,266.527z M248.969,305.23l7.203-7.831l32.796-33.968l8.042-7.833l-9.288-8.82l-6.043,6.757
		c-0.239-3.011-0.326-5.682-0.517-8.256l-4.148,0.086l-5.832,0.295c-1.031,0.086-2.39,0-4.17-0.124l6.56-6.109l-9.654-9.076
		l-5.166,5.769l-10.364,10.744l-8.602-8.044l11.014-11.308l7.674-7.224l-9.634-9.119l-7.654,8.341l-31.225,32.343l-7.4,7.138
		l9.506,9.12l6.968-7.777l10.813-11.182l8.454,8.045l-8.581,8.991l-7.443,7.309l9.483,8.862l7.012-7.619l8.559-8.947l11.699,11.096
		l-11.654,12.001l-7.676,7.522L248.969,305.23L248.969,305.23z M184.99,267.038l58.177,55.102l9.887,9.809l10.107-10.629
		l-1.286-1.074l50.769-52.559l1.854,1.725l10.411-10.759l-10.411-9.242l-58.751-55.612l-9.187-9.162l-7.911,8.894l-54.627,56.386
		l-8.623,8.482L184.99,267.038L184.99,267.038z M195.314,257.114l50.75-52.475l57.358,54.271l-50.779,52.471L195.314,257.114
		L195.314,257.114z"/>
	<path fill-rule="evenodd" clip-rule="evenodd" fill="#FFFFFF" d="M383.658,188.682c5.745-8.355,9.978-15.41,12.621-20.866
		c-0.662-0.695-1.506-1.289-2.252-1.769c-4.064,6.548-7.811,12.217-11.357,17.034c-3.38,4.906-8.9,11.186-16.563,18.675
		c-1.506-1.301-2.94-2.333-4.233-3.197c-1.379-1.032-4.106-2.53-8.108-4.675c3.958-2.971,7.246-5.601,9.89-8.173
		c2.735-2.631,5.789-6.106,9.377-10.419c3.356-4.466,6.625-9.201,9.445-14.106l-1.683-0.382c-4.319,4.692-7.571,8.211-9.972,10.403
		c-2.307,2.333-6.305,5.769-11.676,10.716c-1.36-1.201-2.716-2.318-3.854-3.098c-1.274-0.905-4.128-2.585-8.8-5.073
		c3.315-2.108,7.619-5.246,13.117-9.205c5.55-3.91,11.665-10.585,18.372-19.87l-15.783,8.167l-9.097,5.035l-5.959-11.31l9.372-4.565
		l44.714-23.042l10.235-5.555l5.894,11.391l-10.388,5.078l-15.807,8.171c1.937,0.267,3.938,0.604,6.107,0.862
		c-2.771,4.041-5.377,8.126-7.896,11.959c4.538,0.606,7.443,1.242,8.631,1.894l3.547,1.766c5.374-9.895,8.404-15.877,9.118-17.983
		l2.771-7.661c1.682,0.778,3.252,1.257,4.686,1.727c1.36,0.437,5.084,1.032,11.077,1.807c-3.309,5.771-6.106,10.801-8.512,15.227
		c1.739,1.85,4.54,4.466,8.362,7.746c3.811,3.265,8.947,5.629,15.465,7.055c6.623,1.541,13.097,1.935,19.55,1.283
		c-0.798,2.929-1.4,5.247-1.724,7.099c-0.431,1.852-0.812,4.99-1.201,9.331c-9.202-0.638-16.328-1.713-21.362-3.606
		c-5.117-1.809-9.477-4-13.413-6.543c-3.873-2.717-8.128-6.28-12.884-11.014l-2.815,4.173c1.266,1.725,2.383,3.32,3.246,4.735
		c0.989,1.467,2.559,4.254,4.904,8.467c2.253,4.269,3.741,7.875,4.602,10.672c0.799,3.051,0.748,6.319-0.453,9.642
		c-1.116,3.263-5.958,7.18-14.362,11.648c-3.421-4.127-5.745-6.574-6.926-7.479l-4.54-3.536c6.067-2.02,9.593-3.786,10.413-5.54
		c0.919-1.554,0.961-3.618,0.042-5.725c-0.777-2.277-1.548-4.085-2.241-5.288l-0.56-1.327c-2.578,4.637-5.893,9.88-10.041,15.945
		c-4.256,5.937-8.023,10.801-11.375,14.192l-11.336,12.566c-3.358-2.542-5.718-4.254-7.443-5.073l-5.803-3.012
		C369.572,205.572,377.855,197.065,383.658,188.682L383.658,188.682z M334.324,161.328l-2.665-5.852l-6.233-11.623l-4.137-7.434
		l12.201-5.81l28.773-14.802c-2.106-0.763-4.947-1.582-8.537-2.361c1.2-1.415,2.408-2.714,3.244-3.959
		c0.883-1.157,2.6-3.873,5.229-8.083c6.856,1.554,11.91,2.797,15.247,3.746c-0.779,1.327-1.315,2.571-1.767,3.704l30.909-15.917
		l11.024-6.106l3.768,7.775l6.169,11.661l3.423,5.854l-13.678,6.967l-2.926-5.979l-4-7.706l-69.352,35.919l3.738,7.352l3.317,5.599
		L334.324,161.328L334.324,161.328z"/>
	<path fill-rule="evenodd" clip-rule="evenodd" fill="#FFFFFF" d="M519.999,75.691l22.78-3.575l2.258,13.81l-22.84,3.518
		L519.999,75.691L519.999,75.691z M504.861,74.744l7.23,45.757l1.525,12.385l15.118-2.364l-0.366-1.808l22.88-3.518l2.712,17.371
		c0.432,2.59,1.012,4.734,1.824,6.445c0.947,1.429,2.517,2.715,4.991,3.661c2.536,0.991,6.021,1.203,10.691,0.381
		c4.603-0.675,10.604-1.458,17.997-2.487c7.698-0.946,13.421-1.808,17.096-2.5c3.727-0.805,6.391-1.71,8.046-2.701
		c1.788-1.031,3.25-2.542,4.514-4.523c1.294-1.979,2.561-7.223,3.678-15.691c-4.403-0.862-9.57-2.334-15.457-4.735l-0.044,4.82
		c0.086,3.093-0.564,5.373-1.915,6.797c-1.337,1.5-3.158,2.449-5.526,3.055c-2.369,0.68-6.369,1.287-12.067,2.022l-13.142,1.708
		c-2.798,0.355-4.662,0.171-5.481-0.507c-0.841-0.862-1.244-1.724-1.443-2.798l-1.998-12.555l25.981-4.098l0.38,2.29l15.013-2.29
		l-2.17-11.689l-7.357-46.893l-1.329-10.528l-9.682,1.848l-31.313,4.864l-1.073-6.712l-1.201-9.417l-15.163,2.319l1.875,9.372
		l0.919,6.715l-26.428,4.127l-11.444,1.371L504.861,74.744L504.861,74.744z M524.179,102.182l22.729-3.534l2.213,13.513
		l-22.776,3.521L524.179,102.182L524.179,102.182z M557.363,69.88l25.973-4.044l2.173,13.771l-25.998,4.044L557.363,69.88
		L557.363,69.88z M561.51,96.371l26.061-4.041l2.093,13.47l-26.006,4.125L561.51,96.371L561.51,96.371z"/>
	<path fill-rule="evenodd" clip-rule="evenodd" fill="#FFFFFF" d="M705.854,76.636l2.285,4.722c0.6,1.202,2.643,5.854,5.971,13.812
		c-2.316,4.609-4.666,8.169-6.814,10.489c-2.129,2.458-4.777,4.905-7.957,7.45L705.854,76.636L705.854,76.636z M693.938,145.158
		l2.559-15.751l2.59-14.488c2.514,3.518,4.209,6.106,4.936,7.518c0.76,1.514,1.6,2.927,2.287,4.383
		c5.377-5.073,8.707-8.507,10.146-10.275c1.42-1.669,2.707-3.269,3.594-4.592l1.01,3.474c0.24,0.609,0.387,2.276,0.666,5.116
		l3.23-2.15c1.975-1.244,5.35-2.753,10.232-4.464c-1.916-6.164-3.916-12.001-6.088-17.685l1.98-3.832
		c0.686-1.369,2.021-4.337,3.936-9.073c3.076,5.242,4.928,8.609,5.615,10.106c0.576,1.299,1.848,4.565,3.398,9.513l-2.734,4.679
		c-1.887,3.409-4.299,6.501-7.141,9.683c-2.814,3.098-6.643,6.192-11.33,9.331c3.568,2.843,5.979,4.947,7.076,6.191
		c1.113,1.302,2.254,2.629,3.545,4.084c2.625-1.836,4.881-3.729,6.498-5.498c1.674-1.725,5.328-5.768,10.709-12.13l1.936,7.055
		c0.254,0.595,0.625,2.8,1.285,6.406c4.842-3.394,9.234-6.235,13.055-8.258l-1.377-4.256c-0.105-0.297-2.275-5.937-6.213-16.61
		l3.01-7.096c1.053-2.697,2.434-6.318,4.066-10.784l2.367-6.929c0.189-0.733,0.58-1.978,1.203-3.575
		c-4.838-1.118-9.594-2.657-14.518-4.551l-0.645,3.773c-0.41,2.02-1.506,5.897-3.379,11.704c-1.611-3.263-3.01-6.191-4.34-8.735
		l-2.967,1.852c-1.768,1.115-4.602,2.19-8.646,3.095l2.451-5.977c0.045-0.171,0.32-1.076,0.947-3.012
		c0.732-1.754,1.225-3.353,1.719-4.553c-5.715-1.467-10.412-3.224-14.191-5.161l-1.055,4.864c-0.406,2.02-0.904,3.858-1.504,5.669
		c-0.541,1.681-1.23,3.619-2.086,5.557c-1.723-3.748-3.334-7.013-4.588-10.15c-3.57,1.977-5.971,3.221-7.264,3.56
		c-1.27,0.396-2.453,0.736-3.656,1.033l2.885-16.428l67.783,11.792l-12.32,70.058c-0.348,1.415-0.756,2.319-1.422,3.053
		c-0.734,0.777-2.518,0.818-5.547,0.212c-2.494-0.508-5.117-1.159-7.895-2.108l1.135,4.088c1.098,3.957,1.445,6.924,1.402,8.821
		c-0.064,2.065-0.256,3.521-0.256,4.693c7.699,0.862,13.416,0.904,17.047,0.338c3.6-0.648,5.939-1.853,6.885-3.829
		c0.971-2.148,1.631-4.468,2.107-6.843l13.297-75.472l2.873-14.421l-14.404-2.062l-69.053-12.044l-14.582-2.97l-2.262,14.546
		l-12.666,71.218l-3.031,15.536L693.938,145.158L693.938,145.158z"/>
	<path fill-rule="evenodd" clip-rule="evenodd" fill="#FFFFFF" d="M860.326,140.379c-1.029-6.506-2.062-11.057-2.834-13.33
		l-1.527-3.792c5.246,0.636,11.287,0.043,18.152-1.724c6.773-1.725,13.266-4.083,19.438-6.926
		c6.219-3.013,11.59-6.362,16.234-10.407l2.904-2.5c2.99,5.076,6.389,9.513,10.107,13.43c-7.738,4.506-14.217,8.341-19.572,11.223
		c-5.371,3.012-12.172,5.813-20.467,8.341C874.475,137.195,866.908,139.091,860.326,140.379L860.326,140.379z M858.588,165.833
		c2.451-0.461,5.695-1.412,9.846-2.838c4.113-1.542,8.348-3.265,12.713-5.203c4.449-2.063,8.816-4.551,13.248-7.605
		c4.453-2.924,7.203-5.029,8.383-5.979l2.389-2.246c2.799,5.596,5.936,10.8,9.422,15.831c-2.453,1.159-4.191,1.979-5.316,2.543
		l-9.676,4.636c-4.623,2.15-9.264,4.086-13.824,5.94c-4.625,1.767-10.172,3.619-16.908,5.598c13.812,6.912,27.512,13.5,41.014,20.13
		c-0.605-6.548-1.1-10.716-1.551-12.654l-1.57-7.746c6.328,0.736,10.453,0.86,12.369,0.567l3.244-0.438
		c2.561,18.023,4.367,32.781,5.641,44.09c-8.631,1.2-12.947,1.809-13.166,1.893l-4.518,1.032c0.178-1.767,0.303-3.435,0.346-4.905
		c0.15-1.371-0.02-4.084-0.275-8.085c-6.928-3.182-16.779-7.605-29.832-13.247c-12.945-5.583-20.945-8.905-23.957-10.15
		c-2.988-1.157-6.559-2.229-10.686-3.267c1.369-5.977,1.844-10.189,1.74-12.818l-0.191-4.215
		C852.396,166.614,856.221,166.216,858.588,165.833L858.588,165.833z M936.16,112.246c4.043,3.094,8.752,5.853,14.066,8.383
		c-1.033,1.469-1.684,2.712-2.391,4.044c-0.691,1.2-1.316,2.757-2.002,4.648c-0.689,2.021-1.396,5.584-2.105,10.886
		c-0.775,5.159-0.301,10.147,1.203,14.616c1.527,4.606,2.924,7.961,4.262,10.318c1.18,2.376,2.465,4.271,3.459,5.769
		c1.164,1.553,3.439,4,6.986,7.353c-1.57,0.52-3.158,1.214-4.621,2.062c-1.441,0.692-5.117,3.154-11.055,7.138
		c-4.254-5.796-7.803-11.731-10.258-17.925c-2.451-6.193-3.979-11.746-4.514-16.99c-0.58-5.075-0.539-9.938,0-14.672
		c0.621-4.595,1.244-8.469,2.02-11.396C932.023,123.641,933.662,118.863,936.16,112.246L936.16,112.246z"/>
	<path fill-rule="evenodd" clip-rule="evenodd" fill="#FFFFFF" d="M1008.629,261.876l11.938-11.055l22.066,23.185l-11.918,11.14
		L1008.629,261.876L1008.629,261.876z M1073.986,256.165l-35.078-37.204l-9.119-10.152l-10.404,9.542l9.699,9.683l35.182,37.292
		l9.975,11.18l10.496-9.682L1073.986,256.165L1073.986,256.165z M1051.086,215.298l47.373,50.156l-54.342,50.367
		c-1.705,1.54-2.949,2.276-3.873,2.402c-0.949,0.041-2.236-0.821-4.004-2.574c-0.703-0.523-1.738-1.723-3.051-3.278
		c-1.4-1.669-2.729-3.224-3.957-4.556l-1.848,4.386c-1.08,2.418-2.133,4.438-3.418,6.021c-1.209,1.598-2.389,3.095-3.422,4.297
		c7.115,6.716,12.215,10.589,15.57,11.746c3.18,1.244,5.486,1.64,6.883,1.076c1.309-0.381,3.373-1.938,6.043-4.425l60.469-55.795
		l9.549-8.171l-9.613-9.667l-48.342-51.232l-10.561-11.706l-10.604,9.685L1051.086,215.298L1051.086,215.298z M1012.848,238.609
		l-15.379,14.193l-8.969,7.618l8.648,8.466l25.049,26.452l8.695,9.893l8.256-8.297l15.35-14.235l8.391-6.968l-9.4-9.288
		l-25.008-26.589l-7.936-8.977L1012.848,238.609L1012.848,238.609z"/>
	<path fill-rule="evenodd" clip-rule="evenodd" fill="#FFFFFF" d="M175.291,438.877l3.294,3.306l-3.25,6.531l-25.848-5.245
		l0.621-8.509c6.39,0,11.896-1.161,16.667-3.492c4.756-2.404,8.148-5.715,10.169-9.798c1.528-3.139,2.002-6.023,1.487-8.608
		c-0.604-2.614-2.044-4.554-4.343-5.584c-4.021-1.894-10.411,2.19-18.947,12.385c-1.267,1.411-2.214,2.487-2.928,3.136
		c-6.298,7.351-11.93,11.622-16.985,13.119c-5.032,1.457-10.581,0.819-16.864-2.149c-8.106-4-13.549-9.64-16.193-16.695
		c-2.664-7.309-2.063-14.785,1.852-22.701c1.675-3.494,3.76-6.504,6.319-9.204c2.411-2.756,5.42-5.161,8.643-7.223l-4.318-3.537
		l3.118-6.274l32.668,5.584l-0.82,9.469c-8.411-0.21-15.415,0.947-21.396,3.649c-5.999,2.668-10.219,6.372-12.579,11.45
		c-1.79,3.477-2.198,6.97-1.402,10.19c0.843,3.437,2.604,5.712,5.337,7.054c4.023,1.854,9.974-1.425,17.72-10.061
		c0.968-1.247,1.761-2.024,2.277-2.673c3.873-4.215,7.095-7.394,9.506-9.855c2.475-2.401,4.6-3.856,6.044-4.637
		c3.093-1.467,6.559-2.329,10.169-2.189c3.591,0.083,7.14,0.945,10.757,2.658c7.097,3.405,11.783,8.481,14.152,15.35
		c2.274,6.886,1.759,13.896-1.684,20.949c-1.503,2.928-3.329,5.557-5.486,7.79C180.882,435.342,178.26,437.234,175.291,438.877
		L175.291,438.877z"/>
	<path fill-rule="evenodd" clip-rule="evenodd" fill="#FFFFFF" d="M169.397,464.418l-19.521,60.011l-27.72,0.378l-0.777-7.958
		c7.18-0.907,12.538-2.488,16.171-4.861c3.653-2.279,6.127-5.895,7.654-10.491l0.348-1.203L99.96,485.837
		c-6.326-2.024-10.579-2.576-12.735-2.024c-2.15,0.565-3.784,2.585-4.993,5.897l-10.056-3.142l11.695-36.258l10.088,3.223
		c-1.033,3.45-0.821,5.896,0.494,7.705c1.331,1.767,5.225,3.604,11.699,5.685l45.566,14.488l0.324-1.116
		c1.55-4.821,1.55-9.162,0.044-13.077c-1.568-4-4.905-8.384-10.276-13.119l5.286-5.979L169.397,464.418L169.397,464.418z"/>
	<path fill-rule="evenodd" clip-rule="evenodd" fill="#FFFFFF" d="M101.55,557.532l2.815-15.228l22.71,12.653L101.55,557.532
		L101.55,557.532z M91.98,521.46c-0.325-0.144-0.799-0.44-1.355-0.825c-7.247-4.169-10.773-9.076-10.625-14.54l-10.434-1.94
		l-5.952,31.372l10.127,1.917c0.709-3.182,1.593-5.197,2.688-6.315c1.159-0.991,2.906-1.333,5.012-0.86
		c0.253,0,0.622,0.12,1.073,0.307c0.389,0.169,0.779,0.257,1.379,0.423l10.94,5.333l-4.402,23.053l-12.411,1.678
		c-0.559,0.174-1.097,0.174-1.698,0.174c-0.598-0.088-1.333-0.088-2.064-0.254c-1.702-0.256-2.882-1.027-3.377-2.279
		c-0.6-1.253-0.621-3.28-0.083-5.892l0.104-0.906l-10.107-1.888l-7.011,36.507l10.432,1.939c1.443-4.215,5.72-6.928,12.836-7.919
		l0.58-0.088l66.283-9.328l3.35-17.156L91.98,521.46L91.98,521.46z"/>
	<path fill-rule="evenodd" clip-rule="evenodd" fill="#FFFFFF" d="M140.496,595.176l-2.8,63.05l-26.659,7.535l-2.864-7.535
		c6.729-2.761,11.464-5.633,14.214-8.685c2.842-3.318,4.474-7.361,4.603-12.268l0.041-1.242l-47.693-2.106
		c-6.82-0.341-11.119,0.122-13.014,1.328c-1.787,1.212-2.861,3.448-3.18,7.058l-10.538-0.552l1.782-37.94l10.494,0.395
		c-0.04,3.561,0.8,6.019,2.56,7.264c1.654,1.414,6,2.233,12.708,2.487l47.724,2.207l0.15-1.222
		c0.303-4.942-0.991-9.197-3.373-12.591c-2.587-3.449-7.055-6.674-13.422-10.025l3.549-7.094L140.496,595.176L140.496,595.176z"/>
	<path fill-rule="evenodd" clip-rule="evenodd" fill="#FFFFFF" d="M138.884,667.468l7.718,62.852l-24.385,13.284l-5.053-6.5
		c6.063-4.763,10.447-9.758,13.118-14.997c2.645-5.174,3.655-10.761,2.969-16.4c-0.494-3.306-1.441-5.458-2.821-6.488
		c-1.482-0.99-4.493-1.245-9.075-0.693l-12.19,1.388l0.452,3.772c0.494,3.833,1.673,6.419,3.485,7.449
		c1.907,1.203,5.654,1.63,11.074,1.203l0.991,8.046l-38.523,4.544l-0.945-7.908c4.99-1.203,8.517-2.703,10.558-4.64
		c2.066-1.81,2.822-4.342,2.455-7.348l-0.389-3.791l-19.913,2.444c-4.579,0.525-7.441,1.556-8.537,2.882
		c-1.271,1.33-1.631,3.667-1.271,7.061c0.797,5.762,3.576,11.131,8.41,16.171c4.798,5.117,11.056,9.242,18.952,12.342l-3.593,7.909
		l-30.604-7.996l-7.938-64.433l10.559-1.203c0.475,3.492,1.746,5.64,3.548,6.674c1.937,0.941,6.306,0.988,13.245,0.126l32.584-3.914
		c7.034-0.819,11.097-1.853,12.794-3.27c1.619-1.471,2.197-3.87,1.871-7.265L138.884,667.468L138.884,667.468z"/>
	<path fill-rule="evenodd" clip-rule="evenodd" fill="#FFFFFF" d="M169.206,823.388l3.937,0.258l2.623,6.758l-24.626,16.988
		l-6.664-6.886c5.875-6.145,9.782-11.618,11.675-16.381c1.873-4.649,1.979-9.246,0.235-13.638
		c-2.211-5.546-6.426-8.783-12.877-9.771c-6.496-0.893-14.688,0.477-24.604,4.356c-9.741,3.644-16.47,8-20.493,12.863
		c-3.958,4.806-4.882,10.062-2.65,15.564c1.684,4.508,4.348,7.559,7.873,9.115c3.466,1.767,7.331,1.812,11.466,0.08
		c2.898-1.117,4.771-2.613,5.549-4.423c0.813-1.849,0.494-4.353-0.538-7.58l9.33-3.596l12.841,32.979l-9.292,3.611
		c-1.98-3.006-3.957-4.648-5.959-5.157c-1.914-0.521-5.053,0.084-9.329,1.81l-21.224,8.127l-4.222-10.5l5.487-5.462
		c-3.866-2.145-6.97-4.817-9.506-7.573c-2.476-2.924-4.538-6.405-6.171-10.571c-3.873-9.813-2.97-19.231,2.41-28.132
		c5.569-8.825,14.708-15.752,27.613-20.828c11.995-4.545,23.142-4.942,33.526-1.03c10.325,3.834,17.526,11.097,21.718,21.605
		c0.926,2.613,1.653,5.407,2,8.126C169.596,816.988,169.596,820.082,169.206,823.388L169.206,823.388z"/>
	<path fill-rule="evenodd" clip-rule="evenodd" fill="#FFFFFF" d="M177.185,881.022c3.959-2.103,6.794-3.01,8.494-2.624
		c1.785,0.475,3.51,2.327,5.27,5.506c2.621,4.431,3.443,8.655,2.944,12.424c-0.662,3.665-2.796,6.419-6.388,8.441
		c-3.981,2.154-7.719,2.154-11.507,0.169c-3.614-2.103-7.286-6.412-10.666-12.652c-0.58-0.988-1.053-1.705-1.286-2.269
		c-0.262-0.61-0.538-1.08-0.715-1.604L177.185,881.022L177.185,881.022z M172.452,850.361c1.659,3.31,2.042,5.836,1.121,7.779
		c-1.032,2.014-4.474,4.603-10.432,7.908l-29.055,15.626c-5.909,3.139-10.002,4.633-12.255,4.42
		c-2.15-0.209-4.108-1.979-6.067-5.154l-9.223,5.118l18.534,33.632l9.293-4.995c-1.725-3.27-2.021-5.878-1.074-7.817
		c1.01-2.063,4.496-4.612,10.447-7.7l9.527-5.16l3.661,6.709l-20.822,38.96l11.896,21.557l9.076-4.945
		c-1.14-2.547-1.549-4.946-1.487-7.265c0-2.164,0.75-4.651,2.213-7.624l11.36-23.705c4.621,4.358,9.244,6.886,13.886,7.711
		c4.654,0.688,9.528-0.261,14.646-2.974c6.883-3.834,10.737-8.772,11.527-15.349c0.862-6.232-1.18-14.112-6.276-23.397
		l-21.224-38.406L172.452,850.361L172.452,850.361z"/>
	<path fill-rule="evenodd" clip-rule="evenodd" fill="#FFFFFF" d="M222.344,918.312l22.907,31.396l-8.475,6.233
		c-2.345-2.963-4.621-4.377-6.863-4.377c-2.211-0.089-6.106,1.933-11.479,5.857l-26.823,19.088c-5.392,3.876-8.56,6.886-9.245,9.034
		c-0.684,2.105-0.063,4.723,2.064,7.82l-8.579,6.064l-23.036-31.441l8.651-6.108c2.318,2.927,4.536,4.397,6.792,4.397
		c2.211,0,6.191-2.021,11.571-5.806l26.772-19.229c5.442-3.915,8.519-6.928,9.184-9.03c0.712-2.067,0.132-4.651-2.042-7.791
		L222.344,918.312L222.344,918.312z"/>
	<path fill-rule="evenodd" clip-rule="evenodd" fill="#FFFFFF" d="M251.937,989.841c3.832-2.964,6.476-4.379,8.042-4.297
		c1.656,0.172,3.444,1.418,5.614,4.041c4.623,5.712,6.042,11.959,4.369,18.831c-1.831,6.762-6.623,13.429-14.561,19.704
		c-7.696,6.236-15.267,9.46-22.435,9.77c-7.138,0.256-12.983-2.543-17.697-8.221c-2.002-2.534-3.034-4.601-2.792-6.243
		c0.191-1.539,2.147-3.814,5.847-6.741L251.937,989.841L251.937,989.841z M242.305,960.894c2.063,2.71,2.831,4.985,2.274,6.918
		c-0.704,2.155-3.695,5.295-9.16,9.647l-25.544,20.548c-5.548,4.264-9.358,6.451-11.377,6.641c-2.108,0.209-4.328-0.994-6.538-3.664
		l-8.32,6.582l23.699,29.252c9.159,11,18.834,17.243,29.437,18.53c10.498,1.33,21.163-2.317,31.913-10.927
		c10.799-8.731,16.667-18.189,17.591-28.68c0.905-10.295-3.096-21.118-12.127-32.304l-23.636-28.999L242.305,960.894
		L242.305,960.894z"/>
	<path fill-rule="evenodd" clip-rule="evenodd" fill="#FFFFFF" d="M370.307,1073.369l4.189-3.317l4.887,3.66l-11.013,30.928
		l-8.192-2.627c2.085-7.437,2.494-14.191,1.391-20.301c-1.177-5.891-3.524-10.402-7.456-13.455
		c-5.252-3.84-11.145-4.527-17.704-2.107c-6.623,2.356-13.097,7.65-19.133,15.647c-6.263,8.046-9.443,15.534-9.875,22.593
		c-0.324,6.908,2.297,12.594,7.762,16.678c3.723,2.883,8.579,4.43,14.454,4.43c5.852,0.177,11.718-1.124,17.613-3.865l4.841,9.202
		c-8.799,4.556-16.97,6.932-24.823,6.534c-7.697-0.343-15.035-3.016-21.849-8.212c-9.802-7.352-15.203-16.601-16.085-27.574
		c-0.925-10.96,2.665-21.891,11.011-32.646c7.895-10.19,17.225-16.342,28.26-18.36c11.096-2.115,21.117,0.391,30.3,7.261
		c2.408,1.851,4.602,4.048,6.475,6.581C367.182,1066.911,368.802,1069.97,370.307,1073.369L370.307,1073.369z"/>
	<path fill-rule="evenodd" clip-rule="evenodd" fill="#FFFFFF" d="M430.559,1119.864c0.666,6.84-1.261,15.016-5.863,24.686
		c-4.54,9.516-9.748,16.216-15.489,20.043c-5.723,3.746-11.57,4.395-17.266,1.68c-5.873-2.713-9.076-7.528-9.728-14.273
		c-0.619-6.849,1.358-15.061,5.917-24.695c4.644-9.587,9.875-16.262,15.55-20.131c5.716-3.732,11.59-4.297,17.393-1.669
		C426.735,1108.245,429.919,1113.021,430.559,1119.864L430.559,1119.864z M392.974,1094.133
		c-10.412,4.134-18.561,12.18-24.216,24.095c-5.788,12.001-6.907,23.354-3.485,33.94c3.414,10.612,10.667,18.534,21.871,23.917
		c11.223,5.16,22.064,5.881,32.562,1.666c10.602-4.131,18.623-12.168,24.406-24.089c5.717-11.994,6.947-23.307,3.441-33.878
		c-3.379-10.675-10.729-18.632-22.044-23.881C414.327,1090.622,403.484,1090.097,392.974,1094.133L392.974,1094.133z"/>
	<path fill-rule="evenodd" clip-rule="evenodd" fill="#FFFFFF" d="M486.885,1144.119c1.244-4.251,2.732-6.921,4.256-7.739
		c1.524-0.903,4.042-0.864,7.485,0.163c4.991,1.477,8.779,3.749,10.866,6.762c2.188,3.14,2.768,6.54,1.565,10.5
		c-1.293,4.298-3.916,6.915-7.979,8.089c-4.126,1.16-9.569,0.597-16.625-1.514c-1.157-0.423-1.999-0.511-2.58-0.732
		c-0.62-0.215-1.092-0.385-1.481-0.555L486.885,1144.119L486.885,1144.119z M461.747,1125.497c3.439,1.296,5.654,2.965,6.296,4.939
		c0.693,2.021,0.07,6.339-1.928,12.78l-9.446,31.312c-1.976,6.405-3.808,10.318-5.526,11.577c-1.653,1.248-4.369,1.669-7.937,0.678
		l-3.055,10.109l37.186,10.974l3.053-10.071c-3.505-1.068-5.635-2.747-6.368-4.779c-0.665-2.145,0-6.402,1.895-12.756l3.139-10.237
		l7.379,2.233l12.905,42.198l23.699,6.919l3.004-9.726c-2.487-1.114-4.667-2.354-6.192-3.954c-1.529-1.725-2.853-4.085-3.865-7.182
		l-8.845-24.784c6.496-0.123,11.531-1.457,15.468-4.166c3.824-2.673,6.642-6.754,8.298-12.343
		c2.168-7.393,1.293-13.729-2.624-18.846c-3.935-5.201-11.075-9.238-21.142-12.291l-42.428-12.473L461.747,1125.497
		L461.747,1125.497z"/>
	<path fill-rule="evenodd" clip-rule="evenodd" fill="#FFFFFF" d="M572.923,1163.642c0.519-4.379,1.446-7.176,2.588-8.379
		c1.117-1.285,3.118-1.725,6.044-1.285c4.425,0.51,7.757,2.276,9.801,5.115c2.173,2.699,3.116,6.403,2.432,10.788
		c-0.536,4.864-2.536,8.397-5.83,10.501c-3.221,2.109-7.824,2.797-13.677,2.066c-0.84-0.173-1.59-0.173-2.19-0.297
		c-0.517-0.088-0.968-0.186-1.528-0.268L572.923,1163.642L572.923,1163.642z M545.679,1149.361c3.312,0.483,5.57,1.771,6.581,3.622
		c0.862,1.813,1.012,6.236,0.068,13.207l-4.111,32.34c-0.919,6.885-2.002,10.928-3.415,12.555c-1.483,1.513-3.831,2.148-7.231,1.809
		l-1.307,10.403l37.292,4.652l1.265-10.364c-3.423-0.604-5.55-1.725-6.517-3.7c-0.928-1.94-1.053-6.151-0.191-12.903l1.158-8.685
		l13.226,1.669c9.379,1.181,16.778,0.084,22.045-3.436c5.202-3.352,8.233-9.164,9.399-17.242c1.03-8.301-0.62-14.929-5.051-19.92
		c-4.496-4.99-11.572-7.954-21.318-9.16l-40.598-5.115L545.679,1149.361L545.679,1149.361z"/>
	<path fill-rule="evenodd" clip-rule="evenodd" fill="#FFFFFF" d="M673.102,1165.111c3.768,5.858,5.979,13.988,6.256,24.643
		c0.494,10.543-0.982,18.801-4.383,24.823c-3.271,6.066-8.15,9.163-14.457,9.372c-6.408,0.211-11.523-2.488-15.326-8.301
		c-3.707-5.679-5.813-13.849-6.201-24.467c-0.402-10.588,1.102-19.013,4.413-24.991c3.312-5.979,8.19-9.119,14.558-9.428
		C664.35,1156.59,669.322,1159.351,673.102,1165.111L673.102,1165.111z M627.808,1159.517c-7.371,8.522-10.771,19.229-10.318,32.474
		c0.496,13.259,4.729,23.87,12.792,31.75c8.067,7.833,18.066,11.472,30.691,11.048c12.275-0.394,22.109-4.857,29.551-13.327
		c7.439-8.397,10.879-19.228,10.449-32.483c-0.52-13.249-4.773-23.866-12.838-31.693c-7.938-7.877-18.279-11.563-30.648-11.183
		C645.17,1146.751,635.188,1151.051,627.808,1159.517L627.808,1159.517z"/>
	<path fill-rule="evenodd" clip-rule="evenodd" fill="#FFFFFF" d="M730.648,1161.626c-0.645-4.342-0.514-7.312,0.432-8.909
		c1.074-1.323,3.316-2.449,6.947-2.948c5.117-0.863,9.416-0.443,12.666,1.282c3.424,1.933,5.379,4.776,6.088,8.818
		c0.705,4.345-0.518,7.945-3.613,10.745c-3.25,2.762-8.326,4.694-15.572,5.813c-1.199,0.163-2.125,0.42-2.6,0.462
		c-0.6,0.045-1.23,0.143-1.68,0.225L730.648,1161.626L730.648,1161.626z M699.896,1156c3.676-0.61,6.367,0.034,7.789,1.58
		c1.588,1.513,2.967,5.601,4.021,12.259l5.414,32.216c1.055,6.751,1.209,11.009,0.135,12.86c-0.863,2.028-3.146,3.352-6.82,4.049
		l1.787,10.27l38.146-6.104l-1.738-10.321c-3.633,0.522-6.17-0.124-7.746-1.639c-1.615-1.497-2.857-5.667-3.889-12.382
		l-1.809-10.491l7.635-1.258l30.234,32.489l24.434-4.088l-1.588-10.107c-2.906,0.213-5.318-0.084-7.424-0.99
		c-2.062-0.773-4.324-2.288-6.516-4.74l-18.992-18.4c5.768-2.8,9.748-6.334,11.98-10.337c2.262-4.209,2.926-8.972,2.064-14.784
		c-1.334-7.58-4.971-12.776-10.707-15.789c-5.855-2.924-13.98-3.436-24.582-1.728l-43.549,7.058L699.896,1156L699.896,1156z"/>
	<path fill-rule="evenodd" clip-rule="evenodd" fill="#FFFFFF" d="M834.479,1157.58l-14.561,5.644l-1.178-25.768L834.479,1157.58
		L834.479,1157.58z M808.631,1184.681c0,0.297,0,0.903,0,1.594c0.148,8.256-2.176,13.889-6.926,16.645l3.896,9.679l29.994-11.492
		l-3.719-9.454c-3.008,0.945-5.271,1.33-6.777,0.988c-1.527-0.473-2.645-1.68-3.414-3.707c-0.133-0.252-0.264-0.718-0.344-1.076
		c-0.131-0.466-0.236-0.863-0.285-1.33l-1.182-12.167l22.088-8.388l8.002,9.507c0.338,0.339,0.621,0.86,1.031,1.369
		c0.338,0.606,0.539,1.17,0.861,1.897c0.604,1.637,0.49,2.966-0.238,4.035c-0.771,1.073-2.434,2.156-4.883,3.104l-0.951,0.391
		l3.77,9.546l34.924-13.372l-3.762-9.859c-4.346,1.119-8.947-1.071-13.57-6.617l-0.41-0.389l-43.07-50.836l-16.412,6.277
		L808.631,1184.681L808.631,1184.681z"/>
	<path fill-rule="evenodd" clip-rule="evenodd" fill="#FFFFFF" d="M849.082,1106.876l56.324-29.287l20.111,18.755l-5.105,6.363
		c-5.654-4.485-10.623-7.013-14.857-7.788c-4.168-0.786-8.535-0.089-12.949,2.27l-1.135,0.527l22.434,41.843
		c3.094,5.855,5.672,9.347,7.697,10.373c1.871,1.03,4.535,0.763,7.76-0.814l4.988,9.285l-34.082,17.683l-4.883-9.161
		c3.16-1.761,4.834-3.743,5.096-5.849c0.275-2.191-1.096-6.191-4.348-12.084l-22.299-41.99l-1.098,0.527
		c-4.537,2.442-7.568,5.457-9.201,9.373c-1.768,3.866-2.41,9.412-2,16.591l-8.002,0.527L849.082,1106.876L849.082,1106.876z"/>
	<path fill-rule="evenodd" clip-rule="evenodd" fill="#FFFFFF" d="M914.844,1071.563l32.301-22.068l5.998,8.607
		c-3.053,2.237-4.535,4.431-4.6,6.621c0,2.233,1.936,6.105,5.59,11.615l18.846,26.87c3.736,5.48,6.641,8.613,8.898,9.393
		c2.02,0.675,4.734,0.166,7.828-1.897l6.023,8.684l-32.344,22.023l-5.895-8.552c2.992-2.236,4.434-4.528,4.58-6.72
		c0-2.278-1.828-6.145-5.693-11.641l-18.691-26.932c-3.875-5.415-6.818-8.564-8.904-9.328c-2.15-0.693-4.791-0.045-7.938,1.879
		L914.844,1071.563L914.844,1071.563z"/>
	<path fill-rule="evenodd" clip-rule="evenodd" fill="#FFFFFF" d="M1004.266,1028.29c6.455,2.584,12.881,8.26,19.334,16.698
		c6.365,8.466,9.895,16.169,10.578,22.953c0.707,6.886-1.527,12.093-6.518,15.958c-5.156,3.756-10.947,4.258-17.309,1.602
		c-6.387-2.586-12.779-8.043-19.225-16.699c-6.434-8.462-9.957-16.081-10.715-22.912c-0.688-6.84,1.529-12.087,6.648-16
		C992.117,1026.187,997.855,1025.623,1004.266,1028.29L1004.266,1028.29z M963.766,1049.161
		c-1.199,11.045,2.221,21.795,10.137,32.47c7.994,10.67,17.586,16.945,28.682,18.921c11.098,2.067,21.551-0.648,31.637-7.997
		c9.896-7.31,15.445-16.57,16.771-27.745c1.23-10.972-2.148-21.89-10.209-32.478c-7.918-10.573-17.512-16.984-28.607-18.88
		c-11.074-1.984-21.658,0.6-31.545,7.952C970.609,1028.817,965.082,1038.063,963.766,1049.161L963.766,1049.161z"/>
	<path fill-rule="evenodd" clip-rule="evenodd" fill="#FFFFFF" d="M1119.615,871.826c7.055-0.74,15.34,1.15,25.039,5.76
		c9.697,4.467,16.496,9.546,20.256,15.14c4.002,5.801,4.496,11.481,1.746,17.161c-2.799,5.751-7.551,8.988-14.395,9.67
		c-6.896,0.609-15.244-1.245-24.877-5.852c-9.719-4.47-16.541-9.628-20.369-15.355c-3.951-5.701-4.426-11.352-1.717-17.118
		C1107.982,875.649,1112.805,872.387,1119.615,871.826L1119.615,871.826z M1093.875,909.026
		c4.113,10.232,12.242,18.36,24.416,23.961c12.041,5.709,23.436,6.827,34.123,3.392c10.777-3.392,18.906-10.716,24.17-21.771
		c5.232-11.134,5.854-21.882,1.576-32.17c-4.041-10.491-12.176-18.534-24.24-24.259c-12.193-5.627-23.631-6.744-34.324-3.309
		c-10.729,3.449-18.709,10.847-23.994,21.853C1090.303,887.819,1089.684,898.705,1093.875,909.026L1093.875,909.026z"/>
	<path fill-rule="evenodd" clip-rule="evenodd" fill="#FFFFFF" d="M1115.426,837.409l21.076-60.64l26.922-2.586l1.355,7.7
		c-6.965,1.77-12.705,4.428-17.18,8.049c-4.432,3.599-7.613,8.125-9.551,13.67c-1.223,3.611-1.375,6.331-0.643,7.957
		c0.836,1.726,3.465,3.319,7.762,4.74l11.246,3.87l1.166-3.328c1.348-4.209,1.525-7.392,0.359-9.412
		c-1.182-2.148-4.34-4.17-9.223-6.066l2.412-6.759l37.697,12.825l-2.449,6.84c-4.908-1.073-8.668-1.073-11.553-0.124
		c-2.777,0.984-4.818,3.221-5.98,6.529l-1.176,3.364l13.502,4.598c6.428,2.145,10.689,2.97,12.754,2.317
		c2.148-0.639,3.939-2.703,5.225-6.197l10.064,3.494l-12.795,36.853l-10.041-3.39c0.988-3.659,0.988-6.234-0.287-8.089
		c-1.219-1.767-5.094-3.746-11.504-6.022l-31.332-10.525c-6.322-2.254-10.469-3.156-12.541-2.377
		c-2.043,0.651-3.93,2.631-5.41,6.019L1115.426,837.409L1115.426,837.409z"/>
	<path fill-rule="evenodd" clip-rule="evenodd" fill="#FFFFFF" d="M1157.445,684.815l-5.055-2.123l0.779-5.878l32.646-5.812
		l1.676,8.389c-7.57,1.849-13.613,4.818-18.434,8.818c-4.793,3.916-7.457,8.336-8.057,13.112c-0.908,6.323,1.412,11.71,6.811,16.219
		c5.379,4.508,13.141,7.475,23.162,8.821c10.258,1.327,18.365,0.378,24.775-2.63c6.326-3.183,9.893-8.089,10.82-14.975
		c0.666-4.675-0.451-9.492-3.314-14.654c-2.82-5.033-6.842-9.558-12.213-13.245l5.803-8.694c8.41,5.287,14.414,11.352,17.938,18.109
		c3.656,6.879,4.857,14.484,3.656,22.971c-1.527,12.003-7.055,21.118-16.215,27.44c-9.295,6.146-20.541,8.378-34.109,6.529
		c-12.859-1.669-22.986-6.788-30.219-15.229c-7.201-8.466-10.064-18.402-8.539-29.715c0.35-3.052,1.232-5.895,2.611-8.691
		C1153.275,690.696,1155.041,687.687,1157.445,684.815L1157.445,684.815z"/>
	<path fill-rule="evenodd" clip-rule="evenodd" fill="#FFFFFF" d="M1152.844,668.541l-1.609-37.967l10.17-0.298
		c0.283,3.479,1.334,5.837,3.314,7.04c1.893,1.128,6.275,1.601,13.033,1.385l8.602-0.391l-1.188-28.982l-8.643,0.339
		c-6.877,0.297-11.203,1.069-12.922,2.497c-1.832,1.288-2.67,3.694-2.67,7.183l-10.109,0.554l-1.588-38.064l10.537-0.43
		c0.322,3.58,1.316,5.937,3.096,7.058c1.852,1.154,6.191,1.683,13.158,1.329l32.861-1.368c6.863-0.258,11.098-1.037,12.949-2.367
		c1.59-1.344,2.516-3.702,2.453-7.325l10.494-0.378l1.635,37.986l-10.131,0.332c-0.238-3.429-1.18-5.76-3.18-7.006
		c-1.873-1.242-6.262-1.604-13.055-1.287l-14.369,0.512l1.229,28.946l14.342-0.564c6.883-0.296,11.201-1.118,12.926-2.399
		c1.742-1.245,2.625-3.66,2.477-7.228l10.213-0.437l1.674,37.901l-10.582,0.42c-0.293-3.478-1.391-5.792-3.178-7.016
		c-1.789-1.196-6.189-1.538-12.949-1.362l-32.943,1.362c-6.822,0.274-11.078,1.05-12.887,2.377c-1.801,1.376-2.643,3.834-2.643,7.27
		L1152.844,668.541L1152.844,668.541z"/>
	<path fill-rule="evenodd" clip-rule="evenodd" fill="#FFFFFF" d="M1148.979,577.579c0,0-1.768-8.001-3.854-20.853
		c-2.041-12.864-3.158-17.386-3.158-17.386l10.424-1.799c0.885,3.612,2.285,5.835,4.305,6.872c2.021,0.949,6.367,0.776,12.951-0.385
		l32.594-5.806c6.457-1.115,10.543-2.491,12.152-4.131c1.547-1.581,2.064-4.253,1.641-7.912l10.34-1.813l6.969,38.114l-10.43,1.848
		c-0.752-3.603-2.279-5.854-4.238-6.797c-2.084-1.03-6.43-0.851-12.988,0.31l-32.449,5.793c-6.738,1.178-10.799,2.588-12.35,4.19
		c-1.568,1.534-2.062,4.207-1.568,7.901L1148.979,577.579L1148.979,577.579z"/>
	<path fill-rule="evenodd" clip-rule="evenodd" fill="#FFFFFF" d="M1141.619,535.083l-8.834-31.271l39.869-38.787l-22.107,6.194
		c-6.455,1.85-10.475,3.561-11.832,5.115c-1.441,1.639-1.74,4.17-0.947,7.648l-9.908,2.755l-7.748-27.225l10.178-2.968
		c1.033,3.492,2.643,5.469,4.773,6.19c1.977,0.734,6.367,0.141,12.883-1.75l57.076-15.919l3.895,13.414l-53.492,52.518
		l38.283-10.883c6.514-1.669,10.492-3.48,11.955-5.206c1.314-1.498,1.613-4.125,0.801-7.605l9.824-2.841l7.893,27.526l-10.146,2.797
		c-1.033-3.352-2.717-5.331-4.861-6.106c-2.066-0.691-6.279-0.088-12.91,1.725l-31.627,8.848c-6.561,1.81-10.541,3.534-11.98,5.258
		c-1.314,1.708-1.654,4.211-0.686,7.736L1141.619,535.083L1141.619,535.083z"/>
	<path fill-rule="evenodd" clip-rule="evenodd" fill="#FFFFFF" d="M1145.836,410.701l6.471,14.152l-25.891,2.658L1145.836,410.701
		L1145.836,410.701z M1174.586,434.916c0.369-0.084,0.943-0.084,1.615-0.127c8.426-0.648,14.113,1.415,17.049,5.795l9.686-4.254
		l-13.23-29.077l-9.457,4.267c1.305,2.926,1.822,5.159,1.441,6.619c-0.346,1.555-1.508,2.71-3.467,3.617
		c-0.322,0.127-0.689,0.256-1.184,0.381c-0.363,0.127-0.838,0.256-1.201,0.396l-12.236,1.881l-9.682-21.459l9.143-8.468
		c0.361-0.269,0.879-0.694,1.375-0.988c0.514-0.355,1.119-0.694,1.787-0.95c1.674-0.774,2.99-0.818,4.256-0.039
		c1.031,0.633,2.174,2.317,3.355,4.636l0.283,0.862l9.521-4.171l-15.438-33.9l-9.746,4.315c1.314,4.298-0.561,8.905-5.803,13.937
		l-0.412,0.169l-48.988,45.378l7.139,15.904L1174.586,434.916L1174.586,434.916z"/>
	<path fill-rule="evenodd" clip-rule="evenodd" fill="#FFFFFF" d="M1009.426,998.457l21.121-24.868l54.789,10.754l-17.627-14.543
		c-5.207-4.254-8.844-6.676-10.947-6.885c-2.221-0.211-4.539,0.984-6.906,3.492l-7.846-6.501l18.363-21.757l8.15,6.738
		c-2.277,2.8-3.055,5.254-2.453,7.371c0.537,2.06,3.463,5.238,8.736,9.62l45.328,37.729l-8.965,10.706l-73.918-14.276l30.457,25.367
		c5.16,4.261,8.834,6.592,11.047,6.804c2.135,0.166,4.516-1.073,6.885-3.658l8.002,6.497l-18.582,21.898l-8.148-6.713
		c2.211-2.847,3.051-5.287,2.453-7.349c-0.539-2.168-3.529-5.304-8.736-9.734l-25.199-20.821c-5.209-4.296-8.883-6.654-11.145-6.784
		c-2.088-0.268-4.467,0.994-6.816,3.608L1009.426,998.457L1009.426,998.457z"/>
	<path fill-rule="evenodd" clip-rule="evenodd" fill="#FFFFFF" d="M172.238,641.671c0,260.897,212.283,473.164,473.204,473.164
		c260.975,0,473.256-212.267,473.256-473.164c0-260.994-212.281-473.332-473.256-473.332
		C384.521,168.339,172.238,380.677,172.238,641.671L172.238,641.671z M182.155,641.671c0-255.579,207.808-463.451,463.286-463.451
		c255.514,0,463.34,207.872,463.34,463.451c0,255.397-207.826,463.228-463.34,463.228
		C389.963,1104.898,182.155,897.068,182.155,641.671L182.155,641.671z"/>
</g>
</svg>
