<?xml version="1.0" encoding="utf-8"?>
<!-- Generator: Adobe Illustrator 16.0.0, SVG Export Plug-In . SVG Version: 6.00 Build 0)  -->
<!DOCTYPE svg PUBLIC "-//W3C//DTD SVG 1.1//EN" "http://www.w3.org/Graphics/SVG/1.1/DTD/svg11.dtd">
<svg version="1.1" xmlns="http://www.w3.org/2000/svg" xmlns:xlink="http://www.w3.org/1999/xlink" x="0px" y="0px"
	 width="595.276px" height="225px" viewBox="0 0 595.276 225" enable-background="new 0 0 595.276 225" xml:space="preserve">
<g id="格点" display="none">
</g>
<g id="图层_1">
</g>
<g id="桌面">
</g>
<g id="导线">
</g>
<g id="Page_1">
	<g id="图层_1_1_">
		<g>
			<path fill-rule="evenodd" clip-rule="evenodd" fill="#FFFFFF" d="M316.281,55.757h0.042c28.063,0,51.386,20.256,56.168,46.938
				c-7.881,15.075-30.349,26.558-57.253,27.626c-5.125,0.198-10.113,0.011-14.901-0.529c-1.577-6.426-2.446-13.36-2.446-20.592
				c0-19.934,6.54-37.619,16.627-48.664c-12.798,7.879-21.95,28.779-21.95,53.326c0,5.173,0.407,10.189,1.175,14.952
				c-3.605-0.669-7.052-1.542-10.313-2.593c-0.443-3.543-0.672-7.197-0.672-10.926C282.758,85.673,297.204,61.021,316.281,55.757
				L316.281,55.757z"/>
			<path fill-rule="evenodd" clip-rule="evenodd" fill="#FFFFFF" d="M340.369,119.795c-2.152,2.968-4.516,5.679-7.058,8.141
				c-5.69,1.311-11.761,2.131-18.073,2.384c-5.125,0.198-10.113,0.011-14.901-0.529c-1.577-6.426-2.446-13.36-2.446-20.592
				c0-19.934,6.54-37.619,16.627-48.664c-12.798,7.879-21.95,28.779-21.95,53.326c0,5.173,0.407,10.189,1.175,14.952
				c-3.605-0.669-7.052-1.542-10.313-2.593c-0.443-3.543-0.672-7.197-0.672-10.926c0-29.622,14.446-54.274,33.523-59.538
				c0.02,0,0.031,0,0.042,0c12.521,0,24.097,4.025,33.503,10.858C354.8,84.222,351.947,103.848,340.369,119.795L340.369,119.795z"/>
			<path fill-rule="evenodd" clip-rule="evenodd" fill="#FFFFFF" d="M339.547,119.198c-2.455,3.386-5.19,6.433-8.153,9.154
				c-5.132,1.064-10.55,1.745-16.156,1.968c-5.125,0.198-10.113,0.011-14.901-0.529c-1.577-6.426-2.446-13.36-2.446-20.592
				c0-19.934,6.54-37.619,16.627-48.664c-12.798,7.879-21.95,28.779-21.95,53.326c0,5.173,0.407,10.189,1.175,14.952
				c-3.605-0.669-7.052-1.542-10.313-2.593c-0.443-3.543-0.672-7.197-0.672-10.926c0-29.622,14.446-54.274,33.523-59.538
				c0.02,0,0.031,0,0.042,0c11.947,0,23.036,3.667,32.196,9.936C353.875,83.311,351.201,103.143,339.547,119.198L339.547,119.198z"
				/>
			<path fill-rule="evenodd" clip-rule="evenodd" fill="#FFFFFF" d="M338.726,118.596c-2.764,3.812-5.887,7.193-9.298,10.145
				c-4.541,0.844-9.292,1.384-14.19,1.58c-5.125,0.198-10.113,0.011-14.901-0.529c-1.577-6.426-2.446-13.36-2.446-20.592
				c0-19.934,6.54-37.619,16.627-48.664c-12.798,7.879-21.95,28.779-21.95,53.326c0,5.173,0.407,10.189,1.175,14.952
				c-3.605-0.669-7.052-1.542-10.313-2.593c-0.443-3.543-0.672-7.197-0.672-10.926c0-29.622,14.446-54.274,33.523-59.538
				c0.02,0,0.031,0,0.042,0c11.379,0,21.979,3.323,30.878,9.06C352.933,82.433,350.443,102.458,338.726,118.596L338.726,118.596z"/>
			<path fill-rule="evenodd" clip-rule="evenodd" fill="#FFFFFF" d="M337.906,118c-3.074,4.234-6.602,7.934-10.477,11.089
				c-3.932,0.641-8.008,1.062-12.191,1.231c-5.125,0.198-10.113,0.011-14.901-0.529c-1.577-6.426-2.446-13.36-2.446-20.592
				c0-19.934,6.54-37.619,16.627-48.664c-12.798,7.879-21.95,28.779-21.95,53.326c0,5.173,0.407,10.189,1.175,14.952
				c-3.605-0.669-7.052-1.542-10.313-2.593c-0.443-3.543-0.672-7.197-0.672-10.926c0-29.622,14.446-54.274,33.523-59.538
				c0.02,0,0.031,0,0.042,0c10.816,0,20.931,3.003,29.55,8.232C351.983,81.585,349.674,101.783,337.906,118L337.906,118z"/>
			<path fill-rule="evenodd" clip-rule="evenodd" fill="#FFFFFF" d="M337.086,117.398c-3.385,4.668-7.332,8.671-11.688,12
				c-3.298,0.468-6.694,0.782-10.161,0.922c-5.125,0.198-10.113,0.011-14.901-0.529c-1.577-6.426-2.446-13.36-2.446-20.592
				c0-19.934,6.54-37.619,16.627-48.664c-12.798,7.879-21.95,28.779-21.95,53.326c0,5.173,0.407,10.189,1.175,14.952
				c-3.605-0.669-7.052-1.542-10.313-2.593c-0.443-3.543-0.672-7.197-0.672-10.926c0-29.622,14.446-54.274,33.523-59.538
				c0.02,0,0.031,0,0.042,0c10.266,0,19.896,2.704,28.215,7.444C351.021,80.759,348.901,101.12,337.086,117.398L337.086,117.398z"/>
			<path fill-rule="evenodd" clip-rule="evenodd" fill="#FFFFFF" d="M336.263,116.803c-3.697,5.094-8.078,9.391-12.928,12.865
				c-2.646,0.321-5.348,0.542-8.098,0.652c-5.125,0.198-10.113,0.011-14.901-0.529c-1.577-6.426-2.446-13.36-2.446-20.592
				c0-19.934,6.54-37.619,16.627-48.664c-12.798,7.879-21.95,28.779-21.95,53.326c0,5.173,0.407,10.189,1.175,14.952
				c-3.605-0.669-7.052-1.542-10.313-2.593c-0.443-3.543-0.672-7.197-0.672-10.926c0-29.622,14.446-54.274,33.523-59.538
				c0.02,0,0.031,0,0.042,0c9.718,0,18.868,2.423,26.874,6.709C350.048,79.953,348.117,100.467,336.263,116.803L336.263,116.803z"/>
			<path fill-rule="evenodd" clip-rule="evenodd" fill="#FFFFFF" d="M335.442,116.2c-4.019,5.534-8.856,10.117-14.232,13.704
				c-1.959,0.192-3.956,0.333-5.972,0.416c-5.125,0.198-10.113,0.011-14.901-0.529c-1.577-6.426-2.446-13.36-2.446-20.592
				c0-19.934,6.54-37.619,16.627-48.664c-12.798,7.879-21.95,28.779-21.95,53.326c0,5.173,0.407,10.189,1.175,14.952
				c-3.605-0.669-7.052-1.542-10.313-2.593c-0.443-3.543-0.672-7.197-0.672-10.926c0-29.622,14.446-54.274,33.523-59.538
				c0.02,0,0.031,0,0.042,0c9.171,0,17.843,2.159,25.521,6.005C349.064,79.179,347.328,99.826,335.442,116.2L335.442,116.2z"/>
			<path fill-rule="evenodd" clip-rule="evenodd" fill="#FFFFFF" d="M334.619,115.6c-4.342,5.988-9.664,10.836-15.588,14.497
				c-1.254,0.094-2.52,0.174-3.793,0.224c-5.125,0.198-10.113,0.011-14.901-0.529c-1.577-6.426-2.446-13.36-2.446-20.592
				c0-19.934,6.54-37.619,16.627-48.664c-12.798,7.879-21.95,28.779-21.95,53.326c0,5.173,0.407,10.189,1.175,14.952
				c-3.605-0.669-7.052-1.542-10.313-2.593c-0.443-3.543-0.672-7.197-0.672-10.926c0-29.622,14.446-54.274,33.523-59.538
				c0.02,0,0.031,0,0.042,0c8.638,0,16.825,1.917,24.163,5.347C348.07,78.424,346.528,99.196,334.619,115.6L334.619,115.6z"/>
			<path fill-rule="evenodd" clip-rule="evenodd" fill="#FFFFFF" d="M333.796,115.003c-4.672,6.439-10.492,11.54-16.984,15.24
				c-0.52,0.028-1.049,0.055-1.574,0.078c-5.125,0.198-10.113,0.011-14.901-0.529c-1.577-6.426-2.446-13.36-2.446-20.592
				c0-19.934,6.54-37.619,16.627-48.664c-12.798,7.879-21.95,28.779-21.95,53.326c0,5.173,0.407,10.189,1.175,14.952
				c-3.605-0.669-7.052-1.542-10.313-2.593c-0.443-3.543-0.672-7.197-0.672-10.926c0-29.622,14.446-54.274,33.523-59.538
				c0.02,0,0.031,0,0.042,0c8.106,0,15.821,1.688,22.802,4.735C347.068,77.692,345.721,98.579,333.796,115.003L333.796,115.003z"/>
			<path fill-rule="evenodd" clip-rule="evenodd" fill="#FFFFFF" d="M332.976,114.408c-5.016,6.91-11.381,12.248-18.475,15.937
				c-4.864,0.151-9.607-0.041-14.165-0.553c-1.577-6.426-2.446-13.36-2.446-20.592c0-19.934,6.54-37.619,16.627-48.664
				c-12.798,7.879-21.95,28.779-21.95,53.326c0,5.173,0.407,10.189,1.175,14.952c-3.605-0.669-7.052-1.542-10.313-2.593
				c-0.443-3.543-0.672-7.197-0.672-10.926c0-29.622,14.446-54.274,33.523-59.538c0.02,0,0.031,0,0.042,0
				c7.58,0,14.817,1.473,21.433,4.155C346.052,76.99,344.909,97.97,332.976,114.408L332.976,114.408z"/>
			<path fill-rule="evenodd" clip-rule="evenodd" fill="#FFFFFF" d="M332.152,113.805c-5.369,7.4-12.316,12.961-20.047,16.583
				c-4.028,0.033-7.965-0.168-11.769-0.597c-1.577-6.426-2.446-13.36-2.446-20.592c0-19.934,6.54-37.619,16.627-48.664
				c-12.798,7.879-21.95,28.779-21.95,53.326c0,5.173,0.407,10.189,1.175,14.952c-3.605-0.669-7.052-1.542-10.313-2.593
				c-0.443-3.543-0.672-7.197-0.672-10.926c0-29.622,14.446-54.274,33.523-59.538c0.02,0,0.031,0,0.042,0
				c7.062,0,13.831,1.283,20.073,3.626C345.036,76.31,344.082,97.368,332.152,113.805L332.152,113.805z"/>
			<path fill-rule="evenodd" clip-rule="evenodd" fill="#FFFFFF" d="M331.332,113.205c-5.732,7.899-13.299,13.674-21.697,17.173
				c-3.168-0.052-6.272-0.242-9.298-0.586c-1.577-6.426-2.446-13.36-2.446-20.592c0-19.934,6.54-37.619,16.627-48.664
				c-12.798,7.879-21.95,28.779-21.95,53.326c0,5.173,0.407,10.189,1.175,14.952c-3.605-0.669-7.052-1.542-10.313-2.593
				c-0.443-3.543-0.672-7.197-0.672-10.926c0-29.622,14.446-54.274,33.523-59.538c0.02,0,0.031,0,0.042,0
				c6.549,0,12.839,1.096,18.694,3.127C344.006,75.646,343.255,96.778,331.332,113.205L331.332,113.205z"/>
			<path fill-rule="evenodd" clip-rule="evenodd" fill="#FFFFFF" d="M330.51,112.607c-6.114,8.424-14.355,14.39-23.456,17.696
				c-2.275-0.094-4.521-0.265-6.718-0.512c-1.577-6.426-2.446-13.36-2.446-20.592c0-19.934,6.54-37.619,16.627-48.664
				c-12.798,7.879-21.95,28.779-21.95,53.326c0,5.173,0.407,10.189,1.175,14.952c-3.605-0.669-7.052-1.542-10.313-2.593
				c-0.443-3.543-0.672-7.197-0.672-10.926c0-29.622,14.446-54.274,33.523-59.538c0.02,0,0.031,0,0.042,0
				c6.037,0,11.856,0.934,17.317,2.671C342.966,75.011,342.417,96.206,330.51,112.607L330.51,112.607z"/>
			<path fill-rule="evenodd" clip-rule="evenodd" fill="#FFFFFF" d="M329.689,112.005c-6.522,8.988-15.511,15.116-25.369,18.147
				c-1.34-0.096-2.67-0.214-3.983-0.36c-1.577-6.426-2.446-13.36-2.446-20.592c0-19.934,6.54-37.619,16.627-48.664
				c-12.798,7.879-21.95,28.779-21.95,53.326c0,5.173,0.407,10.189,1.175,14.952c-3.605-0.669-7.052-1.542-10.313-2.593
				c-0.443-3.543-0.672-7.197-0.672-10.926c0-29.622,14.446-54.274,33.523-59.538c0.02,0,0.031,0,0.042,0
				c5.53,0,10.881,0.782,15.937,2.25C341.917,74.392,341.574,95.63,329.689,112.005L329.689,112.005z"/>
			<path fill-rule="evenodd" clip-rule="evenodd" fill="#FFFFFF" d="M328.867,111.404c-6.954,9.588-16.77,15.857-27.426,18.5
				c-0.368-0.033-0.736-0.066-1.104-0.113c-1.577-6.426-2.446-13.36-2.446-20.592c0-19.934,6.54-37.619,16.627-48.664
				c-12.798,7.879-21.95,28.779-21.95,53.326c0,5.173,0.407,10.189,1.175,14.952c-3.605-0.669-7.052-1.542-10.313-2.593
				c-0.443-3.543-0.672-7.197-0.672-10.926c0-29.622,14.446-54.274,33.523-59.538c0.02,0,0.031,0,0.042,0
				c5.03,0,9.911,0.652,14.556,1.873C340.867,73.802,340.724,95.069,328.867,111.404L328.867,111.404z"/>
			<path fill-rule="evenodd" clip-rule="evenodd" fill="#FFFFFF" d="M328.044,110.808c-7.029,9.684-17.032,15.914-27.854,18.361
				c-1.482-6.254-2.3-12.969-2.3-19.969c0-19.934,6.54-37.619,16.627-48.664c-12.798,7.879-21.95,28.779-21.95,53.326
				c0,5.173,0.407,10.189,1.175,14.952c-3.605-0.669-7.052-1.542-10.313-2.593c-0.443-3.543-0.672-7.197-0.672-10.926
				c0-29.622,14.446-54.274,33.523-59.538c0.02,0,0.031,0,0.042,0c4.535,0,8.95,0.529,13.175,1.523
				C339.805,73.228,339.867,94.523,328.044,110.808L328.044,110.808z"/>
			<path fill-rule="evenodd" clip-rule="evenodd" fill="#FFFFFF" d="M327.227,110.212c-6.881,9.476-16.671,15.576-27.259,17.977
				c-1.342-5.972-2.078-12.353-2.078-18.99c0-19.934,6.54-37.619,16.627-48.664c-12.798,7.879-21.95,28.779-21.95,53.326
				c0,5.173,0.407,10.189,1.175,14.952c-3.605-0.669-7.052-1.542-10.313-2.593c-0.443-3.543-0.672-7.197-0.672-10.926
				c0-29.622,14.446-54.274,33.523-59.538c0.02,0,0.031,0,0.042,0c4.044,0,7.994,0.416,11.798,1.214
				C338.74,72.677,339.003,93.979,327.227,110.212L327.227,110.212z"/>
			<path fill-rule="evenodd" clip-rule="evenodd" fill="#FFFFFF" d="M326.406,109.61c-6.729,9.269-16.305,15.24-26.657,17.596
				c-1.2-5.69-1.858-11.73-1.858-18.006c0-19.934,6.54-37.619,16.627-48.664c-12.798,7.879-21.95,28.779-21.95,53.326
				c0,4.942,0.377,9.732,1.077,14.305c-0.791,0.074-1.581,0.118-2.371,0.146c-2.716-0.584-5.336-1.283-7.844-2.092
				c-0.443-3.543-0.672-7.197-0.672-10.926c0-29.622,14.446-54.274,33.523-59.538c0.02,0,0.031,0,0.042,0
				c3.56,0,7.046,0.326,10.425,0.944C337.669,72.148,338.132,93.45,326.406,109.61L326.406,109.61z"/>
			<path fill-rule="evenodd" clip-rule="evenodd" fill="#FFFFFF" d="M325.582,109.009c-6.57,9.058-15.92,14.901-26.035,17.212
				c-1.074-5.398-1.656-11.111-1.656-17.021c0-19.934,6.54-37.619,16.627-48.664c-12.798,7.879-21.95,28.779-21.95,53.326
				c0,4.587,0.326,9.042,0.931,13.316c-2.157,0.19-4.333,0.224-6.503,0.094c-1.212-0.325-2.401-0.674-3.566-1.051
				c-0.443-3.543-0.672-7.197-0.672-10.926c0-29.622,14.446-54.274,33.523-59.538c0.02,0,0.031,0,0.042,0
				c3.073,0,6.093,0.237,9.036,0.708C336.587,71.636,337.258,92.927,325.582,109.009L325.582,109.009z"/>
			<path fill-rule="evenodd" clip-rule="evenodd" fill="#FFFFFF" d="M324.76,108.412c-6.415,8.84-15.536,14.549-25.402,16.82
				c-0.95-5.106-1.467-10.477-1.467-16.033c0-19.934,6.54-37.619,16.627-48.664c-12.798,7.879-21.95,28.779-21.95,53.326
				c0,4.234,0.278,8.35,0.795,12.32c-3.306,0.292-6.652,0.209-9.967-0.27c-0.421-3.447-0.639-6.99-0.639-10.618
				c0-29.622,14.446-54.274,33.523-59.538c0.02,0,0.031,0,0.042,0c2.596,0,5.151,0.168,7.653,0.506
				C335.498,71.148,336.375,92.409,324.76,108.412L324.76,108.412z"/>
			<path fill-rule="evenodd" clip-rule="evenodd" fill="#FFFFFF" d="M323.94,107.812c-6.256,8.625-15.144,14.192-24.76,16.43
				c-0.837-4.812-1.29-9.845-1.29-15.042c0-19.934,6.54-37.619,16.627-48.664c-12.798,7.879-21.95,28.779-21.95,53.326
				c0,3.879,0.234,7.665,0.669,11.329c-3.304,0.289-6.647,0.192-9.958-0.297c-0.343-3.125-0.521-6.332-0.521-9.599
				c0-29.622,14.446-54.274,33.523-59.538c0.02,0,0.031,0,0.042,0c2.12,0,4.215,0.113,6.272,0.336
				C334.405,70.675,335.488,91.903,323.94,107.812L323.94,107.812z"/>
			<path fill-rule="evenodd" clip-rule="evenodd" fill="#FFFFFF" d="M323.121,107.215c-6.095,8.396-14.743,13.833-24.105,16.033
				c-0.73-4.51-1.125-9.206-1.125-14.048c0-19.934,6.54-37.619,16.627-48.664c-12.798,7.879-21.95,28.779-21.95,53.326
				c0,3.53,0.194,6.977,0.56,10.33c-3.305,0.292-6.647,0.19-9.953-0.316c-0.274-2.805-0.417-5.666-0.417-8.581
				c0-29.622,14.446-54.274,33.523-59.538c0.02,0,0.031,0,0.042,0c1.65,0,3.284,0.067,4.898,0.207
				C333.308,70.231,334.593,91.408,323.121,107.215L323.121,107.215z"/>
			<path fill-rule="evenodd" clip-rule="evenodd" fill="#FFFFFF" d="M322.294,106.614c-5.93,8.17-14.334,13.473-23.438,15.631
				c-0.629-4.201-0.966-8.564-0.966-13.046c0-19.934,6.54-37.619,16.627-48.664c-12.798,7.879-21.95,28.779-21.95,53.326
				c0,3.183,0.157,6.297,0.456,9.333c-3.298,0.293-6.642,0.187-9.942-0.336c-0.21-2.48-0.323-5-0.323-7.564
				c0-29.622,14.446-54.274,33.523-59.538c0.02,0,0.031,0,0.042,0c1.181,0,2.356,0.033,3.519,0.107
				C332.206,69.792,333.691,90.92,322.294,106.614L322.294,106.614z"/>
			<path fill-rule="evenodd" clip-rule="evenodd" fill="#FFFFFF" d="M321.474,106.017c-5.762,7.939-13.918,13.102-22.76,15.234
				c-0.537-3.898-0.824-7.925-0.824-12.052c0-19.934,6.54-37.619,16.627-48.664c-12.798,7.879-21.95,28.779-21.95,53.326
				c0,2.833,0.126,5.617,0.363,8.339c-3.295,0.292-6.633,0.174-9.928-0.366c-0.16-2.147-0.245-4.325-0.245-6.541
				c0-29.622,14.446-54.274,33.523-59.538c0.02,0,0.031,0,0.042,0c0.718,0,1.432,0.011,2.14,0.039
				C331.092,69.381,332.783,90.436,321.474,106.017L321.474,106.017z"/>
			<path fill-rule="evenodd" clip-rule="evenodd" fill="#FFFFFF" d="M320.653,105.417c-5.593,7.708-13.496,12.735-22.071,14.833
				c-0.45-3.587-0.691-7.276-0.691-11.05c0-19.934,6.54-37.619,16.627-48.664c-12.798,7.879-21.95,28.779-21.95,53.326
				c0,2.484,0.099,4.937,0.281,7.337c-3.292,0.297-6.626,0.175-9.919-0.377c-0.115-1.821-0.172-3.66-0.172-5.528
				c0-29.622,14.446-54.274,33.523-59.538c0.02,0,0.031,0,0.042,0c0.256,0,0.515,0.006,0.771,0.006
				C329.982,68.988,331.871,89.962,320.653,105.417L320.653,105.417z"/>
			<path fill-rule="evenodd" clip-rule="evenodd" fill="#FFFFFF" d="M319.833,104.814c-5.421,7.468-13.069,12.36-21.372,14.423
				c-0.371-3.266-0.57-6.613-0.57-10.037c0-19.934,6.54-37.619,16.627-48.664c-12.798,7.879-21.95,28.779-21.95,53.326
				c0,2.142,0.073,4.256,0.21,6.337c-3.287,0.303-6.618,0.179-9.905-0.394c-0.073-1.492-0.116-2.992-0.116-4.511
				c0-29.398,14.23-53.892,33.087-59.414C328.875,68.746,330.916,89.541,319.833,104.814L319.833,104.814z"/>
			<path fill-rule="evenodd" clip-rule="evenodd" fill="#FFFFFF" d="M319.011,104.217c-5.246,7.226-12.637,11.978-20.66,14.014
				c-0.301-2.948-0.46-5.962-0.46-9.032c0-19.934,6.54-37.619,16.627-48.664c-12.798,7.879-21.95,28.779-21.95,53.326
				c0,1.798,0.054,3.576,0.151,5.336c-3.28,0.309-6.61,0.179-9.888-0.405c-0.044-1.159-0.073-2.323-0.073-3.499
				c0-28.84,13.698-52.97,32.027-59.083C327.783,68.718,329.903,89.205,319.011,104.217L319.011,104.217z"/>
			<path fill-rule="evenodd" clip-rule="evenodd" fill="#FFFFFF" d="M318.191,103.616c-5.07,6.984-12.191,11.595-19.938,13.603
				c-0.238-2.626-0.362-5.297-0.362-8.019c0-19.934,6.54-37.619,16.627-48.664c-12.798,7.879-21.95,28.779-21.95,53.326
				c0,1.462,0.034,2.907,0.099,4.34c-3.276,0.316-6.6,0.181-9.872-0.416c-0.023-0.826-0.037-1.652-0.037-2.491
				c0-28.301,13.189-52.064,31.003-58.723C326.704,68.718,328.888,88.883,318.191,103.616L318.191,103.616z"/>
			<path fill-rule="evenodd" clip-rule="evenodd" fill="#FFFFFF" d="M317.367,103.014c-4.887,6.737-11.739,11.196-19.198,13.181
				c-0.18-2.299-0.278-4.628-0.278-6.995c0-19.934,6.54-37.619,16.627-48.664c-12.798,7.879-21.95,28.779-21.95,53.326
				c0,1.118,0.022,2.226,0.059,3.334c-3.271,0.32-6.588,0.185-9.855-0.427c-0.009-0.49-0.014-0.979-0.014-1.475
				c0-27.767,12.698-51.171,29.998-58.329C325.61,68.751,327.856,88.563,317.367,103.014L317.367,103.014z"/>
			<path fill-rule="evenodd" clip-rule="evenodd" fill="#FFFFFF" d="M316.545,102.419c-4.707,6.483-11.28,10.802-18.452,12.752
				c-0.133-1.961-0.203-3.951-0.203-5.971c0-19.934,6.54-37.619,16.627-48.664c-12.798,7.879-21.95,28.779-21.95,53.326
				c0,0.78,0.011,1.556,0.03,2.333c-3.264,0.333-6.576,0.192-9.835-0.433c-0.002-0.157-0.005-0.309-0.005-0.467
				c0-27.244,12.223-50.282,29.019-57.902C324.525,68.82,326.82,88.264,316.545,102.419L316.545,102.419z"/>
			<path fill-rule="evenodd" clip-rule="evenodd" fill="#FFFFFF" d="M315.721,101.816c-4.518,6.23-10.816,10.403-17.69,12.327
				c-0.089-1.632-0.14-3.279-0.14-4.944c0-19.614,6.334-37.052,16.144-48.124C323.768,72.357,324.854,89.238,315.721,101.816
				L315.721,101.816z M292.579,115.189c-3.252,0.342-6.564,0.202-9.815-0.44c0.158-26.485,11.868-48.911,28.061-56.906
				c1.107,0.966,2.137,1.996,3.084,3.081c-12.479,8.16-21.34,28.785-21.34,52.938C292.568,114.306,292.571,114.744,292.579,115.189
				L292.579,115.189z"/>
			<path fill-rule="evenodd" clip-rule="evenodd" fill="#FFFFFF" d="M314.901,101.221c-4.333,5.971-10.345,9.991-16.921,11.893
				c-0.056-1.293-0.089-2.598-0.089-3.914c0-19.18,6.059-36.281,15.5-47.381C322.719,72.767,323.724,89.07,314.901,101.221
				L314.901,101.221z M292.571,114.188c-3.248,0.354-6.554,0.214-9.795-0.438c0.435-25.546,11.615-47.163,27.126-55.429
				c1.152,0.985,2.219,2.042,3.195,3.155c-12.047,8.515-20.529,28.763-20.529,52.387
				C292.568,113.968,292.571,114.075,292.571,114.188L292.571,114.188z"/>
			<path fill-rule="evenodd" clip-rule="evenodd" fill="#FFFFFF" d="M314.08,100.619c-4.143,5.707-9.869,9.583-16.138,11.455
				c-0.032-0.956-0.051-1.906-0.051-2.874c0-18.748,5.787-35.505,14.865-46.621C321.667,73.194,322.589,88.894,314.08,100.619
				L314.08,100.619z M292.571,113.175c-3.236,0.366-6.537,0.231-9.773-0.432c0.694-24.614,11.364-45.424,26.198-53.921
				c1.197,1.007,2.301,2.086,3.31,3.24C300.794,70.793,292.731,90.367,292.571,113.175L292.571,113.175z"/>
			<path fill-rule="evenodd" clip-rule="evenodd" fill="#FFFFFF" d="M313.261,100.023c-3.95,5.443-9.385,9.16-15.349,11.004
				c-0.011-0.608-0.022-1.214-0.022-1.828c0-18.315,5.525-34.734,14.244-45.839C320.623,73.64,321.455,88.731,313.261,100.023
				L313.261,100.023z M292.584,112.164c-3.228,0.388-6.526,0.253-9.751-0.429c0.932-23.678,11.104-43.703,25.279-52.391
				c1.246,1.029,2.388,2.136,3.426,3.312C300.607,71.537,292.961,90.295,292.584,112.164L292.584,112.164z"/>
			<path fill-rule="evenodd" clip-rule="evenodd" fill="#FFFFFF" d="M312.44,99.421c-3.757,5.173-8.896,8.733-14.541,10.555
				c-0.003-0.259-0.008-0.518-0.008-0.776c0-17.881,5.269-33.958,13.63-45.046C319.577,74.1,320.316,88.574,312.44,99.421
				L312.44,99.421z M292.607,111.151c-3.219,0.405-6.512,0.275-9.729-0.416c1.15-22.764,10.845-42.018,24.372-50.846
				c1.292,1.046,2.477,2.183,3.539,3.396C300.426,72.255,293.186,90.215,292.607,111.151L292.607,111.151z"/>
			<path fill-rule="evenodd" clip-rule="evenodd" fill="#FFFFFF" d="M311.619,98.826c-3.557,4.897-8.395,8.298-13.726,10.093
				c0.054-17.341,5.055-32.958,13.026-43.951C318.528,74.567,319.167,88.428,311.619,98.826L311.619,98.826z M292.641,110.139
				c-3.214,0.429-6.5,0.305-9.708-0.399c1.349-21.856,10.588-40.352,23.477-49.286c1.341,1.068,2.562,2.23,3.652,3.48
				C300.252,72.952,293.4,90.132,292.641,110.139L292.641,110.139z"/>
			<path fill-rule="evenodd" clip-rule="evenodd" fill="#FFFFFF" d="M310.794,98.224c-3.35,4.617-7.889,7.862-12.893,9.621
				c0.248-16.476,4.965-31.333,12.43-42.045C317.479,75.061,318.013,88.277,310.794,98.224L310.794,98.224z M292.683,109.117
				c-3.197,0.455-6.484,0.336-9.68-0.377c1.532-20.958,10.324-38.706,22.588-47.702c1.389,1.085,2.643,2.283,3.762,3.565
				C300.089,73.621,293.611,90.031,292.683,109.117L292.683,109.117z"/>
			<path fill-rule="evenodd" clip-rule="evenodd" fill="#FFFFFF" d="M309.974,97.621c-3.146,4.335-7.375,7.418-12.05,9.145
				c0.422-15.617,4.859-29.714,11.824-40.116C316.43,75.567,316.863,88.135,309.974,97.621L309.974,97.621z M292.743,108.098
				c-3.192,0.477-6.47,0.372-9.664-0.355c1.695-20.063,10.06-37.079,21.714-46.104c1.437,1.107,2.728,2.333,3.869,3.659
				C299.931,74.279,293.819,89.923,292.743,108.098L292.743,108.098z"/>
			<path fill-rule="evenodd" clip-rule="evenodd" fill="#FFFFFF" d="M309.151,97.026c-2.938,4.049-6.852,6.957-11.19,8.642
				c0.576-14.748,4.74-28.083,11.213-38.142C315.378,76.084,315.699,88.005,309.151,97.026L309.151,97.026z M292.804,107.074
				c-3.178,0.512-6.453,0.41-9.636-0.32c1.839-19.187,9.788-35.477,20.843-44.492c1.487,1.125,2.814,2.384,3.976,3.751
				C299.777,74.92,294.013,89.805,292.804,107.074L292.804,107.074z"/>
			<path fill-rule="evenodd" clip-rule="evenodd" fill="#FFFFFF" d="M308.33,96.423c-2.725,3.757-6.323,6.491-10.318,8.138
				c0.711-13.878,4.605-26.447,10.6-36.141C314.324,76.625,314.532,87.877,308.33,96.423L308.33,96.423z M292.886,106.04
				c-3.166,0.54-6.442,0.462-9.619-0.281c1.965-18.315,9.511-33.896,19.984-42.866c1.535,1.153,2.899,2.441,4.077,3.852
				C299.633,75.54,294.21,89.67,292.886,106.04L292.886,106.04z"/>
			<path fill-rule="evenodd" clip-rule="evenodd" fill="#FFFFFF" d="M307.509,95.828c-2.508,3.453-5.787,6.005-9.434,7.602
				c0.835-12.994,4.459-24.798,9.973-34.093C313.269,77.181,313.365,87.759,307.509,95.828L307.509,95.828z M292.973,104.999
				c-3.152,0.585-6.424,0.523-9.593-0.229c2.077-17.456,9.23-32.335,19.133-41.225c1.582,1.17,2.979,2.497,4.174,3.953
				C299.493,76.142,294.396,89.536,292.973,104.999L292.973,104.999z"/>
			<path fill-rule="evenodd" clip-rule="evenodd" fill="#FFFFFF" d="M306.687,95.226c-2.281,3.149-5.24,5.517-8.529,7.058
				c0.936-12.102,4.293-23.129,9.34-31.991C312.21,77.755,312.191,87.646,306.687,95.226L306.687,95.226z M293.077,103.958
				c-3.138,0.625-6.411,0.585-9.574-0.174c2.17-16.6,8.946-30.787,18.287-39.576c1.633,1.192,3.061,2.563,4.268,4.066
				C299.358,76.731,294.584,89.384,293.077,103.958L293.077,103.958z"/>
			<path fill-rule="evenodd" clip-rule="evenodd" fill="#FFFFFF" d="M305.867,94.631c-2.058,2.833-4.684,5.005-7.611,6.483
				c1.016-11.202,4.108-21.437,8.688-29.831C311.144,78.356,311.007,87.55,305.867,94.631L305.867,94.631z M293.191,102.907
				c-3.123,0.682-6.396,0.658-9.55-0.105c2.244-15.757,8.648-29.263,17.44-37.913c0.021,0.017,0.045,0.033,0.067,0.052
				c1.655,1.203,3.093,2.591,4.29,4.132C299.22,77.31,294.763,89.227,293.191,102.907L293.191,102.907z"/>
			<path fill-rule="evenodd" clip-rule="evenodd" fill="#FFFFFF" d="M305.045,94.028c-1.824,2.513-4.116,4.481-6.669,5.877
				c1.074-10.279,3.905-19.71,8.024-27.6C310.074,78.981,309.818,87.455,305.045,94.028L305.045,94.028z M293.321,101.844
				c-3.112,0.737-6.384,0.743-9.536-0.028c2.303-14.924,8.354-27.755,16.611-36.236c0.051,0.035,0.098,0.068,0.148,0.107
				c1.672,1.214,3.109,2.632,4.293,4.207C299.093,77.868,294.941,89.051,293.321,101.844L293.321,101.844z"/>
			<path fill-rule="evenodd" clip-rule="evenodd" fill="#FFFFFF" d="M304.225,93.428c-1.583,2.181-3.534,3.929-5.708,5.234
				c1.113-9.34,3.678-17.944,7.336-25.281C308.99,79.633,308.617,87.377,304.225,93.428L304.225,93.428z M293.462,100.776
				c-3.09,0.798-6.369,0.839-9.518,0.063c2.345-14.104,8.047-26.266,15.78-34.555c0.07,0.05,0.141,0.102,0.211,0.151
				c1.697,1.231,3.139,2.687,4.307,4.302C298.964,78.419,295.113,88.872,293.462,100.776L293.462,100.776z"/>
			<path fill-rule="evenodd" clip-rule="evenodd" fill="#FFFFFF" d="M303.401,92.831c-1.33,1.833-2.935,3.345-4.72,4.526
				c1.124-8.361,3.418-16.099,6.617-22.836C307.897,80.319,307.405,87.319,303.401,92.831L303.401,92.831z M293.619,99.691
				c-3.073,0.878-6.356,0.956-9.508,0.174c2.37-13.286,7.731-24.793,14.955-32.862c0.087,0.063,0.174,0.124,0.262,0.187
				c1.731,1.259,3.177,2.756,4.329,4.419C298.837,78.964,295.281,88.676,293.619,99.691L293.619,99.691z"/>
			<path fill-rule="evenodd" clip-rule="evenodd" fill="#FFFFFF" d="M302.58,92.235c-1.068,1.468-2.318,2.721-3.702,3.745
				c1.108-7.333,3.12-14.171,5.854-20.239C306.781,81.062,306.173,87.281,302.58,92.235L302.58,92.235z M293.794,98.584
				c-3.051,0.966-6.349,1.096-9.504,0.309c2.382-12.484,7.412-23.336,14.137-31.158c0.098,0.066,0.194,0.135,0.292,0.207
				c1.771,1.283,3.233,2.84,4.36,4.566C298.714,79.493,295.45,88.467,293.794,98.584L293.794,98.584z"/>
			<path fill-rule="evenodd" clip-rule="evenodd" fill="#FFFFFF" d="M301.759,91.633c-0.784,1.079-1.674,2.029-2.644,2.857
				c1.058-6.243,2.774-12.107,5.033-17.415C305.638,81.86,304.931,87.264,301.759,91.633L301.759,91.633z M293.985,97.453
				c-3.028,1.074-6.344,1.255-9.504,0.468c2.373-11.691,7.083-21.896,13.321-29.45c0.107,0.068,0.208,0.146,0.31,0.22
				c1.822,1.321,3.295,2.946,4.395,4.757C298.587,80.021,295.615,88.242,293.985,97.453L293.985,97.453z"/>
			<path fill-rule="evenodd" clip-rule="evenodd" fill="#FFFFFF" d="M300.938,91.031c-0.472,0.646-0.979,1.249-1.524,1.794
				c0.959-5.038,2.348-9.812,4.107-14.227C304.444,82.766,303.646,87.303,300.938,91.031L300.938,91.031z M294.199,96.294
				c-3.003,1.203-6.34,1.451-9.515,0.658c2.351-10.908,6.743-20.479,12.515-27.733c0.104,0.068,0.205,0.146,0.307,0.22
				c1.883,1.366,3.372,3.075,4.431,4.988C298.458,80.544,295.782,88,294.199,96.294L294.199,96.294z"/>
			<path fill-rule="evenodd" clip-rule="evenodd" fill="#FFFFFF" d="M300.114,90.436c-0.095,0.129-0.19,0.259-0.289,0.388
				c0.778-3.617,1.782-7.081,2.983-10.365C303.154,83.878,302.291,87.438,300.114,90.436L300.114,90.436z M294.437,95.091
				c-2.969,1.355-6.343,1.693-9.539,0.9c2.314-10.134,6.396-19.075,11.704-26.013c0.102,0.066,0.197,0.14,0.296,0.212
				c1.959,1.417,3.461,3.24,4.467,5.264C298.332,81.067,295.953,87.73,294.437,95.091L294.437,95.091z"/>
			<path fill-rule="evenodd" clip-rule="evenodd" fill="#FFFFFF" d="M294.707,93.833c-2.924,1.55-6.351,1.99-9.584,1.197
				c2.26-9.368,6.04-17.679,10.903-24.281c0.09,0.061,0.174,0.129,0.264,0.19c2.053,1.49,3.569,3.447,4.497,5.618
				C298.197,81.607,296.125,87.443,294.707,93.833L294.707,93.833z M301.792,83.44c-0.169,1.462-0.576,2.913-1.237,4.29
				C300.929,86.268,301.345,84.839,301.792,83.44L301.792,83.44z"/>
			<path fill-rule="evenodd" clip-rule="evenodd" fill="#FFFFFF" d="M295.02,92.47c-2.868,1.811-6.365,2.39-9.661,1.597
				c2.19-8.614,5.677-16.295,10.102-22.536c0.076,0.05,0.149,0.105,0.222,0.157c2.171,1.58,3.695,3.711,4.504,6.073
				C298.056,82.152,296.302,87.107,295.02,92.47L295.02,92.47z"/>
			<path fill-rule="evenodd" clip-rule="evenodd" fill="#FFFFFF" d="M295.394,90.975c-2.778,2.164-6.399,2.935-9.785,2.137
				c2.104-7.866,5.298-14.93,9.302-20.788c0.056,0.039,0.112,0.078,0.166,0.116c2.331,1.688,3.849,4.083,4.471,6.676
				C297.893,82.744,296.496,86.719,295.394,90.975L295.394,90.975z"/>
			<path fill-rule="evenodd" clip-rule="evenodd" fill="#FFFFFF" d="M295.885,89.164c-2.617,2.722-6.449,3.807-10.015,2.998
				c2.005-7.136,4.913-13.585,8.505-19.04c0.031,0.022,0.064,0.044,0.099,0.072c2.567,1.867,4.061,4.663,4.338,7.598
				C297.702,83.424,296.723,86.224,295.885,89.164L295.885,89.164z"/>
			<path fill-rule="evenodd" clip-rule="evenodd" fill="#FFFFFF" d="M296.006,87.438c-2.319,3.199-6.23,4.55-9.86,3.763
				c1.889-6.406,4.509-12.237,7.703-17.269c0.006,0.005,0.009,0.005,0.015,0.011c3.177,2.305,4.542,6.186,3.787,9.795
				c-0.284,0.771-0.559,1.558-0.82,2.351C296.597,86.554,296.321,87.005,296.006,87.438L296.006,87.438z"/>
			<path fill-rule="evenodd" clip-rule="evenodd" fill="#FFFFFF" d="M295.186,86.837c-2.062,2.845-5.52,4.064-8.752,3.414
				c1.76-5.692,4.099-10.915,6.905-15.499C297.154,77.585,297.988,82.978,295.186,86.837L295.186,86.837z"/>
			<path fill-rule="evenodd" clip-rule="evenodd" fill="#FFFFFF" d="M294.364,86.24c-1.802,2.486-4.802,3.576-7.633,3.064
				c1.613-4.986,3.674-9.597,6.106-13.726C296.136,78.127,296.828,82.849,294.364,86.24L294.364,86.24z"/>
			<path fill-rule="evenodd" clip-rule="evenodd" fill="#FFFFFF" d="M293.543,85.64c-1.538,2.12-4.074,3.081-6.498,2.709
				c1.451-4.29,3.233-8.289,5.303-11.926C295.113,78.678,295.664,82.72,293.543,85.64L293.543,85.64z"/>
			<path fill-rule="evenodd" clip-rule="evenodd" fill="#FFFFFF" d="M292.722,85.042c-1.271,1.749-3.334,2.577-5.342,2.345
				c1.269-3.593,2.775-6.979,4.49-10.105C294.089,79.239,294.494,82.603,292.722,85.042L292.722,85.042z"/>
			<path fill-rule="evenodd" clip-rule="evenodd" fill="#FFFFFF" d="M291.901,84.44c-1,1.379-2.592,2.07-4.172,1.979
				c1.071-2.901,2.296-5.661,3.666-8.254C293.063,79.818,293.321,82.485,291.901,84.44L291.901,84.44z"/>
			<path fill-rule="evenodd" clip-rule="evenodd" fill="#FFFFFF" d="M291.08,83.839c-0.722,1-1.833,1.542-2.978,1.591
				c0.852-2.205,1.791-4.325,2.818-6.343C292.031,80.415,292.144,82.377,291.08,83.839L291.08,83.839z"/>
			<path fill-rule="evenodd" clip-rule="evenodd" fill="#FFFFFF" d="M290.257,83.248c-0.439,0.603-1.06,0.985-1.737,1.125
				c0.596-1.473,1.231-2.901,1.906-4.292C290.979,81.045,290.952,82.287,290.257,83.248L290.257,83.248z"/>
			<path fill-rule="evenodd" clip-rule="evenodd" fill="#FFFFFF" d="M289.439,82.642c-0.104,0.146-0.223,0.264-0.352,0.366
				c0.234-0.547,0.475-1.087,0.72-1.621C289.833,81.821,289.711,82.265,289.439,82.642L289.439,82.642z"/>
		</g>
		<g>
			<path fill-rule="evenodd" clip-rule="evenodd" fill="#FFFFFF" d="M296.783,141.5c-0.903-2.739-1.673-5.616-2.289-8.62
				c-3.756-0.828-7.287-1.867-10.552-3.1c0.49,2.954,1.127,5.814,1.901,8.576C289.287,139.616,292.953,140.662,296.783,141.5
				L296.783,141.5z"/>
			<path fill-rule="evenodd" clip-rule="evenodd" fill="#FFFFFF" d="M296.783,141.5c-0.903-2.739-1.673-5.616-2.289-8.62
				c-3.756-0.828-7.287-1.867-10.552-3.1c0.49,2.954,1.127,5.814,1.901,8.576C289.287,139.616,292.953,140.662,296.783,141.5
				L296.783,141.5z"/>
			<path fill-rule="evenodd" clip-rule="evenodd" fill="#FFFFFF" d="M296.783,141.5c-0.903-2.739-1.673-5.616-2.289-8.62
				c-3.756-0.828-7.287-1.867-10.552-3.1c0.49,2.954,1.127,5.814,1.901,8.576C289.287,139.616,292.953,140.662,296.783,141.5
				L296.783,141.5z"/>
			<path fill-rule="evenodd" clip-rule="evenodd" fill="#FFFFFF" d="M296.783,141.5c-0.903-2.739-1.673-5.616-2.289-8.62
				c-3.756-0.828-7.287-1.867-10.552-3.1c0.49,2.954,1.127,5.814,1.901,8.576C289.287,139.616,292.953,140.662,296.783,141.5
				L296.783,141.5z"/>
			<path fill-rule="evenodd" clip-rule="evenodd" fill="#FFFFFF" d="M296.783,141.5c-0.903-2.739-1.673-5.616-2.289-8.62
				c-3.756-0.828-7.287-1.867-10.552-3.1c0.49,2.954,1.127,5.814,1.901,8.576C289.287,139.616,292.953,140.662,296.783,141.5
				L296.783,141.5z"/>
			<path fill-rule="evenodd" clip-rule="evenodd" fill="#FFFFFF" d="M296.611,140.96c-0.506,0.055-1.012,0.107-1.524,0.151
				c-3.217-0.771-6.312-1.682-9.245-2.755c-0.773-2.761-1.411-5.622-1.901-8.576c3.265,1.233,6.796,2.271,10.552,3.1
				C295.07,135.686,295.785,138.378,296.611,140.96L296.611,140.96z"/>
			<path fill-rule="evenodd" clip-rule="evenodd" fill="#FFFFFF" d="M296.308,139.988c-1.459,0.157-2.922,0.259-4.392,0.303
				c-2.087-0.573-4.116-1.22-6.073-1.935c-0.773-2.761-1.411-5.622-1.901-8.576c3.265,1.233,6.796,2.271,10.552,3.1
				C294.997,135.336,295.61,137.698,296.308,139.988L296.308,139.988z"/>
			<path fill-rule="evenodd" clip-rule="evenodd" fill="#FFFFFF" d="M296.015,139.008c-2.452,0.259-4.922,0.355-7.397,0.292
				c-0.938-0.303-1.864-0.612-2.775-0.944c-0.773-2.761-1.411-5.622-1.901-8.576c3.265,1.233,6.796,2.271,10.552,3.1
				C294.924,134.989,295.439,137.029,296.015,139.008L296.015,139.008z"/>
			<path fill-rule="evenodd" clip-rule="evenodd" fill="#FFFFFF" d="M295.739,138.025c-3.298,0.348-6.624,0.388-9.948,0.135
				c-0.748-2.7-1.372-5.495-1.85-8.38c3.265,1.233,6.796,2.271,10.552,3.1C294.854,134.639,295.275,136.354,295.739,138.025
				L295.739,138.025z"/>
			<path fill-rule="evenodd" clip-rule="evenodd" fill="#FFFFFF" d="M295.472,137.045c-3.298,0.338-6.629,0.377-9.953,0.102
				c-0.626-2.384-1.158-4.842-1.578-7.367c3.265,1.233,6.796,2.271,10.552,3.1C294.784,134.303,295.113,135.686,295.472,137.045
				L295.472,137.045z"/>
			<path fill-rule="evenodd" clip-rule="evenodd" fill="#FFFFFF" d="M295.222,136.068c-3.304,0.325-6.638,0.349-9.964,0.056
				c-0.512-2.062-0.956-4.177-1.316-6.343c3.265,1.233,6.796,2.271,10.552,3.1C294.716,133.959,294.96,135.022,295.222,136.068
				L295.222,136.068z"/>
			<path fill-rule="evenodd" clip-rule="evenodd" fill="#FFFFFF" d="M294.98,135.083c-3.304,0.321-6.644,0.327-9.971,0.018
				c-0.408-1.739-0.767-3.509-1.068-5.321c3.265,1.233,6.796,2.271,10.552,3.1C294.646,133.621,294.812,134.353,294.98,135.083
				L294.98,135.083z"/>
			<path fill-rule="evenodd" clip-rule="evenodd" fill="#FFFFFF" d="M294.758,134.1c-3.312,0.314-6.649,0.309-9.981-0.022
				c-0.312-1.412-0.593-2.841-0.835-4.297c3.265,1.233,6.796,2.271,10.552,3.1C294.579,133.29,294.668,133.695,294.758,134.1
				L294.758,134.1z"/>
			<path fill-rule="evenodd" clip-rule="evenodd" fill="#FFFFFF" d="M294.544,133.116c-3.312,0.309-6.658,0.298-9.986-0.052
				c-0.226-1.084-0.431-2.175-0.617-3.284c3.265,1.233,6.796,2.271,10.552,3.1C294.507,132.958,294.528,133.037,294.544,133.116
				L294.544,133.116z"/>
			<path fill-rule="evenodd" clip-rule="evenodd" fill="#FFFFFF" d="M292.006,132.289c-2.547,0.113-5.104,0.029-7.654-0.253
				c-0.146-0.741-0.284-1.495-0.411-2.255C286.476,130.738,289.172,131.569,292.006,132.289L292.006,132.289z"/>
			<path fill-rule="evenodd" clip-rule="evenodd" fill="#FFFFFF" d="M288.528,131.322c-1.457-0.033-2.913-0.135-4.366-0.303
				c-0.074-0.41-0.152-0.822-0.22-1.238C285.416,130.337,286.95,130.849,288.528,131.322L288.528,131.322z"/>
			<path fill-rule="evenodd" clip-rule="evenodd" fill="#FFFFFF" d="M284.777,130.085c-0.264-0.03-0.531-0.057-0.798-0.09
				c-0.011-0.074-0.026-0.141-0.037-0.215C284.217,129.888,284.499,129.984,284.777,130.085L284.777,130.085z"/>
		</g>
		<g>
			<path fill-rule="evenodd" clip-rule="evenodd" fill="#FFFFFF" d="M299.175,147.776c-3.771-0.484-7.397-1.165-10.839-2.007
				c2.817,7.112,6.582,13.309,11.056,18.189c-6.158-3.783-11.463-10.588-15.315-19.354c-8.479-2.554-15.625-6.197-20.744-10.555
				c8.42,21.008,28.976,35.846,52.99,35.846c1.333,0,2.646-0.05,3.948-0.14C311.665,167.3,304.185,159.201,299.175,147.776
				L299.175,147.776z"/>
			<path fill-rule="evenodd" clip-rule="evenodd" fill="#FFFFFF" d="M284.265,145.02c-6.059-0.591-12.076-2.086-17.849-4.504
				c-1.155-2.081-2.19-4.234-3.083-6.466c5.119,4.358,12.264,8,20.744,10.555C284.138,144.745,284.203,144.88,284.265,145.02
				L284.265,145.02z"/>
			<path fill-rule="evenodd" clip-rule="evenodd" fill="#FFFFFF" d="M281.018,143.614c-5.218-0.798-10.381-2.293-15.346-4.487
				c-0.857-1.652-1.642-3.339-2.339-5.077C267.826,137.874,273.876,141.145,281.018,143.614L281.018,143.614z"/>
			<path fill-rule="evenodd" clip-rule="evenodd" fill="#FFFFFF" d="M275.681,141.527c-3.644-0.911-7.231-2.181-10.715-3.8
				c-0.584-1.205-1.133-2.43-1.633-3.678C266.659,136.877,270.839,139.402,275.681,141.527L275.681,141.527z"/>
			<path fill-rule="evenodd" clip-rule="evenodd" fill="#FFFFFF" d="M270.387,138.896c-2.056-0.735-4.085-1.591-6.077-2.563
				c-0.34-0.754-0.669-1.514-0.978-2.282C265.375,135.792,267.747,137.406,270.387,138.896L270.387,138.896z"/>
			<path fill-rule="evenodd" clip-rule="evenodd" fill="#FFFFFF" d="M265.728,135.922c-0.68-0.316-1.358-0.647-2.03-0.991
				c-0.124-0.292-0.248-0.584-0.365-0.881C264.086,134.691,264.887,135.314,265.728,135.922L265.728,135.922z"/>
		</g>
		<g>
			<path fill-rule="evenodd" clip-rule="evenodd" fill="#FFFFFF" d="M320.164,135.027c-6.498,0.259-12.759-0.066-18.633-0.883
				c0.941,3.055,2.042,5.99,3.305,8.756c4.22,0.54,8.594,0.837,13.082,0.837c20.587,0,38.83-6.034,50.207-15.34
				c-8.125,11.802-29.666,20.259-54.992,20.259c-1.814,0-3.613-0.044-5.391-0.135c5.652,9.751,13.367,16.814,22.147,19.749
				c24.86-6.056,43.335-28.396,43.499-55.08C365.533,125.045,344.813,134.061,320.164,135.027L320.164,135.027z"/>
			<path fill-rule="evenodd" clip-rule="evenodd" fill="#FFFFFF" d="M324.947,134.73c-5.643,3.812-11.828,6.618-18.273,8.383
				c-0.615-0.066-1.231-0.135-1.838-0.212c-1.263-2.767-2.363-5.702-3.305-8.756c5.874,0.817,12.135,1.142,18.633,0.883
				C321.775,134.966,323.369,134.859,324.947,134.73L324.947,134.73z"/>
			<path fill-rule="evenodd" clip-rule="evenodd" fill="#FFFFFF" d="M322.86,134.881c-5.638,3.571-11.783,6.152-18.163,7.703
				c-1.203-2.676-2.258-5.498-3.166-8.44c5.874,0.817,12.135,1.142,18.633,0.883C321.066,134.994,321.968,134.942,322.86,134.881
				L322.86,134.881z"/>
			<path fill-rule="evenodd" clip-rule="evenodd" fill="#FFFFFF" d="M320.72,135c-5.153,3.042-10.697,5.269-16.434,6.646
				c-1.035-2.395-1.954-4.903-2.756-7.501c5.874,0.817,12.135,1.142,18.633,0.883C320.349,135.022,320.535,135.011,320.72,135
				L320.72,135z"/>
			<path fill-rule="evenodd" clip-rule="evenodd" fill="#FFFFFF" d="M318.531,135.077c-4.637,2.532-9.562,4.416-14.643,5.629
				c-0.873-2.114-1.659-4.3-2.357-6.562C306.908,134.893,312.615,135.225,318.531,135.077L318.531,135.077z"/>
			<path fill-rule="evenodd" clip-rule="evenodd" fill="#FFFFFF" d="M316.294,135.107c-4.082,2.057-8.378,3.615-12.787,4.655
				c-0.723-1.822-1.38-3.694-1.977-5.618C306.229,134.796,311.177,135.135,316.294,135.107L316.294,135.107z"/>
			<path fill-rule="evenodd" clip-rule="evenodd" fill="#FFFFFF" d="M313.99,135.096c-3.495,1.603-7.131,2.85-10.851,3.722
				c-0.575-1.525-1.116-3.077-1.608-4.674C305.521,134.697,309.691,135.022,313.99,135.096L313.99,135.096z"/>
			<path fill-rule="evenodd" clip-rule="evenodd" fill="#FFFFFF" d="M311.614,135.027c-2.868,1.192-5.817,2.137-8.825,2.835
				c-0.445-1.216-0.866-2.452-1.258-3.718C304.781,134.595,308.15,134.893,311.614,135.027L311.614,135.027z"/>
			<path fill-rule="evenodd" clip-rule="evenodd" fill="#FFFFFF" d="M309.167,134.903c-2.199,0.81-4.445,1.479-6.72,2.002
				c-0.317-0.906-0.628-1.828-0.917-2.761C304.011,134.488,306.564,134.741,309.167,134.903L309.167,134.903z"/>
			<path fill-rule="evenodd" clip-rule="evenodd" fill="#FFFFFF" d="M306.623,134.713c-1.484,0.477-2.985,0.887-4.501,1.236
				c-0.199-0.595-0.401-1.198-0.591-1.806C303.199,134.375,304.9,134.562,306.623,134.713L306.623,134.713z"/>
			<path fill-rule="evenodd" clip-rule="evenodd" fill="#FFFFFF" d="M303.974,134.449c-0.72,0.196-1.441,0.377-2.17,0.545
				c-0.09-0.287-0.184-0.562-0.273-0.85C302.337,134.257,303.157,134.353,303.974,134.449L303.974,134.449z"/>
		</g>
		<g>
			<path fill-rule="evenodd" clip-rule="evenodd" fill="#FFFFFF" d="M281.083,136.439c-0.838-2.794-1.55-5.731-2.109-8.779
				c-6.067-2.918-10.875-6.562-13.957-10.729c3.81,2.902,8.34,5.426,13.417,7.479c-0.641-4.404-0.992-9.021-0.992-13.767
				c0-22.762,7.869-42.387,19.222-51.414c-21.834,8.014-37.411,28.988-37.411,53.596c0,2.254,0.132,4.476,0.388,6.657
				C263.994,126.312,271.503,132.181,281.083,136.439L281.083,136.439z"/>
			<path fill-rule="evenodd" clip-rule="evenodd" fill="#FFFFFF" d="M281.083,136.439c-0.838-2.794-1.55-5.731-2.109-8.779
				c-6.067-2.918-10.875-6.562-13.957-10.729c3.81,2.902,8.34,5.426,13.417,7.479c-0.641-4.404-0.992-9.021-0.992-13.767
				c0-22.762,7.869-42.387,19.222-51.414c-21.834,8.014-37.411,28.988-37.411,53.596c0,2.254,0.132,4.476,0.388,6.657
				C263.994,126.312,271.503,132.181,281.083,136.439L281.083,136.439z"/>
			<path fill-rule="evenodd" clip-rule="evenodd" fill="#FFFFFF" d="M281.083,136.439c-0.838-2.794-1.55-5.731-2.109-8.779
				c-6.067-2.918-10.875-6.562-13.957-10.729c3.81,2.902,8.34,5.426,13.417,7.479c-0.641-4.404-0.992-9.021-0.992-13.767
				c0-22.762,7.869-42.387,19.222-51.414c-21.834,8.014-37.411,28.988-37.411,53.596c0,2.254,0.132,4.476,0.388,6.657
				C263.994,126.312,271.503,132.181,281.083,136.439L281.083,136.439z"/>
			<path fill-rule="evenodd" clip-rule="evenodd" fill="#FFFFFF" d="M281.083,136.439c-0.838-2.794-1.55-5.731-2.109-8.779
				c-6.067-2.918-10.875-6.562-13.957-10.729c3.81,2.902,8.34,5.426,13.417,7.479c-0.641-4.404-0.992-9.021-0.992-13.767
				c0-22.762,7.869-42.387,19.222-51.414c-21.834,8.014-37.411,28.988-37.411,53.596c0,2.254,0.132,4.476,0.388,6.657
				C263.994,126.312,271.503,132.181,281.083,136.439L281.083,136.439z"/>
			<path fill-rule="evenodd" clip-rule="evenodd" fill="#FFFFFF" d="M281.083,136.439c-0.838-2.794-1.55-5.731-2.109-8.779
				c-6.067-2.918-10.875-6.562-13.957-10.729c3.81,2.902,8.34,5.426,13.417,7.479c-0.641-4.404-0.992-9.021-0.992-13.767
				c0-22.762,7.869-42.387,19.222-51.414c-21.834,8.014-37.411,28.988-37.411,53.596c0,2.254,0.132,4.476,0.388,6.657
				C263.994,126.312,271.503,132.181,281.083,136.439L281.083,136.439z"/>
			<path fill-rule="evenodd" clip-rule="evenodd" fill="#FFFFFF" d="M281.083,136.439c-0.838-2.794-1.55-5.731-2.109-8.779
				c-6.067-2.918-10.875-6.562-13.957-10.729c3.81,2.902,8.34,5.426,13.417,7.479c-0.641-4.404-0.992-9.021-0.992-13.767
				c0-22.762,7.869-42.387,19.222-51.414c-21.834,8.014-37.411,28.988-37.411,53.596c0,2.254,0.132,4.476,0.388,6.657
				C263.994,126.312,271.503,132.181,281.083,136.439L281.083,136.439z"/>
			<path fill-rule="evenodd" clip-rule="evenodd" fill="#FFFFFF" d="M281.083,136.439c-0.838-2.794-1.55-5.731-2.109-8.779
				c-6.067-2.918-10.875-6.562-13.957-10.729c3.81,2.902,8.34,5.426,13.417,7.479c-0.641-4.404-0.992-9.021-0.992-13.767
				c0-22.762,7.869-42.387,19.222-51.414c-21.834,8.014-37.411,28.988-37.411,53.596c0,2.254,0.132,4.476,0.388,6.657
				C263.994,126.312,271.503,132.181,281.083,136.439L281.083,136.439z"/>
			<path fill-rule="evenodd" clip-rule="evenodd" fill="#FFFFFF" d="M281.083,136.439c-0.838-2.794-1.55-5.731-2.109-8.779
				c-6.067-2.918-10.875-6.562-13.957-10.729c3.81,2.902,8.34,5.426,13.417,7.479c-0.641-4.404-0.992-9.021-0.992-13.767
				c0-22.762,7.869-42.387,19.222-51.414c-21.834,8.014-37.411,28.988-37.411,53.596c0,2.254,0.132,4.476,0.388,6.657
				C263.994,126.312,271.503,132.181,281.083,136.439L281.083,136.439z"/>
			<path fill-rule="evenodd" clip-rule="evenodd" fill="#FFFFFF" d="M281.083,136.439c-0.838-2.794-1.55-5.731-2.109-8.779
				c-6.067-2.918-10.875-6.562-13.957-10.729c3.81,2.902,8.34,5.426,13.417,7.479c-0.641-4.404-0.992-9.021-0.992-13.767
				c0-22.762,7.869-42.387,19.222-51.414c-21.834,8.014-37.411,28.988-37.411,53.596c0,2.254,0.132,4.476,0.388,6.657
				C263.994,126.312,271.503,132.181,281.083,136.439L281.083,136.439z"/>
			<path fill-rule="evenodd" clip-rule="evenodd" fill="#FFFFFF" d="M281.083,136.439c-0.838-2.794-1.55-5.731-2.109-8.779
				c-6.067-2.918-10.875-6.562-13.957-10.729c3.81,2.902,8.34,5.426,13.417,7.479c-0.641-4.404-0.992-9.021-0.992-13.767
				c0-22.762,7.869-42.387,19.222-51.414c-21.834,8.014-37.411,28.988-37.411,53.596c0,2.254,0.132,4.476,0.388,6.657
				C263.994,126.312,271.503,132.181,281.083,136.439L281.083,136.439z"/>
			<path fill-rule="evenodd" clip-rule="evenodd" fill="#FFFFFF" d="M280.827,135.545c-0.936-0.163-1.875-0.344-2.807-0.562
				c-8.117-4.094-14.502-9.42-18.379-15.499c-0.256-2.181-0.388-4.402-0.388-6.657c0-24.608,15.576-45.583,37.411-53.596
				c-11.353,9.026-19.222,28.652-19.222,51.414c0,4.746,0.351,9.362,0.992,13.767c-5.078-2.053-9.607-4.578-13.417-7.479
				c3.082,4.166,7.89,7.811,13.957,10.729C279.474,130.389,280.101,133.021,280.827,135.545L280.827,135.545z"/>
			<path fill-rule="evenodd" clip-rule="evenodd" fill="#FFFFFF" d="M280.531,134.488c-2.1-0.383-4.183-0.9-6.244-1.547
				c-6.35-3.761-11.385-8.339-14.646-13.457c-0.256-2.181-0.388-4.402-0.388-6.657c0-24.608,15.576-45.583,37.411-53.596
				c-11.353,9.026-19.222,28.652-19.222,51.414c0,4.746,0.351,9.362,0.992,13.767c-5.078-2.053-9.607-4.578-13.417-7.479
				c3.082,4.166,7.89,7.811,13.957,10.729C279.403,130.012,279.932,132.289,280.531,134.488L280.531,134.488z"/>
			<path fill-rule="evenodd" clip-rule="evenodd" fill="#FFFFFF" d="M280.25,133.425c-3.253-0.625-6.469-1.563-9.601-2.84
				c-4.648-3.26-8.399-7.006-11.008-11.1c-0.256-2.181-0.388-4.402-0.388-6.657c0-24.608,15.576-45.583,37.411-53.596
				c-11.353,9.026-19.222,28.652-19.222,51.414c0,4.746,0.351,9.362,0.992,13.767c-5.078-2.053-9.607-4.578-13.417-7.479
				c3.082,4.166,7.89,7.811,13.957,10.729C279.336,129.634,279.77,131.559,280.25,133.425L280.25,133.425z"/>
			<path fill-rule="evenodd" clip-rule="evenodd" fill="#FFFFFF" d="M279.98,132.368c-4.363-0.872-8.651-2.334-12.753-4.41
				c-3.084-2.596-5.652-5.437-7.586-8.474c-0.256-2.181-0.388-4.402-0.388-6.657c0-24.608,15.576-45.583,37.411-53.596
				c-11.353,9.026-19.222,28.652-19.222,51.414c0,4.746,0.351,9.362,0.992,13.767c-5.078-2.053-9.607-4.578-13.417-7.479
				c3.082,4.166,7.89,7.811,13.957,10.729C279.269,129.263,279.606,130.832,279.98,132.368L279.98,132.368z"/>
			<path fill-rule="evenodd" clip-rule="evenodd" fill="#FFFFFF" d="M279.729,131.305c-5.375-1.12-10.627-3.16-15.533-6.152
				c-1.763-1.798-3.295-3.689-4.555-5.668c-0.256-2.181-0.388-4.402-0.388-6.657c0-24.608,15.576-45.583,37.411-53.596
				c-11.353,9.026-19.222,28.652-19.222,51.414c0,4.746,0.351,9.362,0.992,13.767c-5.078-2.053-9.607-4.578-13.417-7.479
				c3.082,4.166,7.89,7.811,13.957,10.729C279.201,128.899,279.457,130.107,279.729,131.305L279.729,131.305z"/>
			<path fill-rule="evenodd" clip-rule="evenodd" fill="#FFFFFF" d="M279.497,130.243c-6.231-1.349-12.29-3.964-17.8-7.896
				c-0.745-0.933-1.434-1.883-2.055-2.863c-0.256-2.181-0.388-4.402-0.388-6.657c0-24.608,15.576-45.583,37.411-53.596
				c-11.353,9.026-19.222,28.652-19.222,51.414c0,4.746,0.351,9.362,0.992,13.767c-5.078-2.053-9.607-4.578-13.417-7.479
				c3.082,4.166,7.89,7.811,13.957,10.729C279.134,128.533,279.311,129.393,279.497,130.243L279.497,130.243z"/>
			<path fill-rule="evenodd" clip-rule="evenodd" fill="#FFFFFF" d="M279.274,129.186c-6.081-1.379-11.993-3.976-17.358-7.873
				c-0.75-0.545-1.479-1.113-2.188-1.693c-0.027-0.039-0.059-0.089-0.087-0.135c-0.256-2.181-0.388-4.402-0.388-6.657
				c0-24.608,15.576-45.583,37.411-53.596c-11.353,9.026-19.222,28.652-19.222,51.414c0,4.746,0.351,9.362,0.992,13.767
				c-5.078-2.053-9.607-4.578-13.417-7.479c3.082,4.166,7.89,7.811,13.957,10.729C279.069,128.173,279.17,128.679,279.274,129.186
				L279.274,129.186z"/>
			<path fill-rule="evenodd" clip-rule="evenodd" fill="#FFFFFF" d="M279.066,128.123c-5.823-1.368-11.477-3.886-16.623-7.62
				c-1.017-0.743-1.996-1.519-2.938-2.323c-0.164-1.765-0.253-3.543-0.253-5.352c0-24.608,15.576-45.583,37.411-53.596
				c-11.353,9.026-19.222,28.652-19.222,51.414c0,4.746,0.351,9.362,0.992,13.767c-5.078-2.053-9.607-4.578-13.417-7.479
				c3.082,4.166,7.89,7.811,13.957,10.729C279.001,127.818,279.039,127.971,279.066,128.123L279.066,128.123z"/>
			<path fill-rule="evenodd" clip-rule="evenodd" fill="#FFFFFF" d="M276.579,126.43c-4.752-1.428-9.36-3.661-13.606-6.742
				c-1.251-0.911-2.443-1.88-3.576-2.885c-0.09-1.316-0.143-2.637-0.143-3.975c0-24.608,15.576-45.583,37.411-53.596
				c-11.353,9.026-19.222,28.652-19.222,51.414c0,4.746,0.351,9.362,0.992,13.767c-5.078-2.053-9.607-4.578-13.417-7.479
				C267.683,120.531,271.639,123.741,276.579,126.43L276.579,126.43z"/>
			<path fill-rule="evenodd" clip-rule="evenodd" fill="#FFFFFF" d="M272.487,123.922c-3.115-1.305-6.135-2.976-8.986-5.049
				c-1.484-1.075-2.873-2.232-4.186-3.448c-0.037-0.865-0.062-1.726-0.062-2.597c0-24.608,15.576-45.583,37.411-53.596
				c-11.353,9.026-19.222,28.652-19.222,51.414c0,4.746,0.351,9.362,0.992,13.767c-5.078-2.053-9.607-4.578-13.417-7.479
				C266.898,119.474,269.428,121.819,272.487,123.922L272.487,123.922z"/>
			<path fill-rule="evenodd" clip-rule="evenodd" fill="#FFFFFF" d="M268.897,121.122c-1.662-0.906-3.292-1.918-4.867-3.061
				c-1.707-1.236-3.29-2.585-4.76-4.009c-0.008-0.41-0.017-0.815-0.017-1.225c0-24.608,15.576-45.583,37.411-53.596
				c-11.353,9.026-19.222,28.652-19.222,51.414c0,4.746,0.351,9.362,0.992,13.767c-5.078-2.053-9.607-4.578-13.417-7.479
				C266.103,118.394,267.406,119.795,268.897,121.122L268.897,121.122z"/>
			<path fill-rule="evenodd" clip-rule="evenodd" fill="#FFFFFF" d="M278.361,123.865c-1.466-0.399-2.917-0.876-4.344-1.438
				c-3.313-1.626-6.334-3.465-9-5.495c0.355,0.477,0.736,0.95,1.136,1.412c-0.537-0.355-1.071-0.715-1.594-1.098
				c-1.923-1.394-3.686-2.924-5.302-4.56c0.059-24.552,15.619-45.458,37.408-53.456c-11.353,9.026-19.222,28.652-19.222,51.414
				C277.442,115.201,277.765,119.625,278.361,123.865L278.361,123.865z"/>
			<path fill-rule="evenodd" clip-rule="evenodd" fill="#FFFFFF" d="M278.217,122.802c-4.593-1.292-9.042-3.4-13.13-6.37
				c-2.128-1.547-4.062-3.262-5.809-5.106c0.619-23.959,15.998-44.243,37.386-52.094c-11.353,9.026-19.222,28.652-19.222,51.414
				C277.442,114.818,277.714,118.89,278.217,122.802L278.217,122.802z"/>
			<path fill-rule="evenodd" clip-rule="evenodd" fill="#FFFFFF" d="M278.087,121.739c-4.36-1.275-8.583-3.295-12.472-6.117
				c-2.33-1.693-4.428-3.593-6.286-5.646c1.149-23.37,16.35-43.045,37.335-50.745c-11.353,9.026-19.222,28.652-19.222,51.414
				C277.442,114.441,277.669,118.152,278.087,121.739L278.087,121.739z"/>
			<path fill-rule="evenodd" clip-rule="evenodd" fill="#FFFFFF" d="M277.97,120.677c-4.133-1.248-8.137-3.194-11.829-5.87
				c-2.53-1.839-4.771-3.92-6.728-6.191c1.659-22.769,16.673-41.831,37.251-49.384c-11.353,9.026-19.222,28.652-19.222,51.414
				C277.442,114.069,277.626,117.422,277.97,120.677L277.97,120.677z"/>
			<path fill-rule="evenodd" clip-rule="evenodd" fill="#FFFFFF" d="M277.866,119.614c-3.911-1.22-7.698-3.081-11.196-5.622
				c-2.719-1.974-5.1-4.241-7.144-6.714c2.139-22.179,16.965-40.646,37.138-48.046c-11.353,9.026-19.222,28.652-19.222,51.414
				C277.442,113.698,277.593,116.69,277.866,119.614L277.866,119.614z"/>
			<path fill-rule="evenodd" clip-rule="evenodd" fill="#FFFFFF" d="M277.771,118.546c-3.689-1.192-7.263-2.968-10.572-5.371
				c-2.904-2.108-5.415-4.559-7.526-7.254c2.601-21.569,17.232-39.441,36.992-46.689c-11.353,9.026-19.222,28.652-19.222,51.414
				C277.442,113.327,277.556,115.966,277.771,118.546L277.771,118.546z"/>
			<path fill-rule="evenodd" clip-rule="evenodd" fill="#FFFFFF" d="M277.688,117.489c-3.475-1.159-6.837-2.857-9.961-5.123
				c-3.084-2.238-5.713-4.87-7.878-7.771c3.031-20.975,17.463-38.26,36.815-45.363c-11.353,9.026-19.222,28.652-19.222,51.414
				C277.442,112.962,277.528,115.245,277.688,117.489L277.688,117.489z"/>
			<path fill-rule="evenodd" clip-rule="evenodd" fill="#FFFFFF" d="M277.621,116.426c-3.264-1.125-6.424-2.739-9.366-4.875
				c-3.258-2.362-5.994-5.184-8.195-8.3c3.438-20.367,17.666-37.068,36.604-44.019c-11.353,9.026-19.222,28.652-19.222,51.414
				C277.442,112.597,277.509,114.526,277.621,116.426L277.621,116.426z"/>
			<path fill-rule="evenodd" clip-rule="evenodd" fill="#FFFFFF" d="M277.564,115.363c-3.059-1.09-6.022-2.621-8.783-4.628
				c-3.427-2.486-6.259-5.483-8.482-8.806c3.824-19.771,17.839-35.898,36.365-42.698c-11.353,9.026-19.222,28.652-19.222,51.414
				C277.442,112.236,277.489,113.805,277.564,115.363L277.564,115.363z"/>
			<path fill-rule="evenodd" clip-rule="evenodd" fill="#FFFFFF" d="M277.515,114.3c-2.857-1.051-5.621-2.502-8.205-4.375
				c-3.587-2.604-6.508-5.781-8.738-9.318c4.181-19.163,17.979-34.728,36.092-41.376c-11.353,9.026-19.222,28.652-19.222,51.414
				C277.442,111.877,277.469,113.092,277.515,114.3L277.515,114.3z"/>
			<path fill-rule="evenodd" clip-rule="evenodd" fill="#FFFFFF" d="M277.48,113.238c-2.66-1.013-5.235-2.378-7.645-4.127
				c-3.745-2.722-6.742-6.086-8.96-9.83c4.516-18.557,18.096-33.561,35.789-40.049c-11.353,9.026-19.222,28.652-19.222,51.414
				C277.442,111.517,277.458,112.376,277.48,113.238L277.48,113.238z"/>
			<path fill-rule="evenodd" clip-rule="evenodd" fill="#FFFFFF" d="M277.461,112.181c-2.465-0.968-4.853-2.255-7.097-3.887
				c-3.897-2.828-6.958-6.381-9.148-10.334c4.825-17.944,18.177-32.391,35.448-38.728c-11.353,9.026-19.222,28.652-19.222,51.414
				C277.442,111.163,277.453,111.669,277.461,112.181L277.461,112.181z"/>
			<path fill-rule="evenodd" clip-rule="evenodd" fill="#FFFFFF" d="M277.444,111.118c-2.272-0.928-4.476-2.131-6.552-3.639
				c-4.042-2.935-7.163-6.674-9.309-10.83c5.115-17.335,18.234-31.237,35.081-37.417c-11.353,9.026-19.222,28.652-19.222,51.414
				C277.442,110.802,277.444,110.954,277.444,111.118L277.444,111.118z"/>
			<path fill-rule="evenodd" clip-rule="evenodd" fill="#FFFFFF" d="M277.447,110.061c-2.086-0.878-4.114-2.001-6.026-3.392
				c-4.189-3.042-7.354-6.967-9.436-11.331c5.379-16.724,18.256-30.084,34.678-36.107C285.409,68.178,277.582,87.55,277.447,110.061
				L277.447,110.061z"/>
			<path fill-rule="evenodd" clip-rule="evenodd" fill="#FFFFFF" d="M277.458,108.998c-1.904-0.828-3.756-1.874-5.509-3.144
				c-4.329-3.138-7.523-7.265-9.52-11.837c5.617-16.104,18.248-28.919,34.234-34.786C285.586,68.038,277.829,86.937,277.458,108.998
				L277.458,108.998z"/>
			<path fill-rule="evenodd" clip-rule="evenodd" fill="#FFFFFF" d="M277.483,107.941c-1.732-0.776-3.407-1.739-5.005-2.896
				c-4.461-3.24-7.681-7.559-9.576-12.333c5.834-15.491,18.208-27.772,33.762-33.481C285.764,67.897,278.077,86.336,277.483,107.941
				L277.483,107.941z"/>
			<path fill-rule="evenodd" clip-rule="evenodd" fill="#FFFFFF" d="M277.518,106.878c-1.555-0.727-3.068-1.604-4.51-2.648
				c-4.594-3.336-7.827-7.851-9.593-12.828c6.027-14.874,18.137-26.626,33.25-32.17C285.944,67.751,278.333,85.734,277.518,106.878
				L277.518,106.878z"/>
			<path fill-rule="evenodd" clip-rule="evenodd" fill="#FFFFFF" d="M277.564,105.821c-1.386-0.671-2.738-1.469-4.029-2.408
				c-4.723-3.43-7.956-8.146-9.571-13.321c6.194-14.255,18.034-25.479,32.699-30.86C286.124,67.611,278.588,85.133,277.564,105.821
				L277.564,105.821z"/>
			<path fill-rule="evenodd" clip-rule="evenodd" fill="#FFFFFF" d="M277.624,104.759c-1.222-0.614-2.417-1.329-3.562-2.155
				c-4.85-3.526-8.063-8.457-9.5-13.828c6.34-13.625,17.894-24.331,32.103-29.544C286.301,67.465,278.85,84.536,277.624,104.759
				L277.624,104.759z"/>
			<path fill-rule="evenodd" clip-rule="evenodd" fill="#FFFFFF" d="M277.694,103.694c-1.065-0.551-2.105-1.179-3.104-1.911
				c-4.976-3.609-8.164-8.773-9.39-14.34c6.424-12.922,17.598-23.061,31.243-28.127c0.028,0.006,0.059,0.017,0.087,0.028
				C286.419,67.476,279.103,84.03,277.694,103.694L277.694,103.694z"/>
			<path fill-rule="evenodd" clip-rule="evenodd" fill="#FFFFFF" d="M277.776,102.637c-0.911-0.488-1.8-1.046-2.658-1.663
				c-5.103-3.706-8.249-9.109-9.233-14.868c6.279-11.832,16.6-21.195,29.123-26.238c0.219,0.063,0.441,0.124,0.661,0.192
				C286.185,68.269,279.319,83.997,277.776,102.637L277.776,102.637z"/>
			<path fill-rule="evenodd" clip-rule="evenodd" fill="#FFFFFF" d="M277.872,101.574c-0.759-0.427-1.504-0.893-2.225-1.416
				c-5.235-3.796-8.319-9.459-9.013-15.414c6.076-10.736,15.528-19.306,26.913-24.264c0.433,0.094,0.866,0.201,1.293,0.32
				C285.966,69.034,279.536,83.941,277.872,101.574L277.872,101.574z"/>
			<path fill-rule="evenodd" clip-rule="evenodd" fill="#FFFFFF" d="M277.976,100.517c-0.613-0.358-1.212-0.747-1.8-1.17
				c-5.37-3.901-8.378-9.845-8.732-15.992c5.812-9.622,14.387-17.393,24.624-22.206c0.665,0.107,1.321,0.248,1.974,0.416
				C285.755,69.758,279.735,83.878,277.976,100.517L277.976,100.517z"/>
			<path fill-rule="evenodd" clip-rule="evenodd" fill="#FFFFFF" d="M278.097,99.449c-0.473-0.286-0.937-0.584-1.393-0.917
				c-5.516-4.003-8.417-10.268-8.366-16.605c5.474-8.485,13.138-15.43,22.194-20.03c0.919,0.085,1.833,0.242,2.742,0.457
				C285.562,70.461,279.935,83.79,278.097,99.449L278.097,99.449z"/>
			<path fill-rule="evenodd" clip-rule="evenodd" fill="#FFFFFF" d="M278.223,98.386c-0.334-0.207-0.664-0.433-0.99-0.669
				c-5.679-4.122-8.449-10.756-7.903-17.275c5.049-7.315,11.761-13.399,19.591-17.69c1.208,0.017,2.415,0.151,3.609,0.399
				C285.37,71.132,280.124,83.688,278.223,98.386L278.223,98.386z"/>
			<path fill-rule="evenodd" clip-rule="evenodd" fill="#FFFFFF" d="M278.367,97.324c-0.202-0.135-0.408-0.27-0.605-0.416
				c-5.873-4.262-8.471-11.359-7.295-18.056c4.509-6.079,10.201-11.229,16.732-15.116c1.535-0.111,3.089-0.039,4.62,0.237
				C285.193,71.777,280.309,83.575,278.367,97.324L278.367,97.324z"/>
			<path fill-rule="evenodd" clip-rule="evenodd" fill="#FFFFFF" d="M278.526,96.261c-0.079-0.055-0.163-0.113-0.242-0.168
				c-6.115-4.443-8.485-12.124-6.47-18.99c3.81-4.741,8.362-8.862,13.479-12.181c1.915-0.358,3.883-0.405,5.825-0.105
				C285.022,72.401,280.492,83.451,278.526,96.261L278.526,96.261z"/>
			<path fill-rule="evenodd" clip-rule="evenodd" fill="#FFFFFF" d="M278.696,95.187c-6.394-4.729-8.376-13.236-5.098-20.193
				c2.809-3.171,5.969-6.028,9.411-8.509c2.378-0.837,4.932-1.118,7.445-0.815C284.858,73.004,280.667,83.3,278.696,95.187
				L278.696,95.187z"/>
			<path fill-rule="evenodd" clip-rule="evenodd" fill="#FFFFFF" d="M278.88,94.108c-6.514-5.106-7.869-14.486-2.969-21.239
				c0.546-0.749,1.153-1.44,1.8-2.064c0.225-0.209,0.45-0.416,0.677-0.619c3.197-2.731,7.333-3.998,11.41-3.637
				C284.698,73.583,280.84,83.143,278.88,94.108L278.88,94.108z"/>
			<path fill-rule="evenodd" clip-rule="evenodd" fill="#FFFFFF" d="M279.084,93.034c-5.798-4.848-6.935-13.423-2.43-19.625
				c2.997-4.129,7.768-6.213,12.508-5.966C284.543,74.15,281.012,82.967,279.084,93.034L279.084,93.034z"/>
			<path fill-rule="evenodd" clip-rule="evenodd" fill="#FFFFFF" d="M279.3,91.947c-5.091-4.57-6.011-12.342-1.903-18.004
				c2.688-3.7,6.903-5.646,11.153-5.585C284.392,74.689,281.178,82.782,279.3,91.947L279.3,91.947z"/>
			<path fill-rule="evenodd" clip-rule="evenodd" fill="#FFFFFF" d="M279.533,90.84c-4.396-4.286-5.103-11.246-1.395-16.364
				c2.382-3.273,6.054-5.073,9.81-5.178C284.249,75.22,281.341,82.574,279.533,90.84L279.533,90.84z"/>
			<path fill-rule="evenodd" clip-rule="evenodd" fill="#FFFFFF" d="M279.783,89.728c-3.711-3.982-4.214-10.145-0.903-14.711
				c2.076-2.863,5.216-4.499,8.48-4.757C284.103,75.735,281.504,82.35,279.783,89.728L279.783,89.728z"/>
			<path fill-rule="evenodd" clip-rule="evenodd" fill="#FFFFFF" d="M280.056,88.591c-3.039-3.65-3.345-9.019-0.43-13.04
				c1.769-2.44,4.386-3.909,7.152-4.292C283.956,76.242,281.665,82.108,280.056,88.591L280.056,88.591z"/>
			<path fill-rule="evenodd" clip-rule="evenodd" fill="#FFFFFF" d="M280.36,87.416c-2.381-3.295-2.508-7.868,0.008-11.331
				c1.467-2.023,3.573-3.312,5.84-3.785C283.815,76.743,281.83,81.838,280.36,87.416L280.36,87.416z"/>
			<path fill-rule="evenodd" clip-rule="evenodd" fill="#FFFFFF" d="M280.692,86.196c-1.737-2.896-1.69-6.665,0.418-9.577
				c1.159-1.591,2.764-2.682,4.516-3.216C283.661,77.249,281.997,81.544,280.692,86.196L280.692,86.196z"/>
			<path fill-rule="evenodd" clip-rule="evenodd" fill="#FFFFFF" d="M281.071,84.886c-1.108-2.447-0.908-5.398,0.785-7.727
				c0.84-1.165,1.951-2.024,3.174-2.553C283.503,77.761,282.173,81.208,281.071,84.886L281.071,84.886z"/>
			<path fill-rule="evenodd" clip-rule="evenodd" fill="#FFFFFF" d="M281.535,83.389c-0.498-1.895-0.177-3.987,1.063-5.696
				c0.497-0.686,1.105-1.258,1.777-1.698C283.321,78.323,282.37,80.797,281.535,83.389L281.535,83.389z"/>
			<path fill-rule="evenodd" clip-rule="evenodd" fill="#FFFFFF" d="M282.246,81.287c0.062-1.07,0.417-2.127,1.091-3.055
				c0.056-0.078,0.113-0.152,0.172-0.224C283.067,79.077,282.646,80.167,282.246,81.287L282.246,81.287z"/>
		</g>
		<path fill-rule="evenodd" clip-rule="evenodd" fill="#FFFFFF" d="M267.106,63.792l-1.529-1.445l0.75-0.782
			c0.014,0.421-0.011,0.804-0.093,1.136c0.726-0.085,1.184-0.102,1.381-0.079c0.205,0.011,0.413,0.033,0.562,0.068L267.106,63.792
			L267.106,63.792z M264.482,68.853l0.942-1.024l4.288-4.441l1.051-1.024l-1.214-1.153l-0.79,0.883
			c-0.032-0.394-0.042-0.743-0.067-1.079l-0.542,0.011l-0.763,0.039c-0.135,0.011-0.312,0-0.545-0.017l0.857-0.798l-1.262-1.187
			l-0.676,0.754l-1.354,1.405l-1.125-1.052l1.439-1.479l1.004-0.944l-1.26-1.192l-1,1.091l-4.083,4.229l-0.968,0.933L259.658,64
			l0.911-1.016l1.414-1.462l1.103,1.051l-1.119,1.176l-0.973,0.955l1.24,1.159l0.917-0.996l1.119-1.17l1.529,1.451l-1.524,1.569
			l-1.003,0.983L264.482,68.853L264.482,68.853z M256.118,63.859l7.609,7.204l1.29,1.282l1.324-1.39l-0.171-0.141l6.638-6.871
			l0.242,0.226l1.361-1.407l-1.361-1.208l-7.681-7.271l-1.201-1.198l-1.034,1.163l-7.142,7.372l-1.127,1.109L256.118,63.859
			L256.118,63.859z M257.468,62.562l6.635-6.86l7.499,7.095l-6.639,6.86L257.468,62.562L257.468,62.562z"/>
		<path fill-rule="evenodd" clip-rule="evenodd" fill="#FFFFFF" d="M282.092,53.615c0.751-1.092,1.305-2.015,1.65-2.728
			c-0.087-0.091-0.194-0.168-0.295-0.231c-0.531,0.855-1.021,1.597-1.485,2.227c-0.445,0.641-1.164,1.462-2.165,2.441
			c-0.197-0.17-0.385-0.305-0.554-0.418c-0.18-0.135-0.537-0.331-1.06-0.612c0.518-0.388,0.947-0.731,1.293-1.068
			c0.357-0.344,0.757-0.798,1.226-1.362c0.439-0.584,0.866-1.203,1.235-1.844l-0.22-0.05c-0.564,0.613-0.99,1.074-1.304,1.36
			c-0.301,0.305-0.824,0.754-1.527,1.401c-0.177-0.157-0.354-0.303-0.503-0.405c-0.167-0.118-0.54-0.338-1.15-0.663
			c0.433-0.275,0.996-0.686,1.715-1.203c0.726-0.512,1.525-1.384,2.402-2.599l-2.063,1.068l-1.189,0.658l-0.779-1.479l1.225-0.597
			l5.846-3.013l1.338-0.727l0.771,1.49l-1.358,0.664l-2.066,1.068c0.253,0.035,0.515,0.079,0.799,0.113
			c-0.362,0.528-0.704,1.062-1.032,1.563c0.593,0.079,0.973,0.163,1.128,0.248l0.464,0.231c0.703-1.293,1.099-2.076,1.192-2.351
			l0.362-1.002c0.22,0.102,0.425,0.165,0.612,0.226c0.178,0.057,0.665,0.135,1.448,0.236c-0.433,0.754-0.798,1.412-1.113,1.991
			c0.228,0.242,0.593,0.584,1.09,1.013c0.501,0.427,1.173,0.735,2.025,0.922c0.866,0.201,1.712,0.253,2.556,0.168
			c-0.104,0.383-0.183,0.686-0.226,0.928c-0.057,0.242-0.106,0.652-0.157,1.22c-1.203-0.083-2.135-0.224-2.792-0.471
			c-0.669-0.236-1.239-0.523-1.754-0.855c-0.506-0.355-1.062-0.821-1.685-1.44l-0.368,0.545c0.165,0.225,0.312,0.434,0.424,0.619
			c0.129,0.192,0.334,0.556,0.642,1.107c0.294,0.558,0.489,1.029,0.602,1.395c0.104,0.399,0.098,0.826-0.059,1.261
			c-0.146,0.427-0.779,0.939-1.878,1.523c-0.447-0.54-0.751-0.859-0.906-0.978l-0.593-0.462c0.792-0.264,1.254-0.495,1.361-0.725
			c0.12-0.203,0.125-0.473,0.005-0.748c-0.102-0.298-0.202-0.534-0.292-0.691l-0.073-0.174c-0.337,0.606-0.773,1.292-1.313,2.085
			c-0.556,0.776-1.049,1.412-1.487,1.855l-1.482,1.643c-0.439-0.333-0.748-0.557-0.973-0.664l-0.758-0.394
			C280.25,55.824,281.333,54.711,282.092,53.615L282.092,53.615z M275.642,50.039l-0.348-0.765l-0.815-1.52l-0.541-0.972
			l1.592-0.759l3.765-1.935c-0.275-0.1-0.647-0.207-1.116-0.309c0.157-0.185,0.315-0.355,0.424-0.518
			c0.115-0.151,0.34-0.506,0.684-1.057c0.896,0.203,1.557,0.366,1.993,0.49c-0.102,0.174-0.172,0.336-0.231,0.484l4.041-2.081
			l1.441-0.798l0.493,1.016l0.807,1.525l0.447,0.765l-1.788,0.911l-0.382-0.782l-0.523-1.007l-9.067,4.696l0.489,0.961l0.434,0.732
			L275.642,50.039L275.642,50.039z"/>
		<path fill-rule="evenodd" clip-rule="evenodd" fill="#FFFFFF" d="M299.917,38.843l2.978-0.467l0.295,1.805l-2.985,0.46
			L299.917,38.843L299.917,38.843z M297.938,38.719l0.945,5.982l0.2,1.619l1.977-0.309l-0.048-0.236l2.991-0.46l0.354,2.271
			c0.054,0.338,0.133,0.619,0.238,0.843c0.124,0.187,0.329,0.355,0.652,0.479c0.332,0.129,0.787,0.157,1.398,0.05
			c0.602-0.088,1.387-0.19,2.353-0.325c1.007-0.124,1.755-0.236,2.235-0.327c0.487-0.105,0.836-0.224,1.052-0.353
			c0.233-0.135,0.425-0.333,0.591-0.591c0.169-0.259,0.334-0.944,0.48-2.051c-0.576-0.113-1.252-0.305-2.021-0.619l-0.006,0.63
			c0.012,0.404-0.073,0.702-0.25,0.889c-0.175,0.196-0.413,0.32-0.723,0.399c-0.31,0.088-0.832,0.168-1.577,0.264l-1.718,0.224
			c-0.366,0.046-0.609,0.022-0.717-0.066c-0.11-0.113-0.163-0.226-0.189-0.366l-0.262-1.641l3.397-0.536l0.05,0.3l1.963-0.3
			l-0.287-1.528l-0.959-6.13l-0.174-1.376l-1.266,0.242l-4.094,0.636l-0.141-0.878l-0.156-1.231l-1.982,0.303l0.244,1.225
			l0.121,0.878l-3.455,0.54l-1.497,0.179L297.938,38.719L297.938,38.719z M300.462,42.306l2.973-0.462l0.289,1.767l-2.978,0.46
			L300.462,42.306L300.462,42.306z M304.802,38.083l3.395-0.528l0.284,1.8l-3.398,0.528L304.802,38.083L304.802,38.083z
			 M305.343,41.547l3.408-0.529l0.271,1.761l-3.397,0.54L305.343,41.547L305.343,41.547z"/>
		<path fill-rule="evenodd" clip-rule="evenodd" fill="#FFFFFF" d="M324.215,38.967l0.298,0.617
			c0.079,0.157,0.346,0.765,0.781,1.806c-0.303,0.603-0.609,1.068-0.891,1.371c-0.278,0.322-0.625,0.642-1.041,0.974L324.215,38.967
			L324.215,38.967z M322.658,47.925l0.334-2.059l0.338-1.895c0.33,0.46,0.551,0.799,0.646,0.983
			c0.099,0.198,0.209,0.383,0.299,0.573c0.703-0.663,1.139-1.112,1.326-1.343c0.186-0.218,0.354-0.427,0.47-0.601l0.132,0.455
			c0.031,0.079,0.051,0.297,0.088,0.669l0.422-0.281c0.258-0.163,0.699-0.36,1.338-0.584c-0.25-0.806-0.512-1.569-0.799-2.312
			l0.262-0.501c0.09-0.179,0.265-0.567,0.515-1.187c0.399,0.686,0.644,1.125,0.733,1.321c0.076,0.17,0.242,0.597,0.445,1.244
			l-0.357,0.612c-0.247,0.445-0.562,0.85-0.934,1.266c-0.368,0.405-0.869,0.81-1.484,1.22c0.47,0.372,0.785,0.647,0.928,0.81
			c0.146,0.17,0.295,0.344,0.464,0.534c0.343-0.24,0.638-0.488,0.849-0.719c0.22-0.225,0.697-0.754,1.4-1.585l0.25,0.922
			c0.037,0.077,0.085,0.366,0.172,0.837c0.633-0.443,1.207-0.815,1.707-1.079l-0.181-0.557c-0.014-0.039-0.298-0.776-0.812-2.171
			l0.394-0.928c0.139-0.353,0.318-0.826,0.531-1.41l0.311-0.906c0.024-0.096,0.075-0.259,0.156-0.467
			c-0.632-0.146-1.254-0.348-1.898-0.595l-0.084,0.494c-0.053,0.264-0.196,0.771-0.441,1.53c-0.211-0.427-0.394-0.81-0.566-1.143
			l-0.389,0.242c-0.23,0.146-0.602,0.287-1.131,0.405l0.321-0.782c0.005-0.022,0.042-0.14,0.124-0.394
			c0.095-0.229,0.16-0.438,0.225-0.595c-0.748-0.192-1.361-0.421-1.855-0.674l-0.135,0.636c-0.057,0.264-0.121,0.504-0.2,0.741
			c-0.07,0.22-0.161,0.473-0.272,0.727c-0.226-0.49-0.436-0.917-0.6-1.327c-0.467,0.259-0.781,0.421-0.95,0.466
			c-0.165,0.052-0.321,0.096-0.478,0.135l0.377-2.147l8.861,1.542l-1.61,9.159c-0.045,0.185-0.099,0.303-0.186,0.399
			c-0.097,0.102-0.329,0.107-0.726,0.028c-0.326-0.067-0.669-0.152-1.032-0.275l0.149,0.534c0.143,0.517,0.188,0.905,0.183,1.153
			c-0.009,0.27-0.033,0.46-0.033,0.614c1.007,0.113,1.754,0.118,2.229,0.044c0.471-0.085,0.776-0.242,0.9-0.501
			c0.126-0.281,0.214-0.584,0.275-0.895l1.737-9.867l0.377-1.885l-1.883-0.27l-9.029-1.575l-1.906-0.388l-0.295,1.902l-1.656,9.311
			l-0.396,2.031L322.658,47.925L322.658,47.925z"/>
		<path fill-rule="evenodd" clip-rule="evenodd" fill="#FFFFFF" d="M344.411,47.3c-0.135-0.85-0.27-1.445-0.37-1.743l-0.199-0.495
			c0.686,0.083,1.475,0.005,2.373-0.226c0.885-0.226,1.734-0.534,2.541-0.906c0.812-0.394,1.516-0.832,2.122-1.36l0.38-0.327
			c0.391,0.663,0.836,1.244,1.321,1.755c-1.012,0.59-1.858,1.09-2.559,1.468c-0.702,0.394-1.591,0.759-2.677,1.09
			C346.261,46.884,345.271,47.132,344.411,47.3L344.411,47.3z M344.183,50.628c0.321-0.061,0.745-0.185,1.287-0.372
			c0.539-0.201,1.092-0.427,1.663-0.68c0.581-0.27,1.152-0.595,1.731-0.994c0.582-0.382,0.941-0.658,1.1-0.782l0.309-0.294
			c0.366,0.732,0.776,1.412,1.232,2.07c-0.321,0.152-0.549,0.259-0.695,0.333l-1.266,0.606c-0.604,0.281-1.211,0.534-1.807,0.776
			c-0.604,0.231-1.33,0.473-2.211,0.732c1.806,0.904,3.597,1.765,5.363,2.631c-0.08-0.855-0.145-1.401-0.204-1.654l-0.205-1.013
			c0.827,0.096,1.366,0.113,1.617,0.074l0.425-0.057c0.334,2.356,0.57,4.286,0.736,5.764c-1.128,0.157-1.692,0.237-1.721,0.248
			l-0.591,0.135c0.022-0.231,0.04-0.449,0.046-0.642c0.019-0.179-0.004-0.534-0.037-1.057c-0.905-0.416-2.193-0.994-3.9-1.731
			c-1.691-0.73-2.738-1.165-3.131-1.327c-0.392-0.151-0.857-0.292-1.397-0.427c0.179-0.782,0.238-1.333,0.228-1.676l-0.025-0.551
			C343.375,50.73,343.875,50.678,344.183,50.628L344.183,50.628z M354.326,43.622c0.528,0.405,1.144,0.765,1.838,1.096
			c-0.135,0.192-0.219,0.354-0.312,0.528c-0.09,0.157-0.172,0.36-0.261,0.608c-0.091,0.265-0.183,0.73-0.275,1.423
			c-0.102,0.674-0.04,1.327,0.157,1.911c0.199,0.603,0.383,1.041,0.557,1.35c0.154,0.31,0.322,0.558,0.452,0.754
			c0.152,0.203,0.45,0.523,0.914,0.961c-0.205,0.068-0.413,0.159-0.604,0.27c-0.188,0.09-0.669,0.412-1.445,0.933
			c-0.557-0.758-1.02-1.534-1.341-2.343c-0.32-0.81-0.521-1.536-0.591-2.222c-0.075-0.664-0.07-1.299,0-1.918
			c0.082-0.601,0.163-1.107,0.265-1.489C353.785,45.112,354,44.487,354.326,43.622L354.326,43.622z"/>
		<path fill-rule="evenodd" clip-rule="evenodd" fill="#FFFFFF" d="M363.8,63.185l1.561-1.445l2.885,3.031l-1.559,1.456
			L363.8,63.185L363.8,63.185z M372.345,62.438l-4.59-4.864l-1.189-1.327l-1.359,1.248l1.268,1.266l4.6,4.875l1.305,1.462
			l1.371-1.266L372.345,62.438L372.345,62.438z M369.351,57.095l6.192,6.557l-7.104,6.585c-0.223,0.201-0.385,0.297-0.506,0.314
			c-0.124,0.006-0.292-0.107-0.523-0.336c-0.092-0.068-0.227-0.225-0.398-0.429c-0.184-0.218-0.357-0.421-0.518-0.595l-0.242,0.573
			c-0.141,0.316-0.278,0.58-0.447,0.787c-0.157,0.209-0.312,0.405-0.446,0.562c0.931,0.878,1.597,1.384,2.036,1.536
			c0.415,0.163,0.717,0.214,0.899,0.141c0.171-0.05,0.44-0.253,0.79-0.579l7.905-7.294l1.249-1.068l-1.258-1.264l-6.32-6.698
			l-1.381-1.53l-1.386,1.266L369.351,57.095L369.351,57.095z M364.354,60.143l-2.014,1.855l-1.173,0.996l1.131,1.107l3.275,3.458
			l1.137,1.294l1.079-1.085l2.007-1.861l1.098-0.911l-1.229-1.214l-3.269-3.477l-1.038-1.173L364.354,60.143L364.354,60.143z"/>
		<path fill-rule="evenodd" clip-rule="evenodd" fill="#FFFFFF" d="M254.85,86.325l0.431,0.433l-0.425,0.854l-3.379-0.686
			l0.082-1.112c0.835,0,1.555-0.152,2.179-0.457c0.622-0.314,1.065-0.747,1.33-1.281c0.2-0.411,0.261-0.788,0.194-1.125
			c-0.079-0.342-0.267-0.595-0.567-0.73c-0.526-0.248-1.361,0.286-2.478,1.619c-0.163,0.185-0.289,0.325-0.382,0.411
			c-0.823,0.961-1.56,1.519-2.221,1.715c-0.658,0.19-1.383,0.107-2.205-0.281c-1.06-0.523-1.771-1.261-2.117-2.183
			c-0.348-0.956-0.27-1.934,0.242-2.968c0.219-0.457,0.492-0.85,0.826-1.203c0.315-0.36,0.708-0.675,1.13-0.944l-0.564-0.462
			l0.408-0.82l4.271,0.73l-0.107,1.238c-1.1-0.028-2.015,0.124-2.8,0.477c-0.782,0.35-1.333,0.834-1.642,1.497
			c-0.234,0.455-0.288,0.911-0.183,1.333c0.11,0.449,0.34,0.747,0.698,0.922c0.526,0.242,1.304-0.187,2.317-1.316
			c0.126-0.163,0.23-0.264,0.297-0.349c0.506-0.551,0.928-0.967,1.243-1.288c0.324-0.314,0.602-0.505,0.79-0.606
			c0.405-0.192,0.86-0.305,1.33-0.287c0.469,0.011,0.933,0.124,1.406,0.348c0.928,0.445,1.541,1.109,1.85,2.007
			c0.297,0.9,0.23,1.816-0.22,2.739c-0.197,0.382-0.435,0.726-0.717,1.018C255.581,85.863,255.238,86.111,254.85,86.325
			L254.85,86.325z"/>
		<path fill-rule="evenodd" clip-rule="evenodd" fill="#FFFFFF" d="M254.08,89.665l-2.553,7.845l-3.624,0.05l-0.102-1.041
			c0.939-0.118,1.639-0.325,2.114-0.636c0.478-0.297,0.801-0.771,1.001-1.371l0.045-0.157l-5.96-1.891
			c-0.827-0.264-1.383-0.336-1.666-0.264c-0.281,0.074-0.494,0.338-0.652,0.771l-1.315-0.41l1.529-4.741l1.322,0.421
			c-0.138,0.451-0.11,0.771,0.062,1.007c0.174,0.231,0.683,0.471,1.53,0.743l5.957,1.895l0.042-0.146
			c0.203-0.63,0.203-1.198,0.006-1.709c-0.205-0.523-0.642-1.096-1.344-1.715l0.691-0.782L254.08,89.665L254.08,89.665z"/>
		<path fill-rule="evenodd" clip-rule="evenodd" fill="#FFFFFF" d="M245.209,101.838l0.365-1.99l2.972,1.654L245.209,101.838
			L245.209,101.838z M243.958,97.122c-0.042-0.019-0.104-0.057-0.177-0.107c-0.947-0.545-1.406-1.187-1.389-1.901l-1.364-0.253
			l-0.778,4.101l1.324,0.251c0.093-0.416,0.208-0.68,0.352-0.826c0.151-0.129,0.379-0.174,0.655-0.113
			c0.033,0,0.082,0.017,0.141,0.041c0.051,0.022,0.102,0.033,0.18,0.056l1.431,0.697l-0.576,3.014l-1.623,0.22
			c-0.073,0.022-0.143,0.022-0.222,0.022c-0.079-0.011-0.174-0.011-0.27-0.033c-0.223-0.033-0.377-0.135-0.442-0.298
			c-0.079-0.164-0.082-0.429-0.011-0.771l0.014-0.118l-1.322-0.248l-0.917,4.773l1.364,0.253c0.188-0.551,0.748-0.906,1.678-1.035
			l0.076-0.011l8.666-1.22l0.438-2.244L243.958,97.122L243.958,97.122z"/>
		<path fill-rule="evenodd" clip-rule="evenodd" fill="#FFFFFF" d="M250.301,106.76l-0.366,8.243l-3.486,0.985l-0.374-0.985
			c0.877-0.36,1.499-0.736,1.858-1.135c0.371-0.435,0.584-0.963,0.602-1.604l0.005-0.163l-6.236-0.275
			c-0.892-0.044-1.454,0.017-1.701,0.174c-0.234,0.159-0.374,0.451-0.416,0.922l-1.378-0.072l0.233-4.96l1.372,0.052
			c-0.005,0.466,0.104,0.788,0.334,0.95c0.216,0.185,0.785,0.292,1.662,0.325l6.239,0.288l0.02-0.159
			c0.04-0.647-0.129-1.203-0.441-1.647c-0.338-0.451-0.922-0.872-1.755-1.31l0.464-0.928L250.301,106.76L250.301,106.76z"/>
		<path fill-rule="evenodd" clip-rule="evenodd" fill="#FFFFFF" d="M250.09,116.211l1.009,8.217l-3.188,1.737l-0.661-0.85
			c0.793-0.623,1.366-1.275,1.715-1.961c0.346-0.676,0.478-1.406,0.388-2.144c-0.064-0.432-0.188-0.713-0.369-0.848
			c-0.194-0.129-0.587-0.163-1.187-0.09l-1.594,0.181l0.062,0.493c0.062,0.501,0.216,0.839,0.453,0.974
			c0.25,0.157,0.739,0.212,1.448,0.157l0.129,1.051l-5.036,0.595l-0.124-1.035c0.652-0.157,1.113-0.353,1.38-0.606
			c0.27-0.236,0.369-0.567,0.321-0.961l-0.051-0.496l-2.604,0.32c-0.599,0.068-0.973,0.204-1.116,0.377
			c-0.166,0.174-0.213,0.479-0.166,0.922c0.104,0.754,0.467,1.457,1.1,2.114c0.627,0.669,1.448,1.208,2.477,1.613l-0.469,1.035
			l-4.001-1.046l-1.041-8.424l1.383-0.157c0.062,0.457,0.231,0.737,0.464,0.873c0.253,0.124,0.824,0.129,1.731,0.017l4.26-0.512
			c0.917-0.107,1.451-0.242,1.672-0.427c0.211-0.192,0.288-0.506,0.245-0.95L250.09,116.211L250.09,116.211z"/>
		<path fill-rule="evenodd" clip-rule="evenodd" fill="#FFFFFF" d="M254.054,136.597l0.515,0.033l0.343,0.883l-3.22,2.221
			l-0.871-0.9c0.768-0.804,1.282-1.519,1.526-2.142c0.245-0.608,0.259-1.208,0.03-1.783c-0.289-0.725-0.84-1.148-1.684-1.277
			c-0.849-0.116-1.92,0.063-3.216,0.569c-1.273,0.477-2.153,1.046-2.679,1.682c-0.518,0.628-0.638,1.315-0.346,2.035
			c0.22,0.589,0.568,0.989,1.029,1.192c0.453,0.231,0.958,0.237,1.499,0.011c0.379-0.146,0.624-0.342,0.726-0.579
			c0.106-0.242,0.065-0.569-0.07-0.991l1.22-0.471l1.679,4.312l-1.215,0.473c-0.259-0.394-0.517-0.608-0.779-0.675
			c-0.25-0.068-0.661,0.011-1.22,0.236l-2.775,1.063l-0.552-1.373l0.717-0.713c-0.505-0.281-0.911-0.63-1.243-0.991
			c-0.323-0.383-0.593-0.837-0.807-1.382c-0.506-1.283-0.388-2.514,0.315-3.678c0.728-1.153,1.923-2.059,3.61-2.723
			c1.568-0.595,3.025-0.646,4.383-0.135c1.35,0.501,2.292,1.451,2.84,2.824c0.121,0.342,0.216,0.708,0.261,1.063
			C254.105,135.759,254.105,136.164,254.054,136.597L254.054,136.597z"/>
		<path fill-rule="evenodd" clip-rule="evenodd" fill="#FFFFFF" d="M255.098,144.131c0.518-0.275,0.888-0.394,1.111-0.344
			c0.233,0.063,0.458,0.305,0.688,0.721c0.343,0.579,0.45,1.131,0.385,1.625c-0.087,0.479-0.366,0.839-0.835,1.104
			c-0.52,0.281-1.009,0.281-1.504,0.022c-0.472-0.275-0.953-0.839-1.395-1.654c-0.076-0.129-0.14-0.224-0.168-0.298
			c-0.034-0.08-0.07-0.14-0.093-0.209L255.098,144.131L255.098,144.131z M254.479,140.123c0.217,0.433,0.267,0.763,0.147,1.017
			c-0.135,0.264-0.585,0.603-1.364,1.035l-3.799,2.042c-0.773,0.41-1.308,0.606-1.603,0.579c-0.281-0.028-0.537-0.259-0.793-0.675
			l-1.206,0.669l2.423,4.397l1.215-0.652c-0.225-0.427-0.264-0.769-0.14-1.022c0.132-0.27,0.587-0.603,1.366-1.007l1.246-0.675
			l0.479,0.878l-2.722,5.094l1.555,2.818l1.187-0.647c-0.149-0.333-0.203-0.647-0.194-0.95c0-0.283,0.098-0.608,0.289-0.996
			l1.485-3.099c0.604,0.569,1.208,0.9,1.816,1.007c0.608,0.09,1.246-0.033,1.915-0.388c0.9-0.501,1.404-1.148,1.507-2.007
			c0.113-0.815-0.154-1.844-0.821-3.059l-2.775-5.021L254.479,140.123L254.479,140.123z"/>
		<path fill-rule="evenodd" clip-rule="evenodd" fill="#FFFFFF" d="M261.001,149.007l2.995,4.104l-1.108,0.815
			c-0.307-0.388-0.604-0.573-0.897-0.573c-0.289-0.011-0.798,0.253-1.5,0.765l-3.507,2.497c-0.708,0.506-1.119,0.9-1.209,1.181
			c-0.089,0.275-0.008,0.617,0.27,1.022l-1.122,0.793l-3.011-4.11l1.131-0.798c0.303,0.383,0.593,0.575,0.888,0.575
			c0.289,0,0.81-0.264,1.513-0.759l3.5-2.514c0.711-0.512,1.113-0.906,1.2-1.181c0.093-0.27,0.018-0.608-0.267-1.018
			L261.001,149.007L261.001,149.007z"/>
		<path fill-rule="evenodd" clip-rule="evenodd" fill="#FFFFFF" d="M264.871,158.358c0.501-0.388,0.847-0.573,1.052-0.562
			c0.216,0.022,0.45,0.185,0.733,0.529c0.607,0.747,0.79,1.563,0.571,2.461c-0.239,0.883-0.866,1.756-1.904,2.577
			c-1.006,0.815-1.996,1.236-2.933,1.277c-0.934,0.033-1.698-0.333-2.314-1.076c-0.262-0.331-0.394-0.601-0.365-0.815
			c0.025-0.202,0.281-0.499,0.764-0.882L264.871,158.358L264.871,158.358z M263.611,154.573c0.27,0.355,0.371,0.652,0.294,0.906
			c-0.089,0.281-0.48,0.691-1.195,1.26l-3.339,2.687c-0.726,0.557-1.224,0.843-1.488,0.867c-0.275,0.027-0.565-0.129-0.855-0.479
			l-1.084,0.861l3.095,3.824c1.198,1.438,2.463,2.255,3.849,2.423c1.372,0.174,2.767-0.303,4.172-1.428
			c1.412-1.143,2.179-2.379,2.3-3.75c0.118-1.346-0.405-2.761-1.586-4.223l-3.09-3.791L263.611,154.573L263.611,154.573z"/>
		<path fill-rule="evenodd" clip-rule="evenodd" fill="#FFFFFF" d="M280.346,169.279l0.548-0.434l0.639,0.479l-1.44,4.044
			l-1.071-0.344c0.272-0.972,0.326-1.855,0.182-2.654c-0.155-0.771-0.461-1.36-0.975-1.759c-0.687-0.501-1.457-0.591-2.311-0.275
			c-0.87,0.309-1.716,1-2.505,2.046c-0.818,1.052-1.234,2.031-1.291,2.954c-0.042,0.903,0.301,1.646,1.015,2.181
			c0.487,0.377,1.122,0.579,1.89,0.579c0.765,0.024,1.532-0.146,2.303-0.505l0.636,1.203c-1.153,0.595-2.222,0.906-3.248,0.854
			c-1.006-0.044-1.966-0.394-2.856-1.074c-1.282-0.961-1.988-2.17-2.103-3.604c-0.121-1.434,0.348-2.863,1.439-4.269
			c1.032-1.333,2.252-2.137,3.697-2.401c1.448-0.275,2.758,0.052,3.958,0.95c0.315,0.242,0.602,0.528,0.847,0.861
			C279.938,168.435,280.149,168.833,280.346,169.279L280.346,169.279z"/>
		<path fill-rule="evenodd" clip-rule="evenodd" fill="#FFFFFF" d="M288.224,175.357c0.087,0.895-0.166,1.963-0.767,3.227
			c-0.593,1.244-1.277,2.12-2.024,2.621c-0.749,0.49-1.513,0.575-2.257,0.22c-0.768-0.355-1.187-0.985-1.271-1.867
			c-0.082-0.895,0.177-1.968,0.773-3.229c0.607-1.253,1.291-2.125,2.033-2.632c0.748-0.488,1.516-0.562,2.274-0.218
			C287.724,173.838,288.14,174.463,288.224,175.357L288.224,175.357z M283.31,171.994c-1.361,0.54-2.427,1.591-3.168,3.149
			c-0.754,1.569-0.9,3.053-0.453,4.438c0.446,1.388,1.395,2.423,2.859,3.127c1.467,0.675,2.885,0.769,4.257,0.218
			c1.386-0.54,2.435-1.591,3.191-3.149c0.748-1.569,0.908-3.047,0.45-4.43c-0.442-1.395-1.403-2.436-2.882-3.121
			C286.101,171.534,284.684,171.465,283.31,171.994L283.31,171.994z"/>
		<path fill-rule="evenodd" clip-rule="evenodd" fill="#FFFFFF" d="M295.587,178.529c0.163-0.556,0.357-0.906,0.557-1.013
			c0.2-0.118,0.528-0.113,0.979,0.022c0.652,0.192,1.147,0.49,1.42,0.884c0.287,0.41,0.363,0.855,0.205,1.373
			c-0.169,0.562-0.512,0.904-1.043,1.057c-0.537,0.151-1.251,0.078-2.173-0.198c-0.151-0.056-0.259-0.066-0.337-0.096
			c-0.081-0.028-0.143-0.05-0.194-0.072L295.587,178.529L295.587,178.529z M292.304,176.093c0.447,0.17,0.736,0.388,0.82,0.646
			c0.091,0.265,0.009,0.828-0.252,1.671l-1.234,4.094c-0.256,0.837-0.498,1.349-0.723,1.514c-0.216,0.163-0.571,0.218-1.038,0.088
			l-0.399,1.321l4.862,1.435l0.399-1.316c-0.458-0.141-0.736-0.36-0.833-0.625c-0.087-0.281,0-0.837,0.248-1.668l0.411-1.338
			l0.964,0.292l1.69,5.517l3.095,0.906l0.393-1.271c-0.324-0.146-0.609-0.309-0.809-0.518c-0.2-0.226-0.374-0.534-0.506-0.939
			l-1.156-3.24c0.85-0.017,1.508-0.19,2.021-0.545c0.5-0.35,0.869-0.883,1.082-1.614c0.287-0.966,0.172-1.794-0.34-2.463
			c-0.514-0.68-1.447-1.208-2.764-1.608l-5.547-1.63L292.304,176.093L292.304,176.093z"/>
		<path fill-rule="evenodd" clip-rule="evenodd" fill="#FFFFFF" d="M306.836,181.081c0.067-0.573,0.188-0.939,0.338-1.096
			c0.146-0.168,0.407-0.226,0.79-0.168c0.578,0.067,1.015,0.298,1.281,0.669c0.284,0.353,0.408,0.837,0.318,1.41
			c-0.07,0.636-0.332,1.098-0.762,1.374c-0.422,0.275-1.023,0.366-1.789,0.27c-0.109-0.022-0.207-0.022-0.286-0.039
			c-0.067-0.011-0.126-0.024-0.199-0.035L306.836,181.081L306.836,181.081z M303.274,179.214c0.434,0.063,0.729,0.231,0.86,0.473
			c0.113,0.237,0.133,0.815,0.01,1.726l-0.538,4.229c-0.12,0.9-0.262,1.428-0.446,1.641c-0.194,0.198-0.501,0.281-0.945,0.236
			l-0.172,1.36l4.876,0.608l0.165-1.354c-0.447-0.08-0.725-0.226-0.852-0.484c-0.121-0.253-0.138-0.804-0.027-1.688l0.154-1.135
			l1.729,0.218c1.227,0.153,2.193,0.011,2.883-0.449c0.68-0.438,1.076-1.197,1.229-2.254c0.135-1.085-0.082-1.952-0.66-2.604
			c-0.588-0.653-1.514-1.041-2.787-1.198l-5.309-0.669L303.274,179.214L303.274,179.214z"/>
		<path fill-rule="evenodd" clip-rule="evenodd" fill="#FFFFFF" d="M319.933,181.273c0.492,0.765,0.781,1.828,0.818,3.221
			c0.064,1.379-0.129,2.458-0.573,3.246c-0.429,0.792-1.065,1.197-1.89,1.225c-0.838,0.028-1.508-0.325-2.004-1.085
			c-0.484-0.743-0.76-1.811-0.811-3.199c-0.053-1.384,0.144-2.485,0.576-3.268c0.434-0.782,1.07-1.192,1.903-1.232
			C318.789,180.159,319.439,180.52,319.933,181.273L319.933,181.273z M314.011,180.542c-0.963,1.114-1.408,2.514-1.349,4.245
			c0.064,1.733,0.618,3.122,1.673,4.151c1.055,1.024,2.361,1.501,4.012,1.445c1.605-0.052,2.891-0.636,3.863-1.743
			c0.973-1.098,1.423-2.514,1.366-4.247c-0.067-1.732-0.624-3.12-1.679-4.144c-1.037-1.029-2.389-1.512-4.006-1.462
			C316.281,178.873,314.976,179.435,314.011,180.542L314.011,180.542z"/>
		<path fill-rule="evenodd" clip-rule="evenodd" fill="#FFFFFF" d="M327.457,180.817c-0.084-0.567-0.066-0.956,0.057-1.165
			c0.141-0.173,0.434-0.319,0.908-0.386c0.67-0.113,1.23-0.057,1.656,0.168c0.447,0.253,0.703,0.625,0.795,1.153
			c0.094,0.567-0.066,1.039-0.472,1.404c-0.425,0.36-1.089,0.614-2.036,0.76c-0.156,0.022-0.277,0.055-0.34,0.061
			c-0.078,0.005-0.16,0.019-0.22,0.029L327.457,180.817L327.457,180.817z M323.437,180.082c0.48-0.08,0.832,0.005,1.018,0.207
			c0.208,0.198,0.389,0.732,0.525,1.603l0.709,4.212c0.137,0.883,0.157,1.44,0.018,1.682c-0.113,0.265-0.412,0.438-0.893,0.529
			l0.234,1.344l4.986-0.799l-0.227-1.349c-0.475,0.068-0.807-0.017-1.014-0.214c-0.21-0.196-0.373-0.741-0.508-1.619l-0.236-1.372
			l0.998-0.165l3.953,4.247l3.194-0.534l-0.208-1.321c-0.38,0.028-0.695-0.011-0.971-0.129c-0.27-0.102-0.564-0.299-0.854-0.619
			l-2.48-2.406c0.754-0.366,1.273-0.828,1.566-1.351c0.295-0.551,0.382-1.173,0.27-1.933c-0.175-0.991-0.65-1.67-1.402-2.064
			c-0.764-0.382-1.826-0.449-3.212-0.225l-5.692,0.922L323.437,180.082L323.437,180.082z"/>
		<path fill-rule="evenodd" clip-rule="evenodd" fill="#FFFFFF" d="M341.032,180.288l-1.903,0.738l-0.154-3.369L341.032,180.288
			L341.032,180.288z M337.652,183.831c0,0.039,0,0.118,0,0.209c0.02,1.079-0.284,1.815-0.905,2.175l0.509,1.266l3.922-1.503
			l-0.486-1.236c-0.393,0.124-0.689,0.174-0.886,0.129c-0.2-0.061-0.346-0.22-0.446-0.484c-0.018-0.034-0.034-0.094-0.045-0.141
			c-0.018-0.061-0.031-0.113-0.037-0.174l-0.154-1.591l2.888-1.096l1.046,1.242c0.047,0.044,0.082,0.113,0.135,0.179
			c0.045,0.08,0.07,0.154,0.115,0.248c0.076,0.214,0.062,0.388-0.033,0.528c-0.102,0.141-0.318,0.281-0.639,0.405l-0.124,0.052
			l0.492,1.248l4.565-1.749l-0.491-1.288c-0.571,0.146-1.17-0.141-1.774-0.865l-0.053-0.052l-5.632-6.646l-2.146,0.82
			L337.652,183.831L337.652,183.831z"/>
		<path fill-rule="evenodd" clip-rule="evenodd" fill="#FFFFFF" d="M342.941,173.659l7.363-3.83l2.629,2.453l-0.667,0.832
			c-0.739-0.586-1.389-0.917-1.942-1.018c-0.545-0.102-1.116-0.011-1.693,0.297l-0.148,0.068l2.934,5.471
			c0.404,0.765,0.742,1.221,1.006,1.356c0.245,0.135,0.594,0.1,1.015-0.107l0.652,1.214l-4.456,2.312l-0.639-1.198
			c0.414-0.231,0.633-0.49,0.667-0.765c0.036-0.286-0.144-0.81-0.568-1.58l-2.915-5.489l-0.144,0.068
			c-0.593,0.32-0.989,0.713-1.203,1.225c-0.231,0.506-0.315,1.231-0.262,2.17l-1.046,0.068L342.941,173.659L342.941,173.659z"/>
		<path fill-rule="evenodd" clip-rule="evenodd" fill="#FFFFFF" d="M351.539,169.042l4.223-2.885l0.785,1.125
			c-0.4,0.292-0.594,0.579-0.602,0.865c0,0.292,0.252,0.798,0.73,1.519l2.463,3.513c0.489,0.715,0.869,1.125,1.164,1.228
			c0.264,0.088,0.619,0.022,1.023-0.248l0.787,1.135l-4.229,2.879l-0.771-1.118c0.392-0.292,0.583-0.591,0.599-0.877
			c0-0.298-0.238-0.804-0.744-1.523l-2.443-3.521c-0.506-0.708-0.892-1.12-1.164-1.22c-0.281-0.09-0.627-0.005-1.038,0.246
			L351.539,169.042L351.539,169.042z"/>
		<path fill-rule="evenodd" clip-rule="evenodd" fill="#FFFFFF" d="M363.23,163.385c0.844,0.338,1.684,1.079,2.527,2.183
			c0.832,1.107,1.293,2.114,1.383,3.001c0.092,0.9-0.199,1.58-0.852,2.086c-0.675,0.49-1.432,0.556-2.264,0.209
			c-0.835-0.338-1.667-1.052-2.514-2.183c-0.84-1.107-1.302-2.104-1.4-2.996c-0.09-0.895,0.199-1.58,0.869-2.092
			C361.641,163.11,362.392,163.036,363.23,163.385L363.23,163.385z M357.935,166.113c-0.158,1.445,0.289,2.85,1.324,4.245
			c1.045,1.395,2.299,2.216,3.75,2.475c1.451,0.27,2.818-0.085,4.137-1.046c1.293-0.955,2.02-2.166,2.192-3.627
			c0.161-1.435-0.28-2.861-1.335-4.246c-1.035-1.382-2.289-2.221-3.74-2.469c-1.447-0.259-2.827,0.079-4.123,1.041
			C358.83,163.454,358.107,164.662,357.935,166.113L357.935,166.113z"/>
		<path fill-rule="evenodd" clip-rule="evenodd" fill="#FFFFFF" d="M378.31,142.928c0.922-0.096,2.006,0.151,3.273,0.754
			c1.268,0.584,2.156,1.248,2.648,1.979c0.523,0.758,0.588,1.5,0.229,2.244c-0.369,0.752-0.987,1.175-1.882,1.264
			c-0.901,0.08-1.993-0.163-3.253-0.765c-1.271-0.584-2.162-1.259-2.663-2.007c-0.517-0.747-0.578-1.484-0.225-2.238
			C376.79,143.429,377.419,143.002,378.31,142.928L378.31,142.928z M374.945,147.792c0.538,1.338,1.601,2.401,3.191,3.133
			c1.575,0.747,3.064,0.893,4.462,0.443c1.409-0.443,2.472-1.401,3.16-2.846c0.684-1.457,0.765-2.861,0.206-4.207
			c-0.528-1.371-1.592-2.423-3.17-3.171c-1.594-0.735-3.089-0.881-4.486-0.432c-1.403,0.451-2.447,1.417-3.138,2.857
			C374.478,145.02,374.397,146.443,374.945,147.792L374.945,147.792z"/>
		<path fill-rule="evenodd" clip-rule="evenodd" fill="#FFFFFF" d="M377.762,138.43l2.756-7.928l3.52-0.338l0.178,1.007
			c-0.911,0.231-1.661,0.578-2.247,1.051c-0.579,0.472-0.994,1.063-1.248,1.788c-0.16,0.473-0.18,0.828-0.081,1.04
			c0.106,0.226,0.45,0.435,1.012,0.619l1.468,0.507l0.154-0.435c0.178-0.551,0.2-0.966,0.048-1.231
			c-0.154-0.281-0.567-0.545-1.206-0.792l0.318-0.884l4.926,1.676l-0.32,0.895c-0.642-0.14-1.133-0.14-1.51-0.017
			c-0.363,0.129-0.631,0.421-0.782,0.854l-0.154,0.44l1.766,0.601c0.841,0.281,1.397,0.388,1.667,0.303
			c0.281-0.083,0.515-0.353,0.684-0.809l1.315,0.457l-1.673,4.818l-1.312-0.443c0.129-0.479,0.129-0.815-0.037-1.057
			c-0.16-0.231-0.666-0.49-1.505-0.788l-4.097-1.377c-0.826-0.293-1.368-0.412-1.639-0.31c-0.268,0.085-0.514,0.344-0.708,0.787
			L377.762,138.43L377.762,138.43z"/>
		<path fill-rule="evenodd" clip-rule="evenodd" fill="#FFFFFF" d="M383.255,118.479l-0.66-0.277l0.102-0.769l4.269-0.76
			l0.219,1.096c-0.989,0.242-1.78,0.63-2.409,1.153c-0.627,0.512-0.976,1.09-1.055,1.715c-0.117,0.826,0.186,1.53,0.892,2.12
			c0.703,0.589,1.718,0.978,3.028,1.153c1.34,0.174,2.4,0.05,3.238-0.344c0.827-0.416,1.294-1.057,1.415-1.957
			c0.087-0.612-0.06-1.242-0.434-1.917c-0.368-0.658-0.895-1.25-1.594-1.732l0.756-1.136c1.1,0.691,1.884,1.484,2.345,2.367
			c0.479,0.9,0.639,1.895,0.479,3.003c-0.2,1.569-0.922,2.761-2.123,3.587c-1.213,0.804-2.683,1.096-4.457,0.854
			c-1.681-0.218-3.005-0.887-3.95-1.99c-0.941-1.107-1.315-2.406-1.116-3.885c0.045-0.399,0.161-0.771,0.341-1.137
			C382.71,119.248,382.942,118.854,383.255,118.479L383.255,118.479z"/>
		<path fill-rule="evenodd" clip-rule="evenodd" fill="#FFFFFF" d="M382.654,116.352l-0.21-4.964l1.329-0.039
			c0.037,0.455,0.176,0.763,0.434,0.92c0.248,0.148,0.82,0.208,1.704,0.181l1.125-0.052l-0.155-3.789l-1.131,0.044
			c-0.898,0.039-1.465,0.141-1.688,0.327c-0.239,0.168-0.35,0.482-0.35,0.939l-1.321,0.072l-0.208-4.977l1.378-0.056
			c0.043,0.468,0.172,0.776,0.404,0.922c0.242,0.151,0.811,0.22,1.721,0.174l4.297-0.18c0.896-0.033,1.45-0.135,1.689-0.309
			c0.211-0.175,0.332-0.484,0.323-0.957l1.372-0.05l0.214,4.966l-1.324,0.044c-0.031-0.449-0.154-0.754-0.416-0.917
			c-0.245-0.163-0.818-0.208-1.706-0.168l-1.879,0.066l0.16,3.785l1.875-0.074c0.9-0.039,1.465-0.146,1.69-0.314
			c0.229-0.163,0.343-0.479,0.323-0.944l1.336-0.058l0.219,4.955l-1.383,0.056c-0.039-0.455-0.183-0.758-0.416-0.917
			c-0.234-0.157-0.811-0.201-1.693-0.179l-4.307,0.179c-0.893,0.035-1.448,0.137-1.686,0.311c-0.235,0.179-0.346,0.501-0.346,0.95
			L382.654,116.352L382.654,116.352z"/>
		<path fill-rule="evenodd" clip-rule="evenodd" fill="#FFFFFF" d="M382.149,104.459c0,0-0.231-1.046-0.503-2.726
			c-0.268-1.682-0.414-2.273-0.414-2.273l1.363-0.235c0.115,0.471,0.299,0.763,0.562,0.898c0.265,0.124,0.833,0.102,1.693-0.05
			l4.262-0.76c0.844-0.146,1.378-0.325,1.586-0.54c0.205-0.207,0.272-0.557,0.217-1.035l1.352-0.236l0.912,4.982l-1.364,0.242
			c-0.099-0.471-0.298-0.765-0.554-0.889c-0.272-0.135-0.841-0.111-1.699,0.041l-4.242,0.757c-0.88,0.154-1.412,0.338-1.613,0.547
			c-0.205,0.201-0.271,0.551-0.205,1.033L382.149,104.459L382.149,104.459z"/>
		<path fill-rule="evenodd" clip-rule="evenodd" fill="#FFFFFF" d="M381.187,98.904l-1.155-4.088l5.213-5.071l-2.891,0.81
			c-0.844,0.242-1.37,0.466-1.547,0.669c-0.188,0.214-0.228,0.545-0.124,1l-1.295,0.36l-1.014-3.56l1.331-0.388
			c0.135,0.457,0.343,0.715,0.624,0.81c0.259,0.096,0.832,0.019,1.685-0.229l7.462-2.081l0.509,1.754l-6.993,6.866l5.005-1.423
			c0.853-0.218,1.372-0.455,1.563-0.68c0.172-0.196,0.211-0.54,0.104-0.995l1.284-0.371l1.032,3.598l-1.327,0.366
			c-0.135-0.438-0.354-0.697-0.636-0.798c-0.27-0.09-0.82-0.011-1.687,0.226l-4.136,1.157c-0.857,0.237-1.378,0.462-1.566,0.688
			c-0.172,0.223-0.216,0.55-0.09,1.011L381.187,98.904L381.187,98.904z"/>
		<path fill-rule="evenodd" clip-rule="evenodd" fill="#FFFFFF" d="M381.738,82.642l0.846,1.85l-3.385,0.348L381.738,82.642
			L381.738,82.642z M385.497,85.808c0.048-0.011,0.124-0.011,0.212-0.017c1.102-0.085,1.844,0.185,2.229,0.758l1.266-0.556
			l-1.729-3.802l-1.237,0.558c0.171,0.383,0.239,0.675,0.188,0.865c-0.045,0.204-0.197,0.355-0.453,0.473
			c-0.042,0.017-0.09,0.034-0.154,0.05c-0.047,0.017-0.109,0.033-0.158,0.052l-1.599,0.246l-1.267-2.806l1.196-1.107
			c0.047-0.035,0.114-0.09,0.179-0.129c0.068-0.046,0.147-0.09,0.234-0.124c0.219-0.102,0.391-0.107,0.557-0.006
			c0.135,0.083,0.284,0.303,0.441,0.606l0.034,0.113l1.245-0.545l-2.019-4.432l-1.274,0.563c0.172,0.562-0.073,1.165-0.759,1.822
			l-0.054,0.022l-6.404,5.932l0.934,2.079L385.497,85.808L385.497,85.808z"/>
		<path fill-rule="evenodd" clip-rule="evenodd" fill="#FFFFFF" d="M363.904,159.484l2.762-3.251l7.163,1.406l-2.305-1.901
			c-0.681-0.557-1.155-0.873-1.431-0.9c-0.291-0.027-0.594,0.129-0.903,0.457l-1.026-0.85l2.401-2.844l1.065,0.881
			c-0.298,0.366-0.399,0.688-0.32,0.963c0.07,0.27,0.452,0.686,1.142,1.259l5.927,4.933l-1.172,1.399l-9.664-1.866l3.981,3.317
			c0.675,0.556,1.155,0.861,1.444,0.889c0.279,0.022,0.59-0.14,0.9-0.479l1.046,0.85l-2.43,2.863l-1.065-0.878
			c0.289-0.372,0.399-0.691,0.32-0.961c-0.07-0.283-0.461-0.693-1.142-1.271l-3.294-2.722c-0.682-0.562-1.162-0.871-1.457-0.887
			c-0.273-0.035-0.584,0.129-0.892,0.471L363.904,159.484L363.904,159.484z"/>
		<path fill-rule="evenodd" clip-rule="evenodd" fill="#FFFFFF" d="M254.451,112.838c0,34.109,27.754,61.861,61.869,61.861
			c34.117,0,61.871-27.752,61.871-61.861c0-34.122-27.754-61.883-61.871-61.883C282.205,50.956,254.451,78.716,254.451,112.838
			L254.451,112.838z M255.748,112.838c0-33.414,27.168-60.591,60.572-60.591c33.402,0,60.574,27.177,60.574,60.591
			c0,33.391-27.172,60.562-60.574,60.562C282.916,173.4,255.748,146.229,255.748,112.838L255.748,112.838z"/>
	</g>
</g>
</svg>
