<?xml version="1.0" encoding="utf-8"?>
<!-- Generator: Adobe Illustrator 16.0.0, SVG Export Plug-In . SVG Version: 6.00 Build 0)  -->
<!DOCTYPE svg PUBLIC "-//W3C//DTD SVG 1.1//EN" "http://www.w3.org/Graphics/SVG/1.1/DTD/svg11.dtd">
<svg version="1.1" id="图层_1" xmlns="http://www.w3.org/2000/svg" xmlns:xlink="http://www.w3.org/1999/xlink" x="0px" y="0px"
	 width="200px" height="200px" viewBox="0 0 200 200" enable-background="new 0 0 200 200" xml:space="preserve">
<path fill="#FFFFFF" d="M84.454,37.59c2.908-0.232,5.071-2.772,4.84-5.681l-0.838-10.522c-0.231-2.908-2.772-5.073-5.681-4.84
	c-2.908,0.231-5.075,2.773-4.842,5.681l0.838,10.521C79.002,35.657,81.546,37.823,84.454,37.59z M124.25,44.034l6.844-8.032
	c1.892-2.22,1.625-5.55-0.593-7.441c-2.22-1.89-5.548-1.627-7.437,0.592l-6.849,8.033c-1.89,2.218-1.622,5.548,0.593,7.438
	C119.025,46.52,122.356,46.253,124.25,44.034z M24.791,86.115l10.521-0.838c2.908-0.231,5.075-2.772,4.841-5.681
	c-0.231-2.908-2.773-5.073-5.681-4.84l-10.521,0.838c-2.904,0.229-5.073,2.771-4.843,5.675c0,0.002,0,0.004,0,0.006
	C19.341,84.182,21.882,86.348,24.791,86.115z M133.388,69.442c0.729,2.825,3.604,4.521,6.429,3.792l10.22-2.637
	c2.827-0.729,4.52-3.604,3.793-6.427c-0.729-2.825-3.602-4.522-6.429-3.793l-10.222,2.638
	C134.356,63.741,132.659,66.617,133.388,69.442z M46.415,51.39c2.217,1.89,5.548,1.627,7.438-0.591
	c1.894-2.219,1.627-5.548-0.591-7.441l-8.033-6.844c-2.22-1.891-5.55-1.626-7.44,0.592c-1.891,2.218-1.627,5.548,0.592,7.438
	L46.415,51.39z"/>
<path fill="#FFFFFF" d="M88.838,62.324c15.679,0.227,28.41,11.897,30.619,26.937c-3.94-0.845-7.957-1.397-12.081-1.456
	c-18.09-0.265-34.967,7.296-46.925,20.293c-2.275-4.426-3.655-9.394-3.578-14.725C57.125,75.97,71.436,62.071,88.838,62.324z"/>
<path fill="#FFFFFF" d="M60.451,114c-0.262,0-0.526-0.018-0.792-0.056c-1.911-0.256-3.575-1.433-4.457-3.147
	c-2.893-5.633-4.314-11.524-4.229-17.511c0.292-20.327,17.069-36.862,37.394-36.862c18.948,0.271,34.244,13.719,36.928,31.979
	c0.281,1.912-0.395,3.842-1.805,5.163c-1.411,1.321-3.377,1.856-5.271,1.463c-3.923-0.84-7.501-1.275-10.929-1.325l-0.823-0.006
	c-15.732,0-30.921,6.705-41.676,18.397C63.676,113.309,62.102,114,60.451,114L60.451,114z M88.746,68.224
	c-14.292,0-25.773,11.32-25.973,25.235c-0.019,1.362,0.079,2.723,0.295,4.068C75.265,87.507,90.633,81.9,106.468,81.9l0.998,0.004
	c1.185,0.017,2.379,0.071,3.593,0.161c-4.207-8.217-12.631-13.702-22.306-13.842H88.746z"/>
<path fill="#FFFFFF" d="M154.398,173.699c-6.605-0.096-12.656-2.307-17.629-5.906c-9.207,10.772-22.788,17.659-38.063,17.438
	c-15.277-0.227-28.654-7.506-37.542-18.537c-5.061,3.458-11.188,5.488-17.79,5.395c-17.035-0.248-30.639-14.252-30.392-31.287
	c0.246-17.036,14.252-30.639,31.287-30.392c2.988,0.045,5.798,0.647,8.51,1.483c1.078,0.329,2.172,0.589,3.19,1.026
	c1.733-3.277,3.898-6.271,6.288-9.066c9.17-10.711,22.679-17.527,37.883-17.307c3.901,0.057,7.642,0.677,11.251,1.596
	c4.06,1.021,7.881,2.537,11.445,4.517c8.902,4.899,16.168,12.394,20.674,21.53c3.652-1.441,7.624-2.229,11.782-2.166
	c17.031,0.245,30.639,14.249,30.39,31.287C185.438,160.344,171.43,173.947,154.398,173.699L154.398,173.699z"/>
<path fill="#FFFFFF" d="M99.43,191.132l-0.812-0.009c-14.615-0.207-28.45-6.309-38.673-16.899
	c-5.011,2.48-10.525,3.771-16.115,3.768c-10.356-0.151-19.526-4.102-26.364-11.145c-6.836-7.036-10.523-16.319-10.382-26.136
	c0.29-19.963,16.769-36.204,36.728-36.204c3.341,0.045,6.266,0.491,9.487,1.391c1.302-1.953,2.786-3.899,4.478-5.878
	C68.315,87.703,83.496,80.64,99.419,80.64l0.806,0.004c4.029,0.062,8.162,0.642,12.627,1.779c4.488,1.126,8.806,2.834,12.853,5.079
	c8.566,4.713,15.624,11.438,20.641,19.619c2.783-0.667,5.64-1.002,8.503-1.002c20.789,0.299,37.029,17.017,36.737,37.271
	c-0.292,19.968-16.768,36.213-36.73,36.213c-6.222-0.092-11.953-1.55-17.083-4.258C127.452,185.435,113.738,191.132,99.43,191.132z
	 M61.161,160.796c1.729,0,3.436,0.759,4.596,2.196c8.217,10.2,20.254,16.152,33.029,16.336l0.642,0.005
	c12.526,0,24.506-5.604,32.854-15.375c1.996-2.335,5.456-2.753,7.951-0.944c4.213,3.053,9.143,4.709,14.244,4.784h0.011
	c13.919,0,25.1-11.023,25.296-24.577c0.201-13.752-10.827-25.104-24.579-25.305h-0.023c-3.481,0-6.559,0.591-9.507,1.757
	c-2.857,1.128-6.099-0.126-7.459-2.876c-3.953-8.027-10.26-14.586-18.226-18.972c-3.159-1.751-6.532-3.085-10.038-3.963
	c-3.577-0.912-6.81-1.374-9.903-1.419l-0.636-0.005c-12.471,0-24.381,5.56-32.678,15.25c-2.345,2.742-4.161,5.352-5.557,7.987
	c-1.44,2.716-4.725,3.871-7.548,2.66c-0.508-0.222-1.05-0.357-1.592-0.509l-0.981-0.288c-2.636-0.814-4.816-1.203-6.878-1.23h-0.002
	c-13.92,0-25.103,11.029-25.298,24.579c-0.098,6.663,2.406,12.966,7.048,17.746c4.64,4.776,10.867,7.463,17.531,7.557h0.015
	c5.342,0,10.183-1.51,14.362-4.362C58.815,161.152,59.975,160.794,61.161,160.796z"/>
</svg>
